<?xml version="1.0" encoding="UTF-8"?><svg id="Layer_1" xmlns="http://www.w3.org/2000/svg" viewBox="0 0 1920 1080"><defs><style>.cls-1{fill:#1c1c1c;}</style></defs><polygon class="cls-1" points="94.778 771.667 68.111 693 138.778 335.667 281.444 311.667 364.111 723.667 285.444 710.333 260.111 540 172.111 531.667 94.778 771.667"/><polygon class="cls-1" points="402.778 737 364.111 495.667 402.778 482.333 456.111 530.333 536.111 501 584.111 627.667 513.444 627.667 512.111 581 446.778 578.333 468.111 746.333 402.778 737"/><polygon class="cls-1" points="610.778 759.667 601.444 722.333 624.111 549 693.444 558.333 734.778 577 749.444 329 824.111 345 765.444 746.333 736.111 730.333 653.444 737 610.778 759.667"/><polygon class="cls-1" points="824.111 738.333 824.111 589 852.111 510.333 990.778 510.333 1004.111 630.333 886.778 633 881.444 690.333 989.444 674.333 989.444 746.333 824.111 738.333"/><polygon class="cls-1" points="1044.111 746.333 1070.778 522.333 1117.444 510.333 1117.444 575.667 1192.111 540 1245.444 722.333 1178.778 738.333 1166.778 641 1105.444 628.333 1109.444 746.333 1044.111 746.333"/><polygon class="cls-1" points="1278.778 739.667 1321.444 523.667 1361.444 523.667 1361.444 582.333 1469.444 553 1469.444 739.667 1414.778 734.333 1400.111 651.667 1338.778 649 1344.111 739.667 1278.778 739.667"/><polygon class="cls-1" points="1508.111 711.667 1520.111 591.667 1542.778 523.667 1637.444 541.667 1620.111 631.667 1564.111 631.667 1565.444 669 1618.778 673 1614.778 717 1508.111 711.667"/><polygon class="cls-1" points="1701.444 730.333 1689.444 639.667 1781.444 655.667 1776.111 620.333 1684.111 614.333 1657.444 579.667 1781.444 459.667 1836.111 553 1746.778 544.333 1753.444 575.667 1846.778 602.333 1857.444 685 1701.444 730.333"/></svg>