<?xml version="1.0" encoding="UTF-8"?><svg id="Layer_1" xmlns="http://www.w3.org/2000/svg" viewBox="0 0 500 500"><defs><style>.cls-1{fill:#454545;}</style></defs><path class="cls-1" d="M464.997,270.743c.293-1.469-3.628-1.919-4.495-1.74-.376,2.079,4.135,3.542,4.495,1.74Z"/><path class="cls-1" d="M259.757,377.997c1.764.348,1.523-2.522,1.24-3.495-1.898-.367-2.751,3.197-1.24,3.495Z"/><path class="cls-1" d="M343.25,316.49c.76.003.892-2.266.747-2.987-1.93-.45-1.815,2.983-.747,2.987Z"/><path class="cls-1" d="M232.755,382.005c-1.613.419.59,2.507,1.242,1.992.626-.495.482-2.44-1.242-1.992Z"/><path class="cls-1" d="M221.003,372.003c-.081.953-.095,1.897.75,2.495.647-.262.515-2.279.242-2.495-.1-.079-.684.032-.992,0Z"/><path class="cls-1" d="M238.5,361.005c.522,1.25.444,1.783,1.997,1.492.124-1.26-.798-1.688-1.997-1.492Z"/><path class="cls-1" d="M275.003,362.497c.793.793,2.288-.702,1.495-1.495s-2.288.702-1.495,1.495Z"/><path class="cls-1" d="M281.75,356.99c.514-.005,1.057-1.655.747-1.988-.886-.953-2.238,2.002-.747,1.988Z"/><path class="cls-1" d="M332.258,292.995c1.062.405.887-1.345.74-1.493-.87-.87-2.552.801-.74,1.493Z"/><rect class="cls-1" x="352.003" y="320.503" width=".995" height="1.995"/><path class="cls-1" d="M350.003,323.503l.002,1.497c.723-.168,1.146-.807.992-1.497h-.995Z"/><path class="cls-1" d="M282.249,351.525c-.413-.444-1.252-2.017-1.496-2.01-.156.004-.633.836-1.093.913-.868.145-1.694-2.053-3.152.324.648,1.459,3.135,1.596,3.444,1.805.238.16-.033.782.048.944-2.197,1.966-4.045-2.566-4.507.249-.367,2.24,1.014,3.11-2.493,3.251.245-1.4,1.169-1.995.786-3.515-.411-1.629-1.2-.656-1.896-1.009-.776-.393-.024-1.568-2.388-.469-.341,1.951,2.069-.023,1.512,2.255-.425,1.737-1.906.924-2.018,1.491-.455,2.306,2.564,1.746,4.004,1.747.109,1.303.789,1.692,2,1-.138.138-.324,1.902.742,1.495,1.691-.645.341-2.133-.552-1.637.555-.471,1.28-1.609,1.669-1.86.914-.59,2.444-1.231,3.641-1.998.678-.435,2.019-1.087,2.63-1.511,1.347-.935-.473-1.026-.881-1.464Z"/><path class="cls-1" d="M486.503,276.497c-.144.133.421,2.818-1.5,2.501-.646-1.178,1.004-3.848.972-4.255-.049-.624-4.476-1.907-5.618-1.247-2.869,1.657-5.265.775-8.482,1.123-2.275.246-7.003,2.235-9.096,2.333-1.272.06-2.494-1.464-3.025.548-.875-.949-2.289-1.386-2.97-2.534-1.073-1.808-.41-3.882-1.545-5.467-1.338-.177-5.052,4.544-7.924,4.022-.357-.065-.194-1.545-1.559-1.015-.548.213-.814.887-.756,1.494-.016-.06-.754-.236-.91-.839-.06-.233-.162-4.57-.106-4.804.108-.447,3.805-3.891,5.013-3.605-.966-.674-2.075-2.533-3.02-2.978-1.578-.744-4.349.059-3.976-2.998.104-.853,1.446-1.84.934-2.714-.372-.635-5.576-3.487-6.192-5.058-1.044-.209-.826.469-.71,1.207.218,1.386,1.804,7.055,2.532,7.973,1.132,1.426,3.194,1.496,4.722,2.27.346.175,1.712.278.713,1.044-.489.374-7.012.38-7.779,1.474-.489.698-.22,4.759-.221,6.029,0,.333,0,.667,0,1-.059-.467-3.592-5.656-3.994-6.756l-10.004-1.749,9.742-4.001c.676-1.083,1.227-9.605.687-9.929l-7.456-.792-24.223-13.779c-1.043-.198-.699-.099-.508.505,1.261,3.987,2.756,7.931,3.751,12l-29.492-9.497c-.193.808.157,1.157.484,1.761,2.641,4.878,7.726,10.036,10.454,15.061l-.766,1.122-44.672-5.445,26.994,19.008c.167.677-.146.828-.476,1.26-1.648,2.156-11.904,2.856-15.134,3.866-.74.231-1.664.499-1.885,1.358,1.704.236,3.118,1.542,4.646,2.123,2.647,1.005,3.957.979,6.98,2.87,3.035,1.898,3.001,1.028,6.012,2.126,1.494.545,1.578,2.552,3.856.388-.09,2.737,2.71,2.344,4.612,3.999.545.474,3.573,3.743,3.899,4.245.706,1.087,1.793,5.517,2.071,5.69.757.471,2.56-.918,2.189,2.334-.101.881-1.031,1.666-.764,2.729,2.054.258,3.352-2.225,4.974-2.771,4.686-1.578,9.676-1.951,14.536-2.964,19.544-4.076,39.002-8.853,58.359-13.141,7.113-1.576,17.817-.825,24.654-2.846,4.793-1.417,2.398-5.596.978-4.278Z"/><path class="cls-1" d="M331.5,301.495c1.669.806,3.375-1.482,2.497-2.493-.683-.787-2.7,2.345-2.497,2.493Z"/><path class="cls-1" d="M300.245,320.495c.635-.176,1.044-1.682.753-1.993-.67-.716-4.88,1.489-.753,1.993Z"/><path class="cls-1" d="M226.746,304.013c-1.382.086-.231,2.479.504,2.477,1.404-.003,1.197-2.583-.504-2.477Z"/><path class="cls-1" d="M201.258,375.495c1.062.405.887-1.345.74-1.493-.87-.87-2.552.801-.74,1.493Z"/><path class="cls-1" d="M341.001,309.506c-.074-.078-1.21.061-2.03-.724-1.205-1.153-1.966-6.017-3.214-5.779-1.185.226.045,3.154-.764,3.994l-1.244-2.986c-1.384,2.293-2.388,4.53-3.586,6.923-.353.705.226,1.335-1.162,1.064-.518-1.906,1.737-4.721,1.864-5.802.041-.347-.282-3.954-.375-4.438-.188-.977-3.391-4.836-2.989-5.255.97-1.013,2.456,2.905,3.241,2.494.129-.777,2.245-3.048,2.247-3.246.016-1.22-2.301-.282-2.419-.342-.093-.047-1.427-1.391-1.473-1.484-.109-.22.441-.943.308-1.547-.159-.722-1.312-1.791-1.664-2.864-1.211-3.689.772-5.055-4.241-7.264-.819-.361-5.137-1.611-5.499-1.246-1.086,1.098.925,1.419.986,1.505.296.42.087,1.299-.73.987-1.449-.554-4.24-4.083-6.262-2.738-.289.193-.344.918-.63,1.104-.522.34-1.536.148-2.231.516-.67.354-2.048,2.057-2.632,1.621-.4-.299.073-2.308-.241-2.966-.535-1.124-2.632-1.694-3.021-2.524-.442-.944-.025-2.043-.511-3.009-1.267-2.515-8.195-4.949-7.501-9.979l-6.509-8.525c2.459-3.459-1.885-2.684-2.208-4.292-.163-.813,1.252-1.338,1.437-2.053.271-1.046-.879-1.723-1.204-2.648-.811-2.305-2.357-7.685-3.538-9.459-.659-.99-1.977-1.439-2.096-1.653-.162-.292-1.101-2.828-1.51-3.761-.766-1.745.551-1.975-2.593-3.379,2.966-2.325.106-1.963-.4-2.854-.44-.774-.048-3.512-1.088-5.037-.562-.825-2.497-1.321-2.915-2.714-.281-.938-.015-2.065-.335-3.164-.998-3.425-2.761-5.444-3.894-10.106-1.184-4.872-1.756-7.393-3.628-11.896-.279-.67.293-1.415.027-1.974-.491-1.029-2.109-.896-2.236-1.044-.299-.352.294-1.798.187-2.531-.347-2.378-6.251-11.585-8.002-13.902-6.499-8.597-20.747-17.976-30.065-23.937-.525-.336-2.181-1.422-2.546-1.507-.807-.188-1.865.438-2.149.206-.172-.14-1.276-2.427-2.258-3.257-.673-.57-1.569-.466-1.689-.577-.108-.099.644-1.286-.5-2.715-.919-1.147-10.165-8.471-11.182-8.888-.927-.381-1.812,1.356-3.848-1.093-4.2-5.051-5.337-4.983-10.935-8.064-1.281-.705-3.168-3.679-3.059-.191-2.788-.282-3.361-4.414-4.44-5.285-.968-.781-1.76-.542-2.056-.719-.515-.31-1.01-.652-1.5-1-8.125-5.772-16.488-10.677-25.624-15.123-1.521-.74-1.525-1.981-3.874-.88,1.227-3.3-2.258-1.693-2.896-2.077-.198-.119-.362-1.046-1.223-1.545-2.186-1.268-4.752-1.852-6.885-2.721-2.29-.932-3.507-2.919-6.495-1.66l.995-.743c-.776-2.026-4.496-1.159-4.984-1.488-7.367-4.954-17.246-8.805-25.756-12.273-1.721-.702-9.075-3.997-10.256-2.989-.129,1.03.862,1.608,1.486,2.265,2.566,2.704,11.991,11.993,14.665,13.329,1.717.858,4.666.927,5.847,2.898-2.658.206-4.959-1.628-7.384-2.361-6.583-1.99-11.15-2.123-17.861-2.639-1.421-.109-5.581-1.115-6.497-.995-.247.032-.693.486-.513.99.069.192,1.311,2.224,1.524,2.501,1.847,2.398,12.82,7.92,16.221,9.769.558.303,8.851,3.542,7.508,4.737-2.862-.12-6.479-.961-9.248-.997-4.174-.054-10.761.189-15.008.5-.544.04-1.666-.278-1.238.743,1.491,3.562,16.419,10.992,20.45,13.551.753.478,1.619.857,2.046,1.706-.308.046-.674-.01-1,0-1.999.064-3.48-.467-5.229-.521-1.728-.053-11.068-.219-11.783.257-1.952,1.3,2.956,4.884,3.412,6.114.235.635.453,1.967-.623,1.623l-69.774-22.472c-.232,1.041.548,1.136,1.137,1.608,3.279,2.62,16.555,11.593,20.003,12.997,2.297.936,5.867,1.246,8.36,1.895.299,1.401-.686,1.082-1.741.988-8.518-.757-17.892-3.553-26.574-4.43-1.219.276-6.849-.784-7.184.196-.336.985,3.598,1.925,4.151,2.837,9.435,4.207,17.812,11.004,28.343,12.409.075,1.027-1.155,1.526-.497,2.492l-32.001-.491c2.231,2.258,6.343,4.143,9.368,5.376,5.806,2.366,12.456,4.048,18.63,5.122-.339,3.191-3.861,1.275-5.749,2.497h-12.75c.054.587-.274,1.079.31,1.537,1.062.834,8.015,3.927,9.745,4.658,3.96,1.673,8.155,3.455,12.449,3.807-.065.405.097,1.39-.002,1.495-.533.566-8.262.311-10.138,1.118-.69.297-1.014.578-.861,1.377,4.234,2.036,8.126,4.706,12.157,7.099,4.492,2.667,4.87,4.632,8.59,7.41,3.37,2.517,9.916,5.436,12.78,8.255.479.471-.077,1.189.419,1.997,1.368,2.229,9.12,7.63,11.586,9.472.53.396,1.772.689,1.879.862.266.43-.025,1.415.192,2.04,1.068,3.08,42.095,25.556,47.541,29.846,1.015,3.137,1.97,1.974,4.345,1.029,1.069,1.74.703,3.897,1.24,5.516.272.82,2.518,6.491,2.74,6.782.648.85,1.95.293,3.045.891,1.231.673,1.279,1.431,2.034,2.031.455.362,1.372.213,1.449.287.096.091-.527,1.726-.419,2.608.153,1.245,4.63,11.837,5.48,13.571.855,1.744,2.704,3.934,3.34,5.16.845,1.629.716,4.339,1.352,6.148.52,1.477,1.781,2.397,2.124,3.376,2.191,6.249,2.209,14.987,3.835,21.665.479,1.969,2.455,2.844,2.711,4.333.277,1.61-1.64,8.866-.89,9.6.136.133,3.468,1.037,3.658,1.031,1.334-.039,3.119-1.511,4.807-1.001-.154,4.481-2.071,8.703-2.563,13.188l-29.177,31.293c-.699,1.866,2.53,2.693,1.738,3.513-.561.58-6.588,1.069-5.501,4.51l-2.243-1.503c-.933,1.524-2.622,2.454-3.448,4.051-1.065,2.058-.973,4.526-3.848,5.704-1.025.42-2.339-.563-2.955,1.003-.397,1.009,1.396.477.992,1.484-1.373,2.388-3.167,1.391-5.119,1.885-.934.236-6.618,1.63-6.843,1.905-.519.631.817,3.525-.009,4.206-1.458,1.203-8.32,2.346-9,3.302-.213.299.309,1.581.36,2.216.038.467-.401,1.107-.318,1.465.151.649,2.333.832,1.432,1.774-.271.283-6.924,1.543-6.496,3.504l2.491.243c-.661,1.703-8.829,6.946-9.007,7.507-.928,2.925,3.537-.486,4.512.255.06,1.724-5.352,4.745-5.511,5.244-.64,2.007,1.675.717,2.501,2.001l-8.49,8.245c1.658.015,3.249-1.233,4.657-2.088,4.544-2.759,4.623-3.952,9.961-6.038,5.609-2.192,15.024-7.018,20.628-7.875.295-.045.823-.132.751.254-.859.943-4.452,2.469-2.756,3.736,2.709-.795,5.627-1.011,8.375-1.617,11.253-2.484,22.949-4.283,34.019-7.482,6.236-1.802,9.3-3.471,14.504-4.329-.109.085-.165.223-.136.44,3.159-.022,6.339.049,9.497.005,1.493-.021,3.011.069,4.5,0,1.212-.056,2.36-.49,2.5-.5.166-.012.335.014.5,0,10.662-.906,20.108-3.437,30.5-5.5,2.002-.397,4.314-.566,6.5-1,2.863-.569,6.783-1.046,9.415-1.835.532-.159,2.273-.753,1.092-1.422-1.9-1.076-4.308,1.339-5.783,1.105-1.179-.187-.9-4.676-4.221-3.346-.388.995,1.537,2.812.993,3.497-.112.141-.849-.57-1.493-.282-.535.24-.784,1.147-1.003,1.282-1.19.738-2.099.27-3,.5-.323-.036-.691.054-1,0,.269-1.32,3.269-1.178,3.488-1.523,1.618-2.547-3.808-1.27-3.985-1.479-1.092-1.293,2.577-2.109,1.77-3.988-.066-.153-.951-1-1.023-1.001-.514-.008-2.665,5.216-5.25,1.49l2.998-2.497-3.498.997c.015-1.535,2.145-1.214,1.497-3.497-1.586-.277-1.998.694-2.632,1.863l-3.855.884c1.991-1.463,2.115-4.015,4.994-3.252v-1.496c-2.909-.214-5.02,1.191-3.498-2.498.846-.096.409,1.131,1.304,1.43.395.132,2.095.152,2.188.064,1.011-.955-1.358-1.559-.996-2.242,3.701-1.1,1.779-4.554,1.998-4.751.957-.861,1.018,1.017,1.252,1.013.773-.013,1.046-.777,1.63-.9,4.201-.881,3.871-2.055,6.76-3.243.747-.307,1.747.429,2.353-.632-.022-1.407-3.127-.62-4.221-.762-1.173-.153-1.883-1.574-3.774-.484.07-2.483,1.847-1.848,1.997-1.998.974-.971-.843-1.477-.89-1.578-.626-1.337,2.88-2.741,2.883-3.17-3.438-2.94.686-2.742,1.771-3.738.521-.479.643-1.894.774-1.984.097-.067.998.623,1.477.275.426-.31,1.889-4.123,2.77-4.296.235-.046,2.772,1.887,3.993-.997.29-.685-.683-1.267-.654-1.762.037-.647,2.167-1.771,2.307-2.571.197-1.123-2.409-4.195,2.571-4.182-2.178-3.187.586-1.143,2.242-.978,1.308.131,4.638-.391,3.254-2.016-.173-.204-3.996,1.43-4.987-.752,1.46-2.052,2.717-2.021,4.987-1.252-.258-.866.719-5.792,1.009-6.001.227-.164,1.482.444,1.995.503,3.057.353,2.796-1.404,0-1,.244-2.516,2.619-.609,3.417-1.061.198-.112.651-1.858,1.326-1.853.122,0,2.108.836,2.257.914.408.214,2.057,2.647,2.752,1.503l-2.252-2.003c.841-1.17,1.036-1.645,2.754-1.555,1.994.104,1.529,2.025,2.491,1.552.69-.339.51-1.939,1.5-1.495,2.774,4.781,1.868,2.093,4.548,1.979,1.112-.047,1.706.993,2.379.941.85-.066,1.649-1.474,3.08-1.474,1.527,0,2.127,1.452,2.486,1.439.276-.01.76-.804,1.477-.845.64-.036,1.493.455,2.477.408,3.113-.148,5.973-.919,9.013-1.486.886.245-.287,3.378,2.44,3.36,3.655-.024,3.155-1.264,4.659-3.271.367-.49,1.12-.669,1.409-1.091.588-.861.511-2.125,1.06-2.939,2.14-3.172,4.376,1.882,6.467,1.476,1.458-.283-.22-1.575-.16-2.162.028-.275.82-2.363,1.415-2.336l1.499,2.997c1.154-2.333-1.387-3.602-.991-5.997l1.99,2.496c.811-2.27,1.852-5.04,4.505-3.491.407,1.618-1.069.591-1.545,1.286-1.494,2.18-.301,3.394,2.047,2.207-.125,1.207-.153,1.927,1.245,1.495,1.19-.368.212-1.241-.134-2.033-.026-.138-.063-.292-.111-.462.268-.217.381-1.174,1.23-1,1.003.205,1.314,2.775,2.055,2.995,1.023.303,1.811-1.35,3.353-.928,1.902.52,3.175,5.693,4.317-.873l-.213-3.189,1.244,5.78c2.169-.779,2.059.705,2.323.746.917.144,6.294-1.438,6.688-1.032l.005,2.502c3.01.573,2.569-1.306,3.112-1.858.372-.378,1.623-.125,1.862-.944.173-.594-.544-1.964-.515-2.943.028-.976,1.311-2.964,1.04-3.25ZM115.87,397.187c-.211,1.07-10.664,9.003-12.87,8.808,2.072-2.678,5.3-4.191,7.512-6.733,1.151-1.323,1.689-3.078,2.518-3.982.297-.324,4.23-2.996,4.469-2.776-2.342,1.817-1.319,3.103-1.629,4.682ZM216.506,193.504l.489,3.996c-1.736-.744-.826-2.683-.489-3.996ZM211.998,191.507c.999,1.092-2.392,1.718-2.998,1.488.138-1.371,1.914-2.673,2.998-1.488ZM205.991,192.003c.116.109.081.983.491,1.296.115.088,3.414-.584,1.032.964-2.97,1.93-3.091-3.727-1.523-2.259ZM205.5,246.505c-.168.723-.807,1.146-1.497.992v-.995s1.497.002,1.497.002ZM206.997,388.497h-.995s.002-1.497.002-1.497c.723.168,1.146.807.992,1.497ZM199.505,188.5c.723.168,1.146.807.992,1.497h-.995s.002-1.497.002-1.497ZM192.505,194.003h.489c.234,1.065.86,1.552-.489,1.997v-1.997ZM181.495,178l-1.004,2.496c-2.48.001-.175-2.391,1.004-2.496ZM177.928,191.92c.252-.217,1.087-3.851,1.818-3.909.194-.016,1.347,1.281,2.428.948.772-.237,1.04-1.842,1.607-1.955.488-.097,1.038.732,1.454.758.942.059,2.341-.714,3.301-.048.681.473.474,3.315.961,4.281-1.667.445-.744-1.264-1-1.498-.478-.436-2.585,1.152-3.243,1.259-.628.102-1.52-.478-2.418-.203-1.003.308-1.467,2.963-2.085,2.937-.145-.006-.622-.842-1.09-.924-.718-.126-1.27.926-1.414.926-.197,0-.983-2.401-2.751-1.495-.459-1.876,1.779-.517,2.432-1.078ZM175.255,177.005c1.499-.39,2.186,1.179.99,1.49-1.499.39-2.186-1.179-.99-1.49ZM171.002,152.502c.119.124-.075,1.512-.007,1.995-.823.215-.227-.872-.814-1.012-.655-.157-1.483.083-2.181.012-.757-1.501,2.88-1.122,3.002-.995ZM169.49,169.75c0,1.384-2.243.008-1.487-.747.287-.287,1.488.416,1.487.747ZM167.011,121.506l.979.744c-.53.773-1.071.868-1.988.745l1.009-1.489ZM167.497,162.997h-.995c-.162-.737.22-1.04.75-1.495l.245,1.495ZM163.003,121.505l2.495-.002v.995c-.217.204-2.835-.313-2.495-.992ZM164.995,149.745c-.557,1.774-5.28-.134-5.994-1.239,1.405-.557,6.813-1.37,5.994,1.239ZM159.744,158.469c.854-.007,1.354-.797,2.278-.72,2.147.177-.051,2.769.474,3.25.25.229,1.663-.484,1.501.496-1.914.918-2.369-.649-3.253-2.001l-3.241,2.004c-.185-.19,2.326-3.684-.746-2.991-.812.183-.594,2.4-.76,2.99-2.073-.551-2.507-2.171-3.744.494-2.532-1.164-5.942-2.301-8.752-2.494-.071-1.164-.17-.884.738-.999,1.336-.168,2.911.15,4.261.001.405,2.951,4.183,1.054,1-.5.051-.011.164-.508.631-.413.813.165,1.699,1.631,2.867,1.415l.502-1.497-1.997-.008c.658-3.297,2.325-.418,3.361-.103.243.074,4.626,1.076,4.88,1.074ZM146,167c-.11.031-.098.806-1.006.776-3.33-.111-6.354-2.654-9.727-2.249-.619.074-1.184.777-1.516.782-.227.003-2.741-1.357-2.743-1.559-.002-.205.984-.793.984-1,0-1.166-1.978-.343-2.349-.4-1.14-.174-8.475-3.161-8.646-3.605-.381-.993.67-.764,1.268-.767,1.949-.01,8.375,1.036,10.346,1.662,1.514.481,2.736,1.718,4.002,2.047.955.248,2.122-.25,2.308-.138.244.147.361,1.636,1.423,1.88,1.113.256,4.894-1.024,5.658,1.071,1.391.262,3.573.553,4.005,2.245-1.338.46-2.383-1.205-4.005-.745ZM149.003,170.498h-3c-.384-1.591,2.157-1.03,2.994-1.496l.006,1.496ZM151.729,168.985c.418-.015.674.497.771.515l-.5.995c1.185.045,1.722.34,1.5-.995.595.293,1.004.48,1.013,1.251.005.456-1.337-.149-1.017.994.154.551,1.196-.007,1.002.503-.859,2.257-3.749-1.896-4.246.751-1.966-.922.315-3.973,1.476-4.013ZM147.259,148.365c-.325-.012-.779-.871-1.409-.782-.811.115-2.61,1.703-4.347.912l3.783-2.002c.552-.279,2.996-.214,3.212.01.383.397-.805,1.877-1.239,1.862ZM152.5,133.005c-.633,1.673-2.602,1.197-2.496-.503l2.496.503ZM119.999,104.002c3.561-.64,3.773,1.311,5.001,3.498.878.151,3.876.621,3.497,1.997-2.434.374-2.473-.174-3.497-1.997-1.276-.219-3.291.736-3.498.504-.084-.094.108-1.146-.091-1.661-.365-.947-1.958-.602-1.413-2.34ZM117.003,105.002c.284-.317,1.479.596,1.996.503-.767,2.117-2.998.615-1.996-.503ZM111.164,114.04c-.965-.517-2.731.24-3.073-1.366-.787-3.701,6.001-1.59,7.852-.367,4.407,2.914,7.574,4.38,11.897,6.862,3.004,1.725,6.054,4.318,8.846,6.176,3.201,2.131,7.45,3.039,10.811,5.402-2.355,2.88-1.896.014-2.767-.246-1.046-.312-1.635,1.025-2.477,1.016-.35-.003-.159-1.005-.54-1.03-.133-.009-3.088.806-1.972-.495.477-.556,2.82-1.098-.473-1.512-2.54-.32-3.092,1.154-2.771-2.479-2.485,1.318-3.481-.44-5.36-.894-.905-.219-2.444-.387-3.802-.695-4.034-.917-9.06-1.511-12.956-3.041-.737-.29-1.671-1.24-2.108-1.892-.987-1.473-.238-3.378-2.96-2.416-.884.312-.458,1.524-1.306,1.434-.32-1.677.584-2.513,1.747-3.496,1.316,2.932,4.421.651,1.411-.962ZM139.878,134.396c-.527.499-2.33.627-2.375-.391l2.247-1.495c.879.444.659,1.385.129,1.887ZM105.005,156c.61.292,2.86,3.086,2.493,3.497-.747.835-2.657-2.915-2.493-3.497ZM102.005,150.5c.814.36,1.654,1.098,1.49,2-.814-.36-1.654-1.098-1.49-2ZM93.503,193.997v-.995s1.497.002,1.497.002c-.168.723-.807,1.146-1.497.992ZM97.998,194.997c-.333.309-1.982-.233-1.988-.747-.015-1.491,2.94-.139,1.988.747ZM100.131,193.639c1.871.221,3.644-.299,5.495-.314.653-.005,1.098-.445,1.374.669l-7.497.503c-.219-.167-.498-.991.629-.858ZM106.002,205.747c.205-.376,1.834-.926,1.995-.745.904,1.019-.877,2.523-1.995.745ZM109.269,130.443c-.746-.475-1.654.202-1.767.065-.152-.185-1.113-4.206-.949-4.69.357-1.056,2.288-1.038,3.12-.742.648.231.815,1.156,1.375,1.625.782.654,2.287.26,1.959,2.302l2.036-.784c5.874,2.72,11.684,5.757,17.491,8.494,5.802,2.734,11.912,5.503,17.966,8.286.828.38,3.618.727,3.497,2.497-1.087-.356-2.299-1.108-3.332-1.683-.254-.141-.129-.796-.165-.815-.257-.133-5.012-.537-5.758-.541-1.026-.006-2.647.655-2.735.547-.099-.123.151-1.203-.494-1.758-.947-.815-3.183-.16-3.762-2.239l.247,1.985c-2.043.54-1.712-1.754-2.739-1.911-.905-.138-1.387,1.487-1.507,1.414-.436-.265-.544-.992-.926-1.319-3.547-3.035-4.503-.999-8.408-2.741-2.208-.985-5.2-1.419-7.903-2.203-1.127-.327-2.255-.15-3.387-.613-2.486-1.016-2.306-4.193-3.858-5.18ZM110.25,205.99c-1.31-.001-.538-3.729,1.25-.495-.65-.23-1.168.495-1.25.495ZM115.995,171.5c-3.525-1.231-1.211-3.064-2.995-5.495,3.71.262,1.666,1.683,1.664,2.74-.002.987,1.552,1.625,1.331,2.755ZM116.739,147.006c-.857-.341-.728.726-.868.811-2.26,1.38-.657-1.343-1.069-1.837-.568-.682-3.157-1.066-3.302-3.475,4.865,1.044,9.433,3.018,14.11,4.635,5.641,1.95,11.012,3.603,16.527,5.97,1.812.778.878,1.813,3.858.389l.503,2.498c-.859.805-7.186-3.657-6.022.746.138.521,1.965.155,2.024,1.253-3.368.518-1.815-3.649-6-2.5l.997-1.992c-1.356-.274-2.302,1.122-3.622.913-.207-.033-2.77-.82-2.875-.929-.077-.079,1-2.014-.25-1.978-.153.004-.742,1.233-2.379.921-1.466-.279-2.067-1.82-2.891-2.196-1.061-.484-5.405-1.132-7.448-2.017-.544-.236-.932-1.067-1.295-1.211ZM119.997,176.497h-.995s.002-1.497.002-1.497c.723.168,1.146.807.992,1.497ZM120.505,177l1.995,2.495c-1.353.108-2.195-1.299-1.995-2.495ZM135.997,196.498c-.968,1.04-3.298-3.072-3.746-3.501-1.025-.98-5.514-3.265-5.711-3.539-.062-.086.506-.853.232-1.436-.277-.591-1.192-.888-1.605-1.85-.115-.267-.845-3.617-.169-3.932.61-.356,3.495.876,3.492,1.511l-1.246,1.25c-.271,1.999,3.03-.107,3.253,1.257.221,1.355-1.917,1.155-1.998,1.248-1.317,1.518,2.929,2.689,3.486,3.259.549.561.552,1.535,1.002,1.998.556.572,4.118,2.544,3.01,3.735ZM143.497,357.503l-2.995,2.995c.069-1.255,1.752-2.931,2.995-2.995ZM143.838,373.088c-4.361,3.169-8.802,5.826-13.18,8.579-2.108,1.325-5.074,5.205-7.406,6.835-.473.331-3.061,1.848-2.76.243.434-2.312,7.991-4.99,9.791-7.712.839-1.27.576-2.659,1.2-3.3.819-.841,5.495-1.99,6.866-2.634.822-.386,6.38-3.866,6.646-3.598.247,1.072-.541,1.14-1.157,1.588ZM148.497,353.257c.258,1.059-2.257,1.779-2.997,1.738.518-.931,2.458-3.95,2.997-1.738ZM161.632,366.382c-1.586.281-3.173-.032-4.762.238-2.722.463-6.006,2.949-8.229,3.284-2.094.315-1.576-1.294-.482-2.241,1.234-1.068,9.944-2.918,12.471-3.782,1.311-.448,2.577-1.658,3.643-1.857.861-.161,5.734-.288,5.718.728-.008.456-7.407,3.463-8.358,3.632ZM171.755,341.505c-.098.195-1.992,2.095-2.753,3.246-.3.453-1.496,1.316-1.494,1.5.002.197,1.193.881,1.397,1.596.279.978-.169,2.413.198,3.056.154.269,1.354.438,1.684,1.09.353.698-.357,1.532-.284,2.243.084.823.976,1.257,1.021,2.004.017.282-.684.23-.811.444-.329.555-.403,1.637-.993,1.757-.388.079-1.132-.437-1.868-.332-1.618.231-3.712,1.107-5.351,1.387.069-.707,1.983-1.927,1.99-2.245.005-.21-.898-1.041-1.425-.662-.065.047-.122,1.763-1.058.91-.3-.274-1.031-3.524-1.546-4.216-.599-.805-1.462-.588-1.816-.926-.739-.706-1.384-4.069-3.637-4.605,2.594-1.614,3.347-4.821,5.741-6.749,3.074-2.475,7.86-3.937,11.745-4-.36,1.22-.25,3.526-.742,4.503ZM174.744,396c-.224.009-.535-.039-.832-.061,1.484-.213,3.137-.366,5.089-.439l1,.5c-1.744.036-3.51-.071-5.256,0ZM180.998,256.502c-1.89-.063-.904-2.435-3.45-.952-.849,1.976,1.838,2.8,1.918,4.167.051.88-.744,2.182-.866,3.178-.124,1.017.469,2.087.08,2.979-.394.904-1.355.518-1.9,1.137-.852.968-1.088,2.514-2.757,3.76-2.927,2.186-2.74-1.33-1.89-3.39.83-2.01,5.821-4.742-.63-3.383-.243-1.093.579-2.249.492-3.23-.101-1.136-1.676-1.939-1.511-3.499.175-1.65,2.613-1.607.452-2.977-.746-.473-1.315.18-1.481-1.019-.331-2.397.768-4.638,2.043-6.514-4.426-1.764-2.797-1.396-2.111-4.622.194-.91-.019-1.901.237-2.761.415-1.393,5.895-7.713,2.633-8.235-1.496-.239-3.198,5.067-4.062,5.34-1.67.527-3.856-1.476-3.485-3.51.451-2.469,3.22-4.474,3.28-4.765.143-.698-1.196-1.409-.99-1.692.082-.113,2.609-.796,1.497-2.009-.407-.444-1.766,1.89-3.479-.274-.955-1.207-.508-3.075-1.742-4.255-1.347-1.287-5.533-2.674-7.601-4.649-1.378-1.316-2.905-4.938-3.148-5.125-.63-.484-1.551.262-2.205.159-.685-.108-7.109-5.348-7.819-6.113-1-1.078-1.387-2.58-2.16-3.594-.412-.54-2.621-1.089-1.597-2.149,1.456.448,2.357,2.508,2.538,2.534,1.156.167,3.355-2.557,2.217.959.159.153.868-.327,1.23-.234,4.721,1.211.797,2.101.778,2.487-.019.388,1.459,1.404,2.205,1.286.263-.042,3.101-3.65,1.789-4.535,2.572,1.88,3.228-1.372,3.844-1.514,1.587-.366,9.301.474,7.059-3.407-.038-.066-1.188-.535-1.407-.581v-.5c1.534-.133,3.633-.18,3.951-2.314.327-2.197-1.977-.379-2.329-.314-1.369.252-2.784.114-4.119.633l.998,1.995h-1c-1.433-.963-.487-2.52-2.254-2.011-.175.05-.218.988-.562,1.038-.801.116-1.633-.504-2.359-.384-.72.119-1.622,1.795-2.573-.172-.279-.577.496-1.442-.502-1.961-.922.511,0,1.502-1.068,1.887-2.399.865-4.806-.381-7.179.6,2.013-5.36-2.786-2.752-2.999-2.994-.065-.075.025-1.287-.285-1.963-.342-.746-2.166-2.955-1.714-3.54,1.924,2.028,2.82.036,4.749-.04,1.41-.056,5.05.131,6.476.33.591.082,1.127.823,1.984.734.753-.078,1.315-1.043,1.937-.94,1.561.258,2.506,2.465,4.1-1.089,2.53,5.277,4.573-2.446.754-.996l.495-2.494-2.91-.419-2.087,3.411c-.33-1.591,2.611-4.98-.345-4.889-1.578.048-1.963,1.684-1.158,2.887h-3c.367-.956,3.646-2.278,1.163-2.946-.826-.222-1.64.42-2.331.305-4.476-.748-8.527-.359-13.108-1.331-.846-.179-1.846.04-2.721-.026l.996-3.995-2.495.25c1.588-2.942,4.094-2.529,7.262-2.27,2.633.215,7.09,1.484,9.95,2.05,2.478.49,5.005.935,7.615,1.277,1.052.138,6.099-.247,6.422-.774.503-.819.366-2.581,1.249-3.53-1.339-.976-3.34,4.036-4.496,1.237-.37-.895.914-.635,1.005-1.075.211-1.03-1.006-3.836.491-4.422.944-.37,1.114,1.184,1,1.755-1.532.32-1.673.382-.006,1.499l.506-1.499c.631-.118,2.137-.576,2.518-.298.502.365.506,1.853,1.239,2.294l.746-1.999,3,.508c-1.823,4.328,2.704,2.745,5.497,3.001-.459,1.671-3.111.043-3.998,1.002-1.204,1.301,2.343.528,1.495,1.99-3.27-.694-5.349-.272-8.495.505-.259,1.478,1.044,1.16,1.646,1.501,1.848,1.049-2.509,1.059-2.146,2.739.342,1.58,4.764-.253,6,.255-.069-.538.125-1.2,0-1.678-.086-.328-2.513-.531.494-1.32.152,1.118.665,3.096,1.282,3.972.865,1.228,3.733,3.167,4.69,4.31.725.866,2.08,3.061.544,3.218l-1.513-.739c.278,1.486,1.78,2.577,1.917,4.114.099,1.116-.608,1.59-.691,2.371-.198,1.867,3.485,2.757,1.67,6.919-.311.712-1.119.699-1.269.95-.308.518-.044,1.544-.378,2.375-.353.878-2.285,1.178-.487,2.512.795-.375,5.526-2.774,5.719-3.034.346-.468-.721-2.234-.481-2.461.07-.066.986.064,1.457-.278.631-.459.756-1.376,1.264-1.76,2.514-1.902,6.847-.754,9.781-1.964.108.087-1.504,2.895.745,1.99,1.433-.577-.503-2.484.995-1.988.865.286,1.84,1.349,2.512,1.991l.252-.995h.49c.152,2.579,4.848-1.767,7.006-.998-.814,2.277-.373,3.964,1.99,4.745-.562.869-1.13.953-1.99,1.25.109.96-.072,2.024-.005,3-1.629-1.805-2.054-.19-2.755-.173-.716.018-2.487-2.153-.74,1.667-5.167-.012-2.666,6.583-6.498,8.286-.29.129-5.566-2.82-5.507-1.024.057,1.73,5.574,4.096-2.492,2.246v2.999c3.117-.31,4.35-1.504,3.495,2.501-.846.344-1.928-1.007-2.25-.99-1.189.062-1.103,2.548,1.025,2.476.265,1.916-1.264,1.273-1.713,1.557-.077.049.444.972-.007,1.222-1.251.695-4.105.471-4.978,3.064-.64,1.903,2.942,1.544,4.433,1.926.032.392-.592,3.562-.737,3.763-.553.765-4.024.593-4.054,2.704-.038,2.651,1.679.276,2.54.263,1.686-.026,1.222,3.157,4.262-.72l3.478-1.767,1,3.501c-.761-.107-2.94-2.922-3.49-1.245-.508,1.552,1.472.971,1.012,2.479-.3.984-3.01.729-3.549,1.462-.706.961-.446,2.783-1.956,3.553,1.906,2.428,1.414.2,2.066-.183.936-.551,2.715,1.681,3.72-.998l6.199-2.821c-.432,1.487-2.961,2.345-3.292,2.727-.516.597,1.017,2.488-.182,3.309-.532.364-5.096-.028-6.021-.282-.276.297.941,2.516.043,3.701-.432.57-1.423.19-1.553.3-.073.062.805,1.049.042,1.75-1.239,1.138-3.205-.191-2.538,2.75ZM143.003,180.003c.287-.287,1.488.416,1.487.747,0,1.384-2.243.008-1.487-.747ZM196.753,264.497c-1.884-3.07.295-4.797,3.247-5.493-.098,1.806-2.341,1.895-2.793,2.483-.368.478.565,2.438-.455,3.01ZM194.505,379.5l-.002-2.497c.316.025.936-.067.995,0,.296.334-.044,2.496-.992,2.497ZM195,227.005c-1.184,1.458-1.188,1.528,0,2.99l-1.498.008c.155-1.694-.849-3.52,1.498-2.998ZM195.302,250.552c.671-.527.756-2.38,1.475-2.542.14-.031,2.591.925,2.668,1.046.193.307,0,.989.056,1.436-1.816-.129-3.263,1.019-4.77,1.501-.625.2-1.334.828-1.726-.251-.425-1.171,1.469-.54,2.297-1.191ZM190.005,222.5l-.002-1.497h.995c.154.69-.269,1.329-.992,1.497ZM186.997,260.243c-1.959.828-2.573,1.16-3.992,2.757.445-.581.486-3.246.588-3.384.177-.242.913-.27,1.136-.616.698-1.081.419-5.589,2.77-2.006-4.572.813-.317,2.399-.502,3.249ZM192.645,255.317c-.378.113-1.103-.367-1.141-.319-.206.258.582,1.449-.984,1.786-1.046.225-1.812-.242-2.51-1.034,3.091-1.176,5.615-2.265,8.987-2.248.381,1.713-1.649.791-2.725,1.023-.615.132-1.044.616-1.628.791ZM195.743,388.998c-1.157.286-1.603-2.012-1.228-2.483,1.295-1.628,3.851,1.834,1.228,2.483ZM198.003,391.002c.121-.135,2.406.905,2.494,1.007,1.217,1.411-3.491,1.155-2.494-1.007ZM203,379.5c.024-.329-.009-.668,0-.997-1.18-.207-2.353.562-3.5-.003-.268-1.251.429-1.058,1.501-1.002-.169-2.368-1.329-1.07-2.001-.998-.489.052-1.007-.033-1.498.004.322-.751-.636-3.383-.504-3.501.248-.221,6.259-1.496,6.519-1.289.961.77-.381,2.908,1.986,2.29-3.182,2.493-.01,3.758-.011,4.245-.002.994-2.088,1.087-2.491,1.25ZM215.755,385.004c.944-.278,2.262.072,2.243,1.239-.36,1.599-4.37-.612-2.243-1.239ZM214.909,196.205c-.291.872-1.279.53-1.75.953-.388.349-.469,1.028-.88,1.351-1.981,1.554-4.771-.424-7.278.489l.002-1.996c1.977,1.099,2.113-.389,2.975-.721,1.084-.417,2.831,1.293,2.524-2.284,1.481-.516.96,1.762,2.24,1.5.923-.189,1.25-2.443,2.01-2.995.047.556.224,3.501.157,3.703ZM214.505,192c-.204-.65.749-2.514.99-1.997.136.892-.029,1.753-.99,1.997ZM216.997,360.997h-.995v-1.995h.995v1.995ZM216.243,309.996c-1.456.52-.649-2.087,1.257-1.491-.111.428-.965,1.386-1.257,1.491ZM244,292c.255.399.553.293.53,1.2-.03,1.208-.505,4.387-2.033,3.296.961-1.331-.287-.857-.424-1.042-.19-.258,1.535-3.045,1.927-3.453ZM239.503,297.503l1.492-.503-.501,1.999c-.284.226-1.287-.908-.991-1.496ZM244.5,300.505c2.877,2.754-2.681,2.997-4.607,3.639-.564.188-.883.734-1.153.85-1.409.607.419-2.408-1.484-1.992-1.12,1.505-2.658,3.165-4.637,3.427-1.178.156-1.707-1.055-2.84-.959-.308.026-.296.873-.624,1.028-3.704,1.752-4.67,1.152-7.827,1.65-.623.098-1.326,1.198-2.327.85.279-3.228,1.608-2.498,3.28-3.453,1.053-.602,1.56-1.745,2.12-2.035,1.103-.572,2.394.058,3.078-.256,1.558-.716,1.312-2.57,2.767,1.244.363-.16,1.632-1.864,1.748-2.253.073-.245-2.212-.681-1.493-2.242,1.322-.421,1.333,1.385,1.509,1.493,1.007.615,2.127-2.284,3.486-1.992l.258,2.503,4.242-2.003c.065,1.264-.577,3.113,1.254,2.508.886-.293.596-4.337,2.887-4.392,2.157-.052,3.296,1.3,3.36,3.379l-2.997-.992ZM248.995,300l-1.485-1.25c.945-1.369,1.679-.184,1.485,1.25ZM253.495,297.499c-1.457-.798-1.554,1.105-2.992,1.001.251-.6-.585-1.924-.509-1.993.09-.082,2.149-.869,2.27-.866.447.011,1.572,1.344,1.231,1.858ZM254.503,246.503h.995v1.495h-.995v-1.495ZM254.5,296.495c.714-.938-.094-3.137,1.745-2.49,1.742.613-1.259,2.963-1.745,2.49ZM261.778,290.913c.564.024.923-.365,1.222-.413.214-.035.596.197.5.5-1.393.93-2.832,1.174-4.502.997-.406-2.589,1.093-1.157,2.781-1.084ZM263.412,294.867c-1.274.281-2.302.542-3.412.133v-.5c.605.182,5.026-1.875,5.005-.745-.025,1.368-.901.96-1.592,1.112ZM266.002,293.497c-.029-2.43,2.994-.471,4.495-.992-.182,1.028-4.315,1.142-4.495.992ZM268,286.995c.003-1.212,2.163-.884,2.498-.488,1.19,1.408-1.657.681-2.498.488ZM336.003,310.747l2.495-.242c.55.25-1.876,1.672-2.495.242Z"/><path class="cls-1" d="M179.5,206.505c-2.784,2.447-.582,3.44.762,5.988,1.511.859,3.558-4.799,3.559-5.25,0-.199-2.181-3.111-2.354-3.209-.596-.336-1.295.742-1.792.83-.588.104-1.936-.6-2.171-.362-.769.779.827,2.419,1.997,2.003Z"/><path class="cls-1" d="M178.092,248.737c-.132,6.495,4.019,2.414,2.908,1.265-.076-.079-2.691.179-1.501-.995.052-.052.983.01,1.447-.286,2.993-1.911-2.756-4.885-2.855.017Z"/><path class="cls-1" d="M199.009,200.751c-3.348,1.563-.278,3.878,2.991,2.749-.206-1.825-.69-3.824-2.991-2.749Z"/><path class="cls-1" d="M173.044,261.692c.224.943,2.232.618,2.953.806.266-4.23-2.766-5.578-2.953-.806Z"/><path class="cls-1" d="M165.997,188.503l-4.208.5c-1.46,2.795,4.961,2.419,4.208-.5Z"/><path class="cls-1" d="M179.503,215.497c.422.445,4.909-1.37,3.994-2.995-2.017.766-4.749.303-3.994,2.995Z"/><path class="cls-1" d="M189.255,214.495c2.171.647,1.793-2.611,1.236-2.991-1.622-1.107-2.975,2.473-1.236,2.991Z"/><path class="cls-1" d="M177.006,234.002c-.316,1.233-1.16,2.715.737,2.995,1.81-1.271,1.784-3.212-.737-2.995Z"/><path class="cls-1" d="M156.503,191.997c.419.419,3.468-.58,3.487-1.247.051-1.721-5.119-.384-3.487,1.247Z"/><path class="cls-1" d="M159.257,182.002c-.841.319-1.7,3.601-.506,3.488.388-.037,3.036-3.518.506-3.488Z"/><path class="cls-1" d="M177.501,241.996c.472.667,2.627.368,2.989-.746l-2.228-1.251c-.597.12-1.045,1.596-.761,1.997Z"/><path class="cls-1" d="M152.759,178.506c.074.112,1.906,1.876,2.238,1.491.833-3.397-3.528-3.453-2.238-1.491Z"/><path class="cls-1" d="M177.5,243.5c.33-2.087-2.506-.931-1.487.491.103.144.803-.093.987.009,4.923,2.737,3.488-2.04.5-.5Z"/><path class="cls-1" d="M169.5,211.5c-1.505-1.17-.379-2.18-.478-3.18-.026-.264-1.643-.496-1.022-1.82,1.844-.346,1.24-1.329,1.772-1.957.697-.824,2.473-.51,2.226-2.04-2.126.918-3.213-.391-4.733-.527-1.772-.157.074,2.29.041,3.763-.084.159-.18.405-.305.761-.819.06-2.555.169-3.225.035-.546-.109-.086-1.175-.338-1.442-.132-.14-3.149-.941-3.701-1.075-.328-.079-.655,1.557-.743,1.98-1.6-2.153-3.532.577-4.763.386-.839-.13-1.048-2.535-2.032-2.836-.85-.26-1.895.381-1.693,1.188.038.15,1.332,2.054,1.671,2.599,1.223,1.967.472,1.277,1.052,2.635.983,2.301,4.09,2.57,5.769.771.254-1.027-1.676-1.331-1.996-1.995-.062-.128,1.645-.576,1.246-2.245,2.598.897,1.278,4.741,1.471,5.009.643.892,2.593.307,2.784.487.232.219-.594,6.573,2.247.996,1.719,4.495,1.912.686,2.883-.376.256-.28.778-.052.868-.119,1.303,1.348,3.474,1.143,3-.998-.596.092-1.509-.151-2-.002ZM165.506,210.499c-1.098-1.478.049-2.935.992-1.996.33.328-.137,1.997-.992,1.996Z"/><path class="cls-1" d="M187.003,203.003c-.09-.09-1.934.048-2.498-.503-.699,2.941,4.033,2.028,2.498.503Z"/><path class="cls-1" d="M192.866,201.615c.461-.214,1.078-.555,1.134-1.11-3.126-.767-4.348,2.599-1.134,1.11Z"/><path class="cls-1" d="M178.497,220.504c-.184-.238-2.233-.422-2.494.243.43,2.484,3.219.696,2.494-.243Z"/><path class="cls-1" d="M190.497,247.497c.364-.363-.192-2.233-1.24-1.995-1.515.343.183,3.047,1.24,1.995Z"/><path class="cls-1" d="M179.003,221.243c.339,1.545,2.712.167,1.994-.739-.333-.421-2.281-.569-1.994.739Z"/><path class="cls-1" d="M163,197.5c4.764.247,3.962-2.183,1-1.5-1.021.235-2.162-.08-1.997,1.497.329.019.665-.015.997.003Z"/><path class="cls-1" d="M193.003,210.497c1.965,0,1.991-1.984,0-1.995v1.995Z"/><path class="cls-1" d="M162.502,202.997c.333.309,1.982-.233,1.988-.747.015-1.491-2.94-.139-1.988.747Z"/><path class="cls-1" d="M197.497,200.002c-.472-.535-2.031,1.017-1.495,1.495.843.751,2.25-.638,1.495-1.495Z"/><path class="cls-1" d="M172.742,199.505c-1.055-.378-.91,1.309-.74,1.493.485.523,2.283-.94.74-1.493Z"/><path class="cls-1" d="M168.997,192.497l-.002-1.497c-.961.52-1.816.278-1.492,1.497h1.495Z"/><path class="cls-1" d="M169.742,185.505c-1.055-.378-.91,1.309-.74,1.493.485.523,2.283-.94.74-1.493Z"/><path class="cls-1" d="M165.51,194.25c0,.331,1.201,1.034,1.487.747.755-.755-1.487-2.131-1.487-.747Z"/><rect class="cls-1" x="195.003" y="205.003" width=".995" height="1.495"/><rect class="cls-1" x="149.003" y="206.003" width=".995" height="1.495"/><rect class="cls-1" x="175.503" y="256.003" width="1.495" height=".995"/><path class="cls-1" d="M233.003,302.502v1.996s1.497-.003,1.497-.003c-.348-.974-.018-2.202-1.497-1.993Z"/><path class="cls-1" d="M139.99,153.75c0-.331-1.201-1.034-1.487-.747-.755.755,1.487,2.131,1.487.747Z"/><path class="cls-1" d="M146,166.5c-.058-.308.087-.762,0-1-1.041-.196-2.404.068-3.505-.245l3.505,1.245Z"/><path class="cls-1" d="M154.758,159.495c1.055.378.91-1.309.74-1.493-.485-.523-2.283.94-.74,1.493Z"/></svg>