<?xml version="1.0" encoding="UTF-8"?><svg id="Layer_2" xmlns="http://www.w3.org/2000/svg" viewBox="0 0 500 500"><defs><style>.cls-1{fill:#454545;}</style></defs><path class="cls-1" d="M162.922,390.398c-.211.195-.297,1.758-1.256.977-.622-.506.453-1.667-2.804-1.543-1.618.062-1.027.724-1.821,1.205-2.762,1.675-3.112.041-5.106.332-.74.108-1.31.975-1.954.92-1.557-.133-2.796-1.432-5.579-.896-1.803.348-2.838,2.477-.341,2.838,4.688.679,7.272.226,11.841-.07,1.866-.121,9.564.466,10.207-2.129.389-1.569-1.758-2.954-3.187-1.637Z"/><path class="cls-1" d="M86.537,94.915c-.713.792.322,5.964.55,6.186.098.096,1.092-.062,1.496,0-.013-6.021-1.066-12.021-1.499-18.02-.068-.946.381-2.444-.5-3.003-.017-.164.007-.335,0-.5-.013-.296.052-.953-.003-.997-1.306-1.053-.88,1.41-.998,1.998-.479,2.378-2.099,10.976-.948,12.713.464.7,1.724.987,1.903,1.623Z"/><path class="cls-1" d="M185.43,385.874c-.802-.007-1.618-1.369-2.747-1.001l-1.007,2.502c-1.45-.316-5.474.951-3.512,2.26,1.423.95,3.034-.855,4.513-1.259.607-.166,1.581.076,2.51-.228.848-.278,7.057-2.259,5.496-3.774-1.186-1.151-4.627,1.505-5.252,1.499Z"/><path class="cls-1" d="M180.179,363.005c.026.124,1.611,1.794,1.711,1.871,1.652,1.277,3.1-.478,2.763-2.232-.801-1.562-2.282.377-3.23-.793l.753-.505c-1.135-2.22-2.401-.274-1.997,1.659Z"/><path class="cls-1" d="M470.453,264.253c1.538-1.57-3.135-6.152-4.278-3.506-.507,1.175,3.256,4.549,4.278,3.506Z"/><path class="cls-1" d="M312.604,306.75c2.289.704,1.604-3.019,1.144-3.395-2.005-1.643-3.346,2.717-1.144,3.395Z"/><path class="cls-1" d="M304.851,292.836c-.806,1.33,1.933,3.924,2.441,3.449.645-.604-.232-3.753-.503-4-.15-.137-1.867.433-1.938.551Z"/><path class="cls-1" d="M183.837,349.487c-1.371,1.573.264,2.465,2.118,1.378,2.446-1.433-.152-3.634-2.118-1.378Z"/><path class="cls-1" d="M165.506,202.594c3.171.271.444-3.64-1.845-2.898-.028.726.107,1.858.625,2.373.245.244.88.495,1.22.524Z"/><path class="cls-1" d="M191.918,367.863c.781,1.735,4.177-.089,3.259-1.486-.559-.851-4.019-.203-3.259,1.486Z"/><path class="cls-1" d="M168.165,391.877c1.292-.103,3.368.567,4-.992-1.82-.919-3.506-1.826-4,.992Z"/><path class="cls-1" d="M315.14,298.841c-3.733,1.085,4.519,3.573,2.623.499-.151-.246-2.098-.651-2.623-.499Z"/><path class="cls-1" d="M302.301,300.295l-.506,2.495c.665-.111,1.984.234,2.441-.046,1.135-.697-.323-3.029-1.935-2.449Z"/><path class="cls-1" d="M305.543,296.8l-.745,2.988c2.646-.089,3.462-1.911.745-2.988Z"/><path class="cls-1" d="M310.556,294.29c-1.763.398,1.121,3.735,1.744,2.996.142-1.287.173-3.428-1.744-2.996Z"/><path class="cls-1" d="M306.794,303.295c-1.404-.99-3.025,1.998-1.243,2.496,2,.559,1.816-2.092,1.243-2.496Z"/><path class="cls-1" d="M305.793,290.278c.636-.504.738-2.952-1.243-2.494-1.519.351.428,3.14,1.243,2.494Z"/><path class="cls-1" d="M185.435,360.844c1.488.385,2.245-1.505,1.744-1.995-1.174-1.149-3.52,1.535-1.744,1.995Z"/><path class="cls-1" d="M200.44,362.347c.862-.339.82-1.667.752-2.496-1.956-.223-2.979,3.371-.752,2.496Z"/><path class="cls-1" d="M164.905,382.365c1.308-.352.711-2.45-.991-1.992-1.308.352-.711,2.45.991,1.992Z"/><path class="cls-1" d="M150.391,390.373c1.308-.352.711-2.45-.991-1.992-1.308.352-.711,2.45.991,1.992Z"/><path class="cls-1" d="M199.195,338.826c.578.563,2.573-1.099,2.5-1.994-1.012-.528-3.12,1.39-2.5,1.994Z"/><path class="cls-1" d="M311.051,299.3c-.518-.001-1.057,1.681-.748,1.989,1.294,1.294,2.687-1.985.748-1.989Z"/><path class="cls-1" d="M195.194,342.086c-.532,1.476,1.117,1.619,1.494,1.244.66-.657-.873-2.969-1.494-1.244Z"/><path class="cls-1" d="M309.55,301.802c-.371.004-1.869,1.677-.493,1.989,1.392.316,1.474-2.001.493-1.989Z"/><path class="cls-1" d="M328.822,231.979c-1.067,2.702,3.439.099,2.496-.752-.831-.068-2.156-.11-2.496.752Z"/><path class="cls-1" d="M181.431,209.198c.424.067.292-.927.242-.987-.322-.38-3.828-1.643-4.496-2.512-.924.944,3.831,3.092,4.254,3.499Z"/><path class="cls-1" d="M189.181,347.334c.31-.333-.233-1.984-.748-1.989-1.492-.015-.139,2.943.748,1.989Z"/><path class="cls-1" d="M161.154,195.192c-.794-.794-2.29.703-1.496,1.496s2.29-.703,1.496-1.496Z"/><path class="cls-1" d="M310.31,311.051c0,1.239,2.997.135,1.989-.748-.356-.312-1.99.244-1.989.748Z"/><path class="cls-1" d="M208.705,322.81c.467.473,1.681-.921,1.997-1.494-.927-.479-2.612.87-1.997,1.494Z"/><path class="cls-1" d="M247.237,176.173h-1.496s.003,1.499.003,1.499c.961-.52,1.818-.279,1.494-1.499Z"/><path class="cls-1" d="M309.297,286.275c.756-.756-1.488-2.133-1.489-.748,0,.331,1.202,1.035,1.489.748Z"/><rect class="cls-1" x="291.785" y="304.798" width="1.496" height=".996"/><path class="cls-1" d="M334.073,229.212c.75,0,.75-1.481,0-1.481s-.75,1.481,0,1.481Z"/><path class="cls-1" d="M278.773,308.802l.002,1.499c.724-.168,1.147-.808.993-1.499h-.996Z"/><path class="cls-1" d="M248.243,309.797h.996s-.245-1.496-.245-1.496c-.53.456-.913.759-.751,1.496Z"/><path class="cls-1" d="M145.638,388.879h-.996s.002,1.499.002,1.499c.724-.168,1.147-.808.993-1.499Z"/><path class="cls-1" d="M346.589,177.685c-2.558-.116-1.94,5.176-.263,3.988.443-.314,1.738-3.921.263-3.988Z"/><path class="cls-1" d="M348.841,161.659c-.071,1.647.111,2.917,1.752,3.488.707-.033,1.051-2.309.674-2.918-.166-.267-2.259-.742-2.425-.57Z"/><path class="cls-1" d="M138.13,243.733c1.11-.854-.002-2.908-1.492-2.999-1.088,1.136.523,3.744,1.492,2.999Z"/><path class="cls-1" d="M345.077,183.18c-1.227-.277-1.565,2.173-1.241,2.497,1.143,1.145,3.16-2.064,1.241-2.497Z"/><path class="cls-1" d="M346.338,173.671v2.998c2.104.092,2.104-3.089,0-2.998Z"/><path class="cls-1" d="M175.675,366.354l1.492-1.258.002-.741c-1.904-.129-2.076.38-1.494,1.999Z"/><path class="cls-1" d="M202.192,221.724c-.186-.209-4.239-2.578-5.001-2.507l4.261,3.494c.843.347,1.011-.682.74-.987Z"/><path class="cls-1" d="M196.188,217.718l-7.506-4.006,6.765,4.994c.857.367.99-.734.74-.987Z"/><path class="cls-1" d="M247.237,183.674c.018-.33-.013-.666.003-.998.051-1.113.233-2.649-.996-3.002-.028.33.021.67-.005,1-.077.987.051,2.011.003,3h.996Z"/><path class="cls-1" d="M253.248,245.235c.478.492,2.153-.585,2.49-1.249-1.168-2.016-3.34.374-2.49,1.249Z"/><path class="cls-1" d="M277.026,229.225c-1.276.292-.958,3.019.988,2.495,1.567-.422.072-2.737-.988-2.495Z"/><path class="cls-1" d="M81.207,128.246c6.406,12.957,14.358,23.16,23.394,34.162.669.814,1.849,2.231,3.003,2.246.564-.425-4.844-8.188-5.522-9.235-6.036-9.318-12.312-19.887-15.998-30.799-.047-1.162.067-2.344,0-3.503-.191-3.301-.472-1.253-1.754-2.49-.434-.419-.418-1.25-.739-1.675-.334-.442-.969-.305-1.001-.347-.992-1.317,1.255-1.043,1.988.008.366-2.738-.773-3.86-3.498-3.505.09,1.008-.137,6.644-.504,7.011-.265.265-2.739-1.113-3.001.258-.081.426,3.114,6.818,3.633,7.869Z"/><path class="cls-1" d="M65.32,134.132c-1.215.263-1.853,3.21-.5,3.498,1.808.385,2.502-3.933.5-3.498Z"/><path class="cls-1" d="M70.326,142.135c1.484.335,1.189-2.174.74-2.496-1.111-.798-2.303,2.144-.74,2.496Z"/><path class="cls-1" d="M61.802,134.135c-1.056-.378-.911,1.31-.741,1.494.485.524,2.285-.941.741-1.494Z"/><rect class="cls-1" x="65.066" y="142.641" width=".996" height="1.496"/><path class="cls-1" d="M113.362,171.664l.245-1.496h-.996c-.162.738.221,1.041.751,1.496Z"/><path class="cls-1" d="M299.793,286.28c1.014-.392,1.907,1.489,2.249,1.489,1.212,0,.107-2.403.719-2.759.794-.462,2.387-.094,2.535-.233.224-.21.071-3.608-.458-4.297-1.713-2.228-2.562.771-2.796.783-.224.011-2.303-3.503-1.504-3.992l1.504,1.49c3.355-2.375-.885-5.156,1.752-8.495-2.688-.479-3.104,2.804-6.003,1.992.01-.864,1.02-.283,1.292-1.463.698-3.035-4.696-2.875-5.693-4.142-.332-.421.076-1.696-.578-2.195-.269-.205-5.727-.09-6.76-.222-.868-.111-1.572-.847-2.115-.902-.858-.087-1.193,1.196-2.161.92v-2.498c.876-.078,2.613,1.379,2.517-.261-.119-2.046-1.367-3.476-3.011-4.495,1.73-2.737,3.241-.104,4.688-.222.351-.029,4.675-4.74,2.688-5.68-2.953-1.398-3.659,4.331-5.914.918-1.691-2.559,1.573-2.428,2.809-3.248,1.157-.768,4.689-5.694,6.206-6.252.641-.236,1.7.603,2.301-.253,1.049-1.493-1.258-2.957-.77-3.53,1.691-.02,3.927,4.424,4.239,4.449.787.062,2.676-1.939,3.248-2.15.844-.31,1.6.265,3.372-.696,1.333-.723,3.111-3.02,4.114-3.371,4.343-1.519,9.753-.892,14.07-1.965.413-.103,4.132-1.566,4.275-1.747.686-.864-2.701-4.519,2.472-5.315.242-.037.68.586.97.572.14-.007,2.551-.81,2.665-.891.408-.291.441-1.968,1.078-2.682.647-.726,1.874-.624,2.496-1.505,1.482-2.097-.359-5.37.147-7.854.318-1.563,2.025-3.229,2.657-4.857,1.378-3.55,2.283-8.105,3.38-11.625.502-1.61,2.775-7.073,2.843-8.184.073-1.206-.863-2.819-.485-4.227-3.424.067-1.936,3.427-2.38,5.355-.133.577-2.202,5.186-3.12,4.149.027-6.847,1.653-13.542,2.494-20.273.365-2.922.019-7.379.516-9.994.206-1.084,1.739-2.296,2.255-3.751,1.183-3.336,1.515-6.99,2.36-10.152.268-1.005,1.558-1.884,1.848-2.667.313-.846-1.644-.715-.965-2.205.544.087,1.41-.351,1.49.335.15,1.271.792,2.595.813,2.927.038.605-1.169,2.426-1.168,3.592.001,1.321,1.376,1.995,1.376,2.912,0,1.184-2.294,1.629-1.049,3.399,1.612,2.291,2.986-2.195,3.323-3.625,1.041-4.426,1.634-11.531,2.211-16.307,1.171-9.697,1.878-19.55,2.505-29.271l-1.658,1.131c-4.354,11.585-9.711,22.849-14.094,34.411-.439,1.159-1.074,4.823-1.262,4.999-.123.115-1.155.046-1.527-.225-.764-.558-.526-10.084-.423-11.949.391-7.056.766-11.252.43-18.588-.068-1.481.543-9.665-.723-9.761-2.187-.165-4.94,5.737-5.952,7.548-3.044,5.447-7.266,12.766-9.686,18.341-.551,1.27-3.323,10.624-3.888,10.616-1.884-1.935-1.553-4.748-2.364-7.135-.875-2.576-3.165-6.933-4.463-9.55-.357-.721-2.42-5.565-3.423-4.826l-12.524,45.545c-4.749-.568-5.977-5.006-8.737-8.027-.725-.794-1.801-1.18-2.536-1.969-1.304-1.399-5.302-6.32-6.617-7.026-2.195-1.178-4.275,3.24-5.009,4.881l-3.361,26.168c-.389.71-2.878-.635-3.606-.924-4.423-1.757-8.711-4.065-13.065-5.997-2.144-1.337-6.026,6.74-6.056,7.637-.033.979.749,2.415.883,3.585.505,4.407,1.114,8.794,1.558,13.201-3.302-.215-21.91-3.847-23.543-2.771-.501.33-.559.858-.395,1.397l3.92,15.386-20.182.986c-1.104,1.264-1.186,3.221-.336,4.523l-.5,2.002c-.114.046-.342.904-.73.889-.399-.015-1.221-1.156-2.125-1.3-1.263-.202-3.72.87-5.233.649-.891-.13-1.836-1.077-2.179-1.078-.424,0-1.229,1.121-2.097,1.254-5.47.838-9.582,1.546-15.131,2.87-5.493,1.31-6.142.898-11.027,4.488-2.237,1.644-1.008,1.145-4.002,2.505-.778.353-1.323,1.667-2.519,2.032-.751.23-1.615-.213-2.031-.028-.728.324-1.067,1.838-1.684,2.272-.908.639-1.982.267-2.778.725-.424.244-.731,1.252-1.652,1.851-5.269,3.428-12.501,2.276-16.138,6.384-1.711,1.933-2.197,5.53-5.243,5.512-1.135-1.865,3.071-5.904,1.421-6.931-2.733-1.702-2.753,2.62-4.422,3.43-.288-2.521,2.327-4.324,2.795-6.481.395-1.82-.467-2.891-.226-4.164.198-1.047,1.676-1.838,1.377-3.016-.217-.855-1.767-1.523-2.141-2.343-.705-1.547-1.023-3.955-1.513-5.518-.213-.679-.83-1.233-1.293-1.759-.24-1.604,1.081.359,1.75-.738,1.206-1.976-2.578-2.268-4.261-2.51-.22-2.185,1.188-2.706,2.469-3.809.384-.331.473-1.048.616-1.153.313-.23,2.072,1.368,1.432-.791-.417-1.408-5.1.085-6.265-.248-1.065-2.739,1.936-1.712,3.476-2.03,1.569-.325,3.065-1.286,4.776-1.229,3.853-5.545-7.129-1.342-7.5-1.75-.74-.813,3.85-4.96,4.51-5.244,3.614-1.556,9.163-3.115,13.228-3.284,5.128-.213,10.88,1.031,16.066,1.047,5.589-1.939-2.294-3.638-4.131-4.426-3.528-1.513-7.738-3.293-11.109-4.906-2.101-1.005-3.716-3.991-6.283-3.698-.705.081-1.264.808-2.05.972-4.04.844-2.223-1.256-2.802-1.904-.15-.169-1.088-.083-1.647-.589-1.529-1.382-4.097-5.595-5.81-7.22-1.277-1.211-2.943-2.664-4.208-3.79-1.225-1.091-4.311-2.643-5.145-3.639-.685-.818-.08-1.773-.152-1.83-.189-.151-.744.061-.981-.025-.663-.239-1.241-.595-2.002-.5-1.144-.657-3.77-2.453-4.804-2.51-1.612-.089-1.799,1.611-3.407,1.519-1.014-.058-1.871-.991-2.782-1.278-6.277-1.98-12.591-6.501-18.221-10.329-7.285-4.953-13.926-9.741-19.806-16.207-.756-.832-1.988-.54-2.662-1.838-.768-1.478-.29-4.554-.437-4.792-.347-.562-2.937-1.025-2.966-1.383-.057-.704.575-1.594.522-2.447-.092-1.494-1.834-4.048-.987-6.282l1.997.005c.47,1.352-.928.977-1.252,1.476-1.18,1.82.391,1.277,1.073,1.701.241.15.268.781.44.831,2.102.609,1.781-3.443,2.246-4.014,1.075-1.321,1.416,2.312,1.498,2.505-3.324.927-1.421,4.342.5,1.001.307.362,2.822,1.81,3.247,2.51.545.901-.047,2.206.486,3.017.225.343,1.756.706,2.553,1.45,3.796,3.542,9.033,10.846,12.517,15.01,3.273,3.911,8.223,7.123,12.242,10.266,1.849,1.446,8.028,7.182,9.787,7.289,1.822.111,2.345-1.375.977-2.525-.672-.565-2.061-.556-2.524-1.479-.372-.742-.088-1.751-.509-2.494-.312-.552-5.487-4.995-6.445-6.067-8.715-9.755-19.942-21.708-25.203-33.354-.495-1.096-2.157-2.023-2.441-3.122-.285-1.103.779-1.457.809-2.258.053-1.439-1.737-2.057.511-4.496-.298-1.53-3.818.875-1.948-3.46,2.791-6.469,5.55,4.933,7.165,6.237.622.502,1.993,1.038,1.793-.284-.337-2.227-2.808-5.593-3.66-7.859-1.243-3.306-5.186-20.994-5.977-21.803-.367-.376-1.351-.392-1.849-.89-.977-.98-2.737-4.711-3.925-2.372-.476.936-1.014,5.56-1.106,6.902-.423,6.186.02,12.563-.509,18.761-4.549-.761-6.272-6.601-8.788-9.975-1.406-1.885-3.047-3.064-4.422-4.587-.624-.691-.611-2.709-2.299-2.45-.395,4.297.669,8.52.994,12.765.61,7.975.708,16.072,2.061,23.965.248,1.448,1.536,4.072,1.453,5.521-.008.142-1.763.638-1.009,2.29l-26.521-18.014,17.511,34.029c-5.35.262-9.567-3.091-14.388-4.876-3.456-1.279-8.131-2.958-11.638-3.875-1.304-.341-3.064-1.352-3.999.003,3.554,4.612,6.91,9.429,10.524,13.99,2.285,2.883,6.276,5.189,6.486,9.274-4.773-.903-10.479-2.721-15.273-2.999-.855-.049-3.567-.256-3.237,1.239,5.327,4.727,10.184,10.723,16.483,14.052.782,1.075,2.439,1.959,3.22,2.786,2.277,2.408.069,2.67-1.999,2.878-5.525.556-11.264.142-16.702,1.309,1.048,2.787,13.309,6.562,14.008,8.014-2.228,3.124-6.551,1.216-7.503,5.243l16.012,9.025c.66.903-4.875,5.245-5.013,5.768-.124.467-.162.931.321,1.281.514.372,3.662,1.746,3.693,1.953.005.035-.588-.073-.5.495.629.095,1.428-.117,2.002.005,3.814.814,7.588,2.118,11.511,2.508-.478,1.286-5.233,3.537-4.271,5.015,2.803,2.301,21.038,8.835,22.043,10.487,1.314,2.159-1.729,8.402-1.217,10.202.408,1.436,1.968.044,2.956.532,3.201,1.582.441,9.744,1.078,10.728.176.273,1.747.303,2.189,1.063.438.753.01,2.335.715,2.787.73.468,2.668-.126,3.017,1.014.567,1.851-4.255,5.668,4.02,4.715-.452,1.235-1.438,6.264-.451,6.96.634.447,3.396-.845,4.454-.46-.402,6.415-1.882,8.237,6.004,7.512.287.259-2.588,4.636-1.242,7.5.945,2.012,2.331.02,3.412.108.125.01,2.253.823,2.329.923.244.321-2.709,6.56.369,7.408,1.485.409,2.785-1.103,3.612.378l-1.966,6.204c2.142-1.482,4.154-4.087,6.999-4.001.226.202-1.252,2.738-1.517,3.121-.919,1.333-2.913,3.859-3.987,5.133-.44.523-3.604,2.148-2.499,3.251,1.013,1.012,4.025-2.399,4.832-2.92,1.426-.92,11.974-7.325,12.679-6.584.12.873-.06,1.56-.39,2.358-.878,2.127-7.406,11.468-9.146,13.769-.604.8-4.793,3.921-3.977,4.885.102.121,1.941-.103,2.003,1.002-1.101-.456-5.781.617-4.981,1.961.139.234,1.888.243,1.476,1.544-3.367-.734-2.056,1.11-3.201,2.05-.589.483-1.742.419-2.569.938-.702.441-3.103,2.774-1.879,3.515.388.235,2.361,1.422,2.501,1.459,1.022.271,1.533-.907,2.396-.942,1.114-.044,3.542,1.86,5.756.491-.445,5.146,1.474,4.853,2.753.5,1.794,4.483-2.259,5.127-5.75,4.004,1.668,3.556.288,1.76-1.11,2.111-.954.239-1.904,1.422-3.396.894.628-3.44-1.522-1.239-3.027-2.235-.86-.569-.648-4.572-3.493-3.043-.97.521-.796,1.919-1.094,2.164-.511.419-2.202-.206-2.837,1.419-1.039,2.658,2.696-.086,2.94.192l.005,1.497c-3.811-.666-2.544.845-3.109,1.4-.25.245-1.058-.015-1.284.187-1.33,1.186.82,7.844-3.117,6.923l1.499-3c-2.475-.359-1.786.296-2.5,1.999-.286.683-1.112,2.018-.945,2.715.341,1.422,2.796.152,2.944,1.283-.76-.067-3.113,1.282-3.482,1.004-.128-.097-.427-2.511-1.519-2.499l1.496-3.503c-1.587.171-1.586,1.494-1.997,2.002-.4.495-1.412.515-1.53,1.778-.133,1.428,1.313,1.768,1.533,2.992.453,2.524-1.945,3.476-3.504,4.995-1.458,1.421-2.259,3.629-5.001,3.749-.193-.848-.447-1.617-.507-2.503,2.048.479,3.432-4.358,1.758-3.5-.772.639-1.133,1.811-1.758,2.499-.382.42-2.187,2.471-2.355,2.512-1.991.48-6.96.238-9.405.493-3.744.392-7.541.944-11.261,1.505-.452,1.678,1.522,1.994,1.499,3.493-2.305.339-4.686,1.778-6.902,2.361-1.54.405-3.489.368-5.212.794-.953.236-8.163,1.633-6.903,3.35.182.249,6.22,1.299,5.001,3-.211.295-4.443,2.161-5.18,2.584-2.122,1.217-2.734,1.69-5.174,2.834-8.328,3.904,1.1,2.194,2.518,2.68.566.194,1.387,1.351,1.112,1.934-.506,1.073-10.196,5.996-11.927,7.006-.25.146-.291.576-.395.642-.497.316-3.161,1.031-.726,1.352,3.453.456,6.373-1.826,9.765-1.504.484,2.601-2.021,3.411-3.489,4.787-.469.44-.459,1.169-.516,1.216-.77.647-6.294,3.132-5.002,4.502.798.846,5.201-3.373,6.003-4.002,1.308-1.024,2.785-1.866,3.973-2.783,1.015-.784,1.396-2.591,3.529-2.722.82,2.384-6.777,7.181-5.501,8.507.142.147,1.36-.144,1.502.003,1.31,1.354-7.958,7.802-8.005,10.006.724.657,8.424-5.08,10.385-5.434,1.499-.271,2.15,1.155,3.625.436-2.099,2.458-4.42,4.78-6.747,7.024-.536.517-4.228,2.813-2.036,2.961,3.604-1.977,6.899-4.461,10.339-6.682,5.551-3.583,11.684-8.449,18.345-9.695,2.867-.536,1.815.606,2.611,1.143.843.569,6.224-1.874,7.888-2.143,10.736-1.738,21.628-3.661,32.296-5.741,11.213-2.186,23.777-6.948,35.153-7.383,4.521-.173,4.617,1.357,8.615-.997,3.191-1.879,1.785,1.123,2.146,1.486.255.257,6.274.409,7.22.542,1.154.162,5.128,2.235,5.784.208.649-2.009-5.095-3.097-6.502-2.753.786-3.122,2.392-1.766,3.488-2.234.472-.202,1.043-1.254,1.267-1.257.355-.004.83,1.695,2.262,1.305,3.65-.992.304-3.636.49-3.81,1.103-.348,1.581,1.309,2.244,1.357.596.043,2.709-1.525,3.76-1.368l-1-1.991c3.103.963,5.395.296,8.002-1.508-.294,4.341,6.761,1.271,6.427-1.16-.026-.187-1.658-1.909-.166-1.832.212.011.501,1.127,2.263.807,2.374-.431,2.201-2.1,2.493-2.318.179-.134,1.726.111,1.991-.763.645-2.125-2.963-2.588-2.491.262-1.645-.089-3.225.272-4.877-.375-.198-.078-2.417-1.632-2.495-1.763-.302-.506-.086-2.233-.899-2.371-.534-.09-3.066,2.194-3.739-1.495,2.799.795,2.336-1.051,3.51-1.738.923-.541,3.152-.724,4.396-1.116.742-.234,2.492-1.596,3.097-1.151.11.081.136,1.278.453,1.673.467.582,1.811.281,2.055,1.329-1.018.331-1.126.549-2.499.001.083.531-.151,1.287-.032,1.709.06.211,3.573,2.219,3.791,2.201.911-.077,1.866-2.957,2.377-3.278.589-.37,1.748.011,2.423-.83.391-.488,1.507-4.901.944-5.307-2.569-.408-1.989,1.693-2.547,2.599-.318.517-.764.49-.955.764-.809,1.157.053,2.506-2.5,1.14.008-.057-.57-.258.027-1.154,1.416-2.124,6.865-5.028-.027-4.857.739-1.302,2.257-2.809,3.003-3.999.017,1.113-.258,2.329.464,3.313.103.141,3.104,1.222,3.277,1.196,1.309-.197-.136-2.325.316-2.954.134-.186,1.865-.437,2.512-1.291.516-.682.008-1.435.219-1.781.323-.532,3.53-2.801,3.974-3.494.785-1.227-.387-2.684-.167-4.119.141-.923,4.52-6.167.923-5.123-1.963.57-.888,2.351-2.506,2.239.095-.93.393-3.726,1.285-3.948,1.008-.25,2.966,1.905,2.216-1.549,1.476-.473,2.044,1.371,3.265,1.514,2.721.319.788-2.214,1.709-3.666.343-.541,3.527-2.472,3.525-3.109,0-.251-1.419-.901-1.472-1.979-.085-1.722,2.199-5.684,1.986-7.78,1.461.612.795,2.518,1.369,3.881.718,1.705,3.004,1.673.129,3.883-.3,1.348,2.619,1.773,3.284.775.48-.719-.064-2.167.465-3.037.301-.495,1.482-.585,1.714-1.334.281-.909-.626-1.543.041-2.167h2.502c-.655,2.018.076,3.687-.104,4.702-.18,1.018-1.84,1.123-1.922,1.581-.618,3.469,3.632-.219,4.256-1.8.463-1.174.271-2.275.275-3.48.097-.106,2.319.292,2.676.48.785.413-.326,1.936,1.324,1.516-.477-1.212-.211-1.529.502-2.494-1.446.679-6.677-3.551-6.003-4.5,1.817-.493,2.861-2.359,4.501-3.268-.028-2.169-2.673-.397-3-.748-.6-.643.696-2.281.859-2.898.143-.539-.241-1.191-.079-1.622.658-1.752,2.432.44,3.718-.487-.188-1.866-2.061-1.495-.892-3.625.247-.45,4.409-4.245,4.723-4.305.563-.107,1.811.883,2.936.965,1.928.14,7.789-1.093,9.726-1.814,1.266-.471,3.096-3.446,4.268-3.232,2.132.388-1.499,4.142.52,5.005,1.634.349,2.036-3.781,3.002-4,1.255-.147,1.613,1.909,2.221,2.243.37.203,1.098-.26,1.63-.109.726.206,2.004,1.437,2.859.829.24-.171.287-1.695.611-1.891,2.714-1.643,1.071,2.999,4.185,2.98,2.45-.016,2.134-2.726,4.25-3.049-.667,1.801-1.807,2.931.332,4.424,2.922-.014,5.616.805,8.233,1.825,1.985-.458,2.918-1.596,5.284-1.712,1.193-.058,2.385.663,3.319.405,1.19-.329,1.458-2.651,2.597-2.439,1.363.254-.078,2.33.46,3.026.359.465,3.348,1.123,3.978.932,1.476-.446-.478-3.684,2.148-4.422l2.433,1.96.763-2.49c1.255-.279,2.161.879,3.284.995,2.096.217,1.989-.977,3.242-1.721.722-.428,1.849-.209,2.511-.991.581-.686.767-3.15.979-3.287,2.068-1.331.99,2.669,2.651,2.426.165-.024,2.674-1.449,2.879-1.667.359-.381-.065-1.599.743-1.748.841-.155,1.807.813,2.702.252,1.833-1.148.89-3.577,1.525-5.279,8.441,1.347-1.197-6.678-.009-8.008ZM327.237,160.306c.152-.658-.389-1.464-.284-2.263.285-2.176,1.318-3.746.865-5.396-.087-.317-.411-.661-.5-1.001-.214-.81-.124-2.082-.5-3,1.361.254,3.939-.425,4.499-1.762.626-1.496-2.624.16-1.999-1.742,5.725-1.106,4.091.951,4.101,4.752.022,8.839-.683,10.638-4.302,18.314-1.11,2.355-2.013,4.925-3.297,7.218-2.534-.813-1.378-2.801-1.515-4.018-.091-.812-.457-1.638-.49-2.245.942-.707.392-2.402.5-3.503.42-4.277,2.553-3.756,2.923-5.354ZM304.831,164.865c-.577-.733-2.608-.629-.805-1.731.282-.173,2.519-1.374,2.666-1.429,1.534-.576,3.796-1.483,4.477.336,1.783,4.76-1.269,10.949-3.068,15.457-.046.115-.713.112-.797.519-.371,1.8.058,3.675-1.488,5.454-4.574-.82-1.997-1.876-2.009-3.044-.007-.67-.845-1.147-.93-1.602-.099-.525.901-1.317.972-2.396.056-.853-.458-1.682-.435-2.521.022-.809.408-4.068.31-4.462-.194-.777-1.567-.624-1.428-1.03.474-1.385,4.408-1.173,2.537-3.55ZM226.222,203.194c-.74-2.539-.069-2.663,2.497-2.497.567.496-1.937,3.061-2.497,2.497ZM73.065,160.657c.215.153.614,1.872-.244,1.991l-1.246-1.249c-.509-.863,1.113-1.011,1.491-.742ZM74.852,168.133c-3.142-1.122-6.746-2.413-9.79-3.724-1.142-.492-8.018-3.358-8.286-3.725-1.348-1.846,2.064-1.68,1.779-3.529-5.231-.153-3.686-2.592-5.505-6.004,2.11.176,5.699-.973,6.003,1.994h-2.748c-.834.103.176,2.189,1.006,2.501.887.389.717-1.022,1.001-1.027,2.241-.039,3.345,1.973,2.744,4.034-.501-.009-1.004-.005-1.502-.003-.208,3.334-.109,2.022,1.502,2.505.432.129.756.748,1.501.496l-1.001-1.497c.137-.248.427-.972.5-1.001.315-.126,1.365.147,1.504-.003.169-.182-1.488-3.962,1.997-2.998-1.552,4.911,1.616,2.433,2.795,3.97.496.77.064,1.374-.29,2.034-.084.157-1.689.857-.999,1.499,1.092,1.014,1.557-1.815,2.5-.498.217.816.677,1.917,1.503,2.289.696.313,1.154-1.205,2-.783-1.146,3.78.4,1.849,1.856,1.6,1.049-.179,2.098-.123,3.149-.099-1.402,2.128,1.064,1.573,2.5,2.746-2.174,2.113-3.965-.151-5.723-.778ZM85.081,172.421c-1.03-.562-1.48-1.85-3.504-1.257l.758-3.509c.793.145,4.226,3.959,4.239,4.262.013.305-.715.929-1.493.504ZM90.087,334.819c.168-.616,1.259-2.6,1.999-1.994.052.043-.024,1.015.493,1.249-.601.951-1.471.798-2.492.745ZM95.587,333.32c-.765.185-.295-.682-.86-.979-.627-.329-1.708-.19-2.135-.768,1.117-1.371,3.524.144,2.995,1.747ZM38.54,401.886l2.498-1.997c-.084,1.809-.692,2.32-2.498,1.997ZM44.045,397.883v-.996s1.499.002,1.499.002c-.168.724-.808,1.147-1.499.993ZM54.55,368.354h-1.496v-.996h1.496v.996ZM73.073,382.368c.269-.819.356-4.794.531-4.973.12-.122,1.073.02,1.544-.179,2.355-.994,4.832-2.355,7.432-2.348-.989,1.273-8.158,8.867-9.507,7.5ZM117.138,259.022c1.027-.657-.526-2.225.743-3.747,2.056-2.466,3.218,2.571,4.254-2.274.386-1.806,1.378-.556,1.177.736-.274,1.76-1.923,2.098,1.807,2.759-.677.362-2.858,1.582-3.355,1.658-.674.102-1.475-1.256-2.892-.903-1.428.357.103,1.706.186,2.364.189,1.506-1.684,3.967-3.445,2.639.72-2.5-.062-1.31-2.002-2.502.337-.017,3.376-.632,3.528-.73ZM124.125,337.327l-.002-1.499h.996c.154.691-.27,1.331-.993,1.499ZM113.109,260.752c.676.843.662,2.141,2.002,2.002-.127.279.187,1.285-.023,1.465-.291.251-2.827.149-3.256-.44-.921-1.266.929-2.286,1.277-3.027ZM110.107,287.273c.075-.939,1.052-.76,1.501-.996-.298.705.649,1.277-1.501.996ZM113.61,284.275c.407-.544.753-1.339,1.497-1.501.295,1.398-.881,1.128-1.497,1.501ZM100.347,273.775c1.07.77.665.905.36,1.846-.938,2.894-2.676,1.815-3.058,2.202-.25.253.176,2.807-2.051,2.948-.308-.379,1.293-3.565,1.622-3.883.821-.794,2.467-.863,3.128-3.114ZM90.088,173.674c3.579-1.45,5.712.875,9.009,1.501-.057,2.739-2.885-.353-3.772-.511-2.071-.369-4.156,1.616-5.237-.991ZM99.065,297.507c-.906.72-2.844,1.817-3.972,2.279-.505-.472,5.133-5.433,6.506-4.995-.61.999-1.62,1.99-2.534,2.716ZM102.602,273.763c.539-.841,1.759-5.118,1.981-5.293.619-.487,1.943.748,3.031.07.863-.538.897-3.142,2.243-3.773.662.439,1.636,2.388,1.222,2.957-.126.172-2.991.923-3.212,2.55l-5.265,3.489ZM109.103,322.315c.342.926-1.565,2.458-1.997,1.997-.228-1.563.484-2.223,1.997-1.997ZM91.24,368.511c-.573.429-1.324,2.98-2.652,2.101,1.757-.982,1.697-3.19,2.556-4.45.806-1.182,8.096-4.56,9.443-2.559-.026,1.542-8.048,3.936-9.347,4.909ZM137.134,378.864c-.935-.414-3.612.922-3.852,1.629-.501,1.48.586,3.459-2.146,2.12-.649-.318-1.11-1.514-1.816-1.632-.622-.104-1.439.546-2.335.322-3.193-.797.506-4.73,2.641-5.234,1.069-.252,4.946-.118,5.845.475.262.173,2.091,1.936,1.663,2.32ZM135.331,357.296c-3.173,6.058-6.487,4.597-11.956,5.06-3.928.332-6.943,1.394-10.995-.021l-10.013,1.013c-1.944-1.399,2.315-2.056,3.353-2.631.446-.247,2.54-1.66,2.67-1.867.586-.937-.93-1.64-.461-2.867.333-.871,4.759-4.553,5.964-4.667.856-.081.825.669,1.219,1.026.232,1.501-4.956,2.889-3.501,4.502.301.334,3.191-1.881,3.535-2.229.698-.706.834-1.633.967-1.772,2.162-2.257,5.322-2.588,6.506-4.004l3.001-.003c.109-2.959-1.181-1.532-2-1.499-2.771.111-1.83.214-3.422.938-3.57,1.624-2.187.949-5.069-.206-.762-.305-1.985-.075-2.542-.461-.474-.328-.81-2.747-1.279-3.726-.344-.719-3.65-5.165-4.241-5.769-1.851-1.894-6.338-2.388-8.974-2.79-.424-1.531,1.164-.9,1.881-1.622.395-.399.534-1.489,1.104-2.149,1.389-1.608,3.109-1.479,2.524-4.739,2.408-.516,1.769.76,2,1.005-1.355-.81-1.239,2.017-.746,2.007,1.54-.033,1.473-1.722,1.747-2.007.154-.16,3.527-2.365,3.749-2.383.288-.023,3.974,2.056,5.26,2.383.154.039.339-.032.5,0,.087.017.304.487.738.473,2.03-.065,3.29-2.992,4.736-3.263.614-.115,1.967,1.222,3.034.793-1.727,1.163-.546,4.719-1.062,5.437-.445.62-2.478-.282-2.803,1.924-.408,2.772.722,2.88,2.363,4.646-.91.705-3.673.48-2.998,2.247.694,1.816,3.04-.409,3.498-1.246.377.434,1.544-.009,1.547,1.247.008,3.459-4.075.727-2.943,4.403,1.395,4.531,5.38-4.52,6.401.854-2.618-.594-3.303,1.88-1.15,2.45,1.288.341,1.725-1.431,3.406-1.505,1.693-.075,5.071,1.998,7.253,1.565-1.946,2.774-1.076,6.158-2.803,9.454ZM138.637,375.361c-.628-.591,1.503-2.536,2.5-1.994-.235.707-1.993,2.471-2.5,1.994ZM141.642,301.792c-.167-1.624-.128-1.663,1.496-1.496l-1.496,1.496ZM159.151,377.363c-.941.191-1.365-.638-1.997-1.256.746-2.493,2.429-.82,1.997,1.256ZM270.501,225.216c.617.111,1.043,1.726.759,2.002-.099.096-2.274.065-2.759.003-2.463-.312,1.377-2.117,2-2.005ZM267.759,203.695c-2.169-.364-2.253.107-3.498,1.504l-.502-4.002c2.011.445,4.18-.467,4,2.499ZM264.759,197.193l1.497-.005v2.503c-1.484.151-1.641-1.197-1.497-2.497ZM263.75,200.694l-1.997-1.997c1.514-.232,2.23.433,1.997,1.997ZM256.245,218.213c1.443.642,2.976-.989,3.758-1,.916-.013,4.728,2.043,3.293,3.789-1.399,1.702-2.531.039-3.822-.27-.8-.191-2.12.225-2.653-.089-.268-.158-.74-2.282-.576-2.43ZM254.242,212.215c.272.311.113,1.32-.738.985-.588-.231-2.773-1.84-3.262-2.492.76-.371,3.667,1.125,4,1.506ZM242.738,208.204c.72-.617,1.377.954,1.499.998.456.168,2.022-.32,2.007.255-1.082,2.679-1.357.692-2.007.245-.354-.243-2.472-.666-1.499-1.499ZM231.975,217.721c.728-.035,1.001,2.741.75,2.992s-3.027-.022-2.992-.75c.008-.158,2.084-2.234,2.242-2.242ZM227.718,228.724c.896.798-2.437,2.314-3,1.995.133-.828,2.549-2.397,3-1.995ZM219.716,227.724c1.521-1.228,3.382.607,2.496,1.495-.417.418-2.996-.156-2.496-1.495ZM212.703,237.733v.996s-1.999-.002-1.999-.002c.268-.995,1.066-1.123,1.999-.993ZM207.16,253.955c1.149-.764,1.42-2.012,2.353-2.652,1.193-.818,2.943-.679,4.227-1.778,1.425-1.219,2.034-4.047,4.49-5.02,1.009-.4,2.028-.123,2.976-.527.164-.07,2.679-2.081,2.775-2.231.883-1.394-1.339-.986-1.32-2.261.066-4.281,11.434-3.804,12.289-6.236.311-.886-.925-3.071,1.143-3.912.776-.316,4.539-1.261,5.143-.879,1.075.681-.896,1.815-.5,2.762,1.063.552,5.795-.716,6-.496.202.216-.132,2.788-.439,3.21-1.731-.159-4.188,1.761-5.313,1.757-1.167-.004-2.308-1.471-3.3-1.244-.337.077-5.598,3.255-5.947,3.541-1.351,1.108-.24,5.148,2.029,3.532,1.083-.772-.9-3.153,3.462-2.287,1.489,1.303-6.846,4.396-7.845,4.404-.824.006-1.057-1.029-2.132-.681-2.114.684-2.353,3.021-3.036,3.531-.82.612-2.442.23-3.352.644-2.378,1.081-4.765,3.605-6.697,4.82-1.472.926-4.873,1.524-6.114,2.267-.712.426-1.353,2.39-2.007,2.873-1.284.949-6.614,1.899-6.819,2.193-.467.672.744,2.617.464,2.968l-4.499-1.006c2.439-5.005,8.503-4.987,11.971-7.292ZM196.19,250.238c-1.181-.526-5.085,3.141-5.504,1.247.416-2.828,4.502-4.924,5.504-1.247ZM192.684,256.746c-.519.513-2.006-.993-1.496-1.496.519-.513,2.006.993,1.496,1.496ZM192.186,241.739l-1.496,1.496c-.167-1.624-.128-1.663,1.496-1.496ZM150.651,379.868l-.002-1.499h.996c.154.691-.27,1.331-.993,1.499ZM154.647,372.363c.375.377.232,2.025-1.244,1.494-1.725-.621.586-2.154,1.244-1.494ZM185.037,275.166c-1.785,2.479-6.641,1.125-5.861,4.602l3.999-.996c-.323.981-.321,2.057-.498,3-.044.231-.267.436-.5.5-1.094-.649-1.732-1.961-3.501-1.499-.031,1.831,1.182,2.867-.84,3.964-.798.433-1.572.038-2.123.318-1.484.752-4.206,3.197-5.414,3.607-1.907.648-5.884,1.456-7.646,2.37-.727.377-.789,1.444-1.107,1.635-.61.367-2.008.005-3.044.591-.371.21-.618,1.048-1.168,1.433-1.162.812-9.386,6.956-10.188,6.099-.156-1.978-.877-2.943.72-4.534,1.653-1.646,3.522-1.003,3.807-1.219.545-.412.973-2.753,1.746-3.736,1.022-1.301,3.043-1.813,4.017-2.99.801-.968.824-2.168,1.488-3.016,1.218-1.556,4.783-6.236,6.737-5.525-.487,2.02-.138,5.583,2.521,3.772,1.655-1.127-1.611-3.457-1.52-4.773.903-.673.471-2.688,1.492-3.262.766-.431,1.855-.084,2.636-.367,7.884-2.859,11.494-6.091,18.214-10.826.607-.428,1.686-.365,2.059-.677,1.447-1.209-.596-3.327,4.117.367-.921,1.357-2.757-.423-3.921.329-.198.128-.356,1.35-.844,1.896-.766.857-2.389,1.235-2.947,2.066-.651.97-1.669,4.179-2.39,5.644-.211.429.072,1.07-.041,1.227ZM192.184,272.767v.996c-.738.162-1.041-.221-1.496-.751l1.496-.245ZM218.717,274.023c.398-1.127,1.132-.279,1.997-.253-.244,1.237-2.439,1.504-1.997.253ZM226.075,302.427c-3.038,2.422-2.445-1.81.642-1.133.303,1.176-.257.826-.642,1.133ZM221.717,274.761c.127-.988,1.954-.402,2.709-.946.427-.308.388-3.541,3.294-.555-3.008-.392-2.124,3.045-6.003,1.501ZM254.249,306.294c-.16-2.252.276-4.455,3-3.996-.316.337-2.192,4.96-3,3.996ZM257.249,298.784l-1.499.008-.005-3.509,3.003.005-2.003,1,.504,2.496ZM260.505,308.296c-.927-.523-.462-1.692-.889-2.37-.316-.501-1.708-.38-1.362-1.63h2.996l-.745,4ZM265.761,305.292c-.627-.496-.482-2.442,1.243-1.994,1.614.42-.591,2.509-1.243,1.994ZM269.359,264.14c-.099-.056-1.476-1.552-1.565-1.667-1.89-2.464,2.267-3.216,3.585-.082.75,1.782-.821,2.429-2.021,1.749ZM265.895,231.339c-.568-.117-3.005-.253-3.143-.113-1.192,1.22,1.404,1.79,1.691,2.045,1.247,1.108.748,1.115,2.519,2.002,4.296,2.152-5.025,2.13-5.71,4.459-.84-.288-1.531-.703-2.5-.498-.597,2.234,1.488,1.359,3.501,1.499,1.158.08,2.235.345,3.252.403.924.052,2.259-.999,3.025.079,1.407,1.981-2.752,1.966-4.421,2.625-3.563,1.408-6.34,4.235-9.407,6.109-2.494,1.524-7.875,3.626-9.949,5.566-1.184,1.107-1.218,2.744-3.02,3.491-.545,2.104,6.018,1.8,4.509-2.257,2.539,3.378,4.114-.581,6.19.036.756.225,1.112,1.528.811,1.958-.088.126-1.756.278-1.949.557-1.446,2.095,2.729,3.658,4.492,1.719.387-.426.467-2.01,1.453-1.264.108.082.411,1.76,1.52,2.242,2.817,1.225,5.354.567,8.181,2.6.732.526,1.707-.518,1.317,1.659-3.978-1.705-4.637,1.722-4.506,5.006l-2.751-1.99c-1.021.507-.44,2.128-1.041,2.549-.316.222-7.054,1.943-7.465,1.943h-8.758c.408-4.817,1.229-1.137,1.756-1.001,2.701.7,1.104-4.682,1.205-5.186.252-1.261,2.732.754,1.543-2.822,1.957.152,3.181-.309,2.021-2.271-.108-.183-1.522-2.075-1.633-2.151-.529-.361-3.458.242-2.047,1.953,1.085,1.316.592.861,1.158,1.968-1.228-.839-1.739,1.774-2.501.997-.224-.228.914-2.188.438-2.936-.505-.794-3.916-1.446-4.417.254-.31,1.052,1.464,2.164.975,2.68-.063.066-1.11.006-1.763.483-1.069.78-1.53,2.389-3.241,2.021-.153-.53.496-1.207.499-1.498,1.783-.274,2.784-1.773,2.5-3.501-2.772-.229-2.853.08-3.001,2.5-.579-1.242-4.336-1.927-4.894-2.612-.753-.923.23-3.687-3.612-2.891-.122,1.689.641,4.302,2.374,4.896,1.217.417,3.208-.45,2.222,2.393-.206.594-.711.654-1.039,1.156-.185.283.029.949-.067,1.047-.26.266-6.441-1.133-7.247.027-.281.404-.149,1.357-.274,1.474-.217.202-1.368-.328-2.022-.206-1.092.203-5.715,1.473-6.458,1.977-1.041.706-.049,1.785-.004,2.745-2.034-.954-2.26.552-3.376.877-1.867.544-3.715,1.045-5.631.623l.498-1.994c-.567.042-1.236-.131-1.764-.012-.863.194-2.934,2.668-3.6,3.029-2.895,1.571-5.851,1.11-8.779,1.603-1.653.278-4.372,2.485-5.372.388l3.5-1.277-.998-2.729,12.994-4.277c1.911-3.201,3.774-.548,5.206-.83.618-.122,3.518-3.442,5.076-3.903l.997,1.988c1.273-3.464,1.417-1.086,2.929-1.532.718-.212.839-1.417,1.334-1.735.49-.315,1.323.228,2,.043,1.323-.361,2.03-1.381,3.042-1.996.153-.093,3.917-.955,1.975-2.043-1.009-.565-5.827.059-7.152.39-2.771.691-5.537,2.762-8.666,3.345-1.171.218-5.475,1.029-4.482-.976.801-1.618,3.269-1.565,4.538-2.474.73-.523.907-1.475,1.396-1.856,4.745-3.701,12.382-9.089,17.713-11.696.926-.453,1.668.115,2.279-.076,1.214-.379,1.167-1.686,1.427-1.869.301-.211,1.579.651,2.576.397.894-.228,1.523-1.739,2.389-2.16,2.447-1.191,7.918-.259,6.983-5.277,2.273,1.307,1.527-1.355,2.989-2.798.855-.843,1.248-.327,2.023-.536.289-.078.431-.663.492-.674-.06.081-1.572-.701-1.754-.999-1.8-2.949,2.367-2.385,1.754.999.081-.015.615.397,1.135.303.868-.157,4.651-.492,4.868-.815.303-.45-.721-1.78-.284-2.494.669-1.094,5.556-1.708,4.79-4.999-1.506-.401-2.42.992-3.725,1.028-1.601.044-4.028-1.085-5.972-.499-.625-.171-1.687-4.508-2.063-5.035-.502-.703-2.039-.381-2.251-1.497,4.155-.791,6.694,1.172,10.237,2.521,2.645,1.007,5.87.192,5.283,4.481.753-.186,1.079-1.172,1.821-1.429,1.885-.654.741,1.453,2.174,2.185.895.456,6.011.476,5.999,1.496-2.945,3.854-3.932,1.471-6.859.866ZM264.472,258.216c-2.011.606-3.537-.951-1.934-1.434,2.011-.606,3.537.951,1.934,1.434ZM280.308,182.963c.718-.51.306-2.082.484-2.268.127-.132,3.138-.112,3.671.06.651.211.721,1.125.957,1.263.79.463,2.3.653,2.66,1.14.344.465-.738,2.802.208,3.765l-3.009.259.243,3.506c-3.492-.65-1.182-2.632-1.779-3.473-.203-.287-2.236-.375-2.415-.589-.334-.399.147-2.239-.053-2.453-.256-.273-3.8.418-4.009-.252-.435-1.396,2.19-.354,3.042-.96ZM288.277,225.221v.996c-.738.162-1.041-.221-1.496-.751l1.496-.245ZM284.778,221.712c-.171-.184-.316-1.872.741-1.494,1.544.553-.255,2.018-.741,1.494ZM283.772,193.184h-.996s.002-1.499.002-1.499c.724.168,1.147.808.993,1.499ZM275.785,217.71c.121-.125,3.361-.12,3.484.003.069.07.049,1.877-.034,1.964-.15.156-3.26.525-3.968,1.537.133-.647.283-3.26.519-3.504ZM275.267,222.716h1.001c1.075,2.453,1.378,2.544-2,2.499-.297-.946.896-2.005.999-2.499ZM275.021,304.29c-1.686-.66.141-3.557,1.244-2.5.116.111.618,3.229-1.244,2.5ZM276.272,254.246c-.165-.947.584-1.666,1.496-1.496l-1.496,1.496ZM278.267,235.433c-.974-.227-1.887.344-2.492.067-1.616-.739-.51-2.161-.663-2.958-.231-1.204-1.748-2.736-.36-4.089.859-.838,5.051-1.48,6.27-1.242,1.738.34.925,1.376,1.251,2.01-2.111.034-1.586,3.165-2,4.502,1.376.276.856-.36,1.211-1.012.556-1.023.852-2.1,1.789-2.989.17,0,.647-.431,1.221-.417.81.019,1.56.594,2.424.351.406-.114,4.091-2.695,4.859-1.94.13.128.688,2.909,1,3.507-2.691-1.292-1.634.003-2.556,1.176-1.169,1.486-2.429,2.02-1.949,4.328-.93.09-.361-1.809-1.258-2.003-.848-.183-4.416,2.843-5.085,2.944-.649.099-2.408-1.942-3.664-2.235ZM286.778,293.78l1.496-1.496c.169.913-.549,1.662-1.496,1.496ZM294.29,297.033c-.532-1.476,1.117-1.619,1.494-1.244.66.657-.873,2.969-1.494,1.244Z"/><path class="cls-1" d="M333.821,304.796c-2.984-.351-1.565.38-2.101,2.138-.787,2.584-4.741-.345-6.173,2.883-.971,2.188,1.17,2.356,1.26,2.493.685,1.038-.727.926-.994,1.341-.307.478-1.36,2.841-.999,3.153,2.451-.653,2.553,1.652,5.004,1.001-1.094-4.346,1.076-2.258,2.421-3.084.24-.147,2.025-3.889,1.577-4.413-.268-.313-1.622.662-1.5-.758.124-1.445,2.225-2.785,1.506-4.754Z"/><path class="cls-1" d="M304.304,278.52c.008.277,1.156.649,1.522,1.118.278.356.218,1.12.579,1.51.686.742,2.03.606,1.852-.57-.055-.363-2.473-3.303-2.711-3.299-.088.002-1.244,1.154-1.242,1.241Z"/><path class="cls-1" d="M321.548,322.325c.97,1.467,3.256-.483,2.764-2.012-1.821-.227-4.269-.263-2.764,2.012Z"/><path class="cls-1" d="M292.788,244.982c.243,1.002,3.664.969,3-1.241-1.282-.599-3.498-.811-3,1.241Z"/><path class="cls-1" d="M322.317,318.553c.46,1.776,3.143-.57,1.994-1.744-.49-.501-2.38.256-1.994,1.744Z"/><path class="cls-1" d="M191.683,338.33c-1.054-1.043-3.035.957-1.997,1.997.81.811,2.807-1.195,1.997-1.997Z"/><path class="cls-1" d="M496.257,272.237c-.549-.725-3.652-.831-3.782-.977-.333-.375.861-2.089.285-3-.26-.41-2.517-1.502-3.051-1.491-1.129.022-1.497,1.395-2.245,1.734-5.384,2.444-13.872.777-19.721.837-1.218,2.454-5.287,2.607-6.814.189-.84-1.33-.16-2.729-2.358-3.178-2.808-.573-3.555,1.9-5.872,1.928-2.262.027-3.252-1.746-4.077-1.905-.901-.174-3.16,1.456-2.114-1.304.273-.719,1.417-.646,1.726-1.771.455-1.662-.223-4.44.328-6.674.377-1.528,2.06-3.224,1.909-4.094-.059-.342-1.04-.361-1.43-1.124-.292-.572-.371-2.439-.645-2.631-.613-.43-2.995.729-3.967.468-.458-1.339.078-1.918-.121-2.621-.892-3.149-3.949-8.158-7.05-9.487-.568-.243-1.315-.38-1.326.343,2.956,4.577.654,13.213,8.497,12.265.288.529,1.762.407.488,1.239-1.373.897-5.017.771-5.75,2.258-.601,1.22-.244,6.681-.244,8.515v1.501c-1.994-2.01-3.66-9.866-5.156-11.36-1.114-1.112-5.733-1.802-7.352-2.66l5.155-2.092c2.168-1.265,1.552-9.308,2.352-11.914-3.797-1.257-9.802-.28-13.144-1.125-2.85-.721-8.871-6.883-11.627-7.395-.821-.152-.817.025-.766.76.065.935,1.217,6.61.222,6.766l-29.739-7.013,7.762,13.518-.515.993-53.294-3.998,25.024,13.008c-.31.045-.674-.012-1.001,0-2.084.078-14.574.393-15.013,1.007,2.514,6.494-1.433,1.972-3.855.595-4.258-2.42-5.481-1.504-9.964-1.149-.693.055-1.501-.474-1.909-.397-.707.134-1.075,1.596-.788,1.941.131.158,3.432,1.303,3.865,1.396,1.237.267,2.528-.031,3.775.228,2.204.459,5.225,2.908,7.251,3.303,1.013.198,2.098-.349,2.654-.148.91.329,3.631,3.732,4.521,4.44,6.475,5.156,10.628,7.174,15.959,14.048,1.907,2.459,3.226,2.899,2.907,6.902-.077.97-2.129,6.346-2.681,7.335-.357.639-4.979,3.795-2.472,4.026.615.057,7.573-4.237,9.256-4.749,8.844-2.686,23.724-1.527,33.284-2.25,15.937-1.206,34.491-5.233,50.41-8.147,3.582-.656,8.072-2.403,11.199-2.814,8.692-1.144,18.765.013,27.496-1.032,1.342-.161,4.79-1.362,3.518-3.042Z"/><path class="cls-1" d="M260.009,244.232c1.056.378.911-1.31.741-1.494-.485-.524-2.285.941-.741,1.494Z"/><path class="cls-1" d="M67.055,357.096c-.374-.868-2.477-1.732-2.991-1.249-.967.911,1.975,3.746,2.991,1.249Z"/><path class="cls-1" d="M63.064,361.347c2.642.121,3.632-2.675.504-2.497l-.504,2.497Z"/><path class="cls-1" d="M89.331,339.334c-1.588-.572-1.31.695-1.243,1.994.457.492,2.917-1.392,1.243-1.994Z"/><path class="cls-1" d="M163.916,371.362c-1.411.318-.838,3.119.737,1.998.365-.26.623-2.305-.737-1.998Z"/><rect class="cls-1" x="84.084" y="337.329" width=".996" height="1.496"/><path class="cls-1" d="M128.882,348.84c-.563.118-3.543,6.016-3.667,6.87-.131.895-.065,1.082.665,1.634,1.837.388,6.556-9.247,3.002-8.504Z"/><path class="cls-1" d="M116.616,338.326l3.002-.502c.745-3.414-4.101-.802-3.002.502Z"/><path class="cls-1" d="M166.168,285.019c-.468-.302-4.539-.957-4.959-.694-.9,1.003.275,5.948,1.198,5.947,1.08-.72,1.641-1.949,2.427-2.82.465-.514,2.921-1.408,1.334-2.433Z"/><path class="cls-1" d="M285.535,233.726c1.72.362,2.598-1.865,1.74-2.5-1.214-.899-3.362,2.158-1.74,2.5Z"/></svg>