<svg width="48" height="31" viewBox="0 0 48 31" fill="none" xmlns="http://www.w3.org/2000/svg">
<path d="M47.9809 27.0153L48 27.0093L47.9815 27.0277L47.9809 27.0153L38.0531 30.1078L28.2374 29.1221L15.2756 25.8482L5.25 20.1221L1.875 15.6221L0 10.1288L2.22376 7.47173L10.2145 3.29757L19.331 0.870313L26.9896 0.62207L32.9135 1.31163L38.9758 4.47443L43.6448 8.82327L46.3391 21.2446L47.8616 24.8671L47.9809 27.0153Z" fill="#09835E"/>
<path d="M11.4101 5.74931L22.0823 2.98242L31.5688 3.37769L40.6601 8.91148L42.2411 14.05L43.4269 20.7696L44.6128 22.7459L45.4033 24.327L38.6837 27.0939L29.5925 25.9081L28.4609 24.327L26.8798 23.5472L23.7177 22.7566L18.1839 21.1756L20.106 22.3614V23.1412L11.4101 21.1649L3.89992 13.2594L3.10938 10.8878L11.4101 5.74931Z" fill="#1C1C1C"/>
<path fill-rule="evenodd" clip-rule="evenodd" d="M16.7458 20.4159C15.3217 19.6835 13.7301 18.8649 13.0172 18.3034C11.7052 17.2625 8.41992 14.0697 8.41992 12.5914C8.41992 11.1131 13.3609 8.25277 16.2674 7.60547C16.5006 7.55352 16.7414 7.49875 16.9894 7.44237C19.8321 6.79623 23.6077 5.93808 27.3905 6.67825C31.5122 7.483 35.8364 9.04878 37.1752 10.7108C40.1923 14.4561 39.2799 19.5718 38.7254 21.2425C38.1792 22.9133 36.6378 24.5228 35.6957 24.689C35.3843 24.7439 34.5829 24.7358 33.6353 24.7262L33.4929 24.7247C32.989 24.6893 32.4467 24.6559 31.8631 24.6252C25.7001 24.3008 20.9058 22.6073 19.2408 21.7843C18.8103 21.4777 17.8263 20.9716 16.7458 20.4159Z" fill="#FFFDF8"/>
<path d="M35.9885 17.6488L35.673 17.615L35.3831 17.5896L34.8289 17.5387C33.4902 17.4202 32.1344 17.3016 30.7957 17.1746C30.5655 17.1492 30.4376 17.2169 30.3096 17.3948C29.5849 18.428 28.843 19.4443 28.1097 20.469C28.0245 20.5876 27.9307 20.7061 27.8369 20.8162C27.7431 21.0026 27.6237 21.1804 27.4276 21.3667C27.2144 20.4859 27.0012 19.656 26.7966 18.8176C26.6346 18.2078 26.4555 17.6065 26.3106 16.9967C26.2509 16.7257 26.123 16.5902 25.8672 16.4886C23.2494 15.5231 20.6402 14.5323 18.0225 13.5499C17.9457 13.516 17.8349 13.5329 17.8008 13.3805C18.4915 13.3551 19.1821 13.3297 19.8643 13.3127C22.1921 13.245 24.5199 13.1857 26.8478 13.1264C27.0439 13.1264 27.078 12.9994 27.1377 12.8893C27.8454 11.8052 28.5446 10.7127 29.2523 9.62872C29.2864 9.5779 29.3291 9.52709 29.4058 9.41699C29.5593 9.9336 29.7042 10.3994 29.8407 10.8567C30.1562 11.9238 30.4802 12.9824 30.7872 14.0495C30.8468 14.2612 30.9492 14.4052 31.1453 14.5238C31.9639 15.0319 32.7739 15.5485 33.5925 16.0651L35.042 17.0137V17.0221L35.5622 17.3609L35.7071 17.4541L35.8265 17.5303L35.9885 17.6404V17.6488Z" fill="#1C1C1C"/>
</svg>
