<svg width="502" height="342" viewBox="0 0 502 342" fill="none" xmlns="http://www.w3.org/2000/svg">
<path d="M16.717 249.119C17.0206 251.149 15.4433 251.84 14.0789 252.795C14.568 254.509 14.9709 256.243 15.5848 257.859C15.7726 258.356 16.4934 258.684 17.0612 258.852C17.9327 259.118 18.2369 259.648 18.1855 260.594C18.1157 261.851 18.4921 263.117 17.6556 264.367C17.4193 264.719 17.5327 265.438 17.6672 265.91C18.3245 268.321 19.0408 270.725 19.7255 273.125C19.8315 273.496 19.9452 274.056 20.2038 274.158C22.1023 274.915 22.1448 277.37 23.7112 278.518C25.141 279.562 26.1024 281.323 27.5417 282.347C30.2564 284.303 33.1647 285.972 35.9975 287.752C36.2012 287.876 36.4776 287.987 36.709 287.94C38.539 287.545 39.9383 288.697 41.5846 288.999C41.8761 289.055 42.1824 289.218 42.4065 289.413C44.9771 291.507 48.1063 292.289 51.2026 293.116C54.8764 294.091 58.4444 295.284 61.6709 297.318C62.7687 298.003 63.8153 298.294 65.2153 297.946C66.8015 297.555 68.2649 298.234 69.6846 298.867C71.0865 299.492 72.5255 300.086 74.021 300.449C75.3374 300.774 76.7654 300.686 78.1162 300.917C78.7717 301.016 79.5052 301.228 79.9422 301.687C80.6908 302.435 81.4939 302.729 82.4912 302.419C83.516 302.096 84.1571 302.521 84.8087 303.196C85.2636 303.665 85.8703 304.183 86.4862 304.251C87.9344 304.394 89.0733 305.062 90.1804 305.887C90.842 306.383 91.4653 306.798 92.416 306.538C92.7982 306.431 93.3808 306.703 93.673 307.031C94.2631 307.652 94.9334 307.857 95.7116 307.635C96.6267 307.358 97.2982 307.674 97.9775 308.179C98.7183 308.738 99.5195 309.241 100.332 309.675C101.792 310.451 103.38 310.761 105.055 310.254C105.815 310.023 106.484 310.006 106.928 310.654C108.435 312.879 110.587 313.772 113.16 313.84C115.734 313.907 117.89 315.245 120.279 315.898C121.406 316.204 122.477 316.74 123.599 317.08C125.07 317.517 126.445 318.264 128.094 318.198C128.952 318.151 129.778 318.58 130.634 318.79C131.471 318.991 132.314 319.157 133.132 319.398C134.307 319.764 135.425 320.25 136.606 320.582C137.156 320.74 137.785 320.802 138.362 320.679C138.911 320.567 139.428 320.181 139.934 319.863C141.129 319.12 142.151 319.055 143.232 320.002C143.785 320.494 144.702 320.598 145.48 320.696C146.347 320.789 147.26 320.608 148.129 320.653C148.782 320.689 149.411 320.911 150.164 321.083C149.776 321.975 149.489 322.634 149.092 323.546C150.423 323.816 151.59 324.154 152.796 324.252C153.125 324.278 153.63 323.689 153.926 323.281C154.322 322.737 154.555 322.052 154.972 321.531C155.174 321.273 155.753 321.053 155.957 321.177C156.272 321.368 156.581 321.864 156.552 322.243C156.516 322.816 156.21 323.403 155.933 324.202C156.42 324.354 156.847 324.563 157.291 324.621C159.191 324.899 159.52 325.515 158.731 327.415C158.677 327.549 158.602 327.659 158.548 327.793C158.022 329.219 158.368 330.004 159.707 330.303C161.532 330.691 163.365 331.06 165.205 331.395C165.981 331.541 166.669 331.755 166.894 332.652C167.152 333.663 166.552 334.402 165.557 334.346C164.621 334.281 163.672 334.333 162.766 334.16C161.878 333.995 161.023 333.626 160.18 333.3C159.801 333.151 159.462 332.875 159.055 332.626C158.618 333.187 158.248 333.657 157.788 334.243C157.416 334.012 157.08 333.798 156.725 333.576C155.92 333.059 155.353 333.162 154.748 333.936C154.156 334.703 154.225 335.265 154.983 335.993C155.342 336.341 155.83 336.604 156.02 337.054C157.112 339.543 159.274 340.257 161.614 340.578C162.441 340.688 163.379 340.545 164.213 340.252C165.385 339.855 166.415 339.658 167.442 340.419C167.924 340.765 168.589 340.845 169.194 340.981C170.08 341.194 171.014 341.627 171.872 341.469C173.278 341.198 174.819 340.809 175.992 339.932C177.289 338.957 178.338 338.45 179.84 338.89C180.975 339.224 182.31 338.808 183.464 339.422C183.806 339.602 184.465 339.285 184.905 339.058C185.955 338.502 187.015 338.357 188.057 338.634C189.082 338.902 190.07 338.77 190.979 338.097C191.952 337.381 192.807 337.32 193.79 337.924C195.154 338.739 196.666 338.569 198.144 337.744C199.251 337.122 200.232 337.254 201.086 338.139C201.76 338.837 203.216 338.85 203.98 337.773C205.026 336.293 206.542 336.138 207.851 335.525C208.497 335.214 209.453 335.509 210.181 335.755C211.025 336.033 211.768 336.225 212.723 335.979C213.55 335.769 214.493 335.911 215.301 336.172C216.7 336.622 218.024 336.385 219.37 335.741C219.961 335.452 220.559 335.192 221.164 334.898C222.189 334.416 223.159 334.276 223.967 335.127C224.531 335.71 225.099 335.718 225.844 335.271C226.34 334.973 226.928 334.781 227.489 334.712C228.907 334.532 229.86 333.745 230.484 332.342C230.746 331.757 231.145 331.227 231.673 330.342C232.022 331.029 232.368 331.383 232.366 331.751C232.327 333.01 233.063 333.444 233.992 333.432C235.364 333.415 236.749 333.281 238.118 333.042C240.685 332.602 243.151 331.325 245.793 331.365C246.821 331.376 247.88 330.801 248.935 330.53C249.79 330.309 250.7 329.906 251.528 329.967C253.652 330.122 255.677 329.711 257.69 328.779C258.107 328.577 258.584 328.319 258.983 328.379C261.165 328.734 263.24 327.697 265.358 327.295C266.91 326.998 268.402 326.166 269.951 325.646C270.931 325.327 271.932 325.19 272.932 324.942C273.859 324.707 274.813 324.51 275.707 324.161C277.902 323.33 280.017 322.165 282.368 322.147C282.901 322.137 283.479 321.806 284.027 321.583C287.247 320.27 290.468 318.957 293.68 317.616C294.721 317.191 295.755 316.849 296.847 317.137C297.196 317.234 297.686 317.29 297.949 317.087C299.723 315.742 301.897 315.43 303.645 313.888C305.916 311.877 308.378 310.156 310.473 307.85C312.046 306.124 314.109 304.885 315.914 303.383C317.358 302.172 318.838 300.979 320.161 299.61C322.247 297.484 324.219 295.228 326.235 293.019C326.608 292.612 326.916 292.135 327.323 291.794C329.156 290.281 330.506 288.311 331.993 286.445C333.601 284.417 335.258 282.45 337.35 280.88C338.711 279.862 339.804 278.332 340.81 276.869C344.068 272.096 347.345 267.283 349.499 261.859C350.598 259.114 351.406 256.265 352.296 253.43C353.41 249.882 354.502 246.31 355.566 242.75C355.952 241.476 356.657 240.567 357.729 239.875C358.594 239.315 359.403 238.666 360.418 237.933C361.498 238.179 362.839 238.43 364.14 238.808C365.477 239.204 366.785 239.341 368.222 239.122C368.956 239.014 369.799 239.452 370.441 239.876C371.838 240.806 373.267 241.26 375.047 240.901C375.914 240.723 376.871 241.13 377.742 241.397C380.71 242.308 383.575 243.613 386.619 244.094C388.446 244.386 390.037 245.029 391.7 245.659C392.748 246.061 393.816 246.264 395.013 245.744C395.465 245.56 396.129 245.688 396.564 245.925C398.082 246.742 399.528 247.683 401.027 248.54C401.284 248.69 401.653 248.859 401.9 248.758C403.256 248.205 404.34 248.895 405.536 249.173C406.732 249.451 408.015 249.391 409.253 249.492C409.739 249.534 410.318 249.473 410.703 249.699C412.276 250.652 413.782 251.697 415.312 252.716C415.573 252.881 415.833 253.094 416.114 253.171C418.494 253.843 420.908 254.422 423.258 255.155C425.559 255.875 427.855 256.63 430.064 257.564C432.063 258.407 434.004 259.259 436.184 259.662C438.364 260.065 440.447 260.986 442.452 261.955C444.315 262.855 446.155 262.12 448.019 261.791C448.341 261.739 448.701 261.018 448.905 260.553C449.542 259.033 449.752 258.804 451.19 258.856C451.807 258.875 452.532 258.898 452.982 259.241C454.345 260.265 455.999 260.324 457.567 260.674C458.172 260.81 458.841 260.904 459.312 261.27C460.85 262.477 462.706 262.71 464.524 263.133C465.295 263.313 466.015 263.641 466.736 263.969C468.721 264.867 470.711 265.73 472.247 267.416C472.985 268.232 474.034 268.156 475.004 267.266C475.997 266.35 476.955 266.438 477.983 267.04C479.462 267.936 479.797 267.768 480.977 266.329C481.385 265.828 481.956 265.309 482.52 265.142C484.055 264.676 484.825 263.676 485.019 262.05C485.06 261.714 485.232 261.405 485.337 261.075C485.661 260.066 485.568 259.258 484.763 258.582C483.73 257.695 483.75 257.336 484.61 256.06C485.296 255.031 486.07 254.046 486.702 252.991C487.044 252.42 487.428 251.674 487.382 251.086C487.25 249.067 488.392 247.708 489.574 246.381C490.237 245.648 491.025 245.088 490.581 243.961C490.196 242.985 488.202 241.788 487.35 242.232C486.46 242.706 485.749 242.517 484.991 242.22C483.787 241.754 482.581 241.656 481.312 242.301C480.923 242.491 480.409 242.621 480.019 242.541C477.522 242.044 475.02 241.532 472.559 240.893C472.048 240.766 471.529 240.18 471.302 239.651C470.839 238.564 470.421 237.474 469.407 236.867C469.353 236.841 469.319 236.775 469.275 236.729C468.578 235.945 468.388 234.906 468.837 234.388C469.36 233.808 470.713 233.942 471.391 234.654C472.217 235.514 473.007 236.404 473.852 237.224C474.251 237.603 474.772 237.821 475.237 238.11C476.064 238.65 476.967 239.08 477.682 239.762C478.559 240.584 479.485 240.988 480.703 240.81C480.553 239.532 479.586 238.235 478.431 237.51C476.081 236.028 473.609 234.707 471.48 232.928C470.05 231.724 468.124 230.978 467.366 228.911C467.241 228.579 466.704 228.303 466.312 228.272C464.494 228.12 463.279 227.291 462.888 225.329C462.813 224.961 462.572 224.597 462.304 224.355C460.704 222.982 459.347 221.334 457.315 220.488C456.032 219.958 454.889 219.005 453.858 218.021C450.548 214.889 447.317 211.661 444.054 208.477C443.121 207.566 442.16 206.666 441.161 205.845C439.877 204.773 439.064 203.319 438.458 201.731C438.083 200.736 437.554 200.17 436.543 199.896C434.936 199.467 434.663 198.239 435.854 196.892C436.695 195.927 437.707 195.131 438.654 194.267C438.956 193.984 439.309 193.776 439.558 193.468C442.484 189.946 445.389 186.401 448.312 182.865C448.48 182.653 448.663 182.435 448.814 182.214C451.746 178.068 454.591 173.83 457.638 169.764C460.365 166.133 462.53 162.14 465.066 158.378C466.488 156.284 467.787 154.079 469.036 151.864C469.565 150.93 469.882 149.844 470.261 148.812C470.856 147.198 471.42 145.581 472.015 143.966C472.3 143.196 472.616 142.429 472.968 141.679C473.249 141.055 473.501 140.33 473.957 139.889C474.891 138.982 475.48 137.992 475.678 136.699C475.803 135.851 476.398 135.417 477.085 135.089C478.243 134.537 478.98 133.583 479.317 132.297C479.627 131.133 479.122 130.382 478.002 130.584C477.349 130.707 476.713 131.158 476.067 131.469C475.073 131.953 474.084 132.452 473.082 132.909C472.556 133.155 471.927 133.204 471.457 133.539C470.331 134.365 469.179 134.883 467.856 134.912C467.612 134.915 467.322 134.97 467.119 135.116C465.219 136.497 463.336 137.887 461.453 139.277C461.352 139.35 461.284 139.489 461.187 139.577C460.745 140.012 460.183 140.241 459.908 139.651C459.751 139.316 459.891 138.414 460.14 138.265C461.394 137.514 461.47 136.335 461.702 135.108C461.858 134.263 462.233 133.376 462.719 132.668C463.56 131.432 463.9 130.161 463.676 128.785C463.501 127.74 463.683 126.932 464.547 126.26C465.383 125.6 465.749 124.845 465.263 123.783C464.875 122.905 465.29 122.162 465.909 121.383C466.947 120.035 467.88 118.586 468.777 117.119C469.223 116.379 469.303 115.533 468.793 114.816C468.356 114.197 467.727 114.405 467.067 114.451C466.14 114.526 465.154 114.609 464.32 114.311C463.387 113.99 462.672 114.058 461.853 114.727C460.007 116.245 458.013 117.457 455.796 118.105C453.325 118.826 450.809 119.389 448.335 120.047C447.48 120.268 446.641 120.705 445.789 120.829C444.144 121.069 442.71 121.67 441.608 123.172C441.542 123.262 441.374 123.315 441.252 123.317C437.963 123.477 435.366 126.115 432.251 126.939C432.065 126.983 431.873 127.061 431.703 127.162C429.859 128.472 427.984 129.46 425.837 128.692C422.839 129.978 419.764 131.104 416.853 132.642C415.762 133.214 414.822 133.996 413.55 134.148C412.853 134.225 412.137 134.772 411.457 135.177C410.152 135.964 408.864 136.808 407.567 137.624C407.451 137.703 407.316 137.71 407.219 137.798C404.26 140.456 400.494 141.465 397.451 143.933C397.238 144.1 396.964 144.371 396.784 144.333C394.595 143.949 393.079 146.306 391.019 146.428C390.897 146.43 390.75 146.505 390.662 146.573C388.962 148.335 386.715 148.661 384.685 149.536C383.364 150.107 382.242 150.836 381.598 152.278C381.428 152.65 381.195 153.065 380.891 153.284C378.395 155.099 375.857 156.82 372.89 157.519C371.772 157.783 370.686 158.21 369.575 158.552C369.265 158.646 368.928 158.751 368.641 158.709C367.438 158.514 366.447 158.902 365.488 159.883C364.682 160.706 363.864 160.625 363.166 159.841C362.878 159.527 362.73 159.061 362.474 158.703C361.731 157.651 360.499 157.355 359.518 158.313C357.831 159.958 356.42 159.624 354.953 158.452C353.667 157.429 351.972 157.705 350.476 157.342C349.755 157.174 349.024 157.025 348.269 156.95C347.594 156.89 346.912 156.913 346.217 156.942C345.02 156.983 343.824 157.135 342.653 157.103C341.156 157.059 339.673 156.898 338.193 156.752C337.752 156.708 337.331 156.625 336.92 156.473C335.332 155.892 333.75 155.708 331.945 156.029C330.212 156.337 328.43 156.043 326.691 155.843C324.272 155.569 321.872 155.144 319.46 154.787C319.029 154.724 318.542 154.571 318.159 154.728C316.105 155.517 314.306 154.735 312.458 154.261C310.989 153.886 309.579 152.962 307.908 153.915C307.761 153.99 307.495 153.971 307.363 153.882C306.035 153.035 304.542 153.644 303.115 153.683C301.413 153.723 299.724 153.646 298.029 153.604C297.52 153.588 297.003 153.384 296.538 153.526C294.452 154.201 292.408 153.901 290.342 154.058C287.977 154.241 285.701 154.196 283.435 153.812C283.098 153.758 282.691 153.94 282.318 154.028C281.338 154.236 280.335 154.581 279.364 154.61C277.91 154.661 276.487 154.443 275.045 155.127C274.652 155.303 274.177 155.194 273.735 155.199C271.215 155.269 268.702 155.305 266.181 155.423C265.621 155.444 265.045 155.679 264.515 155.911C262.677 156.708 260.799 156.932 258.882 157.075C257.263 157.193 255.602 157.535 254.008 158.009C252.078 158.589 251.726 158.318 252.221 156.138C252.403 155.33 252.635 154.534 252.723 153.716C252.832 152.651 252.388 152.274 251.383 152.397C251.134 152.435 250.871 152.478 250.628 152.593C247.607 154.016 244.493 153.93 241.409 153.895C237.575 153.863 233.737 153.705 229.923 153.474C227.419 153.33 224.96 152.913 222.456 152.77C220.962 152.677 219.444 152.881 217.935 152.954C216.865 153.008 215.772 153.198 214.733 153.095C211.864 152.798 209.007 152.543 206.073 153.356C205.536 153.511 204.949 153.384 204.379 153.425C203.38 153.513 202.379 153.65 201.383 153.753C200.447 153.848 199.498 153.9 198.569 154.023C194.859 154.531 191.154 155.053 187.438 155.594C186.323 155.762 185.201 156.012 184.081 156.213C183.587 156.303 183.064 156.293 182.577 156.412C178.578 157.404 174.577 158.286 170.528 158.517C169.972 158.552 169.409 158.83 168.85 158.962C167.791 159.218 166.732 159.474 165.665 159.702C165.42 159.754 165.15 159.721 164.909 159.787C160.574 160.837 156.216 160.843 151.871 161.482C150.992 161.617 150.135 161.886 149.263 162.099C149.022 162.165 148.75 162.34 148.53 162.318C146.189 161.996 143.893 162.741 141.596 163.215C141.006 163.344 140.292 163.523 139.896 163.956C138.846 165.101 137.679 165.354 136.362 165.189C135.473 165.073 134.625 165.052 133.831 165.806C133.218 166.391 132.616 166.158 132.12 165.706C131.443 165.105 130.703 165.136 129.829 165.396C128.91 165.659 127.952 165.683 127.01 165.812C126.449 165.881 125.873 165.845 125.322 166.006C123.019 166.673 120.736 167.412 118.434 168.08C117.828 168.263 117.16 168.44 116.566 168.395C115.189 168.287 114.098 168.859 113.1 169.92C112.546 170.497 111.89 171.147 111.196 171.397C107.516 172.706 104.754 175.571 101.673 177.96C98.3004 180.563 95.354 183.694 92.0951 186.426C87.7527 190.078 83.3107 193.596 79.0119 197.294C76.7652 199.231 74.6303 201.345 72.5965 203.546C70.2032 206.149 67.9709 208.941 65.665 211.635C65.2628 212.102 64.8481 212.686 64.3548 212.887C61.6869 213.991 59.5038 216.205 56.6995 217.045C55.5021 217.405 54.4049 218.331 53.2413 218.917C51.8255 219.638 50.3729 220.23 48.9749 220.96C47.7468 221.588 46.5651 222.325 45.3711 223.019C45.0819 223.185 44.8375 223.508 44.5552 223.591C42.525 224.195 40.8108 225.532 39.0176 226.646C36.8201 228.004 34.6565 229.429 32.4548 230.773C30.8139 231.777 29.1389 232.715 27.472 233.682C27.1321 233.884 26.7361 233.998 26.4302 234.266C24.566 235.935 22.7237 237.627 20.8814 239.319C19.8415 240.285 18.7223 241.188 17.8136 242.292C16.5027 243.864 15.297 245.535 14.1665 247.256C13.5607 248.189 13.9236 248.711 15.0269 248.772C15.5266 248.807 16.0222 248.828 16.5041 248.855C16.5493 248.853 16.5874 248.933 16.7104 249.042L16.717 249.119ZM319.838 177.345C321.019 179.017 321.02 178.969 322.842 178.975C323.451 178.966 324.053 179.199 324.61 179.435C326.725 180.359 328.892 181.039 331.257 181.127C332.758 181.185 334.226 181.4 335.559 182.212C336.228 182.626 337.078 182.71 337.86 182.933C339.055 183.259 340.326 183.427 341.457 183.907C343.595 184.806 345.66 184.697 347.868 183.59C350.209 182.412 352.714 182.077 355.176 182.237C356.748 182.33 358.285 182.357 359.868 182.222C364.295 181.869 368.154 177.648 368.304 172.866C368.323 172.236 368.237 171.506 368.937 171.332C369.424 171.213 370.031 171.412 370.46 171.684C371.669 172.435 372.816 173.291 373.986 174.122C374.952 174.829 375.967 174.846 376.97 174.022C377.813 173.328 378.637 173.215 379.656 173.246C380.936 173.283 382.492 173.27 383.529 172.56C385.229 171.389 387.024 170.657 388.835 169.982C392.997 168.429 397.068 166.562 400.92 164.194C402.507 163.213 403.914 162.033 405.815 162.262C406.26 162.32 406.824 161.994 407.266 161.719C409.306 160.504 411.321 159.204 413.679 159.104C413.86 159.094 414.035 158.959 414.227 158.881C416.296 158.037 418.386 157.265 420.412 156.327C421.639 155.747 422.742 154.787 423.968 154.208C425.666 153.404 427.413 152.5 429.186 152.176C430.452 151.947 431.658 151.726 432.894 151.286C434.536 150.713 436.238 150.354 437.888 149.809C439.173 149.381 440.511 148.979 441.657 148.224C442.827 147.444 443.996 146.984 445.276 146.861C447.742 146.605 450.207 146.397 452.672 146.19C453.834 146.083 454.803 145.672 455.307 144.382C455.405 144.135 455.544 143.871 455.699 143.664C456.292 142.848 457.156 142.607 457.688 143.076C458.18 143.514 458.051 144.188 457.354 145.015C456.83 145.643 456.086 146.202 455.862 146.915C454.979 149.667 453.335 151.948 451.854 154.37C449.723 157.839 446.618 159.982 443.356 161.631C440.868 162.885 438.573 164.49 436.133 165.804C435.789 165.992 435.469 166.266 435.168 166.548C432.159 169.354 429.709 172.777 426.565 175.43C426.468 175.518 426.418 175.666 426.325 175.768C425.753 176.336 425.177 176.89 424.583 177.435C423.891 178.068 423.143 178.66 422.477 179.33C421.23 180.588 420.164 182.107 418.771 183.122C414.859 185.977 412.314 190.14 409.341 193.873C409.059 194.227 408.948 194.75 408.786 195.199C407.957 197.387 407.15 199.598 406.303 201.778C405.51 203.824 405.011 205.829 405.869 207.872C406.012 208.212 406.08 208.663 405.991 209.05C405.596 210.774 406.367 211.816 407.612 212.425C409.06 213.158 409.809 214.336 410.201 215.979C410.733 218.218 411.126 220.562 412.883 222.11C413.437 222.602 413.938 223.18 414.511 223.632C415.285 224.257 416.15 224.766 416.891 225.437C417.203 225.724 417.499 226.385 417.388 226.749C417.268 227.133 416.667 227.49 416.22 227.64C415.828 227.768 415.349 227.644 414.924 227.547C412.688 227.055 410.511 226.395 408.112 226.671C407.474 226.74 406.705 226.511 406.225 226.117C405.371 225.428 404.562 225.168 403.454 225.572C402.414 225.948 401.52 225.818 400.773 224.862C400.413 224.403 399.549 224.054 399.012 224.209C397.624 224.599 396.548 224.097 395.399 223.608C393.488 222.808 391.44 222.654 389.366 222.623C387.369 222.592 385.362 222.581 383.373 222.418C382.603 222.349 381.835 221.961 381.186 221.508C380.576 221.086 380.018 220.899 379.27 221.172C378.216 221.554 377.236 221.443 376.5 220.579C375.651 219.586 374.644 219.326 373.315 219.549C371.841 219.799 370.426 219.61 369.604 218.015C369.293 217.408 368.713 216.927 368.137 216.572C366.937 215.849 366.161 214.953 366.152 213.314C366.149 212.39 365.592 212.155 364.704 212.421C363.717 212.712 363.273 213.515 362.812 214.421C362.419 215.187 361.936 216.229 361.306 216.486C358.277 217.721 356.409 220.715 353.67 222.374C353.238 222.63 352.972 223.201 352.617 223.617C351.966 224.393 351.298 225.16 350.687 225.967C350.41 226.335 350.111 226.792 350.08 227.219C349.965 228.638 349.643 230.189 350.011 231.426C350.447 232.955 349.963 233.886 349.004 234.867C348.245 235.639 347.486 236.411 346.706 237.16C345.637 238.186 344.437 239.073 343.487 240.194C342.617 241.219 342.067 242.56 341.209 243.627C340.275 244.805 339.793 246.118 339.282 247.491C338.593 249.367 337.784 251.196 336.975 253.025C336.641 253.783 336.129 254.455 335.812 255.222C334.249 259.017 331.768 262.278 329.925 265.9C329.426 266.885 328.785 267.8 328.109 268.65C324.875 272.648 321.659 276.654 318.341 280.575C316.348 282.918 314.188 285.107 312.112 287.373C311.328 288.219 310.449 288.784 309.368 288.747C308.241 288.712 307.555 289.31 307.17 290.424C306.799 291.485 306.084 292.143 305.111 292.539C304.632 292.735 304.141 292.999 303.773 293.372C302.954 294.2 302.116 294.319 301.11 294.171C300.518 294.077 299.64 294.004 299.3 294.366C297.933 295.849 296.296 296.707 294.564 297.445C294.455 297.49 294.36 297.64 294.254 297.699C292.515 298.68 290.761 299.554 288.788 299.609C287.998 299.628 287.151 299.878 286.376 300.162C283.565 301.196 280.871 302.741 277.889 303.015C277.46 303.063 277.015 303.276 276.591 303.449C274.65 304.208 272.785 305.336 270.67 305.002C270.495 304.977 270.289 305.061 270.111 305.134C268.002 306.105 265.844 306.746 263.615 307.081C263.175 307.148 262.749 307.37 262.332 307.571C259.678 308.829 256.863 308.988 254.117 309.549C252.559 309.881 250.893 309.779 249.431 310.391C246.904 311.453 244.486 311.769 241.981 311.084C240.423 310.666 240.17 310.099 241.062 308.508C241.597 307.54 242.159 306.561 242.834 305.712C243.739 304.593 243.914 303.597 243.233 302.391C242.921 301.833 242.749 300.962 242.922 300.333C243.265 299.124 242.854 298.542 242.002 298.076C241.23 297.673 240.48 297.245 239.698 296.862C239.009 296.537 238.332 296.685 237.789 297.354C237.235 298.042 237.017 298.832 237.34 299.642C237.453 299.931 237.689 300.169 237.88 300.41C238.424 301.082 238.196 301.733 237.51 302.061C236.759 302.431 235.927 302.626 235.129 302.776C234.376 302.924 233.617 302.946 232.863 302.982C230.649 303.104 228.417 303.376 226.237 303.243C224.369 303.128 222.578 302.534 220.653 303.399C220.433 303.488 220.151 303.412 219.9 303.387C217.283 303.114 214.67 302.855 212.053 302.583C209.75 302.341 207.46 301.871 205.131 301.911C201.994 301.962 198.886 302.113 195.742 301.816C192.993 301.565 190.241 300.709 187.35 301.568C187.241 301.613 187.102 301.558 186.981 301.56C184.67 301.449 182.393 300.974 180.029 301.427C179.666 301.495 179.302 301.293 178.924 301.255C177.204 301.016 175.483 300.505 173.743 300.625C170.425 300.845 167.194 300.567 163.954 300.309C163.531 300.274 163.028 300.224 162.656 300.423C161.147 301.246 159.686 300.948 158.177 300.862C156.822 300.776 155.425 301.027 154.041 301.16C153.285 301.245 152.479 301.638 151.793 301.487C148.933 300.898 146.124 300.113 143.279 299.471C141.828 299.154 140.348 299.007 138.862 298.784C138.192 298.69 137.489 298.69 136.84 298.507C135.785 298.188 134.757 297.746 133.628 297.329C132.329 298.672 131.002 298.256 129.601 297.743C128.628 297.39 127.579 297.195 126.532 297.064C124.851 296.856 123.2 296.7 121.857 295.477C121.383 295.048 120.629 294.925 120 294.703C117.96 293.987 115.905 293.326 113.871 292.576C112.809 292.18 112.085 291.518 112.424 290.024C112.684 288.897 112.057 288.308 111.11 287.992C110.065 287.652 109.206 287.859 108.279 288.684C106.8 289.988 104.767 289.509 104.851 287.178C104.873 286.611 104.84 286.066 104.034 286.028C103.785 286.337 103.53 286.728 103.195 287.056C102.315 287.941 101.474 287.726 101.385 286.502C101.304 285.307 100.661 284.931 99.7569 284.709C99.4613 284.638 99.144 284.545 98.8373 284.542C97.4025 284.553 96.1738 284.16 95.0519 283.23C94.027 282.372 93.4845 282.561 92.2376 283.66C92.0895 283.784 91.8977 283.862 91.7373 283.944C90.7562 283.722 90.6583 282.789 90.3889 282.005C90.0569 281.056 89.6769 280.206 88.6809 279.878C86.4524 279.144 84.2485 278.336 82.0351 277.548C81.4059 277.326 80.4669 277.198 80.6427 276.313C80.7549 275.741 81.516 275.192 82.0741 274.789C82.48 274.496 83.0536 274.469 83.5439 274.365C83.9754 274.269 84.4436 274.301 84.8628 274.162C85.1272 274.07 85.5402 273.695 85.5131 273.546C85.4646 273.215 85.2356 272.734 84.9893 272.675C84.2585 272.526 83.4698 272.657 82.7568 272.517C81.0886 272.192 79.9209 272.764 79.3363 274.629C79.3019 274.723 79.1374 274.79 78.829 274.995C78.1123 274.681 77.2904 274.267 76.4244 273.966C75.9333 273.799 75.3081 273.592 74.8518 273.762C73.9749 274.119 73.2511 273.888 72.4685 273.665C70.984 273.233 69.4651 272.895 67.9573 272.489C66.7806 272.172 65.4118 272.092 64.4673 271.408C62.7109 270.13 60.6027 270.033 58.6361 269.734C57.069 269.496 55.9322 269.05 55.111 267.726C54.9091 267.394 54.6605 267.112 54.4216 266.811C53.9219 266.185 53.363 265.727 52.4679 266.236C51.7976 266.621 51.2504 266.365 50.7352 265.953C50.2022 265.533 49.6556 265.118 49.0992 264.722C48.4855 264.287 48.0869 263.747 48.4339 262.872C48.756 262.071 49.4399 261.681 50.164 261.752C50.8251 261.818 51.4611 262.117 52.0985 262.367C54.0956 263.148 55.8228 264.645 58.1779 264.482C58.5079 264.459 58.8262 264.824 59.1599 264.975C61.7407 266.14 64.276 267.467 66.9449 268.404C68.7302 269.032 70.6532 269.285 72.4284 270.092C73.5362 270.598 74.8037 270.751 76.0078 271.057C75.1624 269.488 74.0375 268.655 72.399 268.541C71.4942 268.479 70.4653 268.197 69.8107 267.619C68.8092 266.735 67.6037 266.477 66.4118 266.213C63.4232 265.55 60.5006 264.795 58.1229 262.734C57.9385 262.57 57.6881 262.497 57.4748 262.392C55.0732 261.266 52.6813 260.12 50.2645 259.048C48.9693 258.475 47.5736 258.087 46.2824 257.529C43.2283 256.206 40.8339 253.658 37.5942 252.65C37.5408 252.624 37.4875 252.598 37.4301 252.557C36.6101 251.935 35.9244 251.193 36.0887 249.946C36.2419 248.767 37.0715 248.19 37.9925 247.719C38.4599 247.48 38.9531 247.279 39.4327 247.084C41.077 246.413 42.7241 245.806 44.3562 245.092C44.9454 244.852 45.4815 244.426 46.0341 244.057C46.9773 243.45 47.8728 242.781 48.8283 242.216C50.7667 241.075 52.7431 240.014 54.6992 238.882C55.7232 238.289 56.6588 237.493 57.7072 236.986C61.6295 235.131 65.8182 234.157 69.4767 231.486C71.465 230.037 73.699 228.967 75.6873 227.518C78.8151 225.238 81.8366 222.746 84.9181 220.358C85.8698 219.619 86.9348 219.009 87.8169 218.187C89.0983 216.995 90.2581 215.645 91.5053 214.387C93.4221 212.473 94.4855 210.141 94.887 207.473C95.2789 204.826 96.6787 202.708 98.4666 200.878C100.031 199.284 101.814 197.919 103.457 196.388C104.608 195.328 105.581 194.022 106.809 193.123C108.461 191.891 110.497 192.002 112.344 191.185C114.168 190.394 116.275 190.54 118.248 190.166C118.915 190.038 119.625 189.684 120.185 189.233C121.156 188.454 122.135 188.135 123.237 188.403C124.029 188.607 124.661 188.301 125.333 187.708C125.834 187.265 126.601 186.952 127.224 186.937C128.077 186.925 128.914 187.285 129.776 187.412C130.432 187.512 131.188 187.698 131.774 187.443C133.104 186.853 134.392 186.487 135.823 186.303C138.391 185.974 140.923 184.877 143.525 185.204C143.871 185.238 144.262 184.999 144.63 184.897C146.674 184.287 148.674 183.52 150.801 184.008C151.603 184.192 152.562 183.96 153.417 183.739C154.399 183.482 155.36 183.043 156.305 182.657C158.498 181.764 160.64 181.177 162.986 181.625C164.977 182.009 167.088 182.01 169.145 180.964C169.695 180.692 170.39 180.823 171.031 180.817C172.754 180.8 174.441 180.655 176.074 179.782C177.39 179.086 178.697 178.68 180.129 179.197C180.656 179.381 181.376 179.119 181.998 178.993C182.565 178.89 183.113 178.666 183.676 178.548C187.718 177.65 191.708 178.767 195.754 177.723C195.941 177.679 196.124 177.732 196.323 177.731C199.048 177.848 201.627 178.471 204.088 179.589C205.142 180.068 206.327 180.415 207.481 180.439C209.158 180.473 210.879 180.122 212.592 180.014C213.658 179.946 214.726 179.989 215.795 179.984C216.3 179.985 216.837 180.149 217.289 179.965C219.946 178.93 222.565 179.585 225.196 179.373C228.651 179.097 231.93 179.866 235.106 181.027C235.962 181.348 237.013 181.813 237.806 181.537C240.182 180.696 242.712 180.127 244.76 178.351C245.876 177.386 246.975 177.002 248.308 177.064C249.809 177.122 251.353 177.976 252.832 176.512C252.869 176.481 252.955 176.462 253.022 176.482C254.653 176.838 256.142 175.944 257.682 175.444C258.465 175.188 259.202 175.143 259.846 175.63C260.745 176.316 261.727 176.219 262.71 175.643C263.876 174.96 264.973 174.943 266.205 175.239C269.016 175.927 271.836 176.803 274.9 175.745C275.401 175.573 276 175.903 276.554 175.916C277.032 175.928 277.644 175.982 277.995 175.711C278.818 175.057 279.502 175.097 280.289 175.494C281.231 175.955 282.128 175.829 282.853 174.831C283.677 173.698 284.67 173.692 285.792 173.872C287.269 174.116 288.767 174.222 290.255 174.397C290.682 174.446 291.15 174.479 291.524 174.662C293.895 175.896 296.428 176.251 299.135 175.817C299.384 175.78 299.653 175.813 299.876 175.898C302.017 176.7 304.19 176.436 306.381 175.59C307.149 175.277 307.665 175.37 308.124 176.124C309.018 177.594 309.078 177.537 310.709 177.032C311.2 176.879 311.71 176.735 312.201 176.742C313.334 176.743 314.459 176.827 315.58 176.896C315.891 176.913 316.268 176.95 316.461 177.143C317.432 178.135 318.54 178.05 319.772 177.276L319.838 177.345ZM101.864 304.537C104.281 304.429 106.237 305.067 108.239 305.702C110.276 306.355 112.388 306.897 114.683 306.361C115.9 306.071 116.863 306.764 117.621 307.651C118.221 308.363 117.829 309.241 116.876 309.438C116.572 309.498 116.249 309.438 115.948 309.401C114.73 309.26 113.488 309.144 112.281 308.935C111.505 308.788 110.752 308.505 109.992 308.257C108.89 307.877 107.792 307.032 106.706 307.14C104.892 307.322 103.705 306.753 102.803 305.254C102.653 304.997 102.314 304.88 101.868 304.551L101.864 304.537ZM132.791 313.699C131.694 314.195 130.981 313.895 130.597 313.031C130.138 311.958 129.363 311.923 128.429 312.24C128.119 312.334 127.809 312.429 127.501 312.475C126.236 312.703 125.416 312.081 125.473 310.941C125.513 310.063 126.007 309.862 127.32 309.694C129.204 309.436 130.94 310.371 132.868 309.84C133.578 309.646 134.32 310.157 134.555 311.034C134.82 311.963 134.246 312.58 133.603 313.113C133.293 313.367 132.957 313.584 132.782 313.719L132.791 313.699ZM378.345 233.32C378.307 233.511 378.27 233.702 378.251 233.901C377.81 233.857 377.359 233.834 376.914 233.776C375.387 233.569 373.903 232.818 372.31 233.452C370.816 234.061 369.442 233.856 368.046 233.468C367.299 233.262 366.462 233.061 366.546 232.069C366.634 230.981 367.581 230.978 368.319 230.884C372.052 230.351 375.212 231.775 378.345 233.32ZM178.18 331.783C177.837 330.583 178.734 329.436 179.84 329.559C181.04 329.692 182.177 329.548 183.37 329.333C184.345 329.158 184.797 329.724 184.853 330.833C184.947 332.932 184.611 333.898 183.621 334.127C183.221 334.226 182.759 334.111 182.381 333.962C182.136 333.855 181.975 333.506 181.807 333.239C181.23 332.342 180.666 331.599 179.385 332.201C179.033 332.361 178.483 331.883 178.211 331.786L178.18 331.783ZM185.875 330.608C186.098 330.102 186.182 329.701 186.417 329.398C187.311 328.188 188.992 327.806 190.17 328.665C190.96 329.237 191.636 329.998 192.247 330.801C192.49 331.117 192.533 331.801 192.362 332.222C192.288 332.443 191.556 332.614 191.184 332.542C189.79 332.266 188.42 331.915 187.061 331.496C186.641 331.364 186.307 330.942 185.879 330.622L185.875 330.608ZM153.027 315.195C151.878 315.296 151.121 315.27 150.407 315.449C148.798 315.866 147.698 314.799 146.471 314.199C146.205 314.068 146.098 313.266 146.202 312.825C146.254 312.581 146.936 312.287 147.296 312.316C147.903 312.355 148.52 312.534 149.048 312.829C150.273 313.478 151.441 314.246 153.041 315.189L153.027 315.195ZM382.046 235.623C381.816 234.712 382.035 234.192 382.749 234.013C383.998 233.727 385.463 234.948 385.481 236.296C385.493 236.929 385.263 237.358 384.612 237.432C383.516 237.56 382.346 236.729 382.055 235.603L382.046 235.623ZM197.393 332.324C196.774 331.922 196.376 331.654 195.964 331.391C195.403 331.03 194.655 330.713 195.044 329.773C195.399 328.926 196.171 328.898 196.858 329.001C197.321 329.068 197.742 329.311 198.277 329.523C197.963 330.513 197.707 331.334 197.397 332.338L197.393 332.324ZM259.552 167.36C259.158 168.446 258.367 168.944 257.363 169.018C256.721 169.073 256.337 168.639 256.305 167.935C256.264 167.202 256.634 166.732 257.308 166.68C258.1 166.613 258.962 166.421 259.566 167.355L259.552 167.36ZM142.125 175.201C142.835 173.938 143.775 173.746 144.771 173.914C145.027 173.954 145.283 174.423 145.341 174.734C145.371 174.946 145.051 175.379 144.818 175.474C143.941 175.832 143.017 176.129 142.12 175.186L142.125 175.201ZM168.645 332.624C168.925 331.569 169.619 331.158 170.379 331.088C170.782 331.051 171.171 331.451 171.576 331.637C171.301 332.068 171.116 332.653 170.753 332.881C170.077 333.3 169.306 333.439 168.641 332.61L168.645 332.624ZM158.058 172.501C159.51 172.228 160.572 171.715 161.689 172.52C160.043 173.829 159.391 173.903 158.058 172.501ZM98.2933 302.851C96.7334 303.71 95.864 303.075 95.0232 302.541C94.8906 302.451 94.8109 301.958 94.9043 301.856C95.1046 301.646 95.4856 301.427 95.6771 301.509C96.4568 301.829 97.1747 302.254 98.2933 302.851ZM355.401 230.696C354.685 230.222 354.081 230.038 353.833 229.597C353.547 229.075 353.964 228.554 354.529 228.388C355.193 228.197 355.88 228.3 356.037 229.065C356.108 229.419 355.718 229.929 355.401 230.696ZM270.687 165.644C270.956 165.407 271.235 164.99 271.572 164.884C272.178 164.701 272.912 164.593 273.089 165.43C273.137 165.65 272.645 166.233 272.33 166.362C271.741 166.602 271.073 166.619 270.687 165.644ZM182.643 338.098C183.119 336.66 183.85 336.378 184.599 336.216C184.83 336.169 185.336 336.442 185.324 336.558C185.3 336.903 185.134 337.449 184.901 337.544C184.285 337.795 183.606 337.881 182.639 338.084L182.643 338.098ZM143.789 314.718C143.239 314.129 142.761 313.846 142.718 313.48C142.666 313.087 143.033 312.602 143.227 312.156C143.656 312.428 144.224 312.595 144.446 312.999C144.574 313.234 144.14 313.857 143.785 314.704L143.789 314.718ZM87.0959 299.632C87.6091 299.072 87.8677 298.584 88.0703 298.597C88.5699 298.632 89.0266 298.893 89.504 299.065C89.2637 299.402 89.0378 300.005 88.7748 300.048C88.3215 300.121 87.8607 299.847 87.0959 299.632ZM200.303 330.675C200.948 330.523 201.279 330.341 201.533 330.429C201.904 330.549 202.276 330.78 202.533 331.09C202.62 331.182 202.365 331.844 202.211 331.891C201.815 332.005 201.341 332.006 201.003 331.841C200.74 331.725 200.642 331.271 200.307 330.689L200.303 330.675ZM467.864 234.194C466.867 234.505 466.423 233.968 466.191 233.154C466.138 232.968 466.275 232.593 466.433 232.449C466.591 232.305 466.954 232.237 467.108 232.349C467.719 232.722 468.049 233.289 467.85 234.2L467.864 234.194ZM363.872 232.777C363.295 232.199 362.86 231.962 362.7 231.564C362.465 231.006 362.785 230.413 363.363 230.401C363.742 230.39 364.3 230.736 364.411 231.074C364.505 231.402 364.155 231.944 363.872 232.777ZM174.016 331.503C174.441 331.761 174.716 331.92 174.99 332.079C174.787 332.385 174.64 332.78 174.382 332.949C174.226 333.044 173.691 332.832 173.678 332.678C173.637 332.375 173.86 332.029 174.02 331.518L174.016 331.503ZM483.559 245.244C483.219 245.016 482.848 244.896 482.827 244.714C482.807 244.483 483.044 244.083 483.246 243.985C483.424 243.912 483.846 244.106 483.899 244.292C483.956 244.492 483.73 244.824 483.559 245.244ZM122.431 178.716C122.677 178.344 122.812 178.066 123.02 177.885C123.081 177.829 123.51 178.1 123.497 178.217C123.467 178.485 123.309 178.788 123.122 178.992C123.075 179.043 122.761 178.852 122.431 178.716ZM279.063 165.834C279.268 165.479 279.347 165.223 279.513 165.108C279.587 165.046 279.927 165.163 279.942 165.268C279.995 165.454 279.883 165.707 279.84 165.931C279.634 165.904 279.445 165.885 279.063 165.834ZM118.926 179.028C119.049 179.138 119.172 179.247 119.254 179.373C119.266 179.416 119.078 179.668 119.042 179.651C118.89 179.601 118.781 179.486 118.648 179.397C118.728 179.3 118.804 179.19 118.926 179.028Z" fill="#757B7C"/>
<path d="M68.2266 302.248C68.618 302.39 69.0201 302.624 69.0995 302.528C69.3184 302.28 69.3929 301.9 69.5288 301.574C69.2614 301.492 68.9712 301.277 68.7349 301.357C68.5574 301.43 68.4459 301.841 68.2266 302.248Z" fill="#757B7C"/>
<path d="M242.56 279.664C244.367 278.545 245.616 278.419 246.973 278.727C247.757 278.901 248.708 278.482 249.571 278.289C250.879 277.995 252.175 277.658 253.475 277.336C254.289 277.132 255.097 276.962 255.886 276.672C257.419 276.095 258.916 275.389 260.435 274.817C263.811 273.568 265.679 271.053 266.255 267.389C266.501 265.837 268.199 264.283 269.838 264.668C271.872 265.147 273.66 264.338 275.594 263.932C277.905 263.453 280.028 262.475 282.231 261.673C283.143 261.333 283.769 260.791 284.183 259.776C284.456 259.123 284.988 258.523 285.522 258.034C286.581 257.029 287.421 255.952 287.943 254.511C288.402 253.224 289.093 252.001 289.722 250.772C289.88 250.468 290.079 250.148 290.328 249.95C292.753 248.101 293.344 245.563 293.227 242.739C293.196 242.146 293.185 241.465 293.4 240.931C293.946 239.575 294.491 238.269 294.248 236.773C294.192 236.413 294.542 235.872 294.815 235.489C295.278 234.806 295.755 234.117 296.305 233.526C297.497 232.29 298.199 230.888 298.458 229.171C298.572 228.391 299.123 227.64 299.314 226.861C299.438 226.331 299.477 225.502 299.187 225.238C298.81 224.881 298.087 224.92 297.508 224.821C297.41 224.798 297.257 224.908 297.16 224.995C294.867 227.413 293.035 225.656 291.244 224.632C289.31 223.538 287.626 221.976 285.648 220.996C284.253 220.289 282.57 220.178 281.006 219.842C279.621 219.546 278.152 219.491 276.83 219.04C273.321 217.839 269.814 216.59 266.393 215.161C263.422 213.916 260.553 212.438 257.665 211C257.132 210.739 256.604 210.284 256.327 209.743C255.169 207.504 253.07 206.956 250.938 206.454C250.333 206.318 249.687 206.358 249.092 206.202C248.205 205.989 247.554 206.334 246.817 206.969C246.02 207.661 245.092 208.215 244.163 208.658C242.657 209.383 241.235 210.138 240.276 211.709C239.532 212.906 238.801 213.188 237.666 212.534C236.075 211.62 234.379 211.466 232.579 211.753C231.482 211.929 230.71 211.527 229.968 210.696C227.918 208.39 225.583 206.423 222.875 204.975C221.486 204.234 220.67 204.375 219.436 205.628C218.58 206.487 217.688 207.329 216.81 208.166C216.16 208.782 215.995 209.328 216.531 210.082C217.556 211.53 217.412 211.509 216.45 213.177C215.179 215.37 213.939 217.566 214.014 220.295C214.058 221.952 213.636 223.687 213.318 225.363C212.534 229.479 214.402 232.003 217.192 234.008C217.691 234.363 218.184 234.752 218.726 235.041C219.476 235.421 220.237 235.781 221.045 236.042C222.331 236.474 223.724 236.64 224.929 237.217C229.146 239.183 233.467 240.818 238.148 241.462C238.817 241.556 239.443 241.875 240.125 242.011C243.842 242.761 247.556 243.448 251.249 244.223C252.943 244.585 254.61 244.958 256.377 244.987C257.392 245.004 258.446 245.484 259.295 246.047C260.237 246.667 260.076 247.658 259.029 248.276C258.4 248.645 257.721 249.001 257.046 249.101C253.14 249.672 249.493 251.366 245.811 252.883C243.523 253.816 241.251 254.216 238.912 253.686C238.258 253.538 237.324 253.696 236.752 254.104C235.697 254.854 234.693 254.928 233.525 255.069C231.781 255.286 230.075 256.061 228.341 256.577C227.735 256.76 227.13 256.943 226.519 257C224.954 257.144 223.372 257.119 221.813 257.34C220.168 257.58 218.535 258.022 216.91 258.382C215.211 258.756 213.818 259.611 212.571 261.028C210.734 263.117 208.861 265.236 206.114 265.957C205.46 266.128 204.8 266.605 204.27 267.108C203.091 268.227 201.968 269.386 200.447 270.006C199.995 270.191 199.601 270.846 199.323 271.374C198.906 272.165 198.596 273.01 198.269 273.845C197.708 275.206 197.858 275.623 199.055 276.172C199.282 276.271 199.538 276.31 199.732 276.454C200.407 276.944 200.311 277.733 199.534 278.226C199.143 278.465 198.684 278.572 198.284 278.831C197.272 279.467 196.977 280.416 197.716 281.184C198.809 282.333 199.838 283.476 200.298 285.139C200.391 285.468 200.934 285.709 201.336 285.832C203.764 286.565 206.2 287.279 208.642 287.958C208.991 288.055 209.448 288.155 209.755 287.998C211.149 287.255 212.397 287.767 213.612 288.165C215.349 288.732 216.84 288.22 218.232 286.935C220.312 285.002 222.68 284.133 225.299 283.878C227.249 283.689 229.145 283.044 231.024 282.23C232.437 281.606 233.994 281.434 235.479 281.116C238.035 280.584 240.603 280.096 242.599 279.696L242.56 279.664Z" fill="#757B7C"/>
<path d="M98.5086 226.359C97.8612 226.878 97.2403 227.275 96.7682 227.818C96.2453 228.398 95.5056 229.131 95.4631 229.786C95.3567 231.504 95.2215 233.282 96.1039 234.82C96.3521 235.261 96.5188 236.006 96.3385 236.447C95.6542 238.177 96.3074 239.394 97.2867 240.414C97.9642 241.127 98.875 241.585 99.7117 242.105C100.553 242.64 101.488 243.024 102.259 243.635C103.206 244.381 103.215 245.271 102.281 246.178C100.937 247.475 100.169 249.017 99.8157 250.835C99.7313 251.236 99.6414 251.672 99.4285 251.998C98.0962 253.976 97.8694 256.238 97.5989 258.454C97.532 259.023 97.8125 259.738 98.1551 260.189C98.7189 260.932 99.4114 261.59 100.129 262.175C100.947 262.846 101.441 263.666 101.62 264.773C101.707 265.296 101.868 265.805 102.093 266.271C102.38 266.903 103.023 267.12 103.508 266.619C105.197 264.926 107.603 264.407 109.073 262.373C109.27 262.101 109.579 261.895 109.755 261.6C111.99 257.962 115.401 256.3 118.9 254.73C122.7 253.037 126.61 252.049 130.596 251.493C131.846 251.318 133.13 251.098 134.36 250.692C135.549 250.303 136.699 250.312 137.7 250.765C139.6 251.634 141.624 251.542 143.63 251.283C146.61 250.897 149.382 251.553 152.165 252.141C154.052 252.536 155.619 252.504 156.928 250.551C157.216 250.114 157.698 249.71 158.146 249.512C160.385 248.567 161.318 246.528 162.141 244.374C162.195 244.241 162.177 244.072 162.261 243.99C163.998 242.197 163.506 240.149 163.117 238.25C162.67 236.04 163.049 233.669 162.198 231.543C161.992 231.037 162.386 230.111 162.694 229.475C162.954 228.938 163.476 228.518 163.909 228.103C164.824 227.235 165.22 226.212 165.064 224.968C164.962 224.18 164.983 223.342 164.853 222.566C164.661 221.464 164.017 221.136 163.075 221.696C162.63 221.957 162.247 222.384 161.883 222.772C160.028 224.74 157.936 225.131 156.077 223.544C154.542 222.24 152.831 221.98 150.889 221.927C148.333 221.868 145.822 221.377 143.285 221.119C142.624 221.054 141.933 221.096 141.245 221.153C140.621 221.217 139.973 221.465 139.36 221.46C137.741 221.418 136.755 220.32 136.932 218.685C137.23 215.98 137.507 213.251 137.995 210.564C138.202 209.411 138.784 208.233 139.406 207.198C139.953 206.273 140.393 205.456 140.354 204.355C140.328 203.728 140.683 203.041 140.897 202.395C141.16 201.602 141.512 200.853 141.698 200.059C141.921 199.123 141.616 198.322 140.948 197.749C140.236 197.13 139.45 197.323 138.646 197.778C138.013 198.132 137.38 198.486 136.726 198.769C135.532 199.303 135.086 199.884 134.982 201.234C134.949 201.71 135.025 202.189 134.93 202.659C134.726 203.715 134.144 204.032 133.259 203.611C131.436 202.744 131.453 202.752 130.187 204.481C129.175 205.866 127.947 207.084 127.484 208.837C127.402 209.141 127.166 209.492 126.912 209.676C125.236 210.933 124.53 212.8 123.912 214.711C123.27 216.695 122.84 216.902 121.152 216.027C120.544 215.717 119.964 215.347 119.346 215.057C118.408 214.61 117.452 214.425 116.48 215.253C115.864 215.775 115.34 215.653 114.76 215.284C113.176 214.287 111.716 214.531 110.297 215.939C110.013 216.23 109.755 216.559 109.489 216.859C108.399 218.132 107.176 218.726 105.745 217.891C104.752 217.306 103.938 217.67 103.198 218.562C102.336 219.615 101.526 220.743 100.607 221.756C100.084 222.336 99.4663 222.906 98.8071 223.223C97.3654 223.907 97.2498 224.145 98.0955 225.555C98.1896 225.724 98.27 225.898 98.5264 226.368L98.5086 226.359Z" fill="#757B7C"/>
<path d="M126.716 288.427C127.763 287.968 128.047 287.087 127.487 286.358C127.071 285.81 126.578 285.262 126.001 284.955C124.096 283.961 122.162 283.027 120.18 282.192C118.929 281.666 117.555 281.46 116.313 280.914C114.39 280.071 112.309 280.122 110.282 279.88C109.931 279.831 109.501 280.198 109.107 280.374C109.316 280.784 109.413 281.446 109.752 281.563C111.126 282.088 112.578 282.405 113.97 282.89C117.5 284.162 121.229 284.955 124.283 287.298C124.733 287.641 125.183 287.984 125.676 288.213C126.046 288.382 126.488 288.377 126.712 288.413L126.716 288.427Z" fill="#757B7C"/>
<path d="M93.8587 275.735C94.6035 277.488 95.9907 276.508 96.8353 277.056C96.0911 276.323 95.3811 275.497 93.8587 275.735Z" fill="#757B7C"/>
<path d="M127.5 282.24C127.574 282.019 127.72 281.785 127.669 281.711C127.587 281.586 127.379 281.496 127.235 281.523C127.136 281.548 126.969 281.87 127.02 281.944C127.088 282.075 127.284 282.122 127.5 282.24Z" fill="#757B7C"/>
<path d="M160.284 73.5064C161.443 72.4668 161.208 71.247 161.054 70.0384C160.937 69.0549 160.445 68.2827 159.409 67.9767C157.149 67.309 155.711 65.789 154.362 64.2376C152.758 62.3866 151.31 60.4256 149.915 58.4428C148.921 57.0289 149.134 56.4724 150.372 55.2093C150.919 54.6411 151.49 53.9589 151.664 53.2652C151.956 52.075 152.664 51.3681 153.874 50.8191C155.233 50.1885 156.531 49.4468 157.773 48.6533C158.234 48.3513 158.739 47.7478 158.75 47.2805C158.778 45.9948 159.457 45.1079 160.532 44.3203C161.626 43.5207 162.045 42.4363 161.975 41.2248C161.904 39.8521 161.186 39.2094 159.601 39.3981C158.015 39.5868 156.389 39.8137 154.921 40.3265C152.525 41.1492 150.06 41.0829 147.615 41.0782C146.019 41.0748 144.599 41.4331 143.18 41.9527C142.444 42.2163 141.669 42.4302 140.905 42.5872C139.499 42.8743 138.046 43.0668 136.651 43.3846C135.172 43.7054 134.9 43.6527 134.174 42.5547C133.74 41.9078 133.2 41.2901 132.839 40.6095C132.549 40.0707 132.237 39.3969 132.379 38.8599C132.601 38.0117 132.348 37.5367 131.628 37.0696C131.113 36.7339 130.706 36.2813 130.274 35.8692C128.802 34.4325 127.119 33.4643 124.744 33.9382C124.259 34.0317 123.714 34.014 123.231 33.9319C122.218 33.761 121.847 33.2109 122.312 32.3966C123.061 31.0799 123.827 29.7655 125.305 28.8731C127.283 27.6548 129.082 26.1626 131.16 25.1049C132.626 24.3573 134.406 23.9467 136.1 23.7146C137.504 23.5153 139.006 23.9012 140.442 23.7942C142.534 23.6471 144.595 23.2465 146.683 23.0402C147.89 22.9158 149.15 22.7697 150.334 22.9205C156.8 23.766 163.248 24.6969 169.702 25.5993C171.563 25.8594 173.423 26.1195 175.258 26.4201C175.679 26.4789 176.193 26.5655 176.441 26.82C177.63 28.012 179.34 28.1925 180.932 28.5469C183.859 29.2053 186.585 30.3632 189.612 30.8596C191.835 31.2145 193.887 32.3366 195.999 33.1595C196.507 33.3624 196.909 33.7557 197.362 34.0681C197.755 34.3429 198.094 34.8007 198.531 34.8618C200.369 35.1481 201.346 36.2372 202.291 37.4831C203.632 39.2385 204.036 39.2951 206.4 38.4678C207.491 38.0928 209.056 38.5755 209.613 39.7671C210.315 41.228 211.522 41.6752 213.159 41.8016C214.878 41.9393 216.565 42.2338 218.261 42.4856C218.6 42.5331 218.949 42.6991 219.247 42.8726C220.359 43.5409 221.498 43.9933 222.927 43.5922C223.173 43.5242 223.537 43.7802 224.038 43.9381C223.714 44.3032 223.554 44.6031 223.276 44.7402C222.259 45.2428 222.047 45.9605 222.413 46.8617C222.858 47.9496 224.081 48.8094 225.203 48.5266C226.745 48.1414 227.634 48.5148 228.429 49.6811C228.76 50.1816 229.652 50.5408 230.363 50.6403C231.913 50.8717 233.307 51.301 234.429 52.2492C234.586 52.3739 234.724 52.5982 234.902 52.6231C237.191 52.8992 238.393 54.5181 239.996 55.6362C240.711 56.1317 241.592 56.4601 242.558 56.9469C242.336 58.8648 244.308 59.6388 245.657 60.7799C246.265 61.3047 246.992 61.7433 247.724 62.1533C248.936 62.821 249.613 63.6631 250.088 64.9312C250.528 66.1212 251.698 67.1639 252.741 68.0865C253.588 68.835 253.768 69.505 253.767 70.5747C253.758 71.8483 254.43 73.1293 254.93 74.3568C255.042 74.6217 255.619 74.8929 255.987 74.8856C258.04 74.8503 259.49 75.903 261.099 76.7435C263.701 78.1038 266.397 79.3307 269.048 80.61C271.638 81.866 274.28 83.0268 276.78 84.402C280.984 86.7191 285.207 89.0241 288.775 92.1021C289.255 92.521 289.844 93.1455 289.84 93.6579C289.784 95.4086 290.945 96.4941 292.176 97.5601C294.387 99.452 295.717 101.836 297.101 104.198C297.816 105.427 298.564 106.66 299.391 107.831C299.975 108.645 300.82 109.232 301.976 109.438C302.54 109.531 303.099 109.726 303.576 109.998C305.756 111.226 308.024 110.869 310.28 110.159C312.233 109.553 313.223 109.677 314.459 111.124C316.058 113.004 317.788 114.726 319.833 116.287C321.376 117.455 322.234 119.216 323.255 120.824C324.62 122.95 325.437 125.321 326.982 127.295C328.063 128.692 329.408 129.935 330.203 131.512C330.584 132.254 330.982 132.998 331.207 133.777C331.987 136.494 334.32 137.949 336.905 139.146C337.469 139.4 338.43 139.418 338.998 139.16C341.15 138.23 343.405 137.607 345.49 136.433C347.781 135.142 349.931 133.318 353.033 133.194C354.158 133.146 355.338 132.168 356.363 131.462C357.216 130.863 357.939 130.495 359.109 130.717C359.847 130.85 360.847 130.594 361.551 130.238C363.014 129.505 363.215 128.185 361.945 127.231C361.108 126.601 360.001 126.153 358.92 125.826C356.604 125.106 356.213 124.656 356.674 122.464C356.899 121.352 357.076 120.234 356.004 119.454C355.38 119 354.54 118.633 353.728 118.535C351.509 118.239 350.166 117.069 349.622 115.323C349.223 114.095 348.494 113.421 347.271 112.81C346.106 112.237 345.048 111.386 344.182 110.488C340.335 106.492 336.818 102.263 332.264 98.7982C330.143 97.1975 328.414 95.2265 325.965 93.9315C325.152 93.5102 324.654 92.6052 324.085 91.8809C322.431 89.7884 320.585 87.8158 318.17 86.4377C315.961 85.1909 314.131 83.8799 312.83 81.7637C311.814 80.1269 309.75 78.9883 308.144 77.6355C307.832 77.372 307.415 77.2111 307.119 76.9499C304.928 74.9583 302.8 72.9022 300.53 70.9728C299.312 69.9233 297.889 69.0649 296.548 68.1301C295.037 67.0541 293.541 65.9804 292.027 64.9186C289.489 63.1571 286.971 61.3835 284.393 59.6602C283.604 59.1248 282.638 58.7993 281.786 58.3284C281.129 57.9582 280.516 57.5354 279.906 57.0984C278.961 56.4241 278.08 55.6854 277.111 55.0516C275.375 53.9298 273.593 52.8746 271.814 51.8051C269.266 50.2619 266.712 48.7471 264.161 47.2181C263.628 46.8944 262.917 46.7071 262.555 46.2755C261 44.4314 258.704 43.4509 256.643 42.2103C254.746 41.0658 252.833 39.9189 251.02 38.6837C249.939 37.9464 248.841 37.4557 247.428 37.6978C245.947 37.945 244.921 37.3473 244.088 36.3663C243.405 35.5527 242.724 34.7248 241.902 34.0236C240.684 32.9741 239.827 32.8542 238.422 33.7129C237.223 34.4539 236.227 34.1974 235.178 33.7136C233.577 32.9916 232.005 32.2148 230.405 31.4929C229.642 31.1518 229.316 30.7105 229.653 29.9516C229.778 29.6614 229.842 29.3479 229.961 28.9249C228.007 27.8164 226.12 26.7026 224.189 25.6414C222.723 24.8354 221.162 24.163 219.698 23.3428C216.892 21.7634 213.896 20.5385 210.762 19.5874C209.963 19.3438 208.934 19.5809 208.037 19.7341C207.504 19.8207 207.029 20.194 206.564 20.4367C205.346 19.6362 206.531 18.8786 206.504 18.025C205.759 17.0268 204.523 16.9712 203.296 17.1953C202.191 17.3926 201.14 17.8172 200.08 18.1232C199.58 17.1447 199.41 16.0952 198.714 15.6754C198.197 15.354 197.015 15.8482 195.9 16.0147C193.589 13.4642 189.897 13.7099 186.468 13.553C184.309 13.4562 182.479 12.9658 180.838 11.8717C179.973 11.2965 179.184 11.0837 178.046 11.3642C176.036 11.8451 175.58 11.547 174.916 9.73948C174.496 8.61101 174.114 7.45856 173.784 6.29865C173.577 5.59564 173.091 5.20524 172.32 5.06818C171.565 4.93338 171.142 5.29913 170.748 5.84494C169.428 7.68255 168.973 7.70698 167.096 6.30144C166.561 5.90426 165.948 5.48153 165.294 5.34605C164.033 5.08187 163.565 4.35691 163.302 3.35307C163.009 2.25695 162.575 1.19972 162.169 0C160.701 0.512798 159.53 1.03783 158.292 1.319C157.192 1.57552 156.013 1.73296 154.895 1.66467C153.549 1.57896 152.355 1.71987 151.08 2.1863C147.106 3.65298 143.07 4.93512 139.096 6.4018C137.012 7.16546 135.029 8.16321 132.965 8.98839C132.042 9.35754 131.055 9.62991 130.07 9.81449C126.869 10.4221 123.514 10.6417 120.454 11.6207C116.521 12.8879 112.407 12.7523 108.459 13.6804C105.524 14.3692 102.428 14.4638 99.4519 15.0295C96.1102 15.676 92.8328 16.5806 89.5061 17.3172C87.0357 17.851 84.519 18.2025 82.059 18.7671C79.8942 19.2704 77.783 20.0011 75.6332 20.5944C74.9446 20.7912 74.2513 20.9287 73.5419 21.064C72.4858 21.2681 71.4012 21.3655 70.3792 21.6476C68.438 22.1968 66.4777 22.758 64.6312 23.4964C62.2387 24.4661 59.874 25.3811 57.2014 25.6815C55.7542 25.8455 54.3162 26.5384 52.9763 27.157C49.077 28.9125 45.209 30.7604 41.3333 32.5632C40.1021 33.1384 38.8235 33.6191 37.6027 34.2251C34.3643 35.8385 31.1525 37.4851 27.9141 39.0985C27.2832 39.4206 26.5355 39.5799 25.9502 39.923C24.6271 40.7052 23.341 41.5512 22.0843 42.4159C21.6209 42.7321 21.3199 43.2323 20.849 43.5035C17.1391 45.6372 15.2327 49.0489 12.8474 52.1152C12.4406 52.6445 12.0472 53.1903 11.7316 53.7617C11.3167 54.495 10.8313 55.2478 10.64 56.027C10.1388 58.1697 9.58916 60.3057 9.39821 62.4772C9.15689 65.3889 7.52441 67.6959 5.71408 69.978C5.46677 70.2951 5.06636 70.5469 4.89704 70.8895C3.87939 72.8721 2.78779 74.7272 0.876461 76.2771C-0.496946 77.3893 -0.114734 79.5236 1.04804 80.8439C1.65455 81.5442 2.20099 82.2947 2.6931 83.0669C3.75415 84.7247 4.57603 86.4955 6.35872 87.712C6.79775 88.0078 7.09929 88.4896 7.39618 88.9122C9.01349 91.1899 11.4003 92.8718 13.3562 94.8745C15.2295 96.7924 16.8902 98.8563 18.6081 100.884C19.6264 102.097 20.6228 103.335 21.5458 104.607C21.8693 105.063 22.1535 105.63 22.1789 106.161C22.2186 107.031 22.6276 107.557 23.4756 107.969C25.609 109.015 27.2628 110.374 28.0522 112.551C28.4039 113.523 29.4664 114.273 30.1896 115.136C31.4043 116.61 32.619 118.084 33.8147 119.57C33.8944 119.669 33.9112 119.833 34.0129 119.905C35.5327 121.188 36.1367 122.474 34.3461 124.085C34.0809 124.326 34.4193 125.282 34.7531 125.768C34.9143 126.04 35.7116 126.21 36.0698 126.084C36.3766 125.966 36.6169 125.355 36.5921 124.985C36.5281 124.316 36.2423 123.676 35.9299 122.591C36.8069 122.861 37.4168 122.887 37.7426 123.167C38.4664 123.781 39.233 124.431 39.6384 125.22C40.4361 126.783 41.7364 127.917 43.1263 129.02C44.0136 129.73 44.7501 130.61 45.5524 131.411C45.7869 131.649 46.0071 131.958 46.2999 132.072C47.6465 132.568 48.1202 133.513 48.4799 134.692C48.8368 135.885 49.8453 136.817 51.2838 137.107C52.2105 137.295 52.7777 137.696 53.2652 138.409C53.6493 138.976 54.3356 139.365 54.9046 139.84C55.4176 140.264 56.0963 140.608 56.4406 141.125C57.058 142.017 57.9725 142.511 59.0343 142.689C60.608 142.968 61.6207 143.798 62.3756 144.915C63.1438 146.048 64.1431 146.862 65.5735 147.355C66.1327 147.55 66.6428 147.988 67.0396 148.41C68.6669 150.147 70.5801 151.294 73.3139 151.265C75.0292 151.256 76.523 151.846 77.6928 153.05C78.3802 153.762 79.2306 154.408 80.1451 154.902C81.1052 155.418 81.703 156.161 82.4505 156.822C83.6919 157.919 85.2584 158.724 86.7211 159.632C87.1203 159.878 87.6586 160.012 88.0168 160.297C89.9566 161.887 91.7925 163.58 93.8172 165.079C95.8419 166.578 98.0277 167.939 100.181 169.295C101.523 170.142 102.915 170.909 104.323 171.677C104.8 171.949 105.349 172.113 105.87 172.333C106.316 172.512 106.898 172.594 107.221 172.888C108.945 174.477 111.199 174.925 113.539 174.871C116.095 174.818 118.575 173.992 120.175 172.252C121.631 170.653 122.216 168.508 123.643 166.802C123.778 166.63 123.769 166.263 123.661 166.057C122.796 164.5 123.929 163.75 125.177 162.928C126.406 162.118 127.51 161.188 128.587 160.225C129.522 159.388 130.581 159.17 131.774 159.439C132.474 159.596 133.154 159.852 133.796 160.132C136.819 161.464 140.06 162.547 142.735 164.284C144.749 165.591 146.796 165.995 149.105 166.259C150.421 166.413 151.641 167.287 153.071 166.55C153.125 166.528 153.242 166.529 153.281 166.579C154.668 167.696 156.34 167.329 157.988 167.325C158.603 167.323 159.375 167.783 159.766 168.233C160.671 169.268 161.856 169.493 163.229 169.45C163.596 169.443 163.956 169.39 164.321 169.397C165.744 169.435 166.027 169.68 166.183 170.962C166.227 171.32 166.322 171.67 166.421 172.168C166.952 172.007 167.38 171.95 167.714 171.777C168.549 171.352 169.075 171.63 169.553 172.225C171.246 174.293 173.89 174.545 176.461 174.744C177.443 174.823 178.35 174.7 178.842 175.634C179.224 176.376 179.98 176.584 180.824 176.526C181.986 176.454 182.924 176.834 183.84 177.402C184.416 177.761 185.058 178.203 185.738 178.298C189.223 178.829 192.069 180.707 195.372 181.564C196.744 181.932 198.206 182.107 199.659 182.164C201.821 182.246 203.767 182.738 205.587 183.769C206.512 184.294 207.673 184.559 208.778 184.772C212.315 185.457 216.048 185.672 219.344 186.807C222.377 187.846 225.478 188.221 228.591 188.7C233.381 189.443 238.191 190.087 243.001 190.73C245.573 191.089 248.191 191.06 250.704 191.792C251.6 192.049 252.721 191.854 253.711 191.729C254.563 191.628 255.327 191.633 255.928 192.2C258.091 194.247 261.038 193.985 263.838 194.127C265.203 194.201 266.596 194.058 267.939 194.246C272.015 194.816 276.076 195.545 280.152 196.115C283.08 196.524 286.047 196.822 288.995 197.131C289.564 197.196 290.158 197.059 290.725 197.051C291.808 197.041 292.942 196.863 293.947 197.076C297.459 197.802 300.884 197.24 304.32 196.622C304.39 196.602 304.471 196.613 304.531 196.563C306.327 195.173 308.724 194.424 310.088 192.622C311.204 191.136 312.63 190.178 314.611 189.84C317.508 189.336 320.205 188.423 322.582 186.792C323.315 186.294 324.293 186.064 325.136 185.684C325.87 185.347 326.569 184.932 326.459 184.081C326.352 183.216 325.721 182.717 324.816 182.503C324.054 182.323 323.256 182.241 322.466 182.116C321.819 182.025 321.119 182.03 320.55 181.804C318.809 181.121 317.161 180.715 315.527 182.127C315.303 182.331 314.335 182.181 314.006 181.915C313.299 181.303 312.521 181.282 311.625 181.274C309.877 181.279 308.141 181.227 306.4 181.115C305.958 181.083 305.248 180.808 305.187 180.535C305.084 180.14 305.348 179.576 305.656 179.209C306.224 178.541 306.923 177.964 307.579 177.353C308.69 176.306 310.097 176.093 311.595 176.17C312.17 176.207 312.735 176.374 313.307 176.424C314.71 176.562 315.474 176.156 315.574 174.924C315.659 173.852 316.049 173.159 317.113 172.589C317.896 172.171 318.542 169.888 318.124 169.243C317.91 168.905 317.398 168.555 316.975 168.511C315.318 168.396 313.657 168.384 312.012 168.374C311.364 168.371 310.686 168.599 310.071 168.513C308.162 168.246 306.324 168.37 304.437 168.736C303.865 168.847 303.083 168.767 302.59 168.492C301.71 167.989 300.911 167.994 299.925 168.179C298.731 168.407 297.473 168.378 296.237 168.484C295.967 168.504 295.703 168.658 295.293 168.791C295.709 169.611 296.585 169.558 297.254 169.783C297.969 170.03 299.073 170.082 298.905 170.996C298.705 171.979 297.598 171.942 296.76 171.81C294.663 171.487 292.944 172.581 291.108 173.101C288.443 173.856 285.785 174.496 282.997 174.546C282.346 174.557 281.633 174.545 281.044 174.742C278.77 175.537 276.366 175.333 274.133 175.109C271.851 174.878 269.404 174.477 267.544 172.986C267.13 172.65 266.637 172.288 266.115 172.156C263.555 171.49 261.013 170.739 258.395 170.358C256.503 170.094 255.029 169.404 253.605 168.385C252.576 167.64 251.371 166.856 250.101 166.634C246.886 166.082 244.233 164.568 241.408 163.323C240.127 162.748 238.821 162.214 237.491 161.72C235.819 161.106 234.199 160.483 233.08 159.111C232.147 157.969 230.698 157.649 229.181 158.155C227.111 158.848 225.098 158.933 222.97 158.518C221.962 158.318 220.798 158.478 219.769 158.715C217.954 159.135 216.19 159.709 214.346 160.111C212.395 160.542 210.513 161.7 208.896 162.866C207.336 163.996 205.906 164.485 203.919 164.193C201.531 163.829 199.272 163.323 197.155 162.279C196.111 161.767 194.852 161.576 193.684 161.267C193.336 161.174 192.95 161.193 192.622 161.089C189.513 160.097 186.431 159.051 183.313 158.102C180.588 157.267 177.824 156.543 175.066 155.791C174.718 155.699 174.291 155.756 174.007 155.599C171.422 154.153 168.476 153.507 165.639 152.568C162.678 151.583 159.834 150.35 156.957 149.2C156.572 149.044 156.053 148.898 155.879 148.61C154.544 146.415 151.61 146.445 149.626 145.156C149.01 144.748 148.309 144.43 147.649 144.074C147.052 143.741 146.479 143.368 145.853 143.09C143.783 142.141 141.905 140.985 140.594 139.248C139.636 137.985 138.588 136.755 137.703 135.458C136.972 134.389 136.412 133.212 135.776 132.082C135.655 131.86 135.592 131.514 135.393 131.428C134.983 131.239 134.456 131.048 134.057 131.124C133.781 131.173 133.423 131.709 133.446 132.006C133.482 132.568 133.721 133.114 133.946 133.644C134.291 134.483 134.764 135.267 135.055 136.129C135.523 137.513 134.487 138.848 132.865 138.724C130.032 138.504 128.028 139.689 126.204 141.383C125.775 141.777 125.145 142.012 124.577 142.269C123.933 142.575 123.242 142.786 122.611 143.108C120.903 143.983 119.516 145.079 119.555 147.019C119.556 147.18 119.356 147.342 119.169 147.609C118.647 147.478 118.122 147.36 117.473 147.196L117.109 148.992C115.81 149.162 115.065 148.486 114.463 147.845C112.218 145.465 109.957 143.083 107.959 140.547C107.045 139.393 106.701 137.894 106.124 136.553C105.92 136.085 105.843 135.561 105.603 135.103C104.503 132.985 104.089 130.759 104.112 128.432C104.12 127.407 104.145 126.385 104.002 125.368C103.825 124.025 103.377 122.79 101.885 122.024C100.681 121.402 100.627 121.013 101.549 120.072C102.201 119.401 103.032 118.829 103.842 118.282C105.682 117.001 105.498 115.613 103.361 114.83C102.063 114.341 100.561 114.614 99.5407 115.542C99.0733 115.96 98.6942 116.434 98.2135 116.836C97.1128 117.752 95.9832 117.99 94.4413 117.554C91.6401 116.767 88.7105 116.284 85.8392 115.677C85.4892 115.599 85.0895 115.602 84.7833 115.471C82.8521 114.659 80.8388 113.923 79.0261 112.937C77.4842 112.091 76.0157 111.212 74.1121 111.165C74.0312 111.154 73.9498 110.982 73.7609 110.765C74.423 110.535 75.0308 110.327 75.9997 109.979C75.4087 109.53 75.0825 109.088 74.622 108.98C72.4447 108.397 71.0329 106.91 69.3986 105.7C68.5882 105.103 67.6823 104.566 66.7621 104.1C63.6553 102.523 60.4567 101.152 57.8925 98.7861C55.8886 96.9379 53.3087 95.5514 50.9633 93.9925C49.5284 93.0299 47.9295 92.2201 48.3209 90.2086C48.477 89.4391 47.8195 88.9075 47.0321 88.6069C45.3013 87.9546 45.2456 86.2616 44.2774 85.1297C44.155 84.9954 44.5722 84.4968 44.752 84.1849C45.1067 84.3224 45.4994 84.4359 45.8264 84.6282C45.9737 84.7221 46.0408 84.9659 46.0546 85.1437C46.2358 86.9569 47.5182 87.6051 49.4206 87.7392C50.9129 87.8453 52.1746 88.432 53.3195 89.2662C54.0312 89.776 54.9595 90.0377 55.6931 90.5213C56.8231 91.2655 57.8842 92.1026 58.9703 92.8993C60.1712 93.7852 61.3225 94.7522 62.5893 95.5595C63.6367 96.2188 64.8376 96.6945 66.286 96.4427C66.7951 95.3269 66.0761 94.772 65.1171 94.5793C62.5798 94.0487 60.9882 92.4633 59.2414 90.9881C57.4385 89.4611 55.3924 88.1492 53.5046 86.7129C51.5608 85.2248 49.5846 83.7322 47.7858 82.1032C47.1533 81.5312 46.8208 80.5468 46.74 79.7149C46.6696 78.9137 46.4749 78.3149 45.9625 77.6425C44.5716 75.8067 42.7594 74.5715 40.5348 73.4837C38.4632 72.4614 37.0441 70.5191 36.5118 68.3051C36.3969 67.8055 36.442 67.2549 36.1803 66.8227C34.8392 64.4956 35.2508 61.974 35.2511 59.5121C35.2552 58.9998 35.6546 58.4255 36.0145 57.9629C36.5675 57.2049 37.2385 56.5221 37.8533 55.7874C38.1168 55.4725 38.5668 55.1398 38.5466 54.8292C38.4827 52.9299 39.858 51.4809 40.4799 49.8093C41.0902 48.1947 42.1885 47.044 43.9373 46.5412C47.8903 45.4233 51.748 43.955 55.8956 43.4359C57.4676 43.2307 59.0436 42.9235 60.5723 42.5217C64.687 41.4265 68.9375 40.8924 73.0609 39.7543C76.1461 38.8961 79.4836 38.762 82.6993 38.2444C83.8334 38.0659 84.9375 37.7074 86.0566 37.4389C87.5414 37.0896 89.0203 36.7688 90.5051 36.4196C92.7595 35.8848 95.0138 35.3501 97.2549 34.7988C97.8835 34.6522 98.5907 34.2822 99.0031 34.9553C99.4762 35.7395 98.8856 36.2725 98.1831 36.7018C96.3203 37.8481 96.1875 38.0933 96.9972 39.7599C97.8439 41.4903 97.7777 43.2102 96.856 44.8839C96.3024 45.8909 96.8489 46.6414 97.2601 47.4023C97.9584 48.7162 98.7681 49.9725 99.5618 51.2265C99.7599 51.562 100.01 51.8899 100.325 52.1392C102.275 53.5988 104.243 55.0464 106.237 56.4535C107.371 57.2569 107.549 58.1024 106.51 59.0416C105.477 59.9523 104.372 60.8089 103.211 61.6137C102.338 62.2244 99.8538 61.7599 99.3305 60.8954C99.1428 60.5907 99.2878 60.0394 99.4791 59.6705C99.7784 59.0969 100.296 58.5977 100.627 58.0286C100.984 57.419 101.036 56.7522 100.383 56.2799C99.6582 55.7535 98.9862 56.1139 98.4691 56.6131C97.5637 57.4683 96.6155 58.2883 95.8736 59.2397C94.7908 60.6416 95.619 62.1349 97.5168 62.2098C98.4076 62.2464 99.105 62.4172 99.5394 63.0641C100.151 63.9849 101.076 64.5099 102.145 64.9817C104.054 65.8202 104.082 67.1577 102.187 68.0505C101.16 68.5223 101.012 69.0878 101.325 69.9229C101.409 70.169 101.492 70.4151 101.632 70.6252C103.108 72.9419 102.654 73.787 106.496 72.7267C108.645 72.1334 110.509 73.3612 110.804 75.3514C111.063 77.1902 111.066 77.1759 113.164 77.4106C113.649 77.4785 114.207 77.6004 114.549 77.8827C116.347 79.3504 118.402 78.568 120.35 78.3129C120.881 78.2405 121.34 77.6159 121.808 77.1977C123.027 76.1079 123.808 76.0267 125.223 76.9278C125.281 76.9654 125.318 77.0291 125.38 77.0524C127.82 77.8185 128.977 79.5776 129.983 81.5061C130.225 81.9503 130.597 82.4127 131.042 82.68C132.189 83.3387 132.861 84.2093 133.256 85.3783C133.586 86.3769 134.548 86.9657 135.779 86.8008C137.676 86.5531 139.314 87.0898 140.629 88.0651C142.52 89.4872 144.346 89.0976 146.301 88.3159C149.106 87.1987 150.718 84.9915 152.525 82.9727C152.783 82.6863 152.921 82.2514 152.925 81.9003C152.933 81.1247 152.785 80.298 153.709 79.841C154.653 79.3721 155.669 78.7082 156.633 78.7112C158.313 78.7116 159.469 78.3456 160.058 76.9185C160.097 76.8068 160.23 76.7229 160.334 76.6202C161.283 75.6587 161.293 74.6 160.363 73.4442L160.284 73.5064ZM110.267 31.665C110.988 30.6521 112.052 30.244 113.078 30.109C115.713 29.7448 117.525 28.3568 119.179 26.683C120.184 25.6658 121.53 25.1799 122.978 24.9281C123.357 24.8639 123.799 25.1455 124.27 25.2846C124.063 25.6513 124.006 25.8485 123.864 25.9751C121.454 28.0123 119.072 30.0824 116.622 32.07C115.05 33.3448 112.095 33.1515 110.267 31.665ZM169.935 9.93702C170.411 8.90445 171.113 8.88543 171.854 9.00372C172.501 9.09419 172.986 9.41108 172.727 10.0342C172.431 10.7549 171.674 10.9569 170.953 10.7389C170.515 10.6043 170.221 10.1675 169.938 9.92276L169.935 9.93702ZM68.9956 109.41C68.7241 109.108 68.4456 108.922 68.4479 108.747C68.4607 108.602 68.8022 108.313 68.9801 108.338C69.1904 108.367 69.4792 108.583 69.5225 108.78C69.5612 108.917 69.2533 109.123 68.9765 109.422L68.9956 109.41ZM211.091 31.5768C211.166 31.8657 211.287 32.0878 211.263 32.2896C211.24 32.4036 210.974 32.4836 210.808 32.563C210.69 32.3266 210.555 32.088 210.472 31.8419C210.478 31.8134 210.782 31.7094 211.091 31.5768ZM59.4741 112.475C59.3724 112.402 59.2032 112.334 59.1882 112.244C59.1703 112.168 59.3257 112.058 59.4106 111.968C59.5389 112.073 59.6672 112.179 59.7983 112.271C59.6868 112.329 59.5723 112.4 59.477 112.46L59.4741 112.475Z" fill="#757B7C"/>
<path d="M493.961 105.847C492.925 105.13 491.955 105.156 491.05 105.762C489.99 106.478 489.065 106.364 488.06 105.74C487.409 105.341 486.667 105.061 486.011 104.691C484.668 103.932 483.242 103.659 481.655 104.023C480.677 104.253 479.551 104.638 478.883 103.665C478.135 102.593 477.435 101.455 478.115 100.07C479.265 97.6809 480.957 95.5728 482.764 93.554C483.452 92.7856 484.651 92.3671 485.628 91.815C485.928 91.6517 486.389 91.6723 486.646 91.4737C488.515 90.0497 490.397 88.6423 492.168 87.1313C492.569 86.7918 492.6 86.0635 492.729 85.51C492.92 84.5695 492.939 83.5756 493.288 82.6719C493.616 81.7945 494.232 80.9721 494.78 80.1549C495.039 79.7807 495.602 79.5516 495.815 79.1564C496.647 77.6755 497.978 76.9383 499.937 76.8752L500.992 71.6739C499.712 70.6888 498.605 69.8307 497.476 68.9988C496.636 68.3831 495.638 68.4634 494.827 68.9361C493.131 69.9153 491.894 69.5372 490.64 68.3361C489.806 67.5306 488.881 66.5953 487.274 67.2206C486.967 67.3389 486.295 67.0398 486.002 66.7643C485.215 66.0534 484.465 65.9779 483.886 66.8641C483.263 67.8028 482.395 67.9012 481.303 67.9537C479.322 68.0431 477.417 68.4948 475.776 69.6136C475.313 69.9298 474.806 70.2108 474.269 70.3994C471.157 71.4737 468.514 73.185 465.932 75.0075C465.31 75.4481 464.645 75.9413 463.905 76.1455C460.758 76.9804 458.38 78.8608 456.185 80.8253C451.115 85.3187 445.013 88.5834 439.196 92.1664C434.844 94.8405 430.001 96.9037 425.383 99.2476C422.843 100.534 420.33 101.853 417.817 103.172C415.676 104.294 413.536 105.416 411.421 106.572C410.543 107.05 409.841 107.23 408.871 106.596C407.244 105.519 405.41 105.453 403.603 106.49C402.209 107.291 400.842 107.965 399.229 106.816C398.822 106.525 397.912 106.5 397.375 106.689C395.676 107.272 393.894 107.858 392.811 109.26C391.719 110.704 390.188 111.692 388.617 112.63C386.474 113.928 384.806 115.512 383.345 117.462C381.822 119.476 379.632 121.09 377.766 122.91C375.842 124.765 374.143 126.829 372.008 128.494C369.339 130.583 367.54 133.467 364.251 135C363.425 135.383 362.612 135.943 362.063 136.599C360.096 138.918 357.228 140.1 354.516 141.494C353.143 142.196 352.321 143.048 352.097 144.482C351.947 145.384 351.433 146.28 350.933 147.104C350.287 148.156 350.216 148.425 351.41 148.856C352.574 149.267 353.051 149.95 353.329 150.956C353.509 151.626 353.857 152.29 354.311 152.837C354.607 153.186 355.269 153.528 355.729 153.475C356.719 153.349 357.558 153.481 358.447 153.855C359.456 154.289 360.452 153.974 361.35 153.484C363.518 152.307 365.703 151.132 367.85 149.894C370.447 148.411 373.224 147.187 376.208 146.578C378.082 146.196 380.129 146.277 382.055 146.458C382.824 146.522 383.555 147.342 384.169 147.926C385.185 148.903 385.535 148.982 386.66 148.113C387.604 147.395 388.698 146.757 389.406 145.889C390.23 144.861 390.841 143.656 391.283 142.458C391.777 141.091 392.636 140.053 393.874 139.201C394.048 139.078 394.252 138.975 394.368 138.815C395.797 136.934 397.903 135.983 400.285 135.393C400.619 135.308 400.943 135.104 401.229 134.924C403.948 133.165 406.69 131.453 409.327 129.609C411.015 128.423 412.946 128.004 414.955 127.611C416.358 127.338 417.998 127.128 419.018 126.362C421.097 124.806 423.631 124.78 425.974 124.301C427.674 123.953 429.579 124.322 431.359 124.57C432.588 124.742 433.354 125.641 433.684 126.639C434.187 128.175 434.716 129.671 435.833 130.97C436.492 131.736 436.232 132.608 435.441 133.23C433.702 134.585 432.438 136.225 431.439 138.034C431.253 138.375 430.901 138.633 430.625 138.932C429.312 140.316 428.03 141.72 426.685 143.1C425.737 144.081 424.747 145.027 423.77 145.989C423.477 146.285 423.125 146.544 422.924 146.882C420.242 151.49 415.816 154.857 412.003 158.647C409.502 161.14 406.569 163.133 403.598 165.15C401.246 166.741 399.212 168.728 397.093 170.484C397.606 171.479 398.253 172.228 398.339 173.032C398.421 173.776 397.921 174.6 397.679 175.387C398.843 175.799 399.85 176.247 400.948 176.489C401.681 176.65 402.551 176.625 403.285 176.449C404.366 176.205 405.2 176.277 406.08 176.942C407.251 177.81 407.504 177.713 408.727 176.931C409.223 176.62 409.835 176.471 410.381 176.24C410.596 176.739 410.894 177.235 411.023 177.751C411.27 178.665 411.395 179.605 411.607 180.529C411.793 181.332 412.099 182.122 412.215 182.944C412.431 184.586 412.041 185.03 410.223 185.303C409.725 185.38 409.203 185.41 408.694 185.456C408.337 185.494 407.949 185.44 407.616 185.525C403.673 186.673 399.207 186.386 395.814 189.092C394.563 190.089 393.561 191.092 393.323 192.597C393.017 194.679 392.339 196.71 392.55 198.864C392.681 200.187 393.079 201.341 393.658 202.507C394.5 204.178 394.476 204.541 392.952 205.661C392.051 206.327 391.697 207.01 391.862 208C392.054 209.185 392.162 210.372 392.305 211.638C391.245 212.105 390.709 211.385 390.184 210.857C389.246 209.906 388.314 208.925 387.547 207.866C387.144 207.311 386.995 206.572 386.898 205.899C386.749 204.75 386.239 203.902 385.171 203.181C381.714 200.866 378.805 198.071 376.157 195.048C375.982 194.848 375.847 194.609 375.631 194.447C372.767 192.244 369.866 190.065 367.027 187.822C365.966 186.985 365.025 186.047 364.062 185.136C363.475 184.585 362.967 183.971 362.402 183.394C361.278 182.211 359.907 182.166 358.254 182.521C356.15 182.974 353.981 183.169 351.835 183.499C351.198 183.601 350.576 183.719 349.96 183.882C349.399 184.023 348.86 184.388 348.33 184.372C347.107 184.333 346.224 184.752 345.492 185.573C344.612 186.549 343.493 186.817 342.168 186.544C341.957 186.515 341.731 186.483 341.529 186.411C339.426 185.706 338.278 186.366 338.615 188.802C338.89 190.731 339.762 192.582 340.463 194.453C340.839 195.473 341.386 196.385 341.313 197.562C341.283 198.202 341.853 199 342.433 199.506C344.125 201.003 345.81 202.455 345.923 204.771C345.94 205.096 346.285 205.526 346.621 205.675C349.253 206.805 350.389 209.074 352.014 210.987C352.19 211.187 352.363 211.402 352.484 211.624C353.627 213.777 355.822 214.274 358.252 214.35C358.798 214.368 359.413 214.205 359.921 213.997C362.061 213.124 362.943 213.203 364.553 214.616C365.57 215.505 366.483 216.497 367.525 217.347C368.781 218.372 370.097 219.347 371.482 220.23C372.202 220.697 373.056 221.08 373.002 221.922C372.916 223.654 374.186 224.696 375.526 225.47C378.801 227.364 380.925 230.182 383.449 232.659C384.351 233.547 385.311 234.473 386.453 235.072C387.88 235.829 388.913 236.97 389.048 238.19C389.271 240.126 390.618 241.194 392.056 242.142C394.915 244.037 397.371 246.198 399.123 248.963C399.324 249.284 399.66 249.595 400.028 249.749C401.567 250.36 402.241 251.465 402.612 252.836C403.057 254.496 404.229 255.773 405.49 257.019C405.962 257.481 406.57 258.006 406.674 258.562C407.143 261.09 409.164 262.852 410.607 264.842C411.663 266.279 413.757 267.188 415.53 268.124C416.764 268.766 418.115 268.339 419.169 267.49C420.444 266.452 421.566 266.33 423.001 267.293C424.187 268.089 425.739 267.573 426.524 266.408C426.949 265.793 426.636 265.369 426.221 264.871C425.394 263.862 425.417 263.586 426.577 262.869C427.527 262.284 428.558 261.549 429.638 261.392C432.958 260.933 435.848 259.564 438.84 258.341C439.821 257.936 440.888 257.675 441.927 257.395C443.491 256.984 444.049 256.036 443.277 254.756C441.882 252.45 440.657 250.125 440.384 247.449C440.318 246.795 439.886 246.134 439.472 245.548C438.22 243.688 437.513 241.757 438.313 239.539C439.358 236.681 438.702 234.01 437.43 231.341C436.684 229.771 436.28 228.074 435.694 226.453C435.421 225.667 435.042 224.911 434.785 224.128C434.57 223.467 434.236 222.732 434.38 222.107C434.701 220.687 434.156 219.6 433.214 218.588C432.337 217.66 431.958 216.742 432.489 215.439C432.83 214.578 432.73 213.509 432.499 212.598C432.353 212.006 431.743 211.407 431.175 211.006C430.054 210.219 429.556 209.314 429.681 208.042C429.737 207.434 429.513 206.817 429.389 206.198C429.338 205.957 429.088 205.717 429.118 205.486C429.43 202.965 427.654 201.222 426.367 199.284C426.113 198.897 426.106 198.354 426.037 197.875C426.023 197.697 426.267 197.482 426.215 197.328C424.903 193.628 425.35 189.206 420.962 186.731C419.991 186.185 418.93 185.759 417.904 185.322C416.25 184.622 415.44 183.527 415.308 181.882C415.192 180.488 414.77 179.125 414.569 177.734C414.362 176.298 414.596 175.964 416.079 175.292C418.169 174.339 420.268 173.504 422.712 173.509C424.373 173.521 425.706 172.037 425.801 170.585C425.837 170.077 426.048 169.447 426.453 169.093C427.513 168.128 428.626 167.155 429.892 166.409C433.292 164.408 435.869 161.705 438.597 159.082C441.013 156.768 443.455 154.486 445.526 151.903C447.594 149.335 449.973 146.957 452.277 144.538C453.967 142.767 455.847 141.125 457.521 139.351C458.54 138.263 459.281 136.989 460.258 135.865C460.807 135.209 461.548 134.668 462.212 134.101C462.475 133.874 462.981 133.755 463.047 133.515C463.651 131.518 466.178 131.036 467.223 129.409C468.293 127.742 470.273 126.758 471.499 125.303C473.492 122.944 476.229 121.26 478.314 119.017C478.591 118.718 478.884 118.422 479.233 118.178C481.638 116.404 484.074 114.649 486.496 112.877C486.67 112.755 486.904 112.671 487.003 112.509C488.348 110.308 490.937 109.351 493.026 107.914C493.857 107.341 494.078 106.742 494.025 105.856L493.961 105.847ZM438.133 117.414C439.487 117.383 440.687 117.287 441.875 117.336C442.634 117.369 443.022 117.834 442.848 118.527C442.332 120.58 441.877 122.656 441.199 124.686C440.955 125.399 440.163 126.021 439.489 126.557C439.252 126.744 438.456 126.647 438.135 126.427C437.107 125.755 436.655 122.732 437.635 122.004C439.162 120.87 438.988 119.761 438.325 118.437C438.196 118.17 438.211 117.85 438.133 117.414ZM434.237 116.122C433.798 115.577 433.546 115.263 433.274 114.961C433.704 114.728 434.12 114.318 434.558 114.291C434.861 114.275 435.17 114.801 435.48 115.079C435.122 115.366 434.778 115.67 434.237 116.122Z" fill="#757B7C"/>
<path d="M200.41 112.674C201.484 113.528 202.25 114.016 202.839 114.641C203.627 115.513 203.518 116.377 202.382 116.892C200.918 117.552 200.574 118.588 200.255 119.833C200.078 120.541 199.529 121.197 199.038 121.817C198.442 122.54 197.669 123.15 197.087 123.889C196.188 125.039 195.027 125.682 193.459 125.785C189.95 126.027 186.672 126.932 183.382 128.143C180.652 129.138 179.021 131.108 176.82 132.53C175.784 133.206 175.736 134.181 176.242 135.131C177.041 136.605 177.004 137.934 175.468 139.111C174.679 139.719 174.791 140.482 175.205 141.229C176.344 143.322 179.983 144.901 182.705 144.93C185.56 144.962 188.56 144.356 191.232 145.785C191.623 145.986 192.213 145.951 192.712 145.948C195.127 145.934 197.475 146.086 199.702 146.998C200.933 147.493 202.207 147.935 203.693 147.498C204.173 147.345 204.832 147.54 205.368 147.688C209.097 148.737 212.861 148.633 216.748 148.253C221.519 147.777 225.691 145.987 229.886 144.17C230.942 143.717 231.916 143.428 232.961 144.014C233.68 144.407 234.362 144.327 234.936 143.792C235.946 142.834 237.168 142.712 238.55 142.788C239.209 142.821 239.944 142.558 240.58 142.295C241.432 141.945 242.204 141.423 243.049 141.028C244.242 140.477 245.232 139.78 245.916 138.703C246.305 138.098 246.978 137.65 247.474 137.089C248.083 136.383 248.711 135.665 249.219 134.886C250.22 133.311 250.951 131.596 252.129 130.134C253.216 128.792 254.676 127.662 256.069 126.538C256.73 125.986 257.411 125.583 257.282 124.656C257.103 123.488 257.822 122.651 258.923 122.145C260.358 121.467 260.844 120.465 260.765 119.135C260.738 118.691 260.766 118.226 260.869 117.801C261.154 116.639 260.76 115.632 259.972 114.76C258.175 112.794 256.34 110.852 254.486 108.922C254.224 108.651 253.831 108.376 253.452 108.279C250.179 107.353 247.805 105.365 245.485 103.267C244.194 102.09 242.7 101.09 241.323 100.004C240.949 99.7168 240.488 99.4472 240.263 99.0787C239.119 97.1749 237.128 96.0025 235.402 94.5888C234.619 93.9372 233.756 93.2742 233.291 92.4473C231.871 89.9334 229.235 88.7441 226.634 87.5451C225.431 86.9959 224.503 86.3239 223.751 85.3542C221.956 83.0516 220.12 80.7872 218.321 78.4988C217.594 77.5764 216.79 76.8632 215.307 77.037C214.78 77.0951 214.159 76.8764 213.654 76.6593C212.094 75.9868 210.846 76.3985 209.735 77.4449C209.59 77.5858 209.442 77.741 209.297 77.8819C207.875 79.2364 207.033 79.3678 205.299 78.5684C202.805 77.4137 201.168 77.6099 199.358 79.4817C198.454 80.4104 197.445 81.1193 196.153 81.4222C193.273 82.0893 192.236 84.3329 190.688 86.1388C190.45 86.4132 190.338 86.8812 190.382 87.239C190.763 90.4431 190.357 93.7568 192.217 96.7278C193.018 98.0268 193.776 99.2906 195.341 100.022C195.905 100.277 196.497 100.638 196.837 101.096C198.179 102.925 200.267 104.111 201.913 105.675C203.575 107.24 205.398 108.668 207.202 110.107C207.675 110.481 208.257 110.811 208.857 110.968C210.502 111.389 211.182 112.627 211.992 113.722C212.485 114.407 212.012 115.015 211.105 114.976C210.824 114.966 210.466 114.93 210.278 114.787C208.853 113.694 206.977 113.593 205.319 112.994C203.816 112.447 202.384 112.701 200.45 112.724L200.41 112.674Z" fill="#757B7C"/>
<path d="M71.799 99.7558C70.9924 98.6483 69.7106 98.1619 68.389 97.6261C68.6003 100.274 69.6315 100.93 71.799 99.7558Z" fill="#757B7C"/>
</svg>
