<svg width="2007" height="1366" viewBox="0 0 2007 1366" fill="none" xmlns="http://www.w3.org/2000/svg">
<path d="M66.8719 996.47C68.0863 1004.59 61.7769 1007.35 56.3197 1011.17C58.2761 1018.03 59.8875 1024.96 62.343 1031.43C63.0944 1033.42 65.9776 1034.73 68.2488 1035.4C71.7348 1036.47 72.9515 1038.59 72.7461 1042.37C72.4667 1047.4 73.9722 1052.46 70.6262 1057.46C69.6812 1058.87 70.1348 1061.74 70.6728 1063.63C73.3021 1073.28 76.1669 1082.89 78.9058 1092.49C79.3297 1093.98 79.7848 1096.22 80.8189 1096.62C88.4132 1099.65 88.5831 1109.47 94.8488 1114.06C100.568 1118.24 104.413 1125.28 110.171 1129.38C121.029 1137.2 132.663 1143.88 143.994 1151C144.808 1151.5 145.914 1151.94 146.84 1151.75C154.16 1150.17 159.757 1154.78 166.342 1155.99C167.508 1156.21 168.733 1156.86 169.63 1157.65C179.912 1166.02 192.429 1169.15 204.814 1172.46C219.509 1176.35 233.781 1181.13 246.687 1189.26C251.078 1192 255.265 1193.17 260.864 1191.78C267.209 1190.21 273.063 1192.93 278.742 1195.46C284.349 1197.96 290.105 1200.33 296.088 1201.79C301.353 1203.09 307.065 1202.73 312.468 1203.66C315.09 1204.06 318.024 1204.9 319.772 1206.74C322.767 1209.73 325.979 1210.91 329.968 1209.67C334.067 1208.38 336.632 1210.08 339.238 1212.78C341.057 1214.65 343.484 1216.72 345.948 1216.99C351.741 1217.57 356.296 1220.24 360.725 1223.54C363.371 1225.52 365.864 1227.19 369.667 1226.15C371.196 1225.71 373.526 1226.8 374.695 1228.11C377.056 1230.6 379.737 1231.42 382.849 1230.53C386.51 1229.42 389.196 1230.69 391.913 1232.71C394.876 1234.94 398.081 1236.95 401.33 1238.69C407.172 1241.8 413.521 1243.04 420.223 1241.01C423.265 1240.08 425.937 1240.02 427.717 1242.61C433.743 1251.51 442.349 1255.08 452.644 1255.35C462.938 1255.62 471.563 1260.97 481.118 1263.58C485.628 1264.81 489.912 1266.95 494.399 1268.31C500.282 1270.06 505.785 1273.05 512.379 1272.78C515.813 1272.6 519.116 1274.31 522.537 1275.15C525.887 1275.95 529.259 1276.62 532.531 1277.58C537.232 1279.05 541.702 1280.99 546.425 1282.32C548.625 1282.95 551.144 1283.2 553.45 1282.71C555.647 1282.26 557.715 1280.71 559.738 1279.44C564.52 1276.47 568.606 1276.21 572.929 1280C575.143 1281.97 578.811 1282.38 581.921 1282.77C585.392 1283.15 589.041 1282.42 592.518 1282.6C595.13 1282.75 597.647 1283.64 600.657 1284.32C599.105 1287.89 597.96 1290.53 596.369 1294.17C601.695 1295.26 606.364 1296.61 611.188 1297C612.502 1297.1 614.522 1294.75 615.708 1293.12C617.29 1290.94 618.221 1288.2 619.891 1286.12C620.698 1285.08 623.016 1284.2 623.831 1284.7C625.089 1285.46 626.328 1287.45 626.21 1288.96C626.068 1291.25 624.841 1293.6 623.734 1296.8C625.682 1297.41 627.389 1298.24 629.168 1298.47C636.767 1299.59 638.081 1302.05 634.926 1309.65C634.711 1310.19 634.409 1310.63 634.195 1311.16C632.09 1316.87 633.474 1320 638.832 1321.2C646.129 1322.76 653.464 1324.23 660.821 1325.57C663.924 1326.16 666.677 1327.01 667.578 1330.6C668.61 1334.64 666.211 1337.6 662.23 1337.37C658.485 1337.11 654.689 1337.32 651.065 1336.63C647.513 1335.97 644.093 1334.5 640.723 1333.19C639.207 1332.6 637.852 1331.49 636.222 1330.5C634.475 1332.74 632.993 1334.62 631.153 1336.96C629.666 1336.04 628.321 1335.18 626.904 1334.29C623.683 1332.23 621.415 1332.64 618.993 1335.73C616.626 1338.8 616.901 1341.05 619.934 1343.96C621.371 1345.35 623.324 1346.41 624.081 1348.2C628.451 1358.16 637.097 1361.02 646.458 1362.3C649.765 1362.74 653.518 1362.17 656.855 1361C661.541 1359.41 665.66 1358.62 669.772 1361.67C671.696 1363.05 674.357 1363.37 676.777 1363.92C680.323 1364.77 684.059 1366.5 687.489 1365.86C693.115 1364.78 699.28 1363.23 703.97 1359.72C709.159 1355.82 713.352 1353.79 719.361 1355.55C723.904 1356.89 729.241 1355.22 733.858 1357.68C735.225 1358.4 737.862 1357.13 739.622 1356.22C743.822 1354 748.062 1353.42 752.232 1354.53C756.331 1355.6 760.281 1355.07 763.918 1352.38C767.812 1349.51 771.23 1349.27 775.162 1351.69C780.62 1354.95 786.667 1354.27 792.578 1350.96C797.008 1348.48 800.931 1349.01 804.348 1352.55C807.042 1355.34 812.868 1355.39 815.922 1351.08C820.108 1345.16 826.171 1344.54 831.406 1342.09C833.988 1340.84 837.814 1342.03 840.725 1343.01C844.102 1344.12 847.074 1344.89 850.893 1343.91C854.202 1343.07 857.974 1343.63 861.208 1344.68C866.8 1346.48 872.099 1345.53 877.482 1342.95C879.845 1341.8 882.24 1340.76 884.657 1339.58C888.758 1337.66 892.636 1337.1 895.871 1340.5C898.127 1342.83 900.4 1342.86 903.377 1341.07C905.362 1339.88 907.713 1339.11 909.959 1338.84C915.629 1338.12 919.441 1334.97 921.94 1329.36C922.985 1327.02 924.584 1324.9 926.694 1321.36C928.09 1324.11 929.473 1325.52 929.464 1326.99C929.311 1332.03 932.253 1333.77 935.971 1333.72C941.459 1333.65 946.996 1333.12 952.474 1332.16C962.74 1330.4 972.604 1325.29 983.173 1325.45C987.285 1325.49 991.523 1323.19 995.742 1322.11C999.161 1321.23 1002.8 1319.62 1006.11 1319.86C1014.61 1320.48 1022.71 1318.84 1030.76 1315.11C1032.43 1314.3 1034.34 1313.27 1035.93 1313.51C1044.66 1314.93 1052.96 1310.78 1061.44 1309.17C1067.64 1307.98 1073.61 1304.66 1079.81 1302.58C1083.72 1301.3 1087.73 1300.75 1091.73 1299.76C1095.44 1298.82 1099.25 1298.03 1102.83 1296.63C1111.61 1293.31 1120.07 1288.65 1129.47 1288.58C1131.6 1288.54 1133.92 1287.21 1136.11 1286.32C1148.99 1281.07 1161.87 1275.82 1174.72 1270.45C1178.88 1268.75 1183.02 1267.39 1187.39 1268.54C1188.79 1268.93 1190.75 1269.15 1191.8 1268.34C1198.89 1262.96 1207.59 1261.71 1214.58 1255.54C1223.67 1247.5 1233.51 1240.62 1241.89 1231.39C1248.18 1224.49 1256.44 1219.53 1263.66 1213.52C1269.43 1208.68 1275.35 1203.91 1280.64 1198.43C1288.99 1189.93 1296.88 1180.91 1304.94 1172.07C1306.43 1170.44 1307.66 1168.53 1309.29 1167.17C1316.62 1161.12 1322.02 1153.24 1327.97 1145.77C1334.41 1137.66 1341.03 1129.79 1349.4 1123.51C1354.85 1119.44 1359.22 1113.32 1363.24 1107.47C1376.27 1088.38 1389.38 1069.12 1398 1047.43C1402.39 1036.45 1405.63 1025.05 1409.18 1013.71C1413.64 999.52 1418.01 985.235 1422.27 970.994C1423.81 965.898 1426.63 962.262 1430.92 959.492C1434.38 957.252 1437.61 954.657 1441.67 951.726C1445.99 952.709 1451.36 953.712 1456.56 955.226C1461.91 956.811 1467.14 957.356 1472.89 956.481C1475.82 956.049 1479.2 957.8 1481.76 959.498C1487.35 963.216 1493.07 965.031 1500.19 963.597C1503.65 962.885 1507.48 964.514 1510.97 965.581C1522.84 969.227 1534.3 974.443 1546.48 976.37C1553.78 977.537 1560.15 980.11 1566.8 982.629C1570.99 984.238 1575.26 985.049 1580.05 982.969C1581.86 982.231 1584.52 982.744 1586.26 983.693C1592.33 986.96 1598.11 990.726 1604.11 994.152C1605.14 994.753 1606.61 995.427 1607.6 995.025C1613.03 992.812 1617.36 995.574 1622.15 996.686C1626.93 997.798 1632.06 997.556 1637.01 997.962C1638.95 998.127 1641.27 997.884 1642.81 998.787C1649.1 1002.6 1655.13 1006.78 1661.25 1010.86C1662.29 1011.52 1663.33 1012.37 1664.46 1012.67C1673.97 1015.37 1683.63 1017.68 1693.03 1020.61C1702.24 1023.49 1711.42 1026.51 1720.25 1030.25C1728.25 1033.62 1736.02 1037.03 1744.74 1038.64C1753.46 1040.25 1761.79 1043.94 1769.81 1047.81C1777.26 1051.41 1784.62 1048.47 1792.08 1047.16C1793.36 1046.95 1794.8 1044.07 1795.62 1042.2C1798.17 1036.12 1799.01 1035.21 1804.76 1035.42C1807.23 1035.49 1810.13 1035.59 1811.93 1036.96C1817.38 1041.05 1823.99 1041.29 1830.27 1042.69C1832.69 1043.23 1835.36 1043.61 1837.25 1045.07C1843.4 1049.9 1850.82 1050.83 1858.1 1052.52C1861.18 1053.24 1864.06 1054.56 1866.94 1055.87C1874.88 1059.46 1882.84 1062.91 1888.99 1069.66C1891.94 1072.92 1896.13 1072.61 1900.01 1069.06C1903.99 1065.39 1907.82 1065.75 1911.93 1068.15C1917.85 1071.74 1919.19 1071.06 1923.91 1065.31C1925.54 1063.31 1927.82 1061.23 1930.08 1060.56C1936.22 1058.7 1939.3 1054.7 1940.07 1048.19C1940.24 1046.85 1940.93 1045.61 1941.35 1044.29C1942.64 1040.26 1942.27 1037.03 1939.05 1034.32C1934.92 1030.77 1935 1029.34 1938.44 1024.23C1941.18 1020.12 1944.28 1016.18 1946.81 1011.95C1948.18 1009.67 1949.71 1006.69 1949.53 1004.34C1949 996.26 1953.57 990.825 1958.29 985.517C1960.95 982.586 1964.1 980.343 1962.32 975.835C1960.78 971.934 1952.81 967.146 1949.4 968.919C1945.84 970.816 1942.99 970.063 1939.96 968.874C1935.15 967.009 1930.32 966.615 1925.25 969.195C1923.69 969.958 1921.64 970.476 1920.08 970.155C1910.09 968.167 1900.08 966.122 1890.23 963.565C1888.19 963.057 1886.12 960.714 1885.21 958.597C1883.35 954.248 1881.68 949.89 1877.63 947.461C1877.41 947.357 1877.28 947.093 1877.1 946.909C1874.31 943.773 1873.55 939.616 1875.35 937.544C1877.44 935.224 1882.85 935.76 1885.56 938.611C1888.87 942.048 1892.03 945.609 1895.41 948.887C1897 950.406 1899.09 951.279 1900.95 952.435C1904.26 954.595 1907.87 956.313 1910.73 959.039C1914.23 962.33 1917.94 963.946 1922.81 963.234C1922.21 958.121 1918.35 952.934 1913.72 950.033C1904.32 944.105 1894.43 938.822 1885.92 931.703C1880.2 926.889 1872.5 923.905 1869.46 915.635C1868.96 914.308 1866.81 913.207 1865.25 913.08C1857.98 912.472 1853.12 909.158 1851.55 901.311C1851.25 899.838 1850.29 898.381 1849.22 897.415C1842.81 891.922 1837.39 885.331 1829.26 881.945C1824.13 879.826 1819.55 876.013 1815.43 872.079C1802.19 859.55 1789.27 846.636 1776.21 833.904C1772.48 830.258 1768.64 826.656 1764.64 823.373C1759.51 819.088 1756.26 813.268 1753.83 806.919C1752.33 802.938 1750.22 800.674 1746.17 799.58C1739.75 797.861 1738.65 792.949 1743.42 787.561C1746.78 783.701 1750.83 780.519 1754.62 777.062C1755.82 775.931 1757.24 775.099 1758.23 773.865C1769.94 759.778 1781.56 745.599 1793.25 731.455C1793.92 730.606 1794.65 729.734 1795.26 728.849C1806.98 712.265 1818.36 695.313 1830.55 679.053C1841.46 664.526 1850.12 648.555 1860.27 633.508C1865.95 625.129 1871.15 616.313 1876.14 607.449C1878.26 603.715 1879.53 599.37 1881.04 595.244C1883.42 588.787 1885.68 582.317 1888.06 575.861C1889.2 572.78 1890.46 569.712 1891.87 566.713C1893 564.214 1894 561.315 1895.83 559.551C1899.56 555.922 1901.92 551.963 1902.71 546.792C1903.21 543.398 1905.59 541.662 1908.34 540.351C1912.97 538.144 1915.92 534.326 1917.27 529.183C1918.51 524.53 1916.49 521.525 1912.01 522.331C1909.39 522.823 1906.85 524.626 1904.27 525.87C1900.29 527.809 1896.33 529.805 1892.33 531.631C1890.22 532.616 1887.71 532.812 1885.83 534.153C1881.32 537.456 1876.71 539.527 1871.42 539.642C1870.45 539.657 1869.29 539.875 1868.48 540.461C1860.87 545.985 1853.34 551.543 1845.81 557.102C1845.41 557.395 1845.14 557.951 1844.75 558.302C1842.98 560.043 1840.73 560.959 1839.63 558.601C1839 557.261 1839.57 553.651 1840.56 553.055C1845.58 550.053 1845.88 545.335 1846.81 540.428C1847.43 537.046 1848.93 533.501 1850.88 530.667C1854.24 525.723 1855.6 520.638 1854.7 515.134C1854 510.955 1854.73 507.722 1858.19 505.038C1861.53 502.397 1863 499.376 1861.05 495.13C1859.5 491.616 1861.16 488.642 1863.64 485.527C1867.79 480.134 1871.52 474.339 1875.11 468.474C1876.89 465.513 1877.21 462.129 1875.17 459.261C1873.42 456.783 1870.91 457.617 1868.27 457.8C1864.56 458.1 1860.62 458.432 1857.28 457.241C1853.55 455.955 1850.69 456.227 1847.41 458.902C1840.03 464.975 1832.05 469.823 1823.18 472.417C1813.3 475.298 1803.23 477.552 1793.34 480.182C1789.92 481.066 1786.56 482.817 1783.16 483.313C1776.58 484.272 1770.84 486.676 1766.43 492.682C1766.17 493.045 1765.5 493.256 1765.01 493.263C1751.85 493.905 1741.46 504.457 1729 507.75C1728.26 507.927 1727.49 508.239 1726.81 508.644C1719.43 513.884 1711.93 517.835 1703.35 514.764C1691.36 519.909 1679.06 524.412 1667.41 530.563C1663.05 532.853 1659.29 535.98 1654.2 536.587C1651.41 536.895 1648.55 539.083 1645.83 540.702C1640.61 543.851 1635.45 547.228 1630.27 550.492C1629.81 550.807 1629.26 550.837 1628.87 551.187C1617.04 561.818 1601.98 565.853 1589.8 575.729C1588.95 576.394 1587.85 577.48 1587.14 577.326C1578.38 575.792 1572.32 585.217 1564.07 585.707C1563.59 585.714 1563 586.017 1562.65 586.288C1555.85 593.335 1546.86 594.639 1538.74 598.14C1533.46 600.422 1528.97 603.338 1526.39 609.109C1525.71 610.597 1524.78 612.253 1523.56 613.133C1513.58 620.392 1503.43 627.274 1491.56 630.071C1487.09 631.128 1482.74 632.836 1478.3 634.201C1477.06 634.579 1475.71 635.001 1474.56 634.832C1469.75 634.05 1465.79 635.602 1461.95 639.526C1458.73 642.818 1455.46 642.494 1452.66 639.357C1451.51 638.105 1450.92 636.241 1449.9 634.807C1446.92 630.597 1442 629.415 1438.07 633.248C1431.32 639.828 1425.68 638.492 1419.81 633.802C1414.67 629.711 1407.89 630.817 1401.91 629.364C1399.02 628.69 1396.1 628.095 1393.08 627.796C1390.38 627.557 1387.65 627.648 1384.87 627.762C1380.08 627.927 1375.3 628.537 1370.61 628.406C1364.63 628.23 1358.69 627.587 1352.77 627.002C1351.01 626.827 1349.32 626.494 1347.68 625.887C1341.33 623.565 1335 622.827 1327.78 624.112C1320.85 625.343 1313.72 624.165 1306.76 623.366C1297.09 622.27 1287.49 620.57 1277.84 619.143C1276.12 618.889 1274.17 618.28 1272.64 618.906C1264.42 622.064 1257.23 618.936 1249.83 617.038C1243.96 615.541 1238.32 611.844 1231.63 615.654C1231.04 615.957 1229.98 615.879 1229.45 615.522C1224.14 612.136 1218.17 614.572 1212.46 614.729C1205.65 614.888 1198.9 614.581 1192.12 614.41C1190.08 614.347 1188.01 613.532 1186.15 614.098C1177.81 616.798 1169.64 615.601 1161.37 616.227C1151.91 616.957 1142.8 616.778 1133.74 615.243C1132.39 615.026 1130.76 615.754 1129.27 616.106C1125.35 616.94 1121.34 618.32 1117.46 618.435C1111.64 618.637 1105.95 617.769 1100.18 620.503C1098.61 621.208 1096.71 620.77 1094.94 620.789C1084.86 621.07 1074.81 621.213 1064.73 621.687C1062.49 621.771 1060.18 622.71 1058.06 623.638C1050.71 626.827 1043.2 627.721 1035.53 628.295C1029.05 628.766 1022.41 630.135 1016.04 632.032C1008.31 634.35 1006.9 633.266 1008.88 624.548C1009.61 621.316 1010.54 618.131 1010.89 614.861C1011.33 610.6 1009.55 609.092 1005.53 609.582C1004.54 609.734 1003.48 609.907 1002.51 610.367C990.431 616.058 977.974 615.714 965.636 615.576C950.303 615.447 934.949 614.817 919.694 613.891C909.679 613.316 899.842 611.649 889.828 611.074C883.848 610.705 877.779 611.52 871.744 611.812C867.461 612.027 863.089 612.788 858.934 612.377C847.458 611.186 836.032 610.166 824.295 613.42C822.146 614.041 819.798 613.531 817.52 613.694C813.521 614.048 809.517 614.596 805.535 615.007C801.788 615.386 797.993 615.594 794.279 616.088C779.439 618.118 764.617 620.206 749.755 622.373C745.296 623.042 740.808 624.043 736.327 624.849C734.349 625.209 732.257 625.168 730.312 625.642C714.313 629.613 698.31 633.139 682.115 634.063C679.891 634.204 677.638 635.314 675.402 635.843C671.167 636.868 666.932 637.892 662.664 638.803C661.683 639.011 660.604 638.877 659.64 639.143C642.299 643.342 624.868 643.366 607.486 645.923C603.969 646.463 600.544 647.541 597.054 648.39C596.089 648.655 595.003 649.353 594.122 649.266C584.761 647.979 575.576 650.957 566.388 652.853C564.027 653.369 561.172 654.086 559.586 655.818C555.387 660.401 550.718 661.41 545.452 660.75C541.893 660.287 538.504 660.202 535.326 663.22C532.873 665.56 530.466 664.627 528.482 662.82C525.777 660.414 522.814 660.537 519.318 661.58C515.641 662.632 511.813 662.726 508.044 663.242C505.798 663.519 503.493 663.374 501.29 664.017C492.079 666.688 482.949 669.644 473.737 672.315C471.315 673.047 468.642 673.755 466.266 673.575C460.757 673.141 456.393 675.431 452.403 679.673C450.185 681.981 447.562 684.582 444.789 685.585C430.068 690.82 419.019 702.279 406.693 711.833C393.205 722.245 381.419 734.769 368.384 745.698C351.014 760.307 333.246 774.377 316.051 789.171C307.064 796.918 298.524 805.375 290.389 814.179C280.816 824.589 271.887 835.757 262.663 846.535C261.055 848.403 259.396 850.738 257.423 851.543C246.751 855.957 238.019 864.812 226.801 868.173C222.012 869.616 217.623 873.319 212.969 875.663C207.305 878.546 201.495 880.915 195.903 883.832C190.991 886.345 186.264 889.293 181.488 892.07C180.331 892.733 179.353 894.024 178.225 894.357C170.104 896.775 163.247 902.122 156.074 906.577C147.284 912.011 138.63 917.709 129.823 923.085C123.259 927.101 116.559 930.853 109.892 934.72C108.532 935.529 106.948 935.984 105.725 937.057C98.2678 943.733 90.8987 950.501 83.5293 957.27C79.3699 961.135 74.893 964.746 71.2581 969.163C66.0145 975.447 61.1921 982.134 56.6701 989.018C54.2469 992.749 55.6984 994.837 60.1117 995.079C62.1102 995.221 64.0928 995.306 66.0202 995.414C66.201 995.404 66.3534 995.724 66.8453 996.162L66.8719 996.47ZM1279.35 709.375C1284.08 716.063 1284.08 715.869 1291.37 715.896C1293.81 715.86 1296.21 716.792 1298.44 717.734C1306.9 721.431 1315.57 724.15 1325.03 724.503C1331.03 724.736 1336.91 725.594 1342.24 728.843C1344.91 730.497 1348.31 730.833 1351.44 731.726C1356.22 733.032 1361.31 733.702 1365.83 735.621C1374.38 739.216 1382.64 738.784 1391.47 734.354C1400.84 729.643 1410.86 728.302 1420.71 728.944C1426.99 729.316 1433.14 729.424 1439.47 728.884C1457.18 727.471 1472.62 710.587 1473.22 691.458C1473.29 688.939 1472.95 686.017 1475.75 685.322C1477.69 684.848 1480.12 685.644 1481.84 686.73C1486.68 689.735 1491.26 693.161 1495.94 696.484C1499.81 699.31 1503.87 699.378 1507.88 696.082C1511.25 693.306 1514.55 692.854 1518.62 692.98C1523.74 693.125 1529.97 693.075 1534.12 690.236C1540.92 685.55 1548.1 682.622 1555.34 679.924C1571.99 673.712 1588.27 666.243 1603.68 656.771C1610.03 652.845 1615.66 648.126 1623.26 649.045C1625.04 649.276 1627.3 647.973 1629.06 646.87C1637.22 642.013 1645.28 636.812 1654.72 636.412C1655.44 636.373 1656.14 635.831 1656.91 635.519C1665.18 632.144 1673.54 629.056 1681.65 625.304C1686.56 622.985 1690.97 619.145 1695.87 616.826C1702.67 613.61 1709.65 609.997 1716.74 608.7C1721.81 607.784 1726.63 606.901 1731.58 605.141C1738.14 602.847 1744.95 601.41 1751.55 599.231C1756.69 597.518 1762.04 595.91 1766.63 592.892C1771.31 589.773 1775.98 587.931 1781.1 587.438C1790.97 586.414 1800.83 585.585 1810.69 584.755C1815.34 584.327 1819.21 582.683 1821.23 577.523C1821.62 576.534 1822.17 575.479 1822.8 574.651C1825.17 571.387 1828.63 570.424 1830.75 572.301C1832.72 574.051 1832.2 576.749 1829.42 580.055C1827.32 582.569 1824.34 584.802 1823.45 587.656C1819.92 598.664 1813.34 607.789 1807.42 617.477C1798.89 631.351 1786.47 639.924 1773.42 646.52C1763.47 651.533 1754.29 657.956 1744.53 663.21C1743.16 663.963 1741.88 665.058 1740.67 666.188C1728.64 677.41 1718.84 691.103 1706.26 701.716C1705.87 702.066 1705.67 702.657 1705.3 703.065C1703.01 705.338 1700.71 707.553 1698.33 709.734C1695.57 712.265 1692.57 714.634 1689.91 717.315C1684.92 722.347 1680.66 728.423 1675.08 732.481C1659.44 743.901 1649.26 760.555 1637.36 775.484C1636.24 776.9 1635.79 778.995 1635.14 780.791C1631.83 789.543 1628.6 798.388 1625.21 807.105C1622.04 815.288 1620.05 823.311 1623.48 831.481C1624.05 832.843 1624.32 834.647 1623.97 836.195C1622.38 843.092 1625.47 847.257 1630.45 849.693C1636.24 852.627 1639.24 857.338 1640.8 863.908C1642.93 872.866 1644.5 882.241 1651.53 888.435C1653.75 890.403 1655.75 892.712 1658.04 894.521C1661.14 897.022 1664.6 899.058 1667.57 901.739C1668.81 902.89 1669.99 905.534 1669.55 906.99C1669.07 908.525 1666.67 909.953 1664.88 910.554C1663.31 911.065 1661.4 910.571 1659.69 910.18C1650.75 908.212 1642.04 905.573 1632.45 906.678C1629.89 906.953 1626.82 906.038 1624.9 904.46C1621.48 901.706 1618.25 900.664 1613.82 902.28C1609.66 903.785 1606.08 903.265 1603.09 899.442C1601.65 897.606 1598.19 896.208 1596.05 896.829C1590.5 898.39 1586.19 896.381 1581.59 894.427C1573.95 891.227 1565.76 890.611 1557.46 890.484C1549.47 890.36 1541.45 890.315 1533.49 889.667C1530.41 889.39 1527.34 887.837 1524.74 886.025C1522.3 884.339 1520.07 883.591 1517.08 884.683C1512.86 886.21 1508.94 885.767 1506 882.31C1502.6 878.336 1498.57 877.298 1493.26 878.189C1487.37 879.188 1481.71 878.434 1478.42 872.055C1477.17 869.627 1474.85 867.703 1472.55 866.281C1467.75 863.39 1464.64 859.807 1464.61 853.25C1464.6 849.555 1462.37 848.613 1458.82 849.678C1454.87 850.842 1453.09 854.054 1451.25 857.676C1449.68 860.742 1447.74 864.91 1445.22 865.938C1433.11 870.877 1425.64 882.855 1414.68 889.491C1412.95 890.514 1411.89 892.797 1410.47 894.461C1407.87 897.564 1405.19 900.632 1402.75 903.861C1401.64 905.334 1400.45 907.16 1400.32 908.869C1399.86 914.544 1398.57 920.748 1400.04 925.697C1401.79 931.812 1399.85 935.536 1396.02 939.461C1392.98 942.549 1389.95 945.636 1386.82 948.632C1382.55 952.735 1377.75 956.287 1373.95 960.77C1370.47 964.869 1368.27 970.232 1364.83 974.503C1361.1 979.215 1359.17 984.467 1357.13 989.957C1354.37 997.46 1351.14 1004.78 1347.9 1012.09C1346.56 1015.13 1344.52 1017.81 1343.25 1020.88C1337 1036.06 1327.07 1049.1 1319.7 1063.59C1317.7 1067.53 1315.14 1071.19 1312.44 1074.59C1299.5 1090.58 1286.64 1106.61 1273.36 1122.29C1265.39 1131.67 1256.75 1140.42 1248.45 1149.48C1245.31 1152.87 1241.8 1155.13 1237.47 1154.98C1232.97 1154.84 1230.22 1157.23 1228.68 1161.69C1227.2 1165.93 1224.34 1168.56 1220.45 1170.15C1218.53 1170.93 1216.57 1171.99 1215.09 1173.48C1211.82 1176.79 1208.47 1177.27 1204.44 1176.67C1202.07 1176.3 1198.56 1176.01 1197.2 1177.46C1191.73 1183.39 1185.19 1186.82 1178.26 1189.77C1177.82 1189.95 1177.44 1190.55 1177.02 1190.79C1170.06 1194.71 1163.04 1198.21 1155.15 1198.43C1151.99 1198.5 1148.61 1199.5 1145.5 1200.64C1134.26 1204.78 1123.48 1210.96 1111.56 1212.05C1109.84 1212.24 1108.06 1213.1 1106.36 1213.79C1098.6 1216.83 1091.14 1221.33 1082.68 1220C1081.98 1219.9 1081.16 1220.24 1080.45 1220.53C1072.01 1224.41 1063.38 1226.97 1054.46 1228.31C1052.7 1228.58 1051 1229.47 1049.33 1230.28C1038.71 1235.31 1027.45 1235.94 1016.47 1238.19C1010.24 1239.52 1003.57 1239.11 997.726 1241.55C987.618 1245.8 977.945 1247.07 967.924 1244.33C961.696 1242.66 960.682 1240.39 964.25 1234.02C966.389 1230.15 968.637 1226.24 971.339 1222.84C974.958 1218.36 975.657 1214.38 972.935 1209.56C971.685 1207.32 970.998 1203.84 971.688 1201.32C973.062 1196.49 971.419 1194.16 968.011 1192.3C964.92 1190.68 961.923 1188.97 958.794 1187.44C956.037 1186.14 953.331 1186.73 951.156 1189.41C948.943 1192.16 948.071 1195.32 949.362 1198.56C949.814 1199.71 950.759 1200.67 951.523 1201.63C953.697 1204.32 952.788 1206.92 950.041 1208.23C947.037 1209.71 943.711 1210.5 940.518 1211.1C937.504 1211.69 934.47 1211.78 931.452 1211.92C922.596 1212.41 913.668 1213.49 904.951 1212.96C897.477 1212.5 890.314 1210.13 882.612 1213.59C881.735 1213.94 880.607 1213.64 879.6 1213.54C869.132 1212.45 858.68 1211.41 848.212 1210.32C839.003 1209.35 829.841 1207.48 820.525 1207.64C807.979 1207.84 795.546 1208.44 782.97 1207.25C771.976 1206.25 760.966 1202.83 749.403 1206.27C748.965 1206.44 748.412 1206.22 747.925 1206.23C738.682 1205.79 729.574 1203.89 720.118 1205.7C718.666 1205.97 717.211 1205.16 715.7 1205.01C708.819 1204.05 701.934 1202.01 694.973 1202.49C681.702 1203.37 668.78 1202.26 655.82 1201.23C654.128 1201.09 652.114 1200.89 650.628 1201.68C644.591 1204.97 638.746 1203.79 632.712 1203.44C627.291 1203.1 621.703 1204.1 616.166 1204.63C613.142 1204.97 609.918 1206.54 607.176 1205.94C595.736 1203.58 584.5 1200.45 573.121 1197.88C567.313 1196.61 561.395 1196.02 555.449 1195.13C552.772 1194.75 549.958 1194.75 547.364 1194.02C543.145 1192.74 539.03 1190.98 534.516 1189.31C529.318 1194.68 524.01 1193.02 518.407 1190.96C514.516 1189.55 510.317 1188.77 506.129 1188.25C499.406 1187.42 492.803 1186.79 487.431 1181.9C485.535 1180.18 482.519 1179.69 480.001 1178.8C471.843 1175.94 463.623 1173.29 455.487 1170.3C451.241 1168.71 448.344 1166.06 449.699 1160.09C450.739 1155.58 448.23 1153.22 444.443 1151.96C440.262 1150.6 436.827 1151.43 433.118 1154.73C427.203 1159.94 419.07 1158.03 419.408 1148.7C419.495 1146.44 419.363 1144.26 416.138 1144.1C415.144 1145.34 414.121 1146.9 412.782 1148.22C409.264 1151.75 405.898 1150.89 405.542 1146C405.219 1141.22 402.648 1139.71 399.031 1138.83C397.848 1138.55 396.579 1138.17 395.352 1138.16C389.613 1138.2 384.698 1136.63 380.211 1132.91C376.111 1129.48 373.941 1130.24 368.954 1134.63C368.361 1135.13 367.594 1135.44 366.952 1135.77C363.028 1134.88 362.636 1131.15 361.559 1128.01C360.231 1124.22 358.711 1120.82 354.727 1119.51C345.813 1116.57 336.997 1113.34 328.144 1110.18C325.627 1109.3 321.871 1108.79 322.574 1105.24C323.023 1102.96 326.067 1100.76 328.3 1099.15C329.923 1097.97 332.218 1097.87 334.179 1097.45C335.905 1097.07 337.777 1097.2 339.454 1096.64C340.512 1096.27 342.164 1094.77 342.056 1094.18C341.862 1092.85 340.945 1090.93 339.96 1090.69C337.037 1090.1 333.882 1090.62 331.03 1090.06C324.358 1088.76 319.687 1091.05 317.349 1098.51C317.211 1098.88 316.553 1099.15 315.319 1099.97C312.452 1098.72 309.165 1097.06 305.701 1095.86C303.736 1095.19 301.236 1094.36 299.411 1095.04C295.903 1096.47 293.008 1095.54 289.877 1094.65C283.939 1092.92 277.864 1091.57 271.833 1089.95C267.126 1088.68 261.651 1088.36 257.873 1085.62C250.847 1080.51 242.414 1080.12 234.548 1078.93C228.28 1077.98 223.732 1076.19 220.447 1070.9C219.64 1069.57 218.645 1068.44 217.69 1067.24C215.691 1064.73 213.456 1062.9 209.875 1064.94C207.194 1066.48 205.005 1065.45 202.944 1063.81C200.812 1062.12 198.626 1060.46 196.4 1058.88C193.945 1057.14 192.351 1054.98 193.739 1051.48C195.027 1048.28 197.763 1046.71 200.66 1047C203.304 1047.26 205.848 1048.46 208.398 1049.46C216.386 1052.58 223.295 1058.57 232.715 1057.92C234.035 1057.83 235.308 1059.29 236.643 1059.89C246.966 1064.55 257.107 1069.86 267.783 1073.61C274.924 1076.12 282.616 1077.13 289.717 1080.36C294.148 1082.38 299.218 1083 304.034 1084.22C300.653 1077.94 296.153 1074.61 289.599 1074.16C285.98 1073.91 281.864 1072.78 279.246 1070.47C275.24 1066.93 270.418 1065.9 265.651 1064.85C253.696 1062.19 242.006 1059.17 232.495 1050.93C231.757 1050.27 230.756 1049.98 229.903 1049.56C220.296 1045.06 210.729 1040.47 201.062 1036.18C195.881 1033.89 190.298 1032.34 185.133 1030.11C172.917 1024.82 163.339 1014.62 150.38 1010.59C150.167 1010.49 149.954 1010.38 149.724 1010.22C146.444 1007.73 143.701 1004.77 144.358 999.777C144.971 995.062 148.29 992.752 151.974 990.867C153.843 989.914 155.816 989.109 157.734 988.327C164.312 985.646 170.9 983.215 177.428 980.362C179.785 979.401 181.93 977.697 184.14 976.222C187.913 973.791 191.495 971.118 195.317 968.858C203.07 964.294 210.976 960.05 218.8 955.52C222.896 953.149 226.639 949.965 230.832 947.936C246.522 940.519 263.276 936.623 277.91 925.936C285.863 920.142 294.799 915.861 302.752 910.066C315.264 900.946 327.35 890.979 339.676 881.424C343.483 878.469 347.743 876.03 351.271 872.742C356.396 867.973 361.035 862.573 366.024 857.54C373.691 849.885 377.945 840.559 379.551 829.888C381.119 819.296 386.718 810.825 393.869 803.507C400.126 797.129 407.257 791.67 413.831 785.545C418.435 781.307 422.329 776.083 427.238 772.487C433.847 767.559 441.99 768.004 449.379 764.736C456.675 761.57 465.101 762.154 472.996 760.658C475.664 760.145 478.504 758.732 480.742 756.926C484.626 753.812 488.544 752.533 492.95 753.608C496.119 754.421 498.646 753.2 501.335 750.828C503.337 749.054 506.407 747.803 508.899 747.744C512.31 747.693 515.659 749.135 519.108 749.643C521.73 750.041 524.756 750.785 527.097 749.767C532.42 747.406 537.571 745.943 543.295 745.205C553.566 743.888 563.696 739.503 574.103 740.811C575.488 740.948 577.051 739.992 578.525 739.582C586.7 737.142 594.697 734.074 603.208 736.027C606.416 736.76 610.251 735.835 613.67 734.951C617.599 733.924 621.442 732.166 625.224 730.624C633.993 727.049 642.563 724.703 651.945 726.493C659.91 728.03 668.354 728.033 676.583 723.849C678.781 722.761 681.562 723.286 684.125 723.262C691.02 723.194 697.768 722.612 704.298 719.121C709.561 716.337 714.789 714.716 720.518 716.783C722.625 717.519 725.507 716.471 727.995 715.968C730.263 715.553 732.455 714.659 734.707 714.188C750.875 710.595 766.834 715.062 783.02 710.888C783.765 710.711 784.498 710.923 785.292 710.918C796.194 711.386 806.511 713.879 816.353 718.351C820.571 720.268 825.311 721.653 829.927 721.749C836.635 721.885 843.516 720.483 850.368 720.051C854.635 719.779 858.906 719.951 863.183 719.93C865.203 719.936 867.348 720.592 869.157 719.855C879.785 715.714 890.261 718.333 900.788 717.486C914.607 716.382 927.72 719.457 940.426 724.102C943.851 725.385 948.053 727.245 951.226 726.143C960.729 722.779 970.849 720.503 979.04 713.4C983.507 709.537 987.902 708.001 993.235 708.251C999.236 708.484 1005.41 711.899 1011.33 706.042C1011.48 705.918 1011.82 705.841 1012.09 705.923C1018.61 707.346 1024.57 703.77 1030.73 701.769C1033.86 700.747 1036.81 700.566 1039.38 702.515C1042.98 705.259 1046.91 704.87 1050.84 702.565C1055.51 699.834 1059.89 699.768 1064.82 700.949C1076.07 703.701 1087.35 707.205 1099.6 702.975C1101.61 702.285 1104 703.605 1106.22 703.657C1108.13 703.708 1110.58 703.922 1111.98 702.839C1115.27 700.221 1118.01 700.381 1121.16 701.97C1124.93 703.814 1128.51 703.309 1131.41 699.319C1134.71 694.786 1138.68 694.762 1143.17 695.484C1149.08 696.457 1155.07 696.884 1161.02 697.584C1162.73 697.78 1164.6 697.91 1166.1 698.641C1175.58 703.578 1185.71 704.997 1196.54 703.264C1197.54 703.113 1198.61 703.247 1199.51 703.585C1208.07 706.793 1216.76 705.737 1225.53 702.355C1228.6 701.104 1230.66 701.475 1232.5 704.489C1236.07 710.369 1236.31 710.143 1242.84 708.122C1244.8 707.512 1246.84 706.936 1248.81 706.964C1253.34 706.968 1257.84 707.302 1262.32 707.579C1263.56 707.647 1265.07 707.796 1265.85 708.567C1269.73 712.533 1274.16 712.194 1279.09 709.1L1279.35 709.375ZM407.46 1218.14C417.126 1217.71 424.951 1220.26 432.957 1222.8C441.106 1225.41 449.556 1227.58 458.733 1225.43C463.604 1224.28 467.454 1227.05 470.485 1230.6C472.889 1233.44 471.32 1236.95 467.507 1237.74C466.29 1237.98 464.999 1237.74 463.794 1237.6C458.922 1237.03 453.956 1236.57 449.128 1235.73C446.024 1235.14 443.009 1234.01 439.972 1233.02C435.562 1231.5 431.171 1228.12 426.828 1228.55C419.57 1229.28 414.822 1227 411.216 1221.01C410.615 1219.98 409.258 1219.51 407.476 1218.2L407.46 1218.14ZM531.168 1254.79C526.777 1256.77 523.927 1255.57 522.391 1252.11C520.555 1247.82 517.455 1247.68 513.718 1248.95C512.479 1249.33 511.241 1249.71 510.008 1249.89C504.946 1250.81 501.666 1248.31 501.895 1243.76C502.056 1240.24 504.029 1239.44 509.282 1238.77C516.82 1237.73 523.761 1241.48 531.476 1239.35C534.314 1238.58 537.283 1240.62 538.223 1244.13C539.283 1247.84 536.988 1250.31 534.415 1252.44C533.175 1253.46 531.832 1254.33 531.13 1254.87L531.168 1254.79ZM1513.38 933.274C1513.23 934.037 1513.08 934.799 1513 935.597C1511.24 935.422 1509.44 935.328 1507.66 935.096C1501.55 934.269 1495.61 931.266 1489.24 933.801C1483.26 936.237 1477.77 935.415 1472.19 933.863C1469.2 933.04 1465.85 932.236 1466.19 928.271C1466.53 923.918 1470.32 923.904 1473.28 923.53C1488.21 921.398 1500.85 927.091 1513.38 933.274ZM712.721 1327.12C711.351 1322.32 714.938 1317.74 719.361 1318.23C724.163 1318.76 728.709 1318.18 733.481 1317.32C737.381 1316.62 739.189 1318.89 739.415 1323.32C739.791 1331.72 738.446 1335.58 734.485 1336.5C732.885 1336.89 731.04 1336.43 729.525 1335.84C728.545 1335.41 727.902 1334.01 727.231 1332.95C724.922 1329.36 722.667 1326.39 717.542 1328.8C716.133 1329.43 713.936 1327.52 712.847 1327.14L712.721 1327.12ZM743.502 1322.42C744.394 1320.4 744.731 1318.8 745.67 1317.58C749.246 1312.74 755.969 1311.22 760.682 1314.65C763.842 1316.94 766.546 1319.98 768.992 1323.19C769.964 1324.46 770.134 1327.2 769.451 1328.88C769.153 1329.76 766.227 1330.45 764.738 1330.16C759.16 1329.05 753.682 1327.65 748.248 1325.97C746.567 1325.45 745.23 1323.76 743.518 1322.48L743.502 1322.42ZM612.11 1260.77C607.515 1261.18 604.487 1261.07 601.632 1261.79C595.194 1263.46 590.795 1259.19 585.888 1256.79C584.821 1256.26 584.396 1253.06 584.81 1251.29C585.02 1250.31 587.745 1249.14 589.185 1249.25C591.616 1249.41 594.084 1250.13 596.195 1251.31C601.096 1253.9 605.766 1256.98 612.165 1260.75L612.11 1260.77ZM1528.18 942.486C1527.27 938.841 1528.14 936.762 1531 936.045C1535.99 934.901 1541.85 939.785 1541.92 945.179C1541.97 947.711 1541.05 949.425 1538.45 949.722C1534.06 950.233 1529.38 946.909 1528.22 942.407L1528.18 942.486ZM789.574 1329.29C787.097 1327.68 785.506 1326.61 783.86 1325.55C781.612 1324.11 778.62 1322.84 780.178 1319.08C781.598 1315.69 784.687 1315.58 787.435 1315.99C789.286 1316.26 790.971 1317.23 793.11 1318.08C791.853 1322.04 790.832 1325.33 789.591 1329.34L789.574 1329.29ZM1038.21 669.437C1036.63 673.779 1033.47 675.771 1029.45 676.068C1026.89 676.286 1025.35 674.551 1025.22 671.734C1025.06 668.802 1026.54 666.921 1029.23 666.716C1032.4 666.446 1035.85 665.677 1038.26 669.414L1038.21 669.437ZM568.501 700.797C571.343 695.747 575.101 694.98 579.087 695.652C580.11 695.809 581.136 697.687 581.368 698.932C581.487 699.777 580.207 701.511 579.275 701.891C575.768 703.321 572.069 704.51 568.485 700.74L568.501 700.797ZM674.583 1330.49C675.704 1326.27 678.478 1324.62 681.518 1324.34C683.129 1324.2 684.686 1325.79 686.305 1326.54C685.206 1328.26 684.467 1330.6 683.014 1331.52C680.311 1333.19 677.226 1333.75 674.566 1330.43L674.583 1330.49ZM632.235 689.997C638.042 688.906 642.291 686.855 646.758 690.074C640.175 695.309 637.567 695.607 632.235 689.997ZM393.176 1211.39C386.937 1214.83 383.459 1212.29 380.096 1210.15C379.565 1209.8 379.247 1207.82 379.62 1207.41C380.422 1206.58 381.946 1205.7 382.712 1206.03C385.83 1207.31 388.702 1209.01 393.176 1211.39ZM1421.6 922.777C1418.74 920.883 1416.33 920.144 1415.33 918.38C1414.19 916.295 1415.86 914.211 1418.11 913.546C1420.77 912.781 1423.52 913.192 1424.15 916.253C1424.43 917.669 1422.87 919.709 1421.6 922.777ZM1082.75 662.57C1083.83 661.621 1084.94 659.954 1086.29 659.532C1088.71 658.8 1091.65 658.369 1092.36 661.716C1092.55 662.595 1090.58 664.927 1089.32 665.441C1086.96 666.402 1084.29 666.471 1082.75 662.57ZM730.573 1352.38C732.48 1346.63 735.401 1345.5 738.398 1344.85C739.324 1344.67 741.348 1345.76 741.298 1346.22C741.202 1347.6 740.539 1349.79 739.608 1350.17C737.141 1351.17 734.424 1351.51 730.556 1352.33L730.573 1352.38ZM575.161 1258.86C572.959 1256.51 571.045 1255.37 570.873 1253.91C570.668 1252.34 572.135 1250.4 572.911 1248.62C574.628 1249.7 576.899 1250.37 577.788 1251.99C578.301 1252.93 576.565 1255.42 575.144 1258.81L575.161 1258.86ZM348.387 1198.52C350.44 1196.28 351.474 1194.33 352.284 1194.38C354.283 1194.52 356.109 1195.56 358.019 1196.25C357.058 1197.6 356.154 1200.01 355.102 1200.18C353.289 1200.48 351.446 1199.38 348.387 1198.52ZM801.215 1322.69C803.796 1322.08 805.117 1321.35 806.135 1321.7C807.618 1322.18 809.106 1323.11 810.133 1324.35C810.482 1324.72 809.463 1327.37 808.844 1327.55C807.261 1328.01 805.366 1328.02 804.014 1327.35C802.964 1326.89 802.568 1325.07 801.232 1322.75L801.215 1322.69ZM1871.46 936.77C1867.47 938.014 1865.69 935.867 1864.76 932.609C1864.55 931.866 1865.1 930.365 1865.73 929.789C1866.36 929.213 1867.81 928.94 1868.43 929.39C1870.88 930.882 1872.2 933.15 1871.4 936.793L1871.46 936.77ZM1455.49 931.1C1453.18 928.789 1451.44 927.84 1450.8 926.249C1449.86 924.018 1451.14 921.645 1453.45 921.596C1454.97 921.552 1457.2 922.939 1457.65 924.288C1458.02 925.603 1456.62 927.769 1455.49 931.1ZM696.065 1326C697.765 1327.03 698.865 1327.67 699.964 1328.31C699.151 1329.53 698.562 1331.11 697.531 1331.79C696.906 1332.17 694.766 1331.32 694.713 1330.7C694.551 1329.49 695.441 1328.11 696.081 1326.06L696.065 1326ZM1934.24 980.97C1932.87 980.058 1931.39 979.578 1931.31 978.847C1931.23 977.923 1932.18 976.323 1932.98 975.931C1933.69 975.641 1935.39 976.419 1935.6 977.162C1935.83 977.962 1934.92 979.288 1934.24 980.97ZM489.728 714.857C490.711 713.371 491.25 712.258 492.084 711.535C492.326 711.309 494.043 712.396 493.993 712.863C493.87 713.934 493.237 715.148 492.491 715.963C492.304 716.167 491.046 715.404 489.728 714.857ZM1116.25 663.33C1117.07 661.911 1117.39 660.888 1118.05 660.426C1118.35 660.178 1119.71 660.645 1119.77 661.068C1119.98 661.811 1119.53 662.821 1119.36 663.721C1118.54 663.611 1117.78 663.537 1116.25 663.33ZM475.706 716.107C476.198 716.545 476.69 716.982 477.017 717.487C477.066 717.658 476.313 718.667 476.171 718.597C475.564 718.398 475.127 717.938 474.596 717.581C474.915 717.195 475.217 716.753 475.706 716.107Z" fill="#757B7C"/>
<path d="M272.902 1208.98C274.468 1209.55 276.077 1210.48 276.394 1210.1C277.27 1209.1 277.568 1207.58 278.111 1206.28C277.042 1205.95 275.881 1205.09 274.936 1205.41C274.226 1205.7 273.78 1207.35 272.902 1208.98Z" fill="#757B7C"/>
<path d="M970.236 1118.65C977.463 1114.17 982.459 1113.67 987.889 1114.9C991.025 1115.6 994.829 1113.92 998.281 1113.15C1003.51 1111.97 1008.7 1110.63 1013.9 1109.34C1017.15 1108.52 1020.38 1107.84 1023.54 1106.68C1029.67 1104.37 1035.66 1101.55 1041.74 1099.26C1055.24 1094.27 1062.71 1084.2 1065.02 1069.55C1066 1063.34 1072.79 1057.13 1079.35 1058.66C1087.48 1060.58 1094.64 1057.34 1102.37 1055.72C1111.62 1053.8 1120.11 1049.9 1128.92 1046.69C1132.57 1045.33 1135.07 1043.16 1136.73 1039.1C1137.82 1036.49 1139.95 1034.09 1142.08 1032.13C1146.32 1028.11 1149.68 1023.8 1151.77 1018.04C1153.6 1012.89 1156.37 1008 1158.88 1003.08C1159.51 1001.87 1160.31 1000.59 1161.31 999.796C1171.01 992.397 1173.37 982.245 1172.91 970.952C1172.78 968.58 1172.74 965.854 1173.6 963.717C1175.78 958.296 1177.96 953.069 1176.99 947.086C1176.76 945.648 1178.16 943.481 1179.26 941.951C1181.11 939.219 1183.01 936.463 1185.22 934.099C1189.99 929.156 1192.79 923.546 1193.83 916.679C1194.29 913.559 1196.49 910.555 1197.25 907.437C1197.75 905.321 1197.9 902.004 1196.74 900.945C1195.24 899.518 1192.34 899.677 1190.03 899.281C1189.63 899.186 1189.03 899.626 1188.64 899.976C1179.46 909.649 1172.14 902.62 1164.97 898.523C1157.24 894.148 1150.5 887.899 1142.59 883.979C1137.01 881.15 1130.27 880.706 1124.02 879.365C1118.48 878.178 1112.6 877.957 1107.32 876.157C1093.28 871.353 1079.25 866.354 1065.57 860.641C1053.69 855.661 1042.21 849.749 1030.66 843.996C1028.52 842.952 1026.41 841.133 1025.31 838.968C1020.67 830.012 1012.27 827.821 1003.75 825.811C1001.33 825.266 998.743 825.426 996.362 824.802C992.816 823.951 990.211 825.332 987.265 827.873C984.077 830.64 980.365 832.855 976.648 834.626C970.623 837.528 964.938 840.548 961.102 846.833C958.123 851.62 955.202 852.747 950.663 850.132C944.296 846.475 937.512 845.86 930.314 847.008C925.926 847.712 922.836 846.101 919.869 842.781C911.67 833.556 902.328 825.689 891.498 819.897C885.941 816.931 882.676 817.496 877.742 822.506C874.317 825.944 870.75 829.312 867.238 832.658C864.637 835.122 863.975 837.306 866.121 840.323C870.221 846.116 869.646 846.031 865.798 852.704C860.713 861.475 855.754 870.26 856.053 881.175C856.23 887.801 854.539 894.743 853.27 901.448C850.135 917.911 857.604 928.008 868.763 936.026C870.759 937.446 872.733 939.002 874.899 940.16C877.902 941.679 880.943 943.119 884.178 944.161C889.321 945.891 894.894 946.554 899.714 948.864C916.58 956.725 933.865 963.267 952.588 965.841C955.265 966.217 957.77 967.493 960.496 968.04C975.363 971.039 990.219 973.786 1004.99 976.886C1011.77 978.334 1018.44 979.827 1025.51 979.943C1029.56 980.012 1033.78 981.928 1037.18 984.18C1040.94 986.664 1040.3 990.626 1036.11 993.1C1033.59 994.572 1030.88 995.998 1028.18 996.397C1012.56 998.684 997.97 1005.46 983.242 1011.53C974.089 1015.26 965 1016.86 955.646 1014.74C953.03 1014.15 949.293 1014.78 947.006 1016.41C942.783 1019.41 938.768 1019.71 934.096 1020.27C927.123 1021.14 920.298 1024.24 913.36 1026.3C910.938 1027.03 908.517 1027.77 906.074 1028C899.813 1028.57 893.483 1028.47 887.249 1029.35C880.67 1030.31 874.138 1032.08 867.635 1033.52C860.841 1035.02 855.27 1038.44 850.28 1044.11C842.934 1052.46 835.44 1060.94 824.454 1063.82C821.835 1064.51 819.197 1066.41 817.078 1068.42C812.359 1072.9 807.869 1077.54 801.785 1080.02C799.976 1080.76 798.399 1083.38 797.288 1085.49C795.622 1088.66 794.382 1092.03 793.072 1095.37C790.831 1100.82 791.43 1102.49 796.217 1104.68C797.125 1105.08 798.149 1105.23 798.925 1105.81C801.626 1107.77 801.241 1110.93 798.131 1112.9C796.569 1113.85 794.734 1114.28 793.132 1115.32C789.085 1117.86 787.905 1121.66 790.861 1124.73C795.231 1129.33 799.351 1133.9 801.187 1140.55C801.562 1141.87 803.734 1142.83 805.343 1143.32C815.051 1146.25 824.798 1149.11 834.567 1151.82C835.962 1152.21 837.79 1152.61 839.018 1151.99C844.594 1149.01 849.585 1151.06 854.444 1152.65C861.394 1154.92 867.356 1152.87 872.926 1147.73C881.245 1140 890.715 1136.52 901.193 1135.51C908.993 1134.75 916.578 1132.17 924.093 1128.91C929.745 1126.42 935.973 1125.73 941.912 1124.46C952.135 1122.33 962.407 1120.38 970.394 1118.78L970.236 1118.65Z" fill="#757B7C"/>
<path d="M394.035 905.432C391.446 907.508 388.962 909.095 387.073 911.269C384.982 913.589 382.023 916.517 381.853 919.139C381.427 926.011 380.886 933.122 384.416 939.275C385.409 941.039 386.076 944.021 385.354 945.782C382.618 952.704 385.23 957.572 389.148 961.653C391.857 964.503 395.501 966.335 398.848 968.416C402.211 970.554 405.953 972.09 409.036 974.534C412.825 977.519 412.86 981.077 409.123 984.706C403.75 989.895 400.676 996.061 399.263 1003.34C398.926 1004.94 398.566 1006.68 397.715 1007.99C392.385 1015.9 391.478 1024.95 390.396 1033.81C390.128 1036.09 391.25 1038.95 392.621 1040.75C394.876 1043.72 397.646 1046.36 400.516 1048.7C403.791 1051.38 405.766 1054.66 406.479 1059.09C406.83 1061.18 407.472 1063.21 408.372 1065.08C409.521 1067.61 412.093 1068.47 414.031 1066.47C420.787 1059.7 430.413 1057.62 436.291 1049.49C437.082 1048.4 438.316 1047.58 439.019 1046.4C447.961 1031.84 461.606 1025.19 475.6 1018.91C490.801 1012.14 506.438 1008.19 522.385 1005.97C527.386 1005.27 532.519 1004.39 537.44 1002.76C542.197 1001.21 546.797 1001.24 550.802 1003.06C558.4 1006.53 566.495 1006.16 574.52 1005.13C586.44 1003.58 597.528 1006.21 608.662 1008.56C616.21 1010.14 622.475 1010.01 627.711 1002.2C628.865 1000.45 630.791 998.836 632.583 998.042C641.54 994.263 645.27 986.107 648.564 977.491C648.778 976.957 648.709 976.284 649.044 975.956C655.992 968.785 654.022 960.592 652.467 952.996C650.68 944.155 652.196 934.67 648.792 926.169C647.969 924.143 649.543 920.439 650.776 917.895C651.815 915.749 653.906 914.067 655.634 912.406C659.295 908.936 660.881 904.844 660.256 899.867C659.847 896.717 659.931 893.365 659.412 890.259C658.645 885.851 656.068 884.541 652.301 886.778C650.519 887.824 648.988 889.533 647.533 891.083C640.112 898.957 631.746 900.517 624.307 894.172C618.168 888.955 611.326 887.917 603.555 887.703C593.332 887.469 583.287 885.504 573.142 884.472C570.497 884.21 567.732 884.381 564.982 884.609C562.484 884.861 559.892 885.854 557.438 885.834C550.966 885.666 547.022 881.277 547.726 874.737C548.922 863.914 550.03 853 551.981 842.252C552.807 837.641 555.135 832.928 557.624 828.787C559.812 825.088 561.572 821.819 561.417 817.416C561.313 814.906 562.732 812.159 563.586 809.577C564.639 806.405 566.047 803.406 566.794 800.231C567.684 796.487 566.464 793.284 563.792 790.992C560.944 788.517 557.799 789.289 554.586 791.109C552.053 792.525 549.519 793.94 546.905 795.07C542.13 797.208 540.345 799.53 539.928 804.932C539.798 806.835 540.101 808.753 539.719 810.631C538.905 814.855 536.574 816.124 533.035 814.441C525.743 810.97 525.814 811.005 520.749 817.918C516.701 823.46 511.79 828.334 509.934 835.342C509.609 836.56 508.663 837.966 507.649 838.698C500.946 843.728 498.12 851.196 495.65 858.838C493.08 866.775 491.359 867.605 484.609 864.104C482.175 862.864 479.857 861.385 477.384 860.224C473.631 858.436 469.81 857.697 465.92 861.005C463.457 863.094 461.361 862.609 459.042 861.13C452.704 857.143 446.864 858.12 441.189 863.751C440.053 864.916 439.021 866.23 437.956 867.43C433.596 872.525 428.706 874.901 422.98 871.558C419.01 869.221 415.753 870.676 412.794 874.243C409.345 878.456 406.105 882.967 402.427 887.018C400.336 889.338 397.866 891.621 395.229 892.887C389.462 895.621 389 896.575 392.383 902.214C392.759 902.89 393.081 903.588 394.106 905.467L394.035 905.432Z" fill="#757B7C"/>
<path d="M506.869 1153.69C511.057 1151.86 512.192 1148.33 509.954 1145.42C508.288 1143.23 506.316 1141.03 504.008 1139.8C496.388 1135.83 488.653 1132.09 480.725 1128.75C475.719 1126.65 470.224 1125.82 465.256 1123.64C457.564 1120.27 449.24 1120.47 441.131 1119.5C439.73 1119.31 438.007 1120.78 436.434 1121.48C437.268 1123.12 437.656 1125.77 439.014 1126.24C444.507 1128.33 450.315 1129.6 455.885 1131.54C470.003 1136.63 484.918 1139.8 497.137 1149.18C498.936 1150.55 500.734 1151.92 502.709 1152.84C504.186 1153.51 505.955 1153.49 506.853 1153.64L506.869 1153.69Z" fill="#757B7C"/>
<path d="M375.435 1102.92C378.414 1109.93 383.963 1106.01 387.341 1108.21C384.364 1105.28 381.524 1101.97 375.435 1102.92Z" fill="#757B7C"/>
<path d="M509.993 1128.95C510.289 1128.07 510.874 1127.13 510.668 1126.84C510.342 1126.34 509.51 1125.98 508.933 1126.09C508.535 1126.18 507.868 1127.47 508.074 1127.77C508.345 1128.29 509.129 1128.48 509.993 1128.95Z" fill="#757B7C"/>
<path d="M641.134 294.024C645.771 289.865 644.83 284.986 644.214 280.152C643.748 276.218 641.779 273.129 637.636 271.905C628.596 269.234 622.843 263.154 617.448 256.949C611.032 249.545 605.237 241.701 599.66 233.77C595.683 228.114 596.534 225.888 601.485 220.836C603.676 218.563 605.96 215.834 606.656 213.059C607.821 208.299 610.656 205.471 615.493 203.275C620.929 200.753 626.122 197.786 631.091 194.612C632.933 193.404 634.953 190.99 634.999 189.121C635.111 183.978 637.827 180.431 642.126 177.28C646.501 174.082 648.179 169.744 647.898 164.898C647.614 159.407 644.742 156.837 638.401 157.591C632.06 158.346 625.555 159.254 619.682 161.305C610.099 164.596 600.238 164.331 590.46 164.312C584.075 164.298 578.395 165.732 572.717 167.81C569.775 168.864 566.674 169.72 563.619 170.348C557.996 171.496 552.184 172.266 546.603 173.537C540.687 174.82 539.598 174.61 536.697 170.218C534.959 167.63 532.799 165.159 531.355 162.437C530.196 160.282 528.946 157.587 529.515 155.439C530.402 152.046 529.39 150.146 526.509 148.277C524.452 146.935 522.824 145.124 521.095 143.476C515.208 137.729 508.474 133.857 498.974 135.752C497.035 136.126 494.853 136.055 492.924 135.727C488.871 135.043 487.387 132.843 489.246 129.585C492.244 124.319 495.306 119.061 501.22 115.492C509.129 110.619 516.329 104.65 524.639 100.419C530.502 97.4286 537.622 95.7863 544.398 94.8579C550.016 94.0607 556.024 95.6042 561.766 95.1762C570.136 94.5879 578.38 92.9855 586.731 92.1603C591.557 91.6626 596.599 91.0781 601.334 91.6816C627.197 95.0632 652.991 98.7869 678.808 102.397C686.249 103.437 693.689 104.477 701.031 105.68C702.713 105.915 704.772 106.261 705.763 107.279C710.518 112.047 717.359 112.769 723.725 114.187C735.434 116.821 746.338 121.452 758.445 123.438C767.339 124.857 775.545 129.346 783.993 132.637C786.024 133.449 787.635 135.022 789.444 136.271C791.018 137.371 792.376 139.202 794.123 139.446C801.476 140.591 805.383 144.948 809.163 149.931C814.526 156.953 816.143 157.179 825.598 153.87C829.961 152.37 836.223 154.301 838.45 159.067C841.257 164.911 846.084 166.7 852.635 167.205C859.51 167.756 866.258 168.934 873.04 169.941C874.399 170.131 875.795 170.795 876.985 171.489C881.433 174.163 885.989 175.972 891.704 174.368C892.691 174.096 894.147 175.12 896.149 175.751C894.854 177.212 894.212 178.411 893.103 178.96C889.035 180.97 888.187 183.841 889.651 187.445C891.43 191.797 896.322 195.236 900.81 194.105C906.977 192.564 910.533 194.058 913.713 198.723C915.036 200.725 918.605 202.162 921.452 202.56C927.652 203.486 933.225 205.203 937.712 208.996C938.343 209.494 938.893 210.392 939.604 210.491C948.762 211.596 953.571 218.071 959.983 222.543C962.841 224.526 966.367 225.839 970.231 227.786C969.34 235.458 977.229 238.554 982.624 243.118C985.059 245.217 987.964 246.971 990.892 248.612C995.74 251.283 998.45 254.651 1000.35 259.723C1002.11 264.483 1006.79 268.654 1010.96 272.344C1014.35 275.338 1015.07 278.018 1015.07 282.297C1015.03 287.392 1017.72 292.515 1019.72 297.425C1020.17 298.485 1022.47 299.57 1023.94 299.541C1032.16 299.399 1037.96 303.61 1044.4 306.972C1054.8 312.413 1065.58 317.321 1076.19 322.438C1086.55 327.462 1097.12 332.105 1107.12 337.606C1123.93 346.874 1140.83 356.094 1155.1 368.406C1157.02 370.082 1159.37 372.58 1159.36 374.629C1159.13 381.632 1163.78 385.974 1168.7 390.238C1177.55 397.805 1182.86 407.342 1188.4 416.791C1191.26 421.705 1194.25 426.636 1197.56 431.319C1199.9 434.577 1203.28 436.925 1207.9 437.748C1210.16 438.121 1212.39 438.903 1214.3 439.991C1223.02 444.902 1232.09 443.475 1241.12 440.633C1248.93 438.209 1252.89 438.703 1257.83 444.495C1264.23 452.012 1271.15 458.9 1279.33 465.144C1285.5 469.817 1288.93 476.862 1293.02 483.294C1298.48 491.795 1301.74 501.279 1307.93 509.178C1312.25 514.764 1317.63 519.737 1320.81 526.043C1322.33 529.012 1323.93 531.989 1324.82 535.104C1327.94 545.974 1337.28 551.793 1347.62 556.58C1349.87 557.599 1353.72 557.667 1355.99 556.637C1364.59 552.916 1373.62 550.426 1381.95 545.73C1391.12 540.564 1399.72 533.267 1412.13 532.774C1416.63 532.583 1421.35 528.67 1425.45 525.844C1428.86 523.449 1431.75 521.978 1436.43 522.866C1439.38 523.396 1443.38 522.373 1446.2 520.95C1452.05 518.016 1452.86 512.736 1447.78 508.919C1444.43 506.399 1440 504.608 1435.68 503.3C1426.41 500.422 1424.85 498.62 1426.69 489.851C1427.59 485.405 1428.3 480.932 1424.01 477.812C1421.52 475.997 1418.16 474.531 1414.91 474.136C1406.03 472.953 1400.66 468.275 1398.49 461.288C1396.89 456.375 1393.97 453.682 1389.08 451.239C1384.42 448.946 1380.19 445.541 1376.72 441.95C1361.34 425.965 1347.27 409.05 1329.05 395.19C1320.57 388.788 1313.65 380.903 1303.86 375.724C1300.61 374.038 1298.61 370.418 1296.34 367.521C1289.72 359.151 1282.34 351.261 1272.68 345.748C1263.84 340.762 1256.52 335.518 1251.32 327.053C1247.25 320.506 1239 315.951 1232.57 310.54C1231.32 309.486 1229.66 308.843 1228.47 307.798C1219.71 299.831 1211.2 291.607 1202.12 283.89C1197.25 279.692 1191.55 276.258 1186.19 272.519C1180.14 268.215 1174.16 263.92 1168.1 259.673C1157.95 252.627 1147.88 245.533 1137.57 238.639C1134.41 236.498 1130.55 235.196 1127.14 233.312C1124.51 231.831 1122.06 230.14 1119.62 228.392C1115.84 225.695 1112.32 222.74 1108.44 220.205C1101.5 215.718 1094.37 211.497 1087.25 207.219C1077.06 201.046 1066.84 194.987 1056.64 188.871C1054.51 187.576 1051.67 186.827 1050.22 185.101C1044 177.724 1034.81 173.803 1026.57 168.84C1018.98 164.262 1011.33 159.675 1004.08 154.734C999.754 151.784 995.361 149.822 989.708 150.79C983.785 151.779 979.68 149.388 976.35 145.464C973.617 142.21 970.895 138.898 967.605 136.094C962.734 131.896 959.305 131.416 953.684 134.851C948.891 137.815 944.907 136.789 940.708 134.853C934.307 131.966 928.017 128.859 921.617 125.971C918.566 124.606 917.261 122.841 918.609 119.806C919.11 118.645 919.365 117.391 919.841 115.699C912.024 111.265 904.477 106.81 896.755 102.565C890.888 99.3412 884.647 96.6514 878.792 93.3708C867.564 87.0529 855.582 82.1537 843.046 78.3493C839.85 77.3749 835.732 78.3232 832.148 78.9357C830.015 79.2823 828.115 80.7753 826.255 81.7461C821.382 78.5442 826.121 75.514 826.016 72.0995C823.033 68.1068 818.088 67.8843 813.182 68.781C808.763 69.57 804.559 71.2682 800.319 72.4924C798.318 68.5784 797.639 64.3804 794.852 62.7012C792.784 61.4155 788.058 63.3925 783.598 64.0584C774.356 53.8564 759.585 54.8392 745.872 54.2115C737.234 53.8244 729.913 51.8629 723.349 47.4867C719.89 45.1859 716.735 44.3346 712.183 45.4565C704.141 47.3802 702.319 46.1876 699.661 38.9577C697.981 34.4438 696.454 29.8341 695.133 25.1944C694.306 22.3824 692.361 20.8208 689.278 20.2726C686.26 19.7334 684.566 21.1964 682.992 23.3796C677.708 30.73 675.892 30.8277 668.382 25.2056C666.243 23.6169 663.791 21.926 661.173 21.3841C656.131 20.3273 654.257 17.4275 653.208 13.4122C652.035 9.02773 650.298 4.79886 648.676 0C642.804 2.05118 638.12 4.1513 633.168 5.27599C628.768 6.30205 624.049 6.93181 619.579 6.65863C614.193 6.31579 609.42 6.87944 604.317 8.74513C588.422 14.6118 572.278 19.7403 556.383 25.6071C548.045 28.6617 540.115 32.6526 531.86 35.9533C528.167 37.4299 524.22 38.5194 520.278 39.2577C507.475 41.6881 494.055 42.5667 481.816 46.4827C466.083 51.5514 449.625 51.0088 433.834 54.7213C422.097 57.4764 409.71 57.8548 397.807 60.1177C384.44 62.7037 371.33 66.3221 358.024 69.2682C348.142 71.4035 338.075 72.8096 328.235 75.068C319.576 77.0813 311.131 80.0038 302.532 82.3771C299.777 83.1643 297.005 83.7145 294.167 84.2555C289.942 85.0717 285.604 85.4616 281.516 86.5899C273.751 88.7868 265.91 91.0316 258.524 93.9849C248.954 97.8637 239.495 101.524 228.805 102.725C223.016 103.381 217.264 106.153 211.905 108.627C196.308 115.649 180.835 123.041 165.333 130.252C160.408 132.553 155.294 134.475 150.41 136.899C137.457 143.353 124.61 149.939 111.656 156.393C109.133 157.682 106.142 158.318 103.801 159.691C98.5082 162.82 93.3636 166.204 88.3369 169.663C86.4834 170.927 85.2792 172.928 83.3957 174.013C68.5562 182.548 60.9306 196.194 51.3895 208.459C49.7624 210.577 48.1885 212.76 46.9265 215.045C45.2668 217.979 43.3252 220.99 42.5599 224.107C40.5551 232.678 38.3565 241.221 37.5927 249.907C36.6275 261.554 30.0976 270.782 22.8563 279.91C21.867 281.179 20.2654 282.186 19.5881 283.556C15.5175 291.487 11.1511 298.907 3.50584 305.106C-1.98778 309.555 -0.458934 318.092 4.19215 323.374C6.6182 326.175 8.80393 329.177 10.7724 332.266C15.0166 338.897 18.3041 345.98 25.4348 350.846C27.1909 352.029 28.3971 353.956 29.5846 355.646C36.0539 364.757 45.6011 371.485 53.4247 379.496C60.9178 387.167 67.5606 395.423 74.4321 403.535C78.5055 408.383 82.4909 413.337 86.183 418.425C87.4768 420.248 88.6139 422.517 88.7153 424.641C88.8743 428.122 90.5101 430.226 93.9023 431.873C102.436 436.055 109.051 441.494 112.208 450.2C113.615 454.09 117.865 457.087 120.758 460.54C125.617 466.436 130.476 472.333 135.258 478.277C135.577 478.673 135.644 479.327 136.051 479.619C142.13 484.748 144.547 489.892 137.384 496.335C136.323 497.301 137.677 501.124 139.012 503.069C139.657 504.156 142.846 504.836 144.279 504.333C145.506 503.86 146.467 501.415 146.368 499.936C146.112 497.262 144.969 494.699 143.719 490.363C147.227 491.439 149.667 491.546 150.97 492.666C153.865 495.122 156.932 497.72 158.553 500.878C161.744 507.127 166.945 511.664 172.505 516.076C176.054 518.917 179 522.435 182.209 525.639C183.147 526.591 184.028 527.828 185.199 528.285C190.586 530.269 192.48 534.051 193.919 538.765C195.347 543.537 199.381 547.266 205.135 548.423C208.841 549.175 211.11 550.782 213.06 553.634C214.597 555.9 217.342 557.456 219.618 559.357C221.67 561.051 224.385 562.427 225.762 564.495C228.231 568.065 231.889 570.042 236.137 570.753C242.431 571.867 246.482 575.189 249.502 579.655C252.575 584.188 256.572 587.444 262.293 589.416C264.53 590.198 266.571 591.948 268.158 593.636C274.667 600.583 282.32 605.17 293.255 605.058C300.116 605.021 306.091 607.38 310.77 612.196C313.52 615.043 316.922 617.629 320.579 619.605C324.42 621.666 326.811 624.639 329.801 627.284C334.767 631.671 341.033 634.892 346.883 638.524C348.48 639.509 350.634 640.045 352.066 641.183C359.825 647.543 367.169 654.314 375.268 660.312C383.367 666.31 392.11 671.753 400.724 677.177C406.092 680.566 411.659 683.63 417.29 686.703C419.199 687.791 421.394 688.45 423.478 689.327C425.262 690.046 427.591 690.371 428.883 691.548C435.778 697.905 444.797 699.694 454.156 699.478C464.379 699.266 474.298 695.964 480.7 689.004C486.522 682.608 488.862 674.026 494.571 667.204C495.11 666.517 495.075 665.047 494.643 664.224C491.182 657.996 495.717 654.996 500.709 651.708C505.624 648.468 510.039 644.747 514.347 640.895C518.086 637.549 522.322 636.676 527.094 637.753C529.895 638.379 532.614 639.404 535.182 640.525C547.276 645.851 560.237 650.183 570.938 657.131C578.993 662.36 587.183 663.974 596.417 665.031C601.681 665.65 606.561 669.146 612.283 666.194C612.5 666.107 612.965 666.114 613.124 666.312C618.672 670.781 625.358 669.312 631.949 669.296C634.412 669.288 637.5 671.127 639.064 672.928C642.682 677.068 647.424 677.966 652.915 677.796C654.384 677.767 655.824 677.558 657.282 677.586C662.974 677.737 664.106 678.716 664.729 683.844C664.904 685.275 665.286 686.677 665.681 688.666C667.807 688.026 669.517 687.796 670.855 687.104C674.194 685.402 676.297 686.516 678.21 688.894C684.982 697.168 695.557 698.178 705.842 698.971C709.771 699.286 713.397 698.796 715.368 702.53C716.895 705.499 719.919 706.332 723.293 706.1C727.943 705.813 731.693 707.333 735.358 709.604C737.662 711.04 740.231 712.806 742.949 713.186C756.89 715.311 768.274 722.823 781.485 726.253C786.976 727.724 792.822 728.425 798.632 728.651C807.282 728.981 815.067 730.949 822.348 735.073C826.047 737.173 830.69 738.233 835.108 739.085C849.258 741.825 864.188 742.682 877.373 747.222C889.505 751.38 901.91 752.88 914.363 754.797C933.522 757.769 952.762 760.342 972.002 762.915C982.29 764.353 992.76 764.234 1002.81 767.164C1006.4 768.193 1010.88 767.413 1014.84 766.911C1018.25 766.509 1021.31 766.526 1023.71 768.796C1032.36 776.981 1044.15 775.933 1055.35 776.502C1060.81 776.797 1066.38 776.228 1071.75 776.979C1088.06 779.259 1104.3 782.174 1120.61 784.454C1132.32 786.092 1144.19 787.282 1155.98 788.521C1158.25 788.78 1160.63 788.233 1162.9 788.199C1167.23 788.16 1171.77 787.446 1175.78 788.301C1189.83 791.203 1203.53 788.956 1217.28 786.482C1217.56 786.404 1217.88 786.449 1218.12 786.248C1225.3 780.687 1234.89 777.691 1240.35 770.481C1244.81 764.541 1250.52 760.707 1258.44 759.354C1270.03 757.339 1280.82 753.689 1290.32 747.164C1293.26 745.171 1297.17 744.252 1300.54 742.73C1303.47 741.382 1306.27 739.722 1305.83 736.319C1305.4 732.859 1302.88 730.865 1299.26 730.008C1296.21 729.288 1293.02 728.959 1289.86 728.459C1287.27 728.097 1284.47 728.116 1282.2 727.211C1275.23 724.479 1268.64 722.854 1262.11 728.505C1261.21 729.318 1257.34 728.718 1256.02 727.655C1253.19 725.208 1250.08 725.125 1246.5 725.092C1239.51 725.111 1232.56 724.902 1225.6 724.456C1223.83 724.326 1220.99 723.226 1220.75 722.136C1220.33 720.555 1221.39 718.299 1222.62 716.83C1224.89 714.158 1227.69 711.853 1230.31 709.406C1234.76 705.221 1240.39 704.367 1246.38 704.677C1248.68 704.822 1250.94 705.49 1253.22 705.693C1258.84 706.243 1261.89 704.619 1262.29 699.692C1262.63 695.402 1264.19 692.631 1268.45 690.353C1271.58 688.681 1274.17 679.547 1272.49 676.968C1271.64 675.617 1269.59 674.218 1267.9 674.039C1261.27 673.582 1254.63 673.532 1248.05 673.491C1245.45 673.48 1242.74 674.391 1240.28 674.047C1232.65 672.979 1225.29 673.475 1217.74 674.94C1215.46 675.383 1212.33 675.062 1210.36 673.966C1206.84 671.95 1203.64 671.972 1199.7 672.71C1194.92 673.625 1189.89 673.507 1184.94 673.93C1183.86 674.013 1182.81 674.628 1181.17 675.16C1182.83 678.441 1186.34 678.228 1189.01 679.13C1191.87 680.116 1196.29 680.323 1195.62 683.98C1194.82 687.913 1190.39 687.763 1187.04 687.235C1178.65 685.945 1171.77 690.318 1164.43 692.398C1153.77 695.421 1143.14 697.979 1131.99 698.178C1129.38 698.225 1126.53 698.178 1124.17 698.962C1115.08 702.145 1105.46 701.328 1096.53 700.431C1087.4 699.506 1077.61 697.903 1070.17 691.939C1068.52 690.594 1066.55 689.146 1064.46 688.62C1054.22 685.957 1044.05 682.952 1033.58 681.43C1026.01 680.371 1020.11 677.613 1014.42 673.534C1010.3 670.555 1005.48 667.419 1000.4 666.533C987.543 664.325 976.928 658.268 965.628 653.289C960.505 650.99 955.283 648.853 949.961 646.878C943.273 644.419 936.792 641.93 932.316 636.439C928.585 631.873 922.79 630.593 916.723 632.617C908.443 635.387 900.389 635.726 891.876 634.067C887.846 633.269 883.192 633.908 879.073 634.856C871.812 636.537 864.759 638.834 857.38 640.44C849.579 642.163 842.052 646.796 835.583 651.46C829.343 655.98 823.623 657.936 815.676 656.766C806.123 655.313 797.085 653.287 788.617 649.114C784.441 647.065 779.405 646.302 774.733 645.062C773.344 644.692 771.799 644.769 770.486 644.351C758.049 640.385 745.723 636.2 733.252 632.404C722.352 629.063 711.295 626.169 700.261 623.161C698.872 622.791 697.161 623.02 696.025 622.393C685.686 616.609 673.902 614.024 662.554 610.268C650.711 606.327 639.335 601.395 627.825 596.796C626.288 596.171 624.21 595.587 623.513 594.434C618.173 585.657 606.439 585.775 598.502 580.621C596.039 578.987 593.235 577.716 590.596 576.292C588.205 574.961 585.913 573.468 583.411 572.356C575.131 568.561 567.619 563.935 562.374 556.988C558.541 551.938 554.35 547.015 550.811 541.831C547.886 537.553 545.647 532.844 543.103 528.326C542.618 527.438 542.367 526.054 541.572 525.709C539.929 524.951 537.821 524.188 536.228 524.493C535.124 524.69 533.692 526.834 533.784 528.019C533.927 530.267 534.881 532.452 535.782 534.571C537.163 537.929 539.055 541.066 540.219 544.511C542.09 550.049 537.946 555.39 531.46 554.893C520.127 554.012 512.112 558.753 504.816 565.529C503.098 567.106 500.579 568.043 498.308 569.074C495.731 570.296 492.965 571.14 490.441 572.429C483.61 575.928 478.063 580.311 478.219 588.07C478.221 588.716 477.424 589.366 476.675 590.434C474.586 589.907 472.486 589.438 469.891 588.782L468.434 595.964C463.239 596.644 460.26 593.942 457.852 591.378C448.871 581.857 439.826 572.327 431.836 562.183C428.181 557.569 426.802 551.573 424.496 546.209C423.678 544.337 423.371 542.242 422.412 540.408C418.009 531.938 416.356 523.031 416.447 513.724C416.48 509.625 416.578 505.536 416.006 501.47C415.299 496.095 413.507 491.155 407.54 488.094C402.722 485.603 402.506 484.049 406.197 480.286C408.804 477.602 412.129 475.312 415.367 473.127C422.728 468.001 421.992 462.447 413.444 459.318C408.252 457.361 402.241 458.455 398.162 462.163C396.292 463.836 394.776 465.734 392.853 467.341C388.45 471.005 383.932 471.956 377.764 470.214C366.559 467.065 354.841 465.133 343.356 462.707C341.956 462.394 340.357 462.405 339.133 461.882C331.408 458.633 323.354 455.69 316.103 451.745C309.936 448.362 304.062 444.845 296.448 444.659C296.124 444.614 295.798 443.924 295.043 443.056C297.691 442.137 300.122 441.304 303.998 439.912C301.634 438.116 300.329 436.351 298.487 435.917C289.778 433.586 284.131 427.638 277.594 422.797C274.352 420.409 270.729 418.261 267.048 416.398C254.621 410.089 241.826 404.607 231.569 395.142C223.554 387.749 213.234 382.203 203.853 375.968C198.113 372.117 191.717 368.878 193.283 360.832C193.907 357.754 191.277 355.628 188.128 354.425C181.205 351.816 180.982 345.044 177.109 340.517C176.62 339.979 178.289 337.985 179.007 336.738C180.426 337.288 181.997 337.742 183.305 338.511C183.894 338.886 184.163 339.862 184.218 340.573C184.943 347.825 190.072 350.418 197.682 350.955C203.651 351.379 208.698 353.726 213.278 357.063C216.124 359.102 219.837 360.149 222.772 362.083C227.292 365.06 231.536 368.408 235.88 371.595C240.684 375.139 245.289 379.006 250.357 382.235C254.546 384.873 259.35 386.775 265.143 385.768C267.18 381.305 264.304 379.086 260.468 378.315C250.318 376.193 243.952 369.851 236.965 363.95C229.753 357.842 221.569 352.595 214.018 346.85C206.243 340.897 198.338 334.927 191.143 328.411C188.613 326.123 187.283 322.185 186.96 318.857C186.678 315.653 185.899 313.258 183.85 310.568C178.286 303.225 171.037 298.284 162.139 293.933C153.852 289.844 148.176 282.075 146.047 273.219C145.587 271.22 145.768 269.018 144.721 267.289C139.356 257.981 141.003 247.894 141.004 238.047C141.021 235.998 142.618 233.7 144.058 231.85C146.27 228.818 148.954 226.087 151.413 223.148C152.467 221.889 154.267 220.558 154.186 219.315C153.931 211.718 159.432 205.922 161.919 199.236C164.36 192.778 168.753 188.175 175.749 186.164C191.561 181.692 206.992 175.819 223.582 173.742C229.87 172.922 236.174 171.693 242.289 170.086C258.747 165.705 275.749 163.568 292.243 159.016C304.583 155.584 317.933 155.047 330.796 152.977C335.333 152.263 339.749 150.829 344.226 149.755C350.165 148.358 356.08 147.074 362.02 145.677C371.037 143.538 380.054 141.399 389.019 139.194C391.533 138.608 394.362 137.128 396.012 139.82C397.904 142.957 395.542 145.089 392.731 146.806C385.28 151.392 384.749 152.372 387.988 159.039C391.375 165.96 391.11 172.84 387.423 179.534C385.209 183.562 387.394 186.564 389.039 189.608C391.833 194.864 395.072 199.889 398.246 204.905C399.038 206.247 400.037 207.558 401.299 208.555C409.097 214.394 416.972 220.184 424.946 225.813C429.484 229.026 430.195 232.408 426.039 236.165C421.907 239.808 417.486 243.234 412.841 246.453C409.351 248.896 399.414 247.038 397.321 243.58C396.57 242.361 397.15 240.156 397.915 238.681C399.113 236.386 401.182 234.389 402.509 232.113C403.935 229.675 404.143 227.007 401.531 225.118C398.632 223.013 395.944 224.454 393.875 226.451C390.254 229.872 386.461 233.152 383.493 236.957C379.162 242.565 382.475 248.538 390.066 248.838C393.63 248.984 396.419 249.667 398.157 252.255C400.603 255.938 404.302 258.038 408.577 259.925C416.214 263.279 416.327 268.629 408.749 272.2C404.64 274.088 404.048 276.35 405.3 279.69C405.633 280.674 405.965 281.659 406.527 282.499C412.432 291.766 410.615 295.146 425.981 290.905C434.58 288.532 442.035 293.443 443.215 301.404C444.251 308.759 444.262 308.702 452.655 309.641C454.596 309.912 456.826 310.4 458.194 311.529C465.387 317.4 473.608 314.27 481.4 313.249C483.522 312.96 485.359 310.462 487.229 308.789C492.105 304.43 495.232 304.105 500.889 307.709C501.125 307.86 501.272 308.115 501.52 308.208C511.278 311.272 515.905 318.308 519.93 326.022C520.9 327.799 522.388 329.649 524.168 330.718C528.757 333.353 531.444 336.835 533.024 341.511C534.343 345.506 538.19 347.861 543.114 347.201C550.701 346.21 557.253 348.357 562.516 352.258C570.079 357.947 577.381 356.388 585.202 353.261C596.422 348.793 602.871 339.964 610.098 331.889C611.129 330.743 611.682 329.003 611.7 327.599C611.731 324.497 611.137 321.19 614.835 319.362C618.609 317.487 622.674 314.831 626.531 314.843C633.251 314.844 637.873 313.38 640.228 307.672C640.386 307.225 640.919 306.89 641.335 306.479C645.132 302.633 645.17 298.398 641.451 293.775L641.134 294.024ZM441.067 126.659C443.951 122.608 448.208 120.975 452.31 120.435C462.852 118.978 470.1 113.427 476.715 106.731C480.734 102.662 486.118 100.719 491.912 99.7118C493.428 99.4548 495.196 100.581 497.079 101.138C496.25 102.604 496.023 103.393 495.454 103.9C485.817 112.048 476.286 120.329 466.489 128.279C460.198 133.379 448.377 132.605 441.067 126.659ZM679.738 39.7478C681.641 35.6176 684.451 35.5415 687.416 36.0147C690.004 36.3765 691.943 37.6441 690.905 40.1367C689.721 43.0193 686.696 43.8273 683.812 42.9551C682.058 42.4168 680.882 40.6697 679.75 39.6908L679.738 39.7478ZM275.982 437.636C274.896 436.429 273.782 435.687 273.791 434.985C273.842 434.406 275.208 433.249 275.92 433.348C276.761 433.466 277.916 434.331 278.089 435.117C278.244 435.666 277.012 436.49 275.905 437.684L275.982 437.636ZM844.364 126.306C844.662 127.462 845.147 128.35 845.05 129.157C844.957 129.613 843.894 129.934 843.23 130.251C842.757 129.306 842.219 128.351 841.886 127.367C841.91 127.253 843.125 126.837 844.364 126.306ZM237.896 449.896C237.489 449.604 236.812 449.334 236.752 448.974C236.681 448.671 237.302 448.23 237.642 447.867C238.155 448.291 238.668 448.714 239.193 449.081C238.747 449.311 238.289 449.599 237.907 449.839L237.896 449.896Z" fill="#757B7C"/>
<path d="M1975.84 423.381C1971.7 420.516 1967.82 420.618 1964.2 423.043C1959.96 425.909 1956.26 425.45 1952.24 422.954C1949.64 421.359 1946.67 420.24 1944.04 418.759C1938.67 415.722 1932.97 414.632 1926.62 416.089C1922.71 417.007 1918.2 418.546 1915.53 414.656C1912.54 410.369 1909.74 405.815 1912.46 400.275C1917.06 390.719 1923.83 382.287 1931.05 374.211C1933.81 371.138 1938.61 369.464 1942.51 367.256C1943.71 366.602 1945.56 366.685 1946.58 365.89C1954.06 360.195 1961.59 354.565 1968.67 348.521C1970.28 347.163 1970.4 344.25 1970.92 342.036C1971.68 338.274 1971.76 334.298 1973.15 330.684C1974.46 327.174 1976.93 323.884 1979.12 320.615C1980.16 319.119 1982.41 318.202 1983.26 316.622C1986.59 310.698 1991.91 307.749 1999.75 307.497L2003.97 286.692C1998.85 282.751 1994.42 279.319 1989.9 275.991C1986.54 273.528 1982.55 273.85 1979.31 275.741C1972.53 279.657 1967.58 278.145 1962.56 273.341C1959.22 270.119 1955.52 266.378 1949.09 268.878C1947.87 269.352 1945.18 268.155 1944.01 267.053C1940.86 264.21 1937.86 263.908 1935.54 267.453C1933.05 271.207 1929.58 271.601 1925.21 271.811C1917.29 272.168 1909.67 273.975 1903.1 278.45C1901.25 279.715 1899.23 280.839 1897.08 281.594C1884.63 285.891 1874.06 292.736 1863.73 300.026C1861.24 301.788 1858.58 303.761 1855.62 304.578C1843.03 307.918 1833.52 315.439 1824.74 323.297C1804.46 341.271 1780.05 354.329 1756.78 368.661C1739.38 379.358 1720 387.61 1701.53 396.986C1691.37 402.13 1681.32 407.407 1671.27 412.684C1662.71 417.172 1654.14 421.661 1645.69 426.282C1642.17 428.194 1639.36 428.915 1635.49 426.38C1628.98 422.069 1621.64 421.806 1614.41 425.954C1608.84 429.16 1603.37 431.854 1596.92 427.259C1595.29 426.093 1591.65 425.995 1589.5 426.749C1582.71 429.082 1575.58 431.426 1571.24 437.034C1566.88 442.813 1560.75 446.763 1554.47 450.515C1545.9 455.706 1539.22 462.041 1533.38 469.841C1527.29 477.899 1518.53 484.353 1511.06 491.633C1503.37 499.057 1496.57 507.309 1488.03 513.97C1477.36 522.325 1470.16 533.863 1457.01 539.995C1453.7 541.526 1450.45 543.768 1448.26 546.392C1440.39 555.667 1428.91 560.393 1418.07 565.97C1412.57 568.777 1409.29 572.187 1408.39 577.923C1407.79 581.532 1405.73 585.113 1403.73 588.409C1401.15 592.62 1400.87 593.694 1405.64 595.416C1410.3 597.064 1412.2 599.793 1413.32 603.817C1414.04 606.497 1415.43 609.153 1417.25 611.342C1418.43 612.738 1421.08 614.105 1422.92 613.893C1426.88 613.392 1430.23 613.919 1433.79 615.413C1437.83 617.15 1441.81 615.89 1445.4 613.93C1454.07 609.222 1462.81 604.524 1471.4 599.57C1481.79 593.637 1492.9 588.742 1504.83 586.308C1512.33 584.777 1520.52 585.101 1528.22 585.826C1531.3 586.08 1534.22 589.362 1536.68 591.698C1540.74 595.607 1542.14 595.92 1546.64 592.446C1550.42 589.574 1554.79 587.021 1557.63 583.548C1560.92 579.437 1563.36 574.62 1565.13 569.827C1567.11 564.358 1570.55 560.208 1575.5 556.797C1576.19 556.308 1577.01 555.895 1577.47 555.256C1583.19 547.732 1591.61 543.927 1601.14 541.567C1602.48 541.226 1603.77 540.41 1604.92 539.691C1615.79 532.654 1626.76 525.805 1637.31 518.429C1644.06 513.687 1651.78 512.012 1659.82 510.439C1665.43 509.348 1671.99 508.506 1676.07 505.443C1684.39 499.22 1694.52 499.113 1703.89 497.199C1710.7 495.806 1718.32 497.281 1725.43 498.277C1730.35 498.964 1733.42 502.558 1734.74 506.552C1736.75 512.696 1738.86 518.677 1743.33 523.874C1745.97 526.939 1744.93 530.428 1741.76 532.916C1734.81 538.333 1729.75 544.895 1725.76 552.132C1725.01 553.494 1723.61 554.528 1722.5 555.721C1717.25 561.259 1712.12 566.872 1706.74 572.392C1702.95 576.317 1698.99 580.101 1695.08 583.951C1693.91 585.135 1692.5 586.169 1691.69 587.522C1680.97 605.952 1663.27 619.421 1648.01 634.581C1638.01 644.553 1626.28 652.526 1614.39 660.595C1604.98 666.958 1596.85 674.907 1588.37 681.928C1590.43 685.908 1593.01 688.907 1593.36 692.121C1593.69 695.097 1591.69 698.394 1590.72 701.54C1595.37 703.188 1599.4 704.982 1603.79 705.948C1606.72 706.592 1610.21 706.493 1613.14 705.79C1617.47 704.812 1620.8 705.102 1624.32 707.763C1629.01 711.232 1630.02 710.845 1634.91 707.719C1636.89 706.473 1639.34 705.877 1641.53 704.952C1642.38 706.947 1643.58 708.932 1644.09 710.996C1645.08 714.651 1645.58 718.414 1646.43 722.109C1647.17 725.32 1648.4 728.48 1648.86 731.769C1649.72 738.337 1648.17 740.113 1640.89 741.206C1638.9 741.513 1636.81 741.632 1634.78 741.816C1633.35 741.968 1631.8 741.751 1630.46 742.092C1614.69 746.687 1596.83 745.537 1583.26 756.359C1578.25 760.349 1574.25 764.361 1573.29 770.382C1572.07 778.711 1569.36 786.831 1570.2 795.449C1570.73 800.739 1572.32 805.358 1574.63 810.019C1578 816.704 1577.91 818.156 1571.81 822.637C1568.21 825.299 1566.79 828.031 1567.45 831.992C1568.22 836.731 1568.65 841.481 1569.22 846.543C1564.98 848.412 1562.84 845.533 1560.74 843.422C1556.99 839.615 1553.26 835.694 1550.19 831.455C1548.58 829.237 1547.98 826.281 1547.59 823.589C1547 818.992 1544.96 815.6 1540.68 812.717C1526.86 803.457 1515.22 792.275 1504.63 780.185C1503.93 779.383 1503.39 778.428 1502.52 777.78C1491.07 768.968 1479.46 760.253 1468.11 751.28C1463.86 747.931 1460.1 744.181 1456.25 740.536C1453.9 738.332 1451.87 735.879 1449.61 733.57C1445.11 728.838 1439.63 728.657 1433.02 730.078C1424.6 731.89 1415.92 732.67 1407.34 733.99C1404.8 734.397 1402.3 734.869 1399.84 735.521C1397.6 736.087 1395.44 737.543 1393.32 737.482C1388.43 737.325 1384.9 739 1381.97 742.284C1378.45 746.188 1373.97 747.262 1368.67 746.169C1367.83 746.051 1366.93 745.925 1366.12 745.636C1357.71 742.819 1353.11 745.459 1354.46 755.202C1355.56 762.917 1359.05 770.322 1361.86 777.807C1363.36 781.886 1365.54 785.533 1365.26 790.24C1365.13 792.803 1367.42 795.994 1369.73 798.018C1376.5 804.005 1383.24 809.813 1383.69 819.078C1383.76 820.378 1385.14 822.095 1386.48 822.693C1397.01 827.213 1401.56 836.29 1408.06 843.939C1408.76 844.741 1409.45 845.6 1409.94 846.488C1414.51 855.099 1423.29 857.089 1433.01 857.393C1435.19 857.463 1437.65 856.811 1439.68 855.981C1448.24 852.489 1451.77 852.806 1458.21 858.455C1462.28 862.013 1465.93 865.982 1470.1 869.379C1475.13 873.481 1480.39 877.382 1485.93 880.912C1488.81 882.78 1492.23 884.312 1492.01 887.682C1491.67 894.61 1496.74 898.778 1502.1 901.872C1515.21 909.448 1523.7 920.718 1533.8 930.63C1537.4 934.182 1541.24 937.884 1545.81 940.281C1551.52 943.307 1555.65 947.871 1556.19 952.753C1557.08 960.497 1562.47 964.768 1568.22 968.562C1579.66 976.14 1589.49 984.782 1596.49 995.844C1597.3 997.128 1598.64 998.371 1600.11 998.987C1606.27 1001.43 1608.97 1005.85 1610.45 1011.34C1612.23 1017.97 1616.92 1023.08 1621.96 1028.07C1623.85 1029.91 1626.28 1032.01 1626.7 1034.24C1628.57 1044.35 1636.66 1051.4 1642.43 1059.36C1646.65 1065.11 1655.03 1068.74 1662.12 1072.49C1667.06 1075.05 1672.46 1073.35 1676.68 1069.95C1681.78 1065.8 1686.27 1065.31 1692.01 1069.16C1696.75 1072.35 1702.96 1070.28 1706.1 1065.62C1707.8 1063.16 1706.54 1061.47 1704.88 1059.48C1701.58 1055.44 1701.67 1054.34 1706.31 1051.47C1710.11 1049.13 1714.23 1046.19 1718.55 1045.56C1731.83 1043.72 1743.39 1038.25 1755.36 1033.36C1759.28 1031.74 1763.55 1030.69 1767.71 1029.57C1773.96 1027.93 1776.2 1024.14 1773.11 1019.01C1767.53 1009.79 1762.63 1000.49 1761.54 989.788C1761.27 987.171 1759.54 984.526 1757.89 982.185C1752.88 974.743 1750.05 967.021 1753.25 958.148C1757.43 946.716 1754.81 936.033 1749.72 925.357C1746.74 919.077 1745.12 912.286 1742.78 905.804C1741.68 902.662 1740.17 899.636 1739.14 896.503C1738.28 893.862 1736.95 890.921 1737.52 888.422C1738.81 882.74 1736.63 878.39 1732.86 874.346C1729.35 870.632 1727.83 866.962 1729.95 861.748C1731.32 858.305 1730.92 854.029 1730 850.383C1729.41 848.015 1726.97 845.622 1724.7 844.015C1720.22 840.867 1718.22 837.247 1718.72 832.159C1718.95 829.729 1718.05 827.259 1717.56 824.786C1717.35 823.82 1716.35 822.859 1716.47 821.938C1717.72 811.854 1710.62 804.882 1705.47 797.128C1704.45 795.579 1704.43 793.407 1704.15 791.492C1704.09 790.781 1705.07 789.921 1704.86 789.306C1699.61 774.504 1701.4 756.817 1683.85 746.919C1679.97 744.734 1675.72 743.027 1671.62 741.281C1665 738.48 1661.76 734.1 1661.23 727.52C1660.77 721.945 1659.08 716.492 1658.28 710.928C1657.45 705.185 1658.38 703.85 1664.32 701.163C1672.68 697.349 1681.07 694.01 1690.85 694.029C1697.49 694.078 1702.82 688.141 1703.2 682.333C1703.35 680.301 1704.19 677.781 1705.81 676.366C1710.05 672.505 1714.5 668.613 1719.57 665.628C1733.17 657.624 1743.48 646.814 1754.39 636.324C1764.05 627.065 1773.82 617.939 1782.11 607.608C1790.38 597.334 1799.89 587.82 1809.11 578.147C1815.87 571.062 1823.39 564.493 1830.08 557.399C1834.16 553.045 1837.12 547.949 1841.03 543.455C1843.23 540.831 1846.19 538.666 1848.85 536.4C1849.9 535.492 1851.93 535.013 1852.19 534.053C1854.61 526.068 1864.71 524.139 1868.89 517.631C1873.17 510.961 1881.09 507.027 1886 501.207C1893.97 491.77 1904.91 485.036 1913.26 476.061C1914.36 474.868 1915.53 473.683 1916.93 472.706C1926.55 465.611 1936.3 458.591 1945.98 451.505C1946.68 451.016 1947.62 450.678 1948.01 450.03C1953.39 441.227 1963.75 437.4 1972.1 431.651C1975.43 429.361 1976.31 426.964 1976.1 423.418L1975.84 423.381ZM1752.53 469.65C1757.95 469.528 1762.75 469.144 1767.5 469.34C1770.54 469.471 1772.09 471.329 1771.39 474.104C1769.33 482.315 1767.51 490.619 1764.8 498.739C1763.82 501.592 1760.65 504.08 1757.96 506.224C1757.01 506.97 1753.83 506.584 1752.54 505.701C1748.43 503.015 1746.62 490.922 1750.54 488.012C1756.65 483.473 1755.95 479.038 1753.3 473.743C1752.79 472.675 1752.85 471.394 1752.53 469.65ZM1736.95 464.482C1735.19 462.302 1734.18 461.047 1733.1 459.84C1734.82 458.908 1736.48 457.265 1738.23 457.158C1739.44 457.093 1740.68 459.2 1741.92 460.311C1740.49 461.46 1739.11 462.674 1736.95 464.482Z" fill="#757B7C"/>
<path d="M801.644 450.697C805.942 454.111 809.006 456.064 811.361 458.562C814.513 462.05 814.078 465.507 809.534 467.568C803.676 470.207 802.302 474.353 801.026 479.332C800.318 482.164 798.123 484.788 796.156 487.268C793.773 490.159 790.682 492.599 788.353 495.556C784.759 500.153 780.111 502.727 773.839 503.14C759.803 504.108 746.693 507.726 733.534 512.569C722.612 516.552 716.089 524.432 707.284 530.118C703.142 532.822 702.951 536.722 704.974 540.522C708.17 546.42 708.023 551.734 701.877 556.443C698.723 558.874 699.169 561.926 700.825 564.913C705.381 573.287 719.936 579.602 730.825 579.717C742.243 579.848 754.246 577.423 764.931 583.138C766.498 583.943 768.855 583.804 770.854 583.79C780.514 583.734 789.905 584.343 798.813 587.992C803.735 589.97 808.833 591.738 814.777 589.99C816.697 589.379 819.333 590.158 821.475 590.75C836.394 594.947 851.449 594.531 866.995 593.012C886.079 591.108 902.769 583.946 919.547 576.678C923.774 574.866 927.668 573.711 931.85 576.054C934.725 577.628 937.452 577.306 939.749 575.165C943.787 571.334 948.677 570.845 954.205 571.149C956.839 571.283 959.78 570.229 962.323 569.177C965.734 567.778 968.82 565.689 972.201 564.111C976.973 561.906 980.931 559.118 983.668 554.811C985.224 552.391 987.916 550.598 989.901 548.355C992.338 545.531 994.85 542.658 996.879 539.542C1000.89 533.244 1003.81 526.384 1008.52 520.537C1012.87 515.166 1018.71 510.648 1024.28 506.151C1026.92 503.942 1029.65 502.33 1029.13 498.624C1028.42 493.951 1031.29 490.602 1035.7 488.58C1041.44 485.865 1043.38 481.858 1043.06 476.538C1042.96 474.765 1043.07 472.905 1043.48 471.204C1044.62 466.557 1043.04 462.526 1039.89 459.037C1032.7 451.174 1025.36 443.407 1017.95 435.687C1016.9 434.603 1015.33 433.504 1013.81 433.116C1000.72 429.41 991.223 421.458 981.946 413.069C976.779 408.36 970.804 404.36 965.298 400.014C963.8 398.867 961.956 397.788 961.058 396.314C956.481 388.699 948.516 384.01 941.612 378.355C938.481 375.749 935.026 373.097 933.169 369.789C927.49 359.733 916.944 354.976 906.539 350.18C901.728 347.984 898.014 345.296 895.009 341.417C887.828 332.206 880.483 323.149 873.29 313.996C870.379 310.306 867.164 307.453 861.234 308.148C859.124 308.381 856.641 307.506 854.621 306.637C848.38 303.947 843.388 305.594 838.946 309.78C838.366 310.343 837.774 310.964 837.194 311.528C831.504 316.946 828.137 317.471 821.2 314.274C811.224 309.655 804.678 310.44 797.437 317.927C793.822 321.642 789.786 324.477 784.617 325.689C773.096 328.357 768.947 337.332 762.758 344.555C761.803 345.653 761.357 347.525 761.532 348.956C763.058 361.772 761.434 375.027 768.871 386.911C772.075 392.107 775.109 397.162 781.369 400.089C783.624 401.107 785.993 402.552 787.351 404.384C792.721 411.7 801.074 416.443 807.657 422.698C814.304 428.961 821.597 434.67 828.813 440.427C830.705 441.923 833.032 443.244 835.433 443.873C842.012 445.555 844.734 450.508 847.971 454.888C849.944 457.626 848.053 460.058 844.425 459.902C843.302 459.862 841.867 459.72 841.118 459.147C835.418 454.774 827.914 454.37 821.28 451.977C815.269 449.788 809.541 450.804 801.804 450.895L801.644 450.697Z" fill="#757B7C"/>
<path d="M287.2 399.015C283.974 394.586 278.846 392.64 273.56 390.496C274.405 401.088 278.53 403.713 287.2 399.015Z" fill="#757B7C"/>
</svg>
