<svg width="1004" height="683" viewBox="0 0 1004 683" fill="none" xmlns="http://www.w3.org/2000/svg">
<path d="M33.434 498.233C34.0412 502.291 30.8865 503.673 28.1579 505.583C29.1361 509.012 29.9418 512.48 31.1696 515.711C31.5452 516.707 32.9869 517.363 34.1224 517.697C35.8654 518.231 36.4738 519.291 36.3711 521.183C36.2314 523.696 36.9841 526.228 35.3112 528.728C34.8387 529.431 35.0654 530.87 35.3344 531.813C36.6491 536.636 38.0815 541.443 39.4509 546.244C39.6629 546.987 39.8904 548.106 40.4075 548.31C44.2046 549.824 44.2896 554.734 47.4224 557.029C50.2819 559.117 52.2046 562.64 55.0833 564.688C60.5126 568.599 66.3293 571.938 71.9948 575.497C72.4022 575.746 72.955 575.967 73.4179 575.874C77.0777 575.084 79.8765 577.388 83.1691 577.991C83.752 578.104 84.3646 578.429 84.8127 578.82C89.9539 583.008 96.2123 584.572 102.405 586.226C109.753 588.175 116.888 590.561 123.341 594.629C125.537 595.999 127.63 596.581 130.43 595.886C133.603 595.103 136.529 596.461 139.369 597.728C142.173 598.977 145.051 600.165 148.042 600.891C150.674 601.54 153.53 601.365 156.232 601.826C157.543 602.026 159.01 602.448 159.884 603.368C161.381 604.863 162.987 605.452 164.982 604.83C167.031 604.186 168.314 605.035 169.617 606.386C170.527 607.323 171.74 608.359 172.972 608.495C175.868 608.782 178.146 610.118 180.36 611.767C181.683 612.759 182.93 613.59 184.831 613.07C185.596 612.854 186.761 613.4 187.345 614.055C188.526 615.296 189.866 615.707 191.423 615.264C193.253 614.709 194.596 615.342 195.954 616.351C197.436 617.469 199.038 618.475 200.663 619.344C203.584 620.896 206.759 621.516 210.109 620.5C211.63 620.04 212.966 620.006 213.856 621.302C216.869 625.751 221.172 627.538 226.32 627.672C231.467 627.807 235.779 630.483 240.557 631.788C242.812 632.4 244.954 633.473 247.197 634.153C250.139 635.027 252.89 636.521 256.187 636.389C257.904 636.296 259.556 637.153 261.266 637.572C262.941 637.974 264.627 638.308 266.263 638.789C268.614 639.521 270.849 640.492 273.21 641.156C274.31 641.473 275.57 641.598 276.723 641.351C277.821 641.127 278.855 640.354 279.867 639.718C282.258 638.233 284.301 638.102 286.462 639.996C287.569 640.98 289.403 641.189 290.958 641.385C292.694 641.571 294.518 641.21 296.257 641.298C297.563 641.372 298.821 641.816 300.326 642.159C299.55 643.943 298.978 645.261 298.182 647.084C300.845 647.625 303.18 648.301 305.591 648.498C306.248 648.549 307.258 647.372 307.852 646.556C308.643 645.467 309.108 644.097 309.943 643.055C310.347 642.54 311.506 642.099 311.913 642.348C312.542 642.729 313.162 643.721 313.103 644.479C313.032 645.624 312.418 646.799 311.864 648.397C312.839 648.701 313.692 649.119 314.582 649.235C318.381 649.791 319.038 651.022 317.461 654.823C317.353 655.09 317.202 655.312 317.095 655.579C316.043 658.432 316.735 660 319.414 660.598C323.062 661.376 326.73 662.114 330.408 662.783C331.96 663.075 333.336 663.503 333.787 665.297C334.303 667.32 333.103 668.798 331.113 668.684C329.24 668.554 327.342 668.658 325.53 668.312C323.754 667.984 322.044 667.245 320.359 666.593C319.601 666.296 318.923 665.743 318.109 665.245C317.235 666.367 316.494 667.307 315.574 668.48C314.83 668.017 314.158 667.59 313.45 667.145C311.839 666.111 310.705 666.318 309.494 667.864C308.311 669.399 308.448 670.524 309.965 671.979C310.683 672.675 311.659 673.202 312.038 674.1C314.223 679.079 318.546 680.506 323.227 681.15C324.88 681.369 326.757 681.082 328.425 680.498C330.768 679.702 332.828 679.309 334.884 680.831C335.846 681.524 337.176 681.683 338.386 681.955C340.159 682.381 342.027 683.246 343.742 682.93C346.555 682.389 349.638 681.611 351.983 679.857C354.577 677.906 356.674 676.892 359.678 677.773C361.95 678.442 364.618 677.609 366.927 678.837C367.61 679.196 368.929 678.563 369.809 678.108C371.908 676.997 374.028 676.707 376.114 677.26C378.163 677.797 380.138 677.534 381.956 676.186C383.904 674.755 385.612 674.632 387.578 675.84C390.307 677.471 393.331 677.131 396.286 675.48C398.502 674.237 400.463 674.5 402.172 676.271C403.518 677.667 406.432 677.692 407.959 675.538C410.052 672.579 413.083 672.269 415.701 671.042C416.992 670.42 418.905 671.012 420.36 671.503C422.048 672.059 423.534 672.442 425.444 671.95C427.099 671.531 428.984 671.815 430.601 672.336C433.398 673.237 436.047 672.763 438.738 671.475C439.92 670.897 441.117 670.377 442.326 669.789C444.376 668.825 446.316 668.545 447.933 670.246C449.061 671.413 450.197 671.428 451.686 670.534C452.679 669.938 453.854 669.555 454.977 669.416C457.812 669.058 459.718 667.483 460.967 664.677C461.49 663.507 462.289 662.448 463.345 660.678C464.043 662.052 464.734 662.759 464.73 663.494C464.653 666.014 466.124 666.881 467.983 666.857C470.727 666.823 473.495 666.556 476.235 666.077C481.368 665.196 486.299 662.643 491.584 662.722C493.64 662.745 495.759 661.594 497.868 661.053C499.578 660.611 501.398 659.805 503.054 659.928C507.303 660.237 511.352 659.416 515.378 657.551C516.211 657.147 517.165 656.631 517.965 656.752C522.328 657.461 526.478 655.386 530.715 654.584C533.819 653.988 536.802 652.326 539.901 651.286C541.86 650.647 543.862 650.373 545.862 649.876C547.716 649.407 549.623 649.013 551.413 648.315C555.803 646.653 560.033 644.322 564.734 644.288C565.799 644.268 566.956 643.605 568.052 643.158C574.493 640.532 580.933 637.907 587.357 635.224C589.44 634.375 591.509 633.691 593.692 634.268C594.39 634.462 595.37 634.573 595.897 634.167C599.443 631.477 603.792 630.852 607.287 627.769C611.831 623.747 616.753 620.305 620.944 615.694C624.09 612.242 628.216 609.762 631.826 606.76C634.714 604.338 637.674 601.951 640.32 599.214C644.491 594.961 648.436 590.45 652.467 586.031C653.214 585.217 653.829 584.264 654.644 583.581C658.309 580.556 661.009 576.616 663.983 572.884C667.201 568.829 670.514 564.894 674.697 561.753C677.42 559.718 679.606 556.657 681.617 553.732C688.133 544.186 694.687 534.56 698.996 523.712C701.193 518.223 702.81 512.524 704.589 506.854C706.817 499.758 709.001 492.615 711.13 485.495C711.902 482.947 713.311 481.129 715.455 479.744C717.186 478.624 718.804 477.326 720.833 475.861C722.993 476.352 725.675 476.854 728.277 477.611C730.951 478.403 733.567 478.676 736.441 478.238C737.909 478.022 739.596 478.898 740.878 479.747C743.673 481.606 746.532 482.513 750.09 481.796C751.824 481.44 753.739 482.255 755.482 482.788C761.417 484.611 767.148 487.219 773.235 488.183C776.889 488.766 780.071 490.053 783.398 491.312C785.493 492.117 787.628 492.522 790.024 491.482C790.928 491.113 792.255 491.37 793.125 491.844C796.161 493.478 799.053 495.361 802.05 497.074C802.565 497.374 803.303 497.711 803.797 497.51C806.51 496.404 808.678 497.785 811.07 498.341C813.462 498.897 816.028 498.776 818.502 498.979C819.474 499.061 820.633 498.94 821.404 499.391C824.548 501.299 827.561 503.388 830.621 505.426C831.143 505.756 831.662 506.182 832.226 506.335C836.984 507.681 841.812 508.839 846.513 510.303C851.115 511.745 855.706 513.254 860.124 515.121C864.124 516.808 868.005 518.511 872.365 519.318C876.725 520.124 880.891 521.966 884.901 523.904C888.627 525.703 892.307 524.234 896.035 523.576C896.679 523.473 897.399 522.031 897.807 521.099C899.081 518.06 899.501 517.601 902.376 517.705C903.611 517.744 905.062 517.791 905.961 518.477C908.686 520.524 911.994 520.642 915.13 521.342C916.34 521.614 917.678 521.802 918.621 522.534C921.696 524.949 925.408 525.413 929.045 526.259C930.586 526.62 932.027 527.276 933.469 527.932C937.438 529.728 941.418 531.454 944.491 534.827C945.966 536.458 948.064 536.305 950.004 534.525C951.99 532.695 953.906 532.87 955.963 534.074C958.921 535.866 959.59 535.529 961.951 532.653C962.767 531.651 963.908 530.611 965.037 530.278C968.106 529.346 969.646 527.347 970.034 524.095C970.117 523.422 970.461 522.804 970.671 522.144C971.318 520.126 971.133 518.511 969.523 517.157C967.457 515.384 967.497 514.666 969.217 512.115C970.588 510.056 972.136 508.085 973.4 505.975C974.085 504.835 974.852 503.342 974.761 502.167C974.496 498.128 976.78 495.41 979.144 492.756C980.47 491.291 982.046 490.169 981.159 487.915C980.388 485.965 976.401 483.571 974.696 484.457C972.917 485.406 971.494 485.029 969.979 484.435C967.571 483.502 965.159 483.305 962.621 484.595C961.842 484.977 960.815 485.236 960.035 485.075C955.04 484.081 950.037 483.059 945.114 481.78C944.094 481.526 943.055 480.355 942.601 479.296C941.674 477.122 940.839 474.943 938.81 473.728C938.703 473.676 938.635 473.544 938.547 473.452C937.152 471.884 936.773 469.806 937.67 468.77C938.716 467.61 941.424 467.878 942.779 469.303C944.431 471.022 946.01 472.802 947.701 474.441C948.499 475.201 949.541 475.637 950.471 476.215C952.125 477.295 953.931 478.154 955.36 479.517C957.114 481.163 958.966 481.971 961.403 481.615C961.102 479.058 959.17 476.465 956.859 475.014C952.159 472.05 947.214 469.409 942.956 465.849C940.097 463.442 936.245 461.95 934.729 457.815C934.479 457.152 933.404 456.601 932.621 456.538C928.985 456.234 926.555 454.577 925.772 450.653C925.623 449.917 925.14 449.189 924.605 448.705C921.404 445.959 918.69 442.663 914.627 440.97C912.061 439.911 909.774 438.004 907.714 436.037C901.093 429.773 894.632 423.316 888.104 416.95C886.238 415.127 884.317 413.326 882.319 411.684C879.75 409.542 878.125 406.632 876.913 403.457C876.162 401.467 875.105 400.335 873.082 399.788C869.87 398.928 869.322 396.472 871.705 393.778C873.387 391.848 875.412 390.257 877.305 388.529C877.908 387.964 878.616 387.548 879.112 386.93C884.966 379.887 890.775 372.797 896.62 365.725C896.958 365.301 897.323 364.865 897.625 364.422C903.489 356.131 909.178 347.655 915.272 339.524C920.726 332.261 925.056 324.275 930.13 316.752C932.973 312.563 935.57 308.154 938.069 303.723C939.127 301.856 939.761 299.683 940.519 297.62C941.709 294.391 942.836 291.157 944.026 287.928C944.596 286.388 945.229 284.854 945.933 283.355C946.495 282.105 946.999 280.655 947.91 279.774C949.779 277.959 950.958 275.979 951.352 273.394C951.602 271.697 952.792 270.829 954.166 270.174C956.482 269.07 957.956 267.161 958.63 264.589C959.251 262.263 958.241 260.761 956.001 261.164C954.694 261.409 953.422 262.311 952.131 262.933C950.143 263.903 948.164 264.901 946.161 265.813C945.108 266.306 943.851 266.404 942.911 267.075C940.659 268.726 938.354 269.762 935.709 269.819C935.222 269.826 934.641 269.936 934.235 270.229C930.434 272.991 926.668 275.77 922.903 278.549C922.7 278.695 922.565 278.974 922.37 279.149C921.487 280.019 920.363 280.477 919.813 279.298C919.499 278.629 919.78 276.824 920.276 276.526C922.785 275.024 922.938 272.665 923.4 270.212C923.713 268.521 924.462 266.749 925.435 265.331C927.116 262.86 927.798 260.317 927.349 257.565C926.998 255.475 927.363 253.859 929.09 252.517C930.764 251.197 931.495 249.686 930.523 247.563C929.746 245.806 930.576 244.319 931.815 242.762C933.89 240.065 935.756 237.167 937.55 234.235C938.444 232.754 938.603 231.062 937.582 229.628C936.709 228.39 935.451 228.807 934.131 228.898C932.277 229.048 930.305 229.214 928.637 228.618C926.771 227.976 925.341 228.112 923.703 229.449C920.011 232.486 916.022 234.909 911.589 236.206C906.646 237.647 901.614 238.774 896.666 240.089C894.956 240.531 893.279 241.406 891.575 241.654C888.286 242.134 885.416 243.336 883.214 246.339C883.082 246.52 882.745 246.626 882.501 246.63C875.923 246.951 870.729 252.226 864.499 253.873C864.126 253.961 863.742 254.118 863.402 254.32C859.714 256.94 855.964 258.916 851.671 257.38C845.675 259.952 839.525 262.204 833.703 265.28C831.521 266.425 829.642 267.988 827.097 268.292C825.703 268.445 824.272 269.539 822.912 270.349C820.302 271.923 817.724 273.612 815.13 275.244C814.9 275.402 814.629 275.416 814.434 275.592C808.516 280.907 800.985 282.925 794.898 287.862C794.473 288.195 793.924 288.738 793.566 288.661C789.186 287.894 786.156 292.607 782.035 292.851C781.791 292.855 781.497 293.007 781.322 293.142C777.922 296.665 773.427 297.318 769.368 299.068C766.726 300.209 764.48 301.667 763.193 304.552C762.854 305.296 762.387 306.125 761.778 306.564C756.787 310.194 751.711 313.635 745.777 315.033C743.542 315.562 741.369 316.416 739.147 317.099C738.527 317.287 737.853 317.498 737.279 317.414C734.873 317.023 732.891 317.799 730.973 319.761C729.362 321.407 727.725 321.245 726.329 319.677C725.753 319.05 725.457 318.118 724.946 317.401C723.459 315.297 720.996 314.706 719.034 316.622C715.659 319.912 712.837 319.244 709.904 316.899C707.332 314.853 703.941 315.406 700.95 314.68C699.508 314.343 698.046 314.046 696.535 313.896C695.186 313.776 693.822 313.822 692.431 313.879C690.037 313.961 687.646 314.266 685.303 314.201C682.31 314.113 679.343 313.792 676.384 313.499C675.502 313.412 674.659 313.245 673.838 312.942C670.662 311.78 667.498 311.412 663.888 312.054C660.422 312.669 656.859 312.081 653.379 311.681C648.542 311.133 643.742 310.283 638.919 309.57C638.056 309.443 637.082 309.138 636.315 309.451C632.207 311.03 628.61 309.466 624.913 308.517C621.977 307.768 619.155 305.92 615.813 307.825C615.52 307.976 614.989 307.938 614.723 307.759C612.068 306.066 609.081 307.284 606.228 307.362C602.824 307.442 599.446 307.288 596.056 307.203C595.038 307.172 594.004 306.764 593.075 307.047C588.902 308.397 584.815 307.798 580.682 308.112C575.953 308.477 571.4 308.387 566.867 307.619C566.194 307.511 565.38 307.875 564.635 308.051C562.673 308.468 560.668 309.158 558.726 309.216C555.818 309.317 552.971 308.882 550.088 310.249C549.301 310.602 548.352 310.383 547.467 310.393C542.429 310.533 537.402 310.605 532.36 310.842C531.24 310.884 530.089 311.353 529.028 311.817C525.353 313.411 521.595 313.859 517.761 314.146C514.524 314.381 511.202 315.066 508.015 316.014C504.155 317.173 503.45 316.631 504.439 312.272C504.804 310.656 505.268 309.063 505.444 307.428C505.662 305.298 504.774 304.544 502.764 304.789C502.265 304.865 501.739 304.952 501.254 305.181C495.213 308.027 488.984 307.855 482.815 307.786C475.149 307.722 467.472 307.406 459.845 306.943C454.837 306.656 449.919 305.822 444.911 305.535C441.922 305.35 438.887 305.758 435.869 305.904C433.728 306.011 431.542 306.392 429.464 306.186C423.727 305.591 418.013 305.081 412.145 306.708C411.071 307.018 409.897 306.763 408.758 306.845C406.758 307.022 404.756 307.296 402.765 307.502C400.892 307.691 398.994 307.795 397.137 308.042C389.717 309.057 382.306 310.101 374.875 311.184C372.645 311.519 370.402 312.019 368.161 312.422C367.172 312.602 366.126 312.582 365.154 312.819C357.154 314.804 349.153 316.567 341.055 317.029C339.943 317.1 338.816 317.655 337.699 317.919C335.581 318.432 333.463 318.944 331.329 319.399C330.839 319.504 330.3 319.436 329.818 319.569C321.147 321.669 312.432 321.681 303.741 322.959C301.982 323.23 300.27 323.768 298.525 324.193C298.042 324.325 297.499 324.674 297.059 324.631C292.378 323.987 287.786 325.477 283.192 326.424C282.011 326.682 280.584 327.041 279.791 327.907C277.691 330.198 275.357 330.703 272.724 330.373C270.944 330.142 269.25 330.099 267.661 331.608C266.434 332.778 265.231 332.311 264.239 331.408C262.886 330.205 261.405 330.267 259.657 330.788C257.818 331.314 255.904 331.361 254.02 331.619C252.897 331.758 251.744 331.685 250.643 332.007C246.037 333.342 241.472 334.82 236.866 336.156C235.655 336.522 234.319 336.875 233.131 336.785C230.377 336.568 228.194 337.713 226.199 339.835C225.09 340.988 223.779 342.289 222.392 342.79C215.032 345.408 209.508 351.137 203.345 355.915C196.6 361.12 190.707 367.383 184.19 372.847C175.505 380.152 166.621 387.187 158.023 394.583C153.53 398.457 149.26 402.686 145.193 407.087C140.406 412.292 135.941 417.876 131.33 423.265C130.525 424.199 129.696 425.367 128.709 425.769C123.373 427.976 119.007 432.404 113.399 434.084C111.004 434.806 108.809 436.657 106.482 437.829C103.651 439.271 100.746 440.455 97.9495 441.914C95.4934 443.171 93.1299 444.644 90.742 446.033C90.1635 446.364 89.6747 447.01 89.1103 447.176C85.0498 448.385 81.6214 451.059 78.0351 453.286C73.64 456.003 69.3128 458.852 64.9095 461.54C61.6276 463.548 58.2777 465.424 54.944 467.358C54.264 467.762 53.4721 467.99 52.8603 468.526C49.1319 471.864 45.4474 475.248 41.7627 478.633C39.683 480.565 37.4445 482.371 35.6271 484.579C33.0053 487.721 30.5941 491.065 28.3331 494.507C27.1215 496.372 27.8472 497.416 30.0539 497.537C31.0531 497.608 32.0445 497.651 33.0081 497.705C33.0985 497.7 33.1748 497.86 33.4207 498.079L33.434 498.233ZM639.674 354.686C642.035 358.029 642.038 357.933 645.682 357.946C646.901 357.928 648.105 358.394 649.218 358.865C653.447 360.714 657.781 362.073 662.512 362.249C665.513 362.366 668.45 362.795 671.116 364.42C672.453 365.246 674.153 365.414 675.718 365.861C678.107 366.514 680.65 366.849 682.912 367.808C687.188 369.606 691.318 369.39 695.733 367.175C700.415 364.82 705.425 364.149 710.35 364.47C713.493 364.656 716.568 364.71 719.734 364.44C728.587 363.733 736.306 355.292 736.606 345.727C736.644 344.467 736.472 343.006 737.872 342.659C738.845 342.422 740.06 342.82 740.918 343.363C743.335 344.866 745.629 346.578 747.969 348.24C749.902 349.653 751.93 349.687 753.938 348.039C755.623 346.651 757.271 346.425 759.308 346.488C761.868 346.561 764.982 346.535 767.055 345.116C770.455 342.773 774.045 341.309 777.668 339.96C785.99 336.854 794.133 333.12 801.838 328.384C805.01 326.42 807.825 324.061 811.627 324.52C812.516 324.636 813.646 323.984 814.529 323.433C818.608 321.004 822.639 318.404 827.355 318.204C827.716 318.184 828.067 317.914 828.451 317.757C832.589 316.07 836.768 314.526 840.822 312.65C843.275 311.49 845.481 309.57 847.934 308.411C851.33 306.803 854.822 304.996 858.369 304.348C860.9 303.89 863.314 303.448 865.785 302.568C869.068 301.421 872.473 300.703 875.772 299.613C878.343 298.757 881.019 297.953 883.312 296.444C885.651 294.884 887.988 293.963 890.549 293.717C895.481 293.205 900.411 292.79 905.34 292.376C907.665 292.161 909.603 291.34 910.611 288.76C910.806 288.265 911.084 287.737 911.394 287.324C912.581 285.692 914.31 285.21 915.373 286.148C916.357 287.023 916.099 288.372 914.704 290.025C913.656 291.282 912.169 292.399 911.72 293.826C909.955 299.33 906.668 303.892 903.705 308.736C899.443 315.673 893.232 319.96 886.708 323.258C881.733 325.765 877.143 328.976 872.263 331.603C871.575 331.979 870.936 332.527 870.332 333.092C864.315 338.703 859.415 345.549 853.128 350.856C852.933 351.031 852.834 351.327 852.647 351.53C851.503 352.667 850.35 353.775 849.163 354.865C847.78 356.13 846.282 357.315 844.951 358.655C842.457 361.171 840.325 364.209 837.539 366.239C829.715 371.948 824.625 380.275 818.678 387.74C818.115 388.448 817.894 389.495 817.569 390.393C815.911 394.769 814.297 399.192 812.603 403.55C811.017 407.642 810.02 411.653 811.736 415.738C812.022 416.419 812.157 417.321 811.98 418.095C811.189 421.544 812.732 423.626 815.221 424.844C818.117 426.311 819.615 428.667 820.399 431.952C821.463 436.431 822.249 441.118 825.764 444.215C826.87 445.199 827.873 446.354 829.018 447.258C830.568 448.509 832.296 449.527 833.78 450.867C834.403 451.443 834.994 452.765 834.773 453.493C834.534 454.261 833.33 454.974 832.437 455.275C831.653 455.53 830.695 455.283 829.844 455.088C825.372 454.104 821.019 452.784 816.221 453.337C814.944 453.475 813.407 453.017 812.447 452.228C810.739 450.851 809.122 450.33 806.905 451.138C804.825 451.89 803.037 451.63 801.544 449.719C800.823 448.801 799.094 448.102 798.02 448.412C795.245 449.193 793.092 448.188 790.794 447.211C786.973 445.611 782.877 445.303 778.729 445.24C774.734 445.178 770.72 445.155 766.743 444.831C765.204 444.693 763.667 443.916 762.368 443.01C761.149 442.167 760.033 441.793 758.536 442.339C756.429 443.103 754.469 442.881 752.997 441.153C751.299 439.166 749.284 438.647 746.627 439.092C743.68 439.592 740.85 439.215 739.206 436.025C738.584 434.811 737.423 433.849 736.271 433.138C733.871 431.693 732.319 429.901 732.302 426.623C732.295 424.775 731.181 424.304 729.406 424.837C727.43 425.419 726.543 427.025 725.621 428.836C724.835 430.369 723.869 432.453 722.609 432.967C716.552 435.436 712.815 441.425 707.337 444.743C706.473 445.255 705.942 446.396 705.231 447.229C703.93 448.78 702.593 450.314 701.371 451.928C700.817 452.665 700.22 453.578 700.158 454.432C699.928 457.27 699.283 460.372 700.02 462.846C700.892 465.904 699.924 467.766 698.005 469.728C696.488 471.272 694.97 472.816 693.409 474.314C691.271 476.365 688.872 478.141 686.972 480.383C685.232 482.432 684.131 485.114 682.415 487.249C680.548 489.605 679.584 492.231 678.562 494.976C677.184 498.728 675.566 502.386 673.948 506.044C673.28 507.561 672.255 508.903 671.622 510.437C668.495 518.028 663.533 524.549 659.848 531.793C658.85 533.763 657.567 535.594 656.216 537.293C649.748 545.289 643.315 553.302 636.68 561.143C632.694 565.831 628.374 570.207 624.221 574.739C622.654 576.431 620.897 577.562 618.734 577.487C616.48 577.417 615.109 578.614 614.337 580.842C613.596 582.963 612.167 584.279 610.221 585.072C609.262 585.463 608.28 585.991 607.545 586.738C605.906 588.394 604.23 588.631 602.218 588.335C601.033 588.148 599.278 588.002 598.598 588.726C595.864 591.691 592.591 593.408 589.127 594.884C588.907 594.974 588.718 595.274 588.507 595.392C585.028 597.353 581.519 599.102 577.574 599.212C575.994 599.25 574.3 599.749 572.749 600.317C567.129 602.385 561.739 605.476 555.777 606.024C554.917 606.12 554.029 606.546 553.179 606.892C549.299 608.41 545.567 610.665 541.338 609.997C540.988 609.948 540.577 610.116 540.221 610.261C536.002 612.204 531.687 613.485 527.228 614.154C526.349 614.289 525.496 614.733 524.663 615.136C519.354 617.652 513.724 617.969 508.231 619.092C505.117 619.756 501.785 619.551 498.86 620.775C493.807 622.899 488.97 623.531 483.959 622.161C480.845 621.325 480.338 620.192 482.122 617.008C483.192 615.073 484.316 613.116 485.667 611.417C487.476 609.18 487.826 607.187 486.465 604.775C485.84 603.658 485.496 601.916 485.841 600.659C486.529 598.242 485.707 597.078 484.003 596.146C482.458 595.34 480.959 594.484 479.395 593.718C478.016 593.068 476.663 593.364 475.576 594.701C474.469 596.077 474.033 597.658 474.678 599.277C474.904 599.855 475.377 600.332 475.759 600.814C476.846 602.157 476.391 603.459 475.018 604.115C473.516 604.855 471.853 605.246 470.256 605.546C468.75 605.841 467.233 605.885 465.724 605.958C461.296 606.2 456.831 606.744 452.473 606.48C448.736 606.249 445.155 605.061 441.304 606.791C440.865 606.969 440.301 606.817 439.798 606.767C434.564 606.221 429.338 605.704 424.104 605.158C419.499 604.675 414.918 603.736 410.26 603.816C403.987 603.918 397.771 604.219 391.482 603.625C385.985 603.122 380.48 601.411 374.699 603.13C374.48 603.219 374.204 603.109 373.96 603.113C369.339 602.891 364.784 601.941 360.056 602.848C359.331 602.984 358.603 602.579 357.848 602.504C354.407 602.025 350.965 601.004 347.484 601.243C340.849 601.683 334.388 601.127 327.908 600.611C327.062 600.541 326.054 600.441 325.312 600.84C322.293 602.485 319.371 601.89 316.354 601.717C313.643 601.546 310.849 602.047 308.08 602.314C306.569 602.484 304.957 603.269 303.586 602.966C297.866 601.79 292.248 600.22 286.558 598.935C283.654 598.301 280.695 598.008 277.722 597.561C276.384 597.373 274.977 597.373 273.68 597.008C271.57 596.369 269.513 595.485 267.256 594.651C264.657 597.337 262.003 596.506 259.201 595.479C257.256 594.772 255.156 594.384 253.062 594.121C249.701 593.705 246.399 593.393 243.713 590.947C242.765 590.09 241.257 589.843 239.998 589.399C235.919 587.968 231.809 586.645 227.741 585.146C225.618 584.352 224.17 583.029 224.847 580.041C225.367 577.788 224.113 576.609 222.219 575.977C220.129 575.298 218.411 575.711 216.557 577.361C213.599 579.97 209.533 579.012 209.702 574.35C209.745 573.215 209.679 572.126 208.067 572.05C207.57 572.667 207.058 573.45 206.389 574.105C204.63 575.875 202.947 575.445 202.769 572.997C202.607 570.607 201.322 569.855 199.513 569.412C198.922 569.27 198.287 569.083 197.674 569.077C194.804 569.099 192.347 568.314 190.103 566.454C188.053 564.738 186.968 565.116 184.475 567.313C184.178 567.562 183.795 567.718 183.474 567.881C181.512 567.437 181.316 565.571 180.777 564.004C180.113 562.106 179.353 560.406 177.361 559.751C172.904 558.282 168.497 556.666 164.07 555.089C162.811 554.645 160.933 554.39 161.285 552.62C161.509 551.476 163.032 550.377 164.148 549.571C164.959 548.985 166.107 548.932 167.087 548.723C167.95 548.531 168.887 548.596 169.725 548.318C170.254 548.134 171.08 547.383 171.026 547.086C170.929 546.424 170.471 545.462 169.978 545.344C168.517 545.046 166.939 545.307 165.513 545.027C162.177 544.377 159.841 545.521 158.672 549.251C158.603 549.439 158.274 549.573 157.657 549.984C156.224 549.356 154.58 548.527 152.848 547.925C151.866 547.592 150.616 547.177 149.703 547.517C147.949 548.232 146.502 547.769 144.937 547.323C141.968 546.46 138.93 545.784 135.914 544.972C133.561 544.337 130.823 544.177 128.934 542.81C125.421 540.255 121.205 540.06 117.272 539.462C114.138 538.985 111.864 538.094 110.222 535.446C109.818 534.781 109.321 534.219 108.843 533.616C107.843 532.365 106.726 531.449 104.936 532.466C103.595 533.235 102.501 532.725 101.47 531.901C100.404 531.059 99.3109 530.229 98.1982 529.439C96.9707 528.567 96.1736 527.489 96.8675 525.739C97.5117 524.136 98.8796 523.355 100.328 523.498C101.65 523.629 102.922 524.227 104.197 524.728C108.191 526.29 111.645 529.284 116.356 528.958C117.015 528.912 117.652 529.642 118.319 529.944C123.481 532.273 128.552 534.927 133.889 536.802C137.46 538.058 141.306 538.564 144.856 540.178C147.072 541.189 149.607 541.495 152.015 542.108C150.324 538.97 148.075 537.303 144.798 537.076C142.988 536.953 140.93 536.388 139.621 535.231C137.618 533.464 135.207 532.948 132.823 532.42C126.846 531.093 121.001 529.584 116.246 525.462C115.877 525.134 115.376 524.987 114.949 524.779C110.146 522.526 105.362 520.234 100.529 518.089C97.9383 516.945 95.147 516.169 92.5647 515.052C86.4563 512.407 81.6676 507.309 75.1882 505.294C75.0815 505.242 74.9749 505.189 74.8601 505.109C73.22 503.863 71.8486 502.381 72.1772 499.886C72.4836 497.528 74.1428 496.374 75.9849 495.431C76.9196 494.955 77.906 494.552 78.8652 494.161C82.1539 492.821 85.448 491.605 88.7122 490.179C89.8906 489.698 90.9628 488.846 92.0679 488.109C93.9544 486.893 95.7454 485.557 97.6564 484.427C101.533 482.145 105.486 480.023 109.398 477.758C111.446 476.572 113.317 474.98 115.414 473.966C123.259 470.257 131.636 468.309 138.953 462.966C142.93 460.069 147.398 457.928 151.374 455.031C157.63 450.471 163.673 445.487 169.836 440.71C171.739 439.232 173.869 438.013 175.633 436.369C178.196 433.984 180.516 431.284 183.01 428.768C186.844 424.94 188.97 420.277 189.773 414.942C190.557 409.646 193.357 405.41 196.933 401.752C200.061 398.562 203.626 395.833 206.913 392.77C209.215 390.651 211.162 388.039 213.617 386.241C216.922 383.778 220.993 384 224.687 382.366C228.335 380.783 232.548 381.075 236.496 380.327C237.83 380.07 239.25 379.364 240.369 378.461C242.311 376.904 244.27 376.265 246.473 376.802C248.057 377.209 249.321 376.598 250.665 375.412C251.666 374.525 253.201 373.899 254.447 373.87C256.153 373.844 257.827 374.565 259.552 374.819C260.863 375.018 262.376 375.39 263.546 374.881C266.208 373.701 268.783 372.97 271.645 372.6C276.781 371.942 281.846 369.75 287.049 370.403C287.742 370.472 288.523 369.994 289.26 369.789C293.348 368.569 297.346 367.035 301.602 368.011C303.206 368.378 305.123 367.915 306.833 367.474C308.797 366.96 310.718 366.081 312.609 365.31C316.994 363.522 321.279 362.35 325.97 363.244C329.953 364.013 334.175 364.014 338.289 361.922C339.388 361.378 340.779 361.641 342.06 361.629C345.508 361.595 348.882 361.304 352.146 359.558C354.778 358.167 357.392 357.356 360.257 358.389C361.31 358.757 362.751 358.234 363.995 357.982C365.129 357.775 366.225 357.328 367.351 357.092C375.435 355.295 383.414 357.529 391.507 355.442C391.88 355.354 392.247 355.459 392.644 355.457C398.095 355.691 403.253 356.937 408.174 359.174C410.283 360.132 412.653 360.825 414.961 360.872C418.315 360.941 421.756 360.24 425.182 360.023C427.315 359.887 429.45 359.974 431.589 359.963C432.599 359.966 433.672 360.294 434.576 359.925C439.89 357.855 445.128 359.164 450.391 358.741C457.301 358.189 463.858 359.726 470.21 362.049C471.923 362.691 474.024 363.62 475.611 363.069C480.362 361.387 485.422 360.25 489.518 356.698C491.751 354.767 493.948 353.998 496.615 354.123C499.616 354.24 502.703 355.948 505.661 353.019C505.735 352.957 505.908 352.918 506.042 352.959C509.304 353.671 512.282 351.883 515.362 350.883C516.929 350.371 518.402 350.281 519.69 351.255C521.488 352.627 523.452 352.433 525.418 351.281C527.751 349.915 529.944 349.882 532.407 350.473C538.031 351.848 543.67 353.6 549.797 351.485C550.8 351.14 551.998 351.8 553.107 351.827C554.063 351.852 555.286 351.959 555.988 351.417C557.634 350.109 559.003 350.188 560.576 350.983C562.46 351.905 564.254 351.652 565.704 349.658C567.352 347.391 569.337 347.379 571.582 347.74C574.535 348.226 577.533 348.44 580.508 348.79C581.362 348.888 582.299 348.953 583.045 349.318C587.788 351.787 592.855 352.497 598.267 351.63C598.765 351.554 599.305 351.621 599.751 351.791C604.032 353.394 608.379 352.866 612.761 351.176C614.295 350.55 615.327 350.735 616.247 352.243C618.033 355.182 618.154 355.069 621.415 354.059C622.398 353.754 623.418 353.466 624.401 353.48C626.665 353.482 628.915 353.649 631.157 353.787C631.779 353.821 632.535 353.896 632.92 354.281C634.862 356.264 637.078 356.095 639.543 354.548L639.674 354.686ZM203.728 609.067C208.561 608.851 212.473 610.127 216.477 611.397C220.551 612.703 224.776 613.788 229.365 612.714C231.8 612.136 233.725 613.521 235.24 615.295C236.442 616.719 235.658 618.474 233.751 618.869C233.143 618.989 232.497 618.87 231.895 618.796C229.459 618.513 226.976 618.282 224.562 617.862C223.01 617.57 221.502 617.004 219.984 616.507C217.779 615.747 215.583 614.058 213.412 614.274C209.783 614.637 207.409 613.499 205.606 610.502C205.306 609.987 204.627 609.753 203.736 609.095L203.728 609.067ZM265.582 627.392C263.386 628.382 261.961 627.783 261.193 626.055C260.275 623.909 258.725 623.839 256.857 624.473C256.237 624.662 255.618 624.851 255.002 624.942C252.471 625.4 250.831 624.155 250.945 621.875C251.026 620.12 252.012 619.718 254.639 619.38C258.408 618.865 261.878 620.736 265.736 619.673C267.155 619.286 268.639 620.308 269.109 622.062C269.639 623.919 268.492 625.153 267.205 626.219C266.585 626.727 265.914 627.161 265.563 627.431L265.582 627.392ZM756.687 466.635C756.612 467.016 756.538 467.397 756.498 467.796C755.617 467.709 754.716 467.662 753.826 467.546C750.771 467.132 747.804 465.631 744.617 466.898C741.63 468.116 738.881 467.705 736.09 466.929C734.596 466.518 732.921 466.116 733.09 464.133C733.265 461.957 735.159 461.95 736.636 461.763C744.102 460.697 750.421 463.543 756.687 466.635ZM356.358 663.559C355.673 661.159 357.466 658.865 359.678 659.112C362.079 659.377 364.352 659.088 366.738 658.658C368.688 658.309 369.592 659.44 369.705 661.659C369.893 665.857 369.221 667.79 367.24 668.246C366.44 668.445 365.518 668.215 364.76 667.918C364.27 667.703 363.949 667.004 363.613 666.471C362.459 664.677 361.331 663.191 358.768 664.395C358.064 664.714 356.966 663.758 356.421 663.566L356.358 663.559ZM371.749 661.209C372.194 660.198 372.363 659.395 372.833 658.789C374.62 656.369 377.982 655.605 380.339 657.324C381.919 658.466 383.271 659.988 384.494 661.595C384.98 662.226 385.064 663.595 384.723 664.436C384.574 664.88 383.111 665.221 382.367 665.078C379.578 664.524 376.838 663.823 374.121 662.985C373.281 662.721 372.612 661.877 371.757 661.237L371.749 661.209ZM306.053 630.383C303.755 630.586 302.241 630.533 300.814 630.892C297.595 631.725 295.395 629.592 292.942 628.391C292.408 628.13 292.196 626.526 292.403 625.644C292.508 625.155 293.87 624.567 294.59 624.625C295.806 624.703 297.04 625.062 298.095 625.652C300.546 626.95 302.881 628.486 306.08 630.371L306.053 630.383ZM764.089 471.241C763.63 469.418 764.068 468.379 765.495 468.02C767.993 467.448 770.923 469.89 770.958 472.587C770.983 473.853 770.524 474.71 769.22 474.859C767.029 475.114 764.689 473.452 764.108 471.201L764.089 471.241ZM394.785 664.64C393.546 663.837 392.751 663.301 391.928 662.775C390.804 662.053 389.308 661.419 390.087 659.538C390.797 657.845 392.341 657.79 393.715 657.995C394.64 658.128 395.483 658.614 396.553 659.039C395.924 661.018 395.413 662.662 394.793 664.669L394.785 664.64ZM519.102 334.716C518.314 336.888 516.732 337.883 514.725 338.032C513.44 338.141 512.673 337.274 512.607 335.865C512.526 334.399 513.267 333.459 514.614 333.356C516.197 333.221 517.923 332.836 519.129 334.705L519.102 334.716ZM284.248 350.396C285.669 347.871 287.548 347.488 289.541 347.824C290.053 347.902 290.565 348.842 290.682 349.464C290.741 349.886 290.101 350.753 289.635 350.943C287.881 351.658 286.032 352.253 284.24 350.368L284.248 350.396ZM337.289 665.241C337.849 663.13 339.237 662.31 340.757 662.168C341.562 662.095 342.34 662.895 343.15 663.266C342.601 664.128 342.231 665.3 341.505 665.755C340.153 666.593 338.611 666.871 337.281 665.212L337.289 665.241ZM316.115 344.997C319.019 344.451 321.143 343.425 323.377 345.035C320.085 347.653 318.781 347.801 316.115 344.997ZM196.586 605.694C193.466 607.413 191.727 606.144 190.046 605.075C189.781 604.896 189.621 603.908 189.808 603.705C190.209 603.286 190.971 602.848 191.354 603.011C192.913 603.651 194.349 604.501 196.586 605.694ZM710.8 461.386C709.367 460.439 708.16 460.07 707.664 459.188C707.091 458.145 707.926 457.103 709.055 456.771C710.383 456.388 711.758 456.594 712.072 458.124C712.213 458.832 711.433 459.852 710.8 461.386ZM541.373 331.283C541.91 330.808 542.468 329.975 543.142 329.764C544.353 329.398 545.821 329.182 546.176 330.856C546.271 331.295 545.289 332.462 544.658 332.719C543.48 333.199 542.143 333.233 541.373 331.283ZM365.284 676.189C366.238 673.312 367.698 672.749 369.197 672.425C369.66 672.332 370.672 672.876 370.647 673.11C370.598 673.799 370.267 674.891 369.801 675.081C368.568 675.584 367.21 675.755 365.276 676.16L365.284 676.189ZM287.578 629.429C286.477 628.251 285.52 627.685 285.434 626.954C285.332 626.166 286.065 625.197 286.453 624.306C287.312 624.849 288.447 625.183 288.892 625.991C289.148 626.461 288.28 627.708 287.57 629.401L287.578 629.429ZM174.191 599.258C175.218 598.137 175.735 597.161 176.14 597.187C177.139 597.258 178.053 597.779 179.007 598.124C178.527 598.798 178.075 600.003 177.549 600.09C176.642 600.236 175.721 599.687 174.191 599.258ZM400.605 661.342C401.896 661.04 402.556 660.675 403.065 660.85C403.807 661.09 404.55 661.552 405.064 662.172C405.239 662.356 404.729 663.68 404.42 663.775C403.628 664.002 402.68 664.005 402.005 663.675C401.48 663.442 401.282 662.534 400.613 661.371L400.605 661.342ZM935.725 468.383C933.73 469.005 932.842 467.931 932.378 466.302C932.272 465.931 932.547 465.18 932.863 464.892C933.178 464.604 933.904 464.468 934.213 464.693C935.435 465.439 936.095 466.573 935.697 468.394L935.725 468.383ZM727.742 465.548C726.586 464.392 725.717 463.918 725.398 463.122C724.927 462.007 725.568 460.82 726.723 460.796C727.482 460.774 728.597 461.467 728.82 462.142C729.008 462.799 728.307 463.882 727.742 465.548ZM348.03 662.999C348.88 663.514 349.43 663.832 349.98 664.15C349.573 664.763 349.279 665.553 348.763 665.89C348.451 666.082 347.381 665.656 347.354 665.348C347.273 664.743 347.718 664.052 348.038 663.028L348.03 662.999ZM967.115 490.483C966.434 490.027 965.693 489.787 965.65 489.421C965.61 488.959 966.085 488.159 966.488 487.963C966.844 487.818 967.689 488.207 967.795 488.579C967.909 488.979 967.456 489.642 967.115 490.483ZM244.862 357.426C245.353 356.683 245.623 356.127 246.04 355.766C246.161 355.653 247.019 356.196 246.994 356.429C246.933 356.965 246.616 357.572 246.243 357.979C246.15 358.081 245.521 357.7 244.862 357.426ZM558.124 331.663C558.533 330.954 558.693 330.442 559.025 330.211C559.173 330.087 559.851 330.321 559.881 330.532C559.987 330.903 559.764 331.409 559.678 331.858C559.265 331.804 558.887 331.766 558.124 331.663ZM237.851 358.052C238.097 358.27 238.343 358.489 238.506 358.741C238.531 358.827 238.154 359.331 238.083 359.296C237.78 359.197 237.561 358.967 237.296 358.788C237.455 358.596 237.606 358.375 237.851 358.052Z" fill="#757B7C"/>
<path d="M136.449 604.488C137.232 604.773 138.036 605.24 138.195 605.048C138.633 604.552 138.782 603.792 139.054 603.14C138.519 602.977 137.939 602.546 137.466 602.706C137.111 602.851 136.888 603.673 136.449 604.488Z" fill="#757B7C"/>
<path d="M485.116 559.323C488.73 557.085 491.228 556.832 493.942 557.448C495.511 557.797 497.413 556.958 499.139 556.573C501.755 555.985 504.346 555.311 506.946 554.666C508.574 554.258 510.19 553.918 511.768 553.338C514.835 552.184 517.828 550.772 520.867 549.629C527.619 547.131 531.354 542.1 532.506 534.772C532.998 531.669 536.394 528.561 539.673 529.33C543.74 530.288 547.316 528.67 551.184 527.859C555.806 526.9 560.051 524.946 564.458 523.341C566.283 522.66 567.534 521.576 568.362 519.548C568.907 518.241 569.973 517.041 571.04 516.064C573.158 514.052 574.838 511.9 575.882 509.018C576.8 506.443 578.183 503.997 579.439 501.539C579.755 500.931 580.154 500.291 580.653 499.896C585.502 496.196 586.685 491.12 586.451 485.474C586.388 484.288 586.366 482.925 586.796 481.857C587.889 479.146 588.979 476.533 588.492 473.541C588.379 472.822 589.08 471.739 589.626 470.973C590.552 469.607 591.505 468.23 592.606 467.047C594.991 464.576 596.393 461.771 596.913 458.338C597.141 456.777 598.242 455.276 598.623 453.717C598.872 452.658 598.95 451 598.37 450.47C597.616 449.757 596.17 449.836 595.012 449.638C594.815 449.591 594.511 449.811 594.316 449.986C589.73 454.822 586.066 451.308 582.484 449.259C578.617 447.072 575.248 443.948 571.293 441.987C568.503 440.573 565.135 440.351 562.007 439.68C559.238 439.087 556.3 438.977 553.657 438.076C546.639 435.674 539.624 433.175 532.782 430.318C526.841 427.828 521.103 424.872 515.326 421.996C514.259 421.474 513.204 420.564 512.651 419.482C510.333 415.004 506.135 413.908 501.872 412.903C500.662 412.631 499.37 412.711 498.179 412.399C496.406 411.974 495.104 412.664 493.631 413.934C492.037 415.318 490.181 416.426 488.322 417.311C485.31 418.762 482.467 420.272 480.549 423.414C479.06 425.808 477.599 426.372 475.329 425.064C472.146 423.236 468.754 422.928 465.155 423.502C462.961 423.854 461.416 423.049 459.933 421.388C455.833 416.776 451.162 412.843 445.747 409.946C442.969 408.463 441.336 408.746 438.869 411.251C437.157 412.97 435.373 414.654 433.617 416.327C432.317 417.559 431.986 418.651 433.059 420.159C435.108 423.056 434.821 423.013 432.897 426.35C430.355 430.736 427.875 435.128 428.025 440.585C428.113 443.899 427.268 447.369 426.633 450.722C425.066 458.953 428.8 464.002 434.38 468.011C435.378 468.721 436.365 469.499 437.448 470.078C438.949 470.837 440.47 471.557 442.087 472.078C444.659 472.944 447.445 473.275 449.855 474.43C458.288 478.36 466.931 481.631 476.292 482.919C477.631 483.107 478.883 483.744 480.246 484.018C487.68 485.517 495.108 486.891 502.494 488.441C505.883 489.165 509.216 489.911 512.751 489.97C514.779 490.004 516.889 490.962 518.587 492.088C520.47 493.33 520.149 495.311 518.054 496.548C516.795 497.284 515.438 497.997 514.088 498.197C506.276 499.34 498.983 502.728 491.619 505.762C487.043 507.628 482.498 508.428 477.821 507.368C476.513 507.072 474.645 507.387 473.501 508.204C471.39 509.703 469.382 509.851 467.046 510.134C463.559 510.566 460.147 512.117 456.678 513.148C455.467 513.515 454.256 513.881 453.035 513.996C449.905 514.283 446.74 514.234 443.623 514.675C440.333 515.155 437.067 516.04 433.816 516.759C430.419 517.506 427.633 519.216 425.138 522.051C421.465 526.228 417.718 530.467 412.225 531.909C410.916 532.252 409.597 533.204 408.537 534.21C406.178 536.448 403.933 538.767 400.891 540.007C399.986 540.376 399.198 541.686 398.642 542.742C397.809 544.326 397.189 546.014 396.534 547.684C395.414 550.406 395.713 551.241 398.107 552.339C398.561 552.536 399.073 552.615 399.461 552.903C400.811 553.884 400.619 555.461 399.064 556.446C398.283 556.924 397.365 557.139 396.564 557.656C394.541 558.928 393.951 560.827 395.429 562.362C397.614 564.661 399.674 566.947 400.592 570.273C400.779 570.93 401.865 571.413 402.67 571.659C407.524 573.125 412.397 574.552 417.282 575.91C417.979 576.104 418.893 576.305 419.507 575.991C422.295 574.504 424.791 575.528 427.22 576.324C430.695 577.459 433.676 576.435 436.461 573.864C440.621 569.999 445.356 568.26 450.595 567.751C454.495 567.373 458.287 566.082 462.045 564.455C464.87 563.207 467.984 562.863 470.954 562.226C476.066 561.163 481.201 560.186 485.195 559.387L485.116 559.323Z" fill="#757B7C"/>
<path d="M197.018 452.714C195.723 453.752 194.481 454.546 193.537 455.632C192.491 456.792 191.012 458.257 190.927 459.567C190.714 463.003 190.443 466.559 192.208 469.635C192.705 470.517 193.038 472.008 192.677 472.889C191.309 476.35 192.615 478.784 194.574 480.824C195.929 482.25 197.75 483.166 199.424 484.206C201.105 485.275 202.977 486.043 204.518 487.265C206.413 488.757 206.43 490.536 204.562 492.351C201.875 494.945 200.338 498.028 199.632 501.666C199.463 502.468 199.283 503.339 198.857 503.991C196.193 507.948 195.739 512.471 195.198 516.902C195.064 518.042 195.625 519.472 196.311 520.372C197.438 521.859 198.823 523.176 200.258 524.345C201.895 525.688 202.883 527.326 203.24 529.542C203.415 530.586 203.736 531.604 204.186 532.537C204.761 533.802 206.047 534.235 207.016 533.234C210.394 529.847 215.207 528.81 218.146 524.741C218.541 524.197 219.158 523.786 219.51 523.196C223.981 515.918 230.803 512.595 237.8 509.455C245.4 506.069 253.219 504.094 261.192 502.98C263.693 502.631 266.26 502.191 268.72 501.379C271.098 500.601 273.399 500.62 275.401 501.526C279.2 503.263 283.248 503.08 287.26 502.561C293.22 501.79 298.764 503.102 304.331 504.278C308.105 505.068 311.238 505.003 313.856 501.096C314.433 500.223 315.395 499.416 316.292 499.019C320.77 497.129 322.635 493.051 324.282 488.743C324.389 488.476 324.354 488.14 324.522 487.976C327.996 484.39 327.011 480.294 326.234 476.496C325.34 472.076 326.098 467.333 324.396 463.082C323.985 462.07 324.772 460.218 325.388 458.946C325.908 457.872 326.953 457.032 327.817 456.201C329.647 454.466 330.44 452.42 330.128 449.932C329.924 448.356 329.966 446.68 329.706 445.127C329.322 442.923 328.034 442.268 326.151 443.387C325.259 443.91 324.494 444.764 323.766 445.539C320.056 449.476 315.873 450.257 312.153 447.084C309.084 444.475 305.663 443.956 301.778 443.85C296.666 443.733 291.643 442.75 286.571 442.234C285.249 442.103 283.866 442.188 282.491 442.302C281.242 442.429 279.946 442.925 278.719 442.915C275.483 442.831 273.511 440.636 273.863 437.367C274.461 431.955 275.015 426.498 275.991 421.124C276.404 418.818 277.567 416.462 278.812 414.391C279.906 412.542 280.786 410.907 280.709 408.706C280.657 407.451 281.366 406.077 281.793 404.787C282.32 403.2 283.024 401.701 283.397 400.114C283.842 398.242 283.232 396.64 281.896 395.494C280.472 394.257 278.899 394.642 277.293 395.553C276.026 396.26 274.76 396.968 273.452 397.533C271.065 398.602 270.173 399.763 269.964 402.464C269.899 403.416 270.051 404.375 269.86 405.314C269.452 407.426 268.287 408.06 266.518 407.218C262.871 405.483 262.907 405.501 260.375 408.957C258.351 411.728 255.895 414.165 254.967 417.669C254.804 418.278 254.332 418.981 253.824 419.347C250.473 421.862 249.06 425.596 247.825 429.417C246.54 433.386 245.68 433.8 242.305 432.05C241.088 431.43 239.928 430.69 238.692 430.11C236.816 429.216 234.905 428.847 232.96 430.501C231.729 431.545 230.68 431.303 229.521 430.563C226.352 428.569 223.432 429.058 220.595 431.874C220.027 432.456 219.51 433.113 218.978 433.713C216.798 436.26 214.353 437.449 211.49 435.777C209.505 434.608 207.877 435.336 206.397 437.119C204.673 439.226 203.053 441.481 201.214 443.507C200.168 444.667 198.933 445.808 197.615 446.442C194.731 447.809 194.5 448.286 196.191 451.105C196.38 451.443 196.54 451.792 197.053 452.731L197.018 452.714Z" fill="#757B7C"/>
<path d="M253.433 576.846C255.527 575.929 256.094 574.166 254.975 572.709C254.142 571.613 253.156 570.516 252.002 569.902C248.192 567.914 244.325 566.046 240.361 564.376C237.858 563.323 235.11 562.912 232.626 561.82C228.78 560.134 224.618 560.236 220.564 559.751C219.863 559.654 219.002 560.388 218.215 560.741C218.632 561.56 218.826 562.884 219.505 563.118C222.252 564.167 225.155 564.802 227.941 565.771C234.999 568.316 242.457 569.901 248.567 574.588C249.466 575.274 250.365 575.96 251.353 576.418C252.091 576.755 252.976 576.746 253.425 576.818L253.433 576.846Z" fill="#757B7C"/>
<path d="M187.718 551.461C189.207 554.967 191.981 553.007 193.671 554.104C192.182 552.639 190.762 550.985 187.718 551.461Z" fill="#757B7C"/>
<path d="M254.997 564.475C255.145 564.034 255.437 563.567 255.334 563.418C255.171 563.168 254.755 562.989 254.466 563.043C254.267 563.092 253.934 563.735 254.037 563.884C254.173 564.145 254.564 564.239 254.997 564.475Z" fill="#757B7C"/>
<path d="M320.567 147.012C322.885 144.933 322.415 142.493 322.107 140.076C321.873 138.109 320.889 136.564 318.818 135.952C314.298 134.617 311.421 131.577 308.724 128.474C305.515 124.772 302.618 120.85 299.829 116.885C297.841 114.057 298.267 112.944 300.742 110.418C301.838 109.281 302.979 107.917 303.327 106.53C303.91 104.149 305.328 102.735 307.746 101.637C310.464 100.376 313.061 98.8928 315.545 97.3058C316.466 96.7019 317.476 95.4949 317.499 94.5602C317.555 91.9889 318.913 90.2151 321.063 88.6399C323.25 87.0407 324.089 84.872 323.949 82.449C323.807 79.7035 322.371 78.4183 319.2 78.7956C316.029 79.173 312.777 79.6268 309.841 80.6524C305.049 82.2977 300.119 82.1652 295.23 82.1558C292.037 82.149 289.197 82.8657 286.358 83.9048C284.887 84.4319 283.337 84.8598 281.809 85.1738C278.998 85.7479 276.092 86.133 273.301 86.7686C270.343 87.4101 269.799 87.3047 268.348 85.1088C267.479 83.815 266.399 82.5796 265.677 81.2184C265.097 80.1408 264.473 78.7932 264.757 77.7192C265.201 76.0228 264.695 75.0728 263.254 74.1386C262.226 73.4673 261.412 72.5621 260.547 71.7379C257.604 68.8644 254.237 66.9282 249.487 67.876C248.517 68.0628 247.426 68.0276 246.462 67.8634C244.435 67.5214 243.693 66.4212 244.623 64.7926C246.122 62.1593 247.653 59.5305 250.61 57.7458C254.564 55.3092 258.164 52.3248 262.319 50.2094C265.251 48.7142 268.811 47.8931 272.199 47.4289C275.007 47.0303 278.011 47.802 280.883 47.588C285.068 47.2939 289.19 46.4927 293.365 46.0801C295.778 45.8312 298.299 45.539 300.667 45.8407C313.598 47.5316 326.495 49.3934 339.403 51.1982C343.124 51.7184 346.844 52.2386 350.515 52.8397C351.356 52.9573 352.386 53.1306 352.881 53.6395C355.259 56.0236 358.679 56.3845 361.862 57.0934C367.717 58.4102 373.169 60.7259 379.222 61.7188C383.669 62.4285 387.772 64.6727 391.996 66.3184C393.012 66.7242 393.817 67.5109 394.722 68.1356C395.508 68.6853 396.187 69.6009 397.061 69.723C400.737 70.2957 402.691 72.4739 404.581 74.9656C407.263 78.4765 408.071 78.5895 412.798 76.9351C414.98 76.185 418.111 77.1504 419.224 79.5335C420.628 82.4554 423.042 83.3498 426.317 83.6026C429.755 83.8781 433.129 84.467 436.52 84.9705C437.199 85.0655 437.897 85.3975 438.492 85.7445C440.716 87.0812 442.994 87.9859 445.852 87.1838C446.345 87.0477 447.073 87.5598 448.074 87.8756C447.427 88.6057 447.105 89.2056 446.551 89.4797C444.517 90.4849 444.093 91.9203 444.825 93.7226C445.714 95.8986 448.16 97.6181 450.404 97.0526C453.488 96.2821 455.266 97.0289 456.856 99.3614C457.518 100.363 459.302 101.081 460.725 101.28C463.825 101.743 466.612 102.601 468.856 104.498C469.171 104.747 469.446 105.196 469.802 105.245C474.381 105.798 476.785 109.035 479.991 111.271C481.42 112.263 483.183 112.919 485.115 113.893C484.669 117.729 488.614 119.277 491.311 121.559C492.529 122.608 493.981 123.486 495.445 124.306C497.869 125.641 499.224 127.325 500.174 129.861C501.055 132.241 503.393 134.327 505.481 136.172C507.173 137.669 507.534 139.009 507.532 141.148C507.515 143.696 508.858 146.257 509.857 148.713C510.083 149.242 511.237 149.785 511.972 149.77C516.078 149.7 518.978 151.805 522.197 153.486C527.401 156.206 532.792 158.66 538.095 161.219C543.274 163.731 548.559 166.052 553.557 168.803C561.966 173.437 570.412 178.047 577.547 184.203C578.509 185.041 579.686 186.29 579.678 187.314C579.566 190.816 581.887 192.987 584.349 195.119C588.772 198.902 591.431 203.671 594.199 208.395C595.63 210.852 597.126 213.318 598.78 215.659C599.947 217.288 601.638 218.462 603.95 218.874C605.077 219.06 606.195 219.451 607.15 219.995C611.509 222.451 616.045 221.737 620.558 220.316C624.464 219.104 626.443 219.351 628.917 222.247C632.113 226.006 635.573 229.45 639.664 232.572C642.75 234.908 644.465 238.43 646.507 241.647C649.238 245.897 650.871 250.639 653.962 254.588C656.124 257.382 658.813 259.868 660.403 263.021C661.166 264.506 661.962 265.994 662.412 267.552C663.971 272.987 668.637 275.896 673.807 278.29C674.935 278.799 676.857 278.833 677.993 278.318C682.296 276.458 686.807 275.213 690.977 272.865C695.559 270.282 699.859 266.633 706.064 266.387C708.313 266.291 710.672 264.335 712.722 262.922C714.429 261.724 715.876 260.988 718.215 261.433C719.691 261.698 721.691 261.186 723.1 260.474C726.026 259.008 726.428 256.368 723.887 254.459C722.213 253.199 720 252.304 717.837 251.649C713.205 250.21 712.423 249.31 713.345 244.925C713.796 242.702 714.15 240.466 712.005 238.905C710.758 237.998 709.077 237.265 707.454 237.067C703.016 236.476 700.33 234.137 699.242 230.644C698.442 228.187 696.986 226.841 694.539 225.619C692.209 224.473 690.093 222.77 688.361 220.975C680.667 212.982 673.633 204.525 664.525 197.595C660.284 194.394 656.825 190.452 651.928 187.862C650.302 187.019 649.305 185.209 648.168 183.76C644.859 179.575 641.168 175.63 636.337 172.874C631.919 170.381 628.259 167.759 625.657 163.526C623.627 160.253 619.497 157.975 616.287 155.27C615.662 154.743 614.829 154.421 614.236 153.899C609.854 149.915 605.598 145.803 601.058 141.945C598.622 139.846 595.776 138.129 593.095 136.259C590.071 134.107 587.08 131.96 584.051 129.836C578.977 126.313 573.941 122.766 568.784 119.32C567.205 118.249 565.274 117.598 563.569 116.656C562.256 115.915 561.03 115.07 559.81 114.196C557.921 112.847 556.158 111.37 554.219 110.102C550.749 107.859 547.184 105.748 543.626 103.61C538.529 100.523 533.422 97.4935 528.32 94.4354C527.253 93.7881 525.832 93.4135 525.109 92.5504C521.998 88.8621 517.405 86.9012 513.284 84.4199C509.49 82.1309 505.663 79.8373 502.039 77.3669C499.876 75.8921 497.68 74.9109 494.854 75.395C491.892 75.8895 489.839 74.6939 488.175 72.732C486.808 71.1048 485.447 69.4491 483.802 68.0467C481.367 65.9477 479.652 65.7079 476.842 67.4252C474.445 68.9073 472.453 68.3943 470.353 67.4267C467.153 65.9827 464.008 64.4292 460.808 62.9853C459.283 62.3031 458.63 61.4205 459.304 59.9027C459.555 59.3223 459.682 58.6954 459.92 57.8494C456.012 55.6323 452.238 53.4048 448.377 51.2823C445.444 49.6705 442.323 48.3256 439.395 46.6853C433.781 43.5264 427.79 41.0768 421.522 39.1746C419.925 38.6874 417.866 39.1615 416.073 39.4678C415.007 39.6411 414.057 40.3876 413.127 40.873C410.69 39.2721 413.06 37.757 413.007 36.0497C411.516 34.0533 409.044 33.9421 406.59 34.3904C404.381 34.7849 402.279 35.6341 400.159 36.2462C399.158 34.2892 398.819 32.1901 397.426 31.3505C396.392 30.7077 394.029 31.6962 391.799 32.0292C387.177 26.9282 379.792 27.4196 372.935 27.1057C368.616 26.9121 364.956 25.9314 361.674 23.7433C359.944 22.5929 358.367 22.1672 356.091 22.7282C352.07 23.69 351.159 23.0938 349.83 19.4788C348.99 17.2219 348.227 14.917 347.566 12.5972C347.153 11.1912 346.18 10.4104 344.639 10.1363C343.13 9.86668 342.283 10.5982 341.496 11.6898C338.854 15.365 337.946 15.4139 334.191 12.6028C333.121 11.8084 331.895 10.963 330.586 10.692C328.065 10.1637 327.128 8.71376 326.604 6.7061C326.017 4.51386 325.149 2.39943 324.338 0C321.402 1.02559 319.06 2.07565 316.583 2.63799C314.383 3.15102 312.024 3.4659 309.789 3.32931C307.096 3.15789 304.71 3.43971 302.158 4.37256C294.211 7.30591 286.139 9.87016 278.191 12.8035C274.022 14.3308 270.057 16.3263 265.93 17.9766C264.083 18.7149 262.11 19.2597 260.139 19.6288C253.737 20.844 247.027 21.2833 240.908 23.2413C233.041 25.7757 224.812 25.5044 216.917 27.3606C211.048 28.7382 204.855 28.9274 198.903 30.0588C192.22 31.3518 185.665 33.161 179.012 34.634C174.071 35.7017 169.037 36.4048 164.117 37.534C159.788 38.5406 155.565 40.0018 151.266 41.1885C149.889 41.5821 148.502 41.8572 147.083 42.1277C144.971 42.5358 142.802 42.7308 140.758 43.2949C136.875 44.3933 132.955 45.5157 129.262 46.9924C124.477 48.9318 119.748 50.7618 114.402 51.3626C111.508 51.6907 108.632 53.0763 105.952 54.3136C98.1537 57.8247 90.4176 61.5203 82.6663 65.1259C80.2039 66.2763 77.6467 67.2377 75.205 68.4496C68.7283 71.6766 62.3048 74.9695 55.8281 78.1965C54.5662 78.8407 53.0708 79.1591 51.9002 79.8454C49.2541 81.4098 46.6817 83.1017 44.1684 84.8312C43.2416 85.4636 42.6396 86.4639 41.6978 87.0063C34.2781 91.2737 30.4653 98.097 25.6947 104.23C24.8812 105.288 24.0942 106.38 23.4632 107.523C22.6334 108.989 21.6626 110.495 21.2799 112.053C20.2775 116.339 19.1782 120.611 18.7963 124.953C18.3137 130.777 15.0488 135.391 11.4281 139.955C10.9335 140.589 10.1327 141.093 9.79405 141.778C7.75875 145.743 5.57556 149.453 1.75292 152.553C-0.993889 154.777 -0.229467 159.046 2.09607 161.687C3.3091 163.087 4.40196 164.588 5.38618 166.133C7.50827 169.448 9.15203 172.99 12.7174 175.423C13.5955 176.014 14.1985 176.978 14.7923 177.823C18.0269 182.378 22.8005 185.742 26.7123 189.748C30.4589 193.583 33.7803 197.711 37.216 201.767C39.2527 204.191 41.2454 206.668 43.0914 209.212C43.7384 210.124 44.3069 211.258 44.3576 212.32C44.4371 214.061 45.255 215.113 46.9511 215.936C51.2178 218.027 54.5253 220.747 56.1042 225.1C56.8076 227.045 58.9325 228.543 60.3789 230.27C62.8084 233.218 65.2378 236.166 67.6291 239.138C67.7886 239.336 67.8221 239.663 68.0255 239.809C71.0651 242.374 72.2732 244.946 68.692 248.167C68.1616 248.65 68.8383 250.562 69.506 251.534C69.8283 252.078 71.423 252.418 72.1394 252.166C72.753 251.93 73.2336 250.707 73.184 249.968C73.056 248.631 72.4844 247.349 71.8596 245.181C73.6135 245.719 74.8333 245.773 75.4849 246.333C76.9325 247.561 78.4657 248.86 79.2766 250.439C80.8718 253.563 83.4726 255.832 86.2523 258.038C88.0268 259.458 89.4998 261.217 91.1045 262.819C91.5735 263.295 92.0138 263.914 92.5995 264.142C95.2927 265.134 96.24 267.025 96.9595 269.382C97.6732 271.768 99.6903 273.633 102.567 274.211C104.421 274.587 105.555 275.391 106.53 276.817C107.298 277.95 108.671 278.728 109.809 279.678C110.835 280.525 112.192 281.213 112.881 282.247C114.116 284.032 115.945 285.02 118.068 285.376C121.216 285.933 123.241 287.594 124.751 289.827C126.287 292.094 128.286 293.721 131.147 294.708C132.265 295.098 133.285 295.974 134.079 296.817C137.333 300.291 141.16 302.585 146.627 302.529C150.058 302.51 153.046 303.69 155.385 306.098C156.76 307.521 158.461 308.814 160.29 309.802C162.21 310.833 163.405 312.319 164.9 313.642C167.383 315.835 170.516 317.446 173.442 319.261C174.24 319.754 175.317 320.022 176.033 320.591C179.912 323.771 183.584 327.157 187.634 330.156C191.683 333.154 196.055 335.876 200.362 338.588C203.046 340.282 205.829 341.815 208.645 343.351C209.599 343.895 210.697 344.224 211.739 344.663C212.631 345.022 213.795 345.185 214.441 345.774C217.889 348.952 222.398 349.846 227.078 349.739C232.189 349.633 237.149 347.981 240.35 344.502C243.261 341.304 244.431 337.013 247.285 333.602C247.555 333.258 247.537 332.523 247.321 332.112C245.591 328.998 247.858 327.497 250.354 325.853C252.812 324.233 255.019 322.373 257.173 320.447C259.043 318.774 261.161 318.337 263.547 318.876C264.947 319.189 266.307 319.702 267.59 320.262C273.638 322.925 280.118 325.091 285.469 328.565C289.496 331.18 293.591 331.987 298.208 332.515C300.84 332.824 303.28 334.572 306.141 333.097C306.25 333.053 306.482 333.056 306.562 333.156C309.336 335.39 312.679 334.656 315.974 334.647C317.206 334.644 318.749 335.563 319.532 336.464C321.341 338.534 323.712 338.983 326.457 338.897C327.192 338.883 327.912 338.778 328.641 338.792C331.487 338.868 332.053 339.357 332.364 341.922C332.452 342.637 332.643 343.338 332.84 344.333C333.903 344.012 334.758 343.898 335.427 343.551C337.097 342.7 338.148 343.258 339.105 344.447C342.491 348.584 347.778 349.088 352.921 349.485C354.885 349.642 356.698 349.398 357.683 351.265C358.447 352.749 359.959 353.166 361.646 353.05C363.971 352.906 365.846 353.666 367.679 354.802C368.83 355.52 370.115 356.403 371.474 356.593C378.445 357.655 384.137 361.411 390.742 363.126C393.487 363.862 396.411 364.212 399.316 364.325C403.64 364.49 407.533 365.474 411.173 367.536C413.023 368.586 415.345 369.116 417.554 369.542C424.628 370.912 432.093 371.34 438.686 373.61C444.752 375.69 450.954 376.44 457.181 377.398C466.761 378.884 476.38 380.17 486 381.457C491.144 382.176 496.38 382.117 501.406 383.582C503.198 384.096 505.439 383.706 507.42 383.455C509.124 383.254 510.653 383.262 511.853 384.397C516.18 388.49 522.075 387.966 527.673 388.251C530.405 388.398 533.19 388.114 535.875 388.489C544.028 389.629 552.149 391.087 560.302 392.227C566.158 393.045 572.092 393.641 577.988 394.26C579.126 394.39 580.313 394.116 581.448 394.099C583.614 394.079 585.882 393.722 587.892 394.15C594.917 395.601 601.765 394.478 608.637 393.24C608.778 393.201 608.939 393.224 609.06 393.124C612.651 390.343 617.446 388.845 620.174 385.24C622.407 382.27 625.257 380.353 629.221 379.676C635.014 378.669 640.408 376.844 645.162 373.581C646.628 372.585 648.584 372.126 650.269 371.365C651.737 370.691 653.136 369.861 652.915 368.159C652.701 366.429 651.439 365.432 649.63 365.003C648.106 364.644 646.509 364.479 644.93 364.229C643.636 364.048 642.236 364.058 641.097 363.605C637.615 362.239 634.32 361.427 631.052 364.252C630.603 364.658 628.668 364.359 628.01 363.827C626.595 362.603 625.04 362.562 623.247 362.546C619.752 362.555 616.28 362.451 612.798 362.228C611.913 362.162 610.494 361.612 610.372 361.068C610.166 360.277 610.695 359.149 611.309 358.414C612.445 357.079 613.844 355.926 615.157 354.703C617.378 352.61 620.192 352.183 623.188 352.338C624.338 352.411 625.468 352.745 626.612 352.846C629.417 353.121 630.946 352.309 631.146 349.846C631.315 347.7 632.095 346.315 634.223 345.176C635.79 344.34 637.082 339.773 636.246 338.484C635.817 337.808 634.794 337.108 633.948 337.019C630.634 336.79 627.312 336.765 624.022 336.745C622.726 336.74 621.369 337.195 620.14 337.023C616.322 336.489 612.646 336.737 608.871 337.47C607.728 337.691 606.164 337.531 605.177 336.982C603.418 335.975 601.82 335.986 599.848 336.355C597.46 336.812 594.943 336.753 592.472 336.965C591.931 337.006 591.403 337.313 590.584 337.58C591.415 339.22 593.167 339.113 594.506 339.564C595.937 340.057 598.145 340.161 597.807 341.99C597.408 343.956 595.194 343.881 593.518 343.617C589.323 342.972 585.886 345.159 582.215 346.199C576.884 347.71 571.568 348.989 565.992 349.089C564.69 349.112 563.264 349.088 562.086 349.481C557.538 351.072 552.731 350.664 548.264 350.215C543.7 349.753 538.806 348.951 535.085 345.969C534.257 345.296 533.273 344.573 532.228 344.309C527.108 342.978 522.024 341.476 516.788 340.714C513.003 340.185 510.056 338.806 507.209 336.767C505.149 335.277 502.739 333.709 500.201 333.266C493.771 332.162 488.463 329.134 482.813 326.644C480.252 325.494 477.641 324.426 474.98 323.438C471.636 322.209 468.395 320.965 466.158 318.219C464.292 315.936 461.394 315.296 458.361 316.308C454.221 317.693 450.194 317.863 445.937 317.033C443.922 316.634 441.595 316.954 439.536 317.428C435.906 318.268 432.379 319.416 428.69 320.219C424.789 321.081 421.025 323.398 417.791 325.73C414.671 327.99 411.811 328.967 407.837 328.383C403.061 327.656 398.542 326.643 394.308 324.556C392.22 323.532 389.702 323.15 387.366 322.531C386.672 322.346 385.899 322.384 385.243 322.175C379.024 320.192 372.861 318.099 366.625 316.202C361.175 314.531 355.647 313.084 350.13 311.58C349.435 311.395 348.58 311.51 348.012 311.196C342.843 308.304 336.951 307.012 331.276 305.134C325.355 303.163 319.667 300.697 313.912 298.398C313.144 298.085 312.105 297.793 311.756 297.217C309.086 292.828 303.219 292.887 299.251 290.31C298.019 289.493 296.617 288.857 295.298 288.145C294.102 287.48 292.956 286.734 291.705 286.178C287.565 284.28 283.809 281.967 281.187 278.494C279.27 275.969 277.175 273.507 275.405 270.915C273.943 268.776 272.823 266.421 271.551 264.163C271.309 263.718 271.183 263.027 270.786 262.854C269.964 262.475 268.91 262.093 268.114 262.246C267.562 262.345 266.845 263.417 266.892 264.009C266.963 265.133 267.44 266.226 267.891 267.285C268.581 268.964 269.527 270.533 270.109 272.255C271.045 275.024 268.973 277.694 265.73 277.446C260.063 277.006 256.056 279.376 252.407 282.764C251.549 283.552 250.289 284.021 249.154 284.536C247.865 285.148 246.482 285.57 245.22 286.214C241.805 287.964 239.031 290.155 239.109 294.035C239.11 294.357 238.712 294.683 238.337 295.216C237.293 294.953 236.243 294.718 234.945 294.39L234.217 297.982C231.619 298.322 230.13 296.97 228.926 295.688C224.435 290.928 219.913 286.163 215.918 281.091C214.09 278.784 213.401 275.786 212.248 273.104C211.839 272.168 211.685 271.121 211.206 270.204C209.004 265.969 208.178 261.515 208.223 256.862C208.24 254.812 208.289 252.768 208.003 250.735C207.649 248.047 206.753 245.577 203.77 244.047C201.361 242.801 201.253 242.024 203.098 240.143C204.402 238.801 206.064 237.656 207.683 236.563C211.364 234 210.996 231.223 206.722 229.659C204.126 228.68 201.12 229.227 199.081 231.081C198.146 231.918 197.388 232.867 196.426 233.67C194.225 235.502 191.966 235.978 188.882 235.107C183.279 233.532 177.42 232.566 171.678 231.353C170.978 231.197 170.178 231.202 169.566 230.941C165.704 229.316 161.677 227.845 158.052 225.872C154.968 224.181 152.031 222.422 148.224 222.329C148.062 222.307 147.899 221.962 147.521 221.528C148.845 221.068 150.061 220.652 151.999 219.956C150.817 219.058 150.164 218.175 149.243 217.958C144.889 216.793 142.065 213.819 138.797 211.398C137.176 210.204 135.364 209.13 133.524 208.199C127.31 205.044 120.913 202.303 115.785 197.571C111.777 193.874 106.617 191.101 101.926 187.984C99.0564 186.058 95.8586 184.439 96.6414 180.416C96.9536 178.877 95.6386 177.814 94.0638 177.213C90.6022 175.908 90.4908 172.522 88.5546 170.258C88.3096 169.989 89.1442 168.992 89.5036 168.369C90.213 168.644 90.9985 168.871 91.6524 169.255C91.9471 169.443 92.0813 169.931 92.1089 170.286C92.4712 173.912 95.036 175.209 98.8409 175.477C101.825 175.689 104.349 176.863 106.639 178.531C108.062 179.551 109.919 180.074 111.386 181.041C113.646 182.53 115.768 184.204 117.94 185.797C120.342 187.569 122.645 189.503 125.178 191.117C127.273 192.436 129.675 193.387 132.572 192.884C133.59 190.652 132.152 189.543 130.234 189.157C125.159 188.096 121.976 184.925 118.482 181.975C114.877 178.921 110.784 176.297 107.009 173.425C103.121 170.448 99.1688 167.463 95.5712 164.205C94.3062 163.061 93.6412 161.092 93.4797 159.429C93.3389 157.826 92.9494 156.629 91.9247 155.284C89.1429 151.612 85.5186 149.142 81.0692 146.966C76.9261 144.922 74.088 141.037 73.0233 136.609C72.7935 135.61 72.8837 134.509 72.3604 133.644C69.6781 128.99 70.5013 123.947 70.502 119.023C70.5102 117.999 71.3088 116.85 72.0288 115.925C73.1348 114.409 74.4767 113.043 75.7063 111.574C76.2333 110.944 77.1333 110.279 77.0929 109.658C76.9652 105.859 79.7157 102.961 80.9594 99.6178C82.18 96.3887 84.3766 94.0874 87.8743 93.0817C95.7802 90.8459 103.496 87.9094 111.791 86.8711C114.935 86.4607 118.087 85.8463 121.144 85.0429C129.374 82.8523 137.875 81.7841 146.121 79.5081C152.292 77.7917 158.967 77.5233 165.398 76.4882C167.666 76.1312 169.874 75.4142 172.113 74.8772C175.082 74.1787 178.04 73.5371 181.01 72.8386C185.518 71.7691 190.027 70.6996 194.509 69.5971C195.766 69.3039 197.181 68.5639 198.006 69.9101C198.952 71.4785 197.771 72.5444 196.365 73.403C192.64 75.6957 192.374 76.1861 193.994 79.5193C195.687 82.98 195.555 86.4198 193.711 89.767C192.604 91.7811 193.697 93.2821 194.519 94.8039C195.916 97.4318 197.536 99.9443 199.123 102.452C199.519 103.123 200.018 103.779 200.649 104.278C204.548 107.197 208.486 110.092 212.473 112.906C214.742 114.513 215.097 116.204 213.019 118.082C210.953 119.904 208.743 121.617 206.42 123.226C204.675 124.448 199.707 123.519 198.66 121.79C198.285 121.18 198.575 120.078 198.957 119.34C199.556 118.193 200.591 117.195 201.254 116.056C201.967 114.837 202.071 113.503 200.766 112.559C199.316 111.506 197.972 112.227 196.937 113.225C195.127 114.936 193.23 116.576 191.747 118.478C189.581 121.282 191.237 124.269 195.033 124.419C196.815 124.492 198.209 124.833 199.078 126.127C200.301 127.969 202.151 129.019 204.288 129.962C208.107 131.639 208.163 134.314 204.374 136.1C202.32 137.044 202.024 138.175 202.65 139.845C202.816 140.337 202.982 140.829 203.263 141.249C206.216 145.883 205.307 147.573 212.99 145.452C217.29 144.266 221.017 146.721 221.607 150.702C222.125 154.379 222.131 154.351 226.327 154.82C227.298 154.956 228.413 155.2 229.097 155.764C232.693 158.7 236.804 157.135 240.7 156.625C241.761 156.48 242.679 155.231 243.614 154.394C246.052 152.215 247.616 152.052 250.444 153.854C250.562 153.93 250.636 154.057 250.759 154.104C255.639 155.636 257.952 159.154 259.965 163.011C260.45 163.899 261.194 164.824 262.083 165.359C264.378 166.676 265.722 168.417 266.512 170.755C267.171 172.753 269.095 173.93 271.557 173.6C275.35 173.105 278.626 174.178 281.258 176.129C285.039 178.973 288.69 178.194 292.601 176.63C298.211 174.396 301.435 169.982 305.049 165.944C305.564 165.371 305.84 164.502 305.85 163.799C305.865 162.248 305.568 160.595 307.417 159.681C309.304 158.743 311.337 157.415 313.265 157.421C316.625 157.422 318.936 156.69 320.114 153.836C320.192 153.612 320.459 153.445 320.667 153.239C322.566 151.316 322.585 149.199 320.725 146.887L320.567 147.012ZM220.533 63.3295C221.975 61.3037 224.104 60.4876 226.155 60.2175C231.426 59.4891 235.05 56.7132 238.357 53.3655C240.367 51.3311 243.059 50.3594 245.956 49.8558C246.714 49.7273 247.598 50.2906 248.539 50.5688C248.124 51.3021 248.011 51.6966 247.727 51.9499C242.908 56.0241 238.142 60.1644 233.244 64.1395C230.099 66.6892 224.188 66.3025 220.533 63.3295ZM339.869 19.8739C340.82 17.8088 342.225 17.7707 343.708 18.0073C345.002 18.1882 345.971 18.822 345.452 20.0683C344.86 21.5096 343.347 21.9136 341.906 21.4775C341.029 21.2084 340.441 20.3348 339.875 19.8454L339.869 19.8739ZM137.991 218.818C137.448 218.214 136.891 217.843 136.895 217.492C136.921 217.203 137.604 216.624 137.96 216.674C138.38 216.733 138.958 217.165 139.045 217.558C139.122 217.833 138.506 218.245 137.952 218.842L137.991 218.818ZM422.181 63.1532C422.33 63.7309 422.573 64.1751 422.524 64.5787C422.478 64.8067 421.946 64.9667 421.615 65.1255C421.378 64.6528 421.109 64.1756 420.943 63.6834C420.954 63.6264 421.562 63.4183 422.181 63.1532ZM118.948 224.948C118.744 224.802 118.406 224.667 118.376 224.487C118.34 224.335 118.651 224.115 118.821 223.933C119.077 224.145 119.334 224.357 119.596 224.54C119.373 224.655 119.144 224.799 118.954 224.919L118.948 224.948Z" fill="#757B7C"/>
<path d="M987.921 211.689C985.85 210.256 983.91 210.307 982.1 211.52C979.98 212.952 978.13 212.723 976.121 211.475C974.819 210.677 973.335 210.118 972.021 209.378C969.335 207.859 966.485 207.314 963.309 208.042C961.353 208.501 959.101 209.271 957.766 207.326C956.271 205.182 954.87 202.906 956.23 200.136C958.53 195.358 961.914 191.141 965.527 187.104C966.904 185.567 969.303 184.73 971.257 183.626C971.855 183.299 972.778 183.34 973.291 182.943C977.03 180.095 980.794 177.28 984.335 174.259C985.138 173.579 985.201 172.123 985.459 171.016C985.84 169.135 985.878 167.147 986.577 165.34C987.232 163.585 988.464 161.94 989.561 160.306C990.079 159.557 991.203 159.099 991.63 158.309C993.295 155.347 995.956 153.873 999.874 153.746L1001.98 143.344C999.423 141.374 997.21 139.657 994.952 137.994C993.272 136.762 991.277 136.923 989.654 137.868C986.263 139.827 983.788 139.07 981.281 136.668C979.612 135.057 977.762 133.187 974.547 134.437C973.934 134.674 972.591 134.076 972.004 133.525C970.43 132.103 968.93 131.952 967.772 133.724C966.526 135.602 964.789 135.799 962.606 135.904C958.643 136.082 954.834 136.986 951.552 139.223C950.625 139.856 949.613 140.418 948.538 140.795C942.314 142.943 937.028 146.366 931.864 150.011C930.621 150.892 929.29 151.879 927.809 152.287C921.515 153.957 916.76 157.718 912.37 161.647C902.23 170.633 890.026 177.163 878.392 184.329C869.689 189.677 860.002 193.803 850.767 198.491C845.687 201.063 840.661 203.701 835.634 206.34C831.353 208.584 827.072 210.828 822.844 213.139C821.086 214.095 819.682 214.455 817.744 213.188C814.488 211.033 810.821 210.901 807.207 212.975C804.42 214.578 801.685 215.925 798.458 213.627C797.645 213.045 795.825 212.995 794.75 213.373C791.353 214.539 787.788 215.711 785.623 218.515C783.439 221.404 780.377 223.379 777.235 225.256C772.949 227.851 769.612 231.019 766.692 234.919C763.645 238.948 759.265 242.174 755.532 245.814C751.685 249.526 748.286 253.652 744.018 256.983C738.679 261.16 735.08 266.929 728.503 269.995C726.85 270.761 725.226 271.882 724.128 273.194C720.193 277.831 714.457 280.195 709.034 282.983C706.287 284.386 704.644 286.091 704.195 288.959C703.896 290.764 702.867 292.554 701.868 294.202C700.575 296.308 700.433 296.845 702.82 297.706C705.148 298.53 706.103 299.894 706.659 301.906C707.02 303.246 707.715 304.574 708.624 305.669C709.214 306.367 710.54 307.05 711.46 306.944C713.44 306.694 715.116 306.957 716.894 307.704C718.914 308.573 720.905 307.943 722.701 306.963C727.038 304.609 731.407 302.26 735.702 299.783C740.895 296.816 746.448 294.369 752.417 293.152C756.166 292.386 760.258 292.548 764.11 292.911C765.648 293.038 767.112 294.679 768.339 295.847C770.371 297.801 771.071 297.958 773.32 296.221C775.208 294.785 777.397 293.508 778.814 291.772C780.462 289.716 781.682 287.308 782.567 284.911C783.555 282.177 785.273 280.102 787.748 278.396C788.097 278.152 788.505 277.945 788.736 277.626C791.595 273.864 795.807 271.962 800.571 270.781C801.238 270.611 801.886 270.203 802.458 269.843C807.896 266.325 813.382 262.901 818.654 259.212C822.03 256.841 825.893 256.004 829.911 255.218C832.717 254.672 835.996 254.251 838.037 252.719C842.194 249.608 847.262 249.554 851.948 248.598C855.349 247.901 859.159 248.639 862.718 249.136C865.176 249.48 866.708 251.277 867.368 253.274C868.375 256.346 869.432 259.336 871.666 261.935C872.985 263.468 872.465 265.212 870.882 266.456C867.405 269.164 864.876 272.445 862.878 276.064C862.507 276.745 861.803 277.262 861.25 277.858C858.625 280.628 856.06 283.434 853.371 286.194C851.475 288.157 849.495 290.048 847.541 291.973C846.955 292.565 846.251 293.083 845.848 293.759C840.485 302.974 831.633 309.708 824.008 317.288C819.004 322.274 813.138 326.261 807.196 330.295C802.492 333.477 798.425 337.451 794.187 340.962C795.214 342.952 796.506 344.451 796.68 346.058C796.843 347.546 795.844 349.195 795.358 350.768C797.686 351.592 799.7 352.489 801.898 352.972C803.363 353.294 805.103 353.244 806.572 352.893C808.733 352.404 810.401 352.549 812.16 353.879C814.503 355.614 815.008 355.42 817.455 353.857C818.446 353.234 819.671 352.936 820.763 352.474C821.192 353.471 821.79 354.464 822.046 355.496C822.54 357.324 822.791 359.205 823.215 361.052C823.588 362.658 824.198 364.238 824.431 365.882C824.862 369.166 824.083 370.054 820.446 370.601C819.45 370.754 818.406 370.814 817.39 370.906C816.676 370.982 815.899 370.873 815.233 371.044C807.348 373.341 798.415 372.766 791.628 378.177C789.127 380.172 787.124 382.178 786.646 385.189C786.034 389.353 784.678 393.413 785.102 397.722C785.363 400.367 786.159 402.677 787.317 405.007C789.001 408.35 788.953 409.076 785.904 411.316C784.104 412.647 783.394 414.013 783.724 415.994C784.109 418.363 784.325 420.738 784.611 423.269C782.491 424.204 781.419 422.764 780.369 421.709C778.493 419.805 776.628 417.845 775.095 415.725C774.289 414.616 773.99 413.138 773.797 411.792C773.498 409.494 772.478 407.798 770.342 406.356C763.43 401.726 757.61 396.135 752.316 390.09C751.965 389.689 751.696 389.212 751.262 388.888C745.535 384.482 739.732 380.124 734.055 375.638C731.933 373.963 730.051 372.088 728.125 370.266C726.951 369.164 725.935 367.937 724.806 366.783C722.557 364.417 719.814 364.326 716.51 365.037C712.3 365.943 707.963 366.333 703.67 366.993C702.398 367.196 701.153 367.432 699.922 367.758C698.8 368.041 697.721 368.769 696.662 368.739C694.216 368.661 692.449 369.498 690.985 371.14C689.225 373.092 686.987 373.629 684.337 373.082C683.916 373.023 683.463 372.96 683.06 372.816C678.854 371.407 676.557 372.727 677.232 377.599C677.78 381.456 679.525 385.159 680.928 388.901C681.679 390.941 682.773 392.764 682.628 395.118C682.568 396.399 683.708 397.995 684.867 399.007C688.252 402 691.622 404.904 691.846 409.537C691.881 410.187 692.572 411.045 693.243 411.344C698.507 413.604 700.78 418.142 704.03 421.967C704.381 422.368 704.726 422.797 704.969 423.242C707.256 427.547 711.646 428.542 716.505 428.694C717.596 428.729 718.827 428.403 719.843 427.988C724.123 426.242 725.887 426.401 729.107 429.225C731.141 431.004 732.968 432.989 735.052 434.687C737.563 436.738 740.195 438.689 742.965 440.453C744.405 441.388 746.113 442.154 746.004 443.839C745.834 447.302 748.372 449.387 751.052 450.934C757.603 454.722 761.85 460.357 766.9 465.312C768.702 467.089 770.622 468.94 772.907 470.138C775.761 471.651 777.827 473.933 778.097 476.374C778.542 480.246 781.236 482.382 784.112 484.278C789.831 488.067 794.743 492.389 798.246 497.919C798.648 498.562 799.32 499.183 800.056 499.491C803.135 500.713 804.483 502.924 805.225 505.665C806.115 508.985 808.458 511.54 810.98 514.032C811.924 514.955 813.142 516.004 813.348 517.118C814.286 522.173 818.328 525.698 821.214 529.677C823.326 532.552 827.515 534.368 831.061 536.242C833.529 537.524 836.23 536.671 838.338 534.973C840.889 532.897 843.134 532.654 846.003 534.579C848.375 536.171 851.479 535.14 853.05 532.81C853.898 531.58 853.272 530.73 852.442 529.735C850.789 527.716 850.834 527.166 853.154 525.732C855.055 524.561 857.117 523.091 859.277 522.777C865.917 521.859 871.696 519.121 877.681 516.675C879.642 515.865 881.777 515.343 883.854 514.783C886.982 513.961 888.098 512.065 886.555 509.505C883.764 504.894 881.314 500.243 880.769 494.891C880.636 493.583 879.773 492.261 878.945 491.09C876.44 487.369 875.027 483.508 876.626 479.072C878.717 473.356 877.405 468.014 874.861 462.676C873.369 459.536 872.561 456.141 871.388 452.9C870.842 451.328 870.084 449.816 869.57 448.249C869.14 446.929 868.473 445.458 868.76 444.208C869.403 441.367 868.313 439.193 866.428 437.171C864.675 435.314 863.917 433.478 864.978 430.872C865.66 429.15 865.461 427.012 864.999 425.189C864.707 424.005 863.486 422.808 862.351 422.005C860.109 420.431 859.112 418.621 859.362 416.077C859.475 414.862 859.027 413.627 858.779 412.391C858.677 411.908 858.176 411.427 858.236 410.967C858.86 405.925 855.308 402.439 852.734 398.562C852.226 397.787 852.214 396.701 852.075 395.744C852.047 395.388 852.534 394.958 852.43 394.651C849.806 387.25 850.701 378.406 841.924 373.457C839.983 372.365 837.861 371.511 835.809 370.638C832.5 369.238 830.881 367.048 830.617 363.758C830.384 360.97 829.54 358.244 829.139 355.462C828.724 352.59 829.192 351.923 832.159 350.579C836.339 348.672 840.537 347.003 845.425 347.012C848.747 347.037 851.412 344.068 851.602 341.164C851.675 340.148 852.097 338.889 852.906 338.181C855.027 336.25 857.252 334.304 859.784 332.812C866.584 328.81 871.739 323.405 877.195 318.16C882.026 313.53 886.911 308.967 891.053 303.802C895.189 298.665 899.947 293.908 904.554 289.071C907.934 285.529 911.695 282.245 915.042 278.697C917.081 276.52 918.563 273.973 920.516 271.725C921.613 270.413 923.097 269.331 924.425 268.198C924.95 267.744 925.963 267.504 926.094 267.024C927.303 263.032 932.356 262.068 934.446 258.814C936.587 255.479 940.546 253.512 942.999 250.601C946.984 245.883 952.457 242.516 956.628 238.029C957.181 237.432 957.767 236.84 958.465 236.351C963.277 232.803 968.148 229.293 972.992 225.75C973.341 225.506 973.808 225.337 974.006 225.013C976.696 220.612 981.875 218.698 986.051 215.823C987.714 214.678 988.157 213.48 988.051 211.707L987.921 211.689ZM876.267 234.823C878.974 234.762 881.375 234.57 883.751 234.668C885.268 234.733 886.044 235.663 885.696 237.05C884.664 241.155 883.755 245.307 882.399 249.368C881.91 250.794 880.327 252.038 878.979 253.11C878.504 253.483 876.913 253.29 876.27 252.848C874.214 251.506 873.311 245.459 875.27 244.004C878.325 241.735 877.977 239.517 876.651 236.87C876.393 236.335 876.423 235.695 876.267 234.823ZM868.474 232.239C867.597 231.149 867.092 230.521 866.549 229.918C867.409 229.452 868.241 228.63 869.117 228.577C869.722 228.545 870.34 229.598 870.96 230.154C870.244 230.728 869.556 231.335 868.474 232.239Z" fill="#757B7C"/>
<path d="M400.82 225.348C402.969 227.055 404.501 228.032 405.679 229.281C407.254 231.025 407.037 232.753 404.765 233.784C401.836 235.103 401.149 237.176 400.511 239.666C400.157 241.082 399.059 242.394 398.076 243.634C396.885 245.079 395.339 246.299 394.175 247.778C392.377 250.076 390.054 251.363 386.918 251.57C379.9 252.054 373.345 253.863 366.765 256.284C361.304 258.276 358.043 262.216 353.64 265.059C351.569 266.411 351.474 268.361 352.485 270.261C354.083 273.21 354.01 275.867 350.937 278.221C349.36 279.437 349.583 280.963 350.411 282.456C352.689 286.643 359.966 289.801 365.411 289.858C371.12 289.924 377.121 288.711 382.464 291.569C383.247 291.971 384.426 291.902 385.425 291.895C390.255 291.867 394.951 292.172 399.405 293.996C401.866 294.985 404.415 295.869 407.387 294.995C408.347 294.689 409.665 295.079 410.736 295.375C418.195 297.473 425.723 297.265 433.496 296.506C443.038 295.554 451.383 291.973 459.772 288.339C461.885 287.433 463.832 286.855 465.923 288.027C467.361 288.814 468.724 288.653 469.873 287.583C471.892 285.667 474.337 285.422 477.1 285.574C478.418 285.641 479.888 285.114 481.159 284.589C482.865 283.889 484.408 282.845 486.098 282.055C488.485 280.953 490.464 279.559 491.832 277.405C492.61 276.195 493.956 275.299 494.949 274.178C496.167 272.765 497.423 271.329 498.438 269.771C500.441 266.622 501.902 263.192 504.258 260.268C506.433 257.583 509.353 255.324 512.138 253.076C513.46 251.971 514.821 251.165 514.565 249.312C514.207 246.976 515.645 245.301 517.846 244.29C520.716 242.933 521.688 240.929 521.529 238.269C521.476 237.382 521.532 236.452 521.738 235.602C522.309 233.278 521.52 231.263 519.944 229.519C516.35 225.587 512.68 221.703 508.971 217.844C508.449 217.302 507.662 216.752 506.903 216.558C500.359 214.705 495.61 210.729 490.971 206.534C488.388 204.18 485.4 202.18 482.647 200.007C481.898 199.433 480.976 198.894 480.527 198.157C478.239 194.35 474.256 192.005 470.804 189.178C469.239 187.874 467.511 186.548 466.583 184.894C463.743 179.867 458.47 177.488 453.268 175.09C450.862 173.992 449.005 172.648 447.502 170.708C443.912 166.103 440.24 161.574 436.643 156.998C435.188 155.153 433.58 153.727 430.615 154.074C429.56 154.19 428.319 153.753 427.309 153.319C424.188 151.974 421.692 152.797 419.471 154.89C419.181 155.172 418.885 155.482 418.595 155.764C415.75 158.473 414.067 158.736 410.598 157.137C405.61 154.828 402.337 155.22 398.717 158.963C396.909 160.821 394.891 162.239 392.307 162.844C386.546 164.179 384.472 168.666 381.377 172.278C380.9 172.826 380.677 173.762 380.764 174.478C381.527 180.886 380.715 187.513 384.434 193.455C386.036 196.053 387.553 198.581 390.683 200.044C391.81 200.554 392.995 201.276 393.674 202.192C396.359 205.85 400.535 208.221 403.827 211.349C407.15 214.481 410.796 217.335 414.405 220.214C415.351 220.961 416.514 221.622 417.715 221.937C421.004 222.778 422.365 225.254 423.984 227.444C424.97 228.813 424.025 230.029 422.211 229.951C421.649 229.931 420.932 229.86 420.557 229.573C417.707 227.387 413.955 227.185 410.638 225.988C407.633 224.894 404.769 225.402 400.9 225.447L400.82 225.348Z" fill="#757B7C"/>
<path d="M143.598 199.508C141.985 197.293 139.421 196.32 136.778 195.248C137.201 200.544 139.263 201.856 143.598 199.508Z" fill="#757B7C"/>
</svg>
