<svg width="424" height="235" viewBox="0 0 424 235" fill="none" xmlns="http://www.w3.org/2000/svg">
<path d="M424 117.401C423.839 120.146 423.732 122.22 423.589 124.303C423.562 124.663 423.472 125.023 423.365 125.364C422.873 126.954 422.363 128.536 421.862 130.126C421.817 130.259 421.782 130.391 421.773 130.524C421.522 132.797 420.628 134.88 420.037 137.057C419.671 138.402 419.447 139.794 419.152 141.167C418.821 142.72 418.391 144.254 418.186 145.816C417.765 149.016 416.227 151.8 415.261 154.792C415.162 155.095 414.992 155.379 414.947 155.682C414.76 156.932 414.08 157.917 413.471 158.968C412.559 160.549 411.826 162.234 410.958 163.835C409.911 165.766 408.695 167.584 407.219 169.184C407.013 169.412 406.691 169.582 406.584 169.847C406.163 170.917 405.331 171.665 404.777 172.584C404.007 173.852 402.961 174.752 401.968 175.737C400.501 177.185 398.953 178.549 397.397 179.903C396.404 180.765 395.393 181.56 394.579 182.658C394.016 183.406 393.094 183.861 392.316 184.41C390.393 185.764 388.461 187.109 386.511 188.425C385.938 188.813 385.294 189.087 384.704 189.438C384.185 189.75 383.684 190.082 383.183 190.432C382.154 191.161 381.197 192.023 379.891 192.184C379.65 192.212 379.372 192.335 379.202 192.506C377.61 194.144 375.642 195.176 373.799 196.416C371.304 198.092 368.692 199.588 366.223 201.311C364.541 202.486 362.833 203.603 361.043 204.588C360.167 205.071 359.272 205.497 358.405 205.989C357.653 206.415 356.893 206.851 356.186 207.362C355.301 208.006 354.397 208.545 353.404 209.019C350.765 210.297 348.01 211.31 345.559 213.043C344.629 213.696 343.386 213.838 342.294 214.246C341.409 214.577 340.514 214.908 339.682 215.353C339.065 215.685 338.591 216.215 338.663 217.096C338.689 217.389 338.555 217.73 338.403 217.986C337.947 218.743 337.571 219.643 336.936 220.182C335.755 221.196 334.592 222.313 333 222.635C332.75 222.682 332.472 222.711 332.258 222.843C331.041 223.544 329.726 223.638 328.384 223.582C327.973 223.563 327.544 223.714 327.132 223.809C326.425 223.97 325.719 224.15 325.021 224.32C324.896 224.349 324.753 224.32 324.636 224.377C321.577 225.608 318.276 225.722 315.163 226.687C313.911 227.076 312.56 227.123 311.254 227.35C310.583 227.473 309.922 227.672 309.26 227.833C308.132 228.108 307.023 228.467 305.878 228.619C305.046 228.733 304.17 228.666 303.347 228.486C302.73 228.354 302.22 228.231 301.638 228.6C300.878 229.083 300.037 229.234 299.16 228.894C298.964 228.818 298.731 228.789 298.525 228.818C296.566 229.036 294.625 229.32 292.666 229.5C290.618 229.679 288.569 229.765 286.521 229.888C286.217 229.907 285.877 229.803 285.626 229.926C284.052 230.702 282.308 230.693 280.662 231.1C280.205 231.213 279.722 231.384 279.275 231.308C277.262 230.996 275.25 231.308 273.264 231.412C271.645 231.497 270.071 231.62 268.442 231.412C267.584 231.299 266.68 231.611 265.795 231.715C265.365 231.763 264.945 231.8 264.516 231.8C263.487 231.81 262.458 231.725 261.483 232.227C261.197 232.378 260.803 232.35 260.472 232.331C258.316 232.227 256.134 232.463 253.996 231.905C253.602 231.8 253.101 231.838 252.735 231.999C251.563 232.539 250.4 232.416 249.192 232.236C248.754 232.17 248.28 232.302 247.824 232.369C247.108 232.482 246.401 232.672 245.686 232.747C244.675 232.861 243.655 232.908 242.636 232.965C242.394 232.975 242.144 232.87 241.893 232.832C241.652 232.795 241.365 232.681 241.16 232.766C239.254 233.533 237.268 233.704 235.256 233.694C234.531 233.694 233.824 233.628 233.154 234.13C232.849 234.357 232.313 234.31 231.901 234.253C231.051 234.139 230.228 233.751 229.352 234.224C229.173 234.319 228.77 233.997 228.484 233.846C227.965 233.562 227.464 233.24 226.937 232.956C226.749 232.851 226.498 232.889 226.319 232.776C224.861 231.848 223.251 232.028 221.677 232.103C219.933 232.179 218.152 231.848 216.435 232.416C216.354 232.444 216.238 232.454 216.184 232.416C215.209 231.639 214.369 232.122 213.376 232.492C212.499 232.823 211.426 232.558 210.442 232.586C210.021 232.596 209.556 232.586 209.18 232.757C208.59 233.022 208.035 233.088 207.427 232.908C207.221 232.851 206.998 232.823 206.792 232.861C203.554 233.429 200.28 233.031 197.024 233.164C196.093 233.202 195.163 233.05 194.233 233.012C193.857 232.993 193.481 233.069 193.106 233.079C192.685 233.098 192.256 233.117 191.836 233.098C191.585 233.088 191.326 232.918 191.075 232.956C188.642 233.259 186.236 232.406 183.803 232.719C183.132 232.804 182.452 232.889 181.79 233.012C180.931 233.183 180.082 232.861 179.294 232.908C178.096 232.975 176.834 232.397 175.654 233.117C175.385 233.287 174.983 233.259 174.643 233.268C173.051 233.287 171.467 233.287 169.875 233.296C169.616 233.296 169.338 233.325 169.106 233.24C167.988 232.795 166.843 232.785 165.68 232.87C165.51 232.88 165.304 232.918 165.17 232.842C163.998 232.132 162.737 232.501 161.511 232.463C161.001 232.444 160.491 232.331 159.991 232.255C159.695 232.208 159.4 232.094 159.105 232.084C154.436 231.924 149.784 231.46 145.106 231.696C144.721 231.715 144.31 231.753 143.952 231.639C142.843 231.27 141.778 231.28 140.669 231.677C140.266 231.819 139.739 231.687 139.291 231.592C138.191 231.346 137.162 231.213 136.017 231.602C135.168 231.895 134.157 231.696 133.226 231.677C132.251 231.658 131.267 231.535 130.292 231.573C129.765 231.592 129.308 231.611 128.834 231.27C128.548 231.062 128.119 230.996 127.752 230.986C126.258 230.948 124.782 230.996 123.27 230.683C122.152 230.456 121.034 230.352 119.916 230.001C118.628 229.594 117.223 229.594 115.864 229.443C114.549 229.301 113.189 229.376 111.919 229.055C110.166 228.609 108.377 229.055 106.695 228.676C104.593 228.202 102.517 228.363 100.433 228.297C100.058 228.288 99.6639 228.193 99.3061 228.051C98.5189 227.738 97.7139 227.861 96.9088 227.805C95.1019 227.663 93.2502 227.767 91.5059 227.057C91.4254 227.028 91.3538 226.971 91.2644 226.952C89.5469 226.583 87.8204 226.252 86.1119 225.845C84.7343 225.513 83.3836 225.087 82.015 224.699C80.4138 224.244 78.8215 223.752 77.2114 223.335C75.5744 222.919 73.9911 222.389 72.5331 221.461C72.1395 221.215 71.6743 220.978 71.2271 220.968C69.2502 220.902 67.4879 220.05 65.6542 219.434C65.4932 219.378 65.35 219.217 65.189 219.207C63.5878 219.169 62.2639 218.241 60.8237 217.692C59.5446 217.209 58.3817 216.395 57.1651 215.732C56.6374 215.448 56.1007 215.155 55.5461 214.918C53.4887 214.028 51.7712 212.598 50.1252 211.064C49.6422 210.619 49.1502 210.174 48.6493 209.757C47.5043 208.801 46.3504 207.883 45.2143 206.917C42.9691 205.023 40.7149 203.148 38.5143 201.198C37.0742 199.92 35.625 198.622 34.3459 197.164C31.0719 193.452 28.0216 189.532 24.2467 186.323C22.8244 185.12 21.7063 183.501 20.4987 182.033C19.2374 180.49 17.9761 178.937 16.8311 177.299C15.3104 175.131 13.414 173.246 12.3406 170.728C12.1528 170.283 11.8128 169.895 11.4819 169.544C10.3727 168.361 9.69282 166.912 9.00404 165.444C8.2258 163.778 7.28655 162.197 6.50832 160.53C5.75692 158.911 5.00552 157.263 4.45091 155.559C3.64584 153.069 2.93023 150.541 2.36668 147.984C1.91047 145.92 1.73157 143.79 1.43637 141.688C1.43637 141.64 1.43637 141.593 1.41848 141.555C0.658138 139.481 0.962275 137.247 0.532904 135.126C0.506069 134.993 0.497123 134.851 0.488178 134.719C0.389781 132.001 0.291383 129.284 0.18404 126.566C0.130369 125.203 -0.0306451 123.849 0.00513586 122.495C0.0856429 119.417 0.112479 116.331 0.506069 113.263C0.774426 111.18 1.21274 109.182 1.87469 107.203C2.21461 106.18 2.34879 105.091 2.56347 104.021C2.6082 103.804 2.63503 103.538 2.55453 103.349C2.09832 102.298 2.34879 101.275 2.67976 100.291C3.58323 97.6016 4.4867 94.9126 5.76586 92.375C6.79456 90.3392 7.82326 88.294 8.70884 86.1919C9.16505 85.1031 9.69282 84.0899 10.3727 83.1526C10.5784 82.8685 10.7036 82.5182 10.8736 82.2057C11.3119 81.4387 11.7592 80.6717 12.2154 79.9142C12.4927 79.4598 12.8952 79.0621 13.0741 78.5697C14.0044 76.0511 15.6324 73.9869 16.9832 71.7334C18.1013 69.8586 19.2374 67.9838 20.2482 66.0428C21.2143 64.1869 21.9657 62.2079 22.9318 60.3426C23.4148 59.4052 24.1751 58.6193 24.7834 57.7387C26.7066 54.936 28.8982 52.389 31.4118 50.1639C31.707 49.9082 32.0291 49.681 32.36 49.4632C33.4513 48.7436 34.6232 48.1471 35.6071 47.2949C36.8684 46.2155 38.2907 45.581 39.7398 44.8993C40.9474 44.3312 42.0567 43.5358 43.2016 42.8257C44.4987 42.0303 45.7689 41.1876 47.0839 40.4207C47.6385 40.0987 48.2557 39.8999 48.8371 39.6442C48.9176 39.6064 49.0071 39.6158 49.0876 39.5685C50.8498 38.5743 52.6478 37.6369 54.3653 36.548C55.4656 35.8568 56.4138 34.9951 57.8003 34.8342C58.5427 34.7489 59.2225 34.0672 59.9292 33.6506C61.6557 32.6469 63.3731 31.6243 65.1085 30.6396C65.4753 30.4312 65.9225 30.365 66.3251 30.2229C66.8081 30.0525 67.3806 29.9863 67.7652 29.6643C68.5077 29.0394 69.2502 28.6417 70.2341 28.8026C70.4846 28.8405 70.8245 28.6512 71.0481 28.4713C72.8372 27.032 75.0377 26.6059 77.0683 25.7916C78.4995 25.214 80.0113 24.8543 81.4425 24.2767C83.8845 23.3014 86.2908 22.2125 88.7239 21.1994C89.6005 20.8301 90.4951 20.4987 91.3985 20.2146C92.4272 19.8927 93.4381 19.6181 94.3147 18.8701C94.6635 18.5765 95.2808 18.5292 95.7728 18.5387C96.8641 18.5576 97.857 18.2546 98.9036 17.9516C100.451 17.4971 102.008 17.2036 103.492 16.4366C104.548 15.8969 105.774 15.6602 106.945 15.4708C109.262 15.1015 111.346 14.1452 113.431 13.0658C114.334 12.5924 115.399 12.4598 116.383 12.1568C118.386 11.5413 120.39 10.907 122.403 10.2915C122.725 10.1873 123.074 10.1305 123.414 10.0926C124.478 9.97902 125.551 9.75179 126.607 9.81807C128.315 9.92223 129.756 9.11741 131.285 8.59664C132.01 8.35045 132.708 8.22734 133.423 8.5114C134.067 8.76705 134.64 8.84281 135.212 8.28416C135.391 8.10425 135.767 8.08531 136.053 8.09477C137.806 8.14212 139.56 8.19894 141.313 8.28416C141.993 8.32203 142.664 8.47349 143.343 8.53977C144.068 8.60605 144.802 8.7576 145.508 8.65345C146.734 8.47354 147.932 8.11372 149.149 7.86754C150.196 7.65923 151.269 7.55505 152.307 7.30886C153.049 7.12896 153.791 6.85438 154.471 6.49458C155.151 6.13477 155.804 5.94541 156.565 5.97381C157.674 6.01169 158.765 5.78441 159.865 5.64238C161.672 5.41513 163.533 5.64241 165.376 5.68029C165.501 5.68029 165.626 5.7939 165.742 5.78443C167.048 5.66134 168.345 5.50986 169.651 5.38676C170.796 5.28261 171.95 5.22578 173.095 5.13109C173.641 5.08375 174.187 5.01746 174.732 4.94171C175.153 4.8849 175.573 4.7997 176.003 4.72395C176.924 4.55351 177.854 4.39257 178.776 4.21266C179.867 3.99489 180.958 3.54034 182.041 3.56875C183.74 3.60662 185.35 3.1995 186.978 2.88703C187.891 2.7166 188.749 2.62191 189.626 2.94384C190.717 3.34152 191.818 3.06692 192.918 3.04798C195.154 3.00064 197.382 2.97227 199.618 2.90599C200.164 2.88705 200.718 2.75449 201.264 2.66927C201.559 2.62193 201.881 2.44199 202.14 2.51774C204.171 3.06692 206.202 2.2053 208.268 2.60299C209.574 2.85864 210.987 2.48936 212.356 2.42308C213.671 2.3568 214.977 2.6598 216.319 2.42308C216.998 2.30946 217.741 2.69765 218.457 2.75446C220.281 2.90596 222.106 2.99121 223.931 3.1427C224.351 3.18058 224.763 3.34151 225.174 3.46461C225.854 3.66345 226.525 3.72975 227.169 3.31313C227.277 3.24685 227.402 3.14271 227.518 3.15218C229.37 3.26581 230.694 1.92121 232.241 1.20159C233.789 0.481976 235.39 0.0558879 237.063 0.0180134C238.565 -0.019861 240.077 0.150574 241.571 0.0180134C243.101 -0.114547 244.299 0.500918 245.498 1.32469C246.035 1.69396 246.607 1.99701 247.198 2.26213C247.797 2.53672 248.405 2.57456 249.067 2.29051C249.461 2.12007 250.069 2.0822 250.409 2.29051C251.277 2.82075 252.126 2.90594 253.101 2.8586C254.855 2.79232 256.617 2.91543 258.379 2.93436C259.927 2.94383 261.474 2.87755 263.022 2.93436C263.827 2.96277 264.623 3.17107 265.419 3.27522C265.884 3.33203 266.349 3.34155 266.823 3.3889C267.754 3.47412 268.693 3.5593 269.623 3.65399C269.748 3.66346 269.901 3.76762 269.999 3.72028C271.538 3.048 272.79 4.18422 274.167 4.46828C275.303 4.70499 276.395 4.93227 277.593 4.73343C278.917 4.51565 280.349 4.36416 281.511 5.45305C281.887 5.80339 282.325 5.83176 282.835 5.70866C283.936 5.42461 284.991 5.49092 286.065 6.09691C286.691 6.44725 287.558 6.45672 288.31 6.39043C289.544 6.28628 290.761 5.98329 291.96 6.63663C292.192 6.75972 292.568 6.70288 292.836 6.60819C293.892 6.21998 294.876 6.4567 295.815 6.96801C296.405 7.28994 296.978 7.38466 297.649 7.41306C298.382 7.432 299.098 7.82966 299.831 8.04744C300.225 8.16107 300.645 8.35044 301.021 8.28416C301.656 8.18 302.211 8.25572 302.73 8.66287C303.222 9.05108 303.767 9.09843 304.313 8.84277C305.011 8.52084 305.619 8.76703 306.29 9.02268C307.408 9.45824 308.571 9.73286 309.725 10.0643C310.011 10.1495 310.324 10.1495 310.61 10.2252C311.773 10.5093 312.945 10.7744 314.099 11.1058C315.199 11.4277 316.326 11.7213 317.373 12.2042C318.67 12.8007 320.074 12.5924 321.38 12.9711C321.828 13.1037 322.266 13.2457 322.713 13.3593C323.125 13.4635 323.536 13.5392 323.957 13.6055C324.627 13.7191 325.334 13.7097 325.96 13.9464C328.027 14.7039 330.057 15.5466 332.106 16.3609C332.267 16.4271 332.428 16.5029 332.598 16.5313C334.745 16.91 336.596 18.1031 338.573 18.9458C338.895 19.0784 339.208 19.2299 339.53 19.3435C342.196 20.2146 344.772 21.2751 347.196 22.7806C348.52 23.6044 349.996 24.1441 351.401 24.8258C352.492 25.3561 353.601 25.8579 354.648 26.4733C356.803 27.7516 359.254 28.1588 361.482 29.2193C362.806 29.8537 364.156 30.3744 365.4 31.2266C367.377 32.5712 369.488 33.679 371.518 34.9383C372.404 35.4875 373.2 36.1977 374.032 36.8226C375.463 37.8926 376.912 38.953 378.335 40.0419C378.782 40.3828 379.202 40.7805 379.614 41.1781C381.242 42.7783 382.888 44.3596 384.462 46.0166C385.339 46.935 386.09 47.9955 386.904 48.9803C387.047 49.1507 387.19 49.3401 387.369 49.4537C388.962 50.4006 390.25 51.6978 391.35 53.2412C391.833 53.9134 392.549 54.3964 393.13 54.9929C393.372 55.2391 393.568 55.5421 393.783 55.8166C393.971 56.0628 394.105 56.451 394.338 56.5362C395.492 56.9718 396.028 58.0323 396.654 58.9981C397.71 60.6172 399.141 61.8576 400.42 63.24C400.805 63.6566 401.109 64.1585 401.467 64.613C401.771 64.9917 402.048 65.4178 402.433 65.6924C403.766 66.6582 404.795 67.927 405.77 69.262C407.147 71.1558 408.543 73.0495 409.929 74.9432C409.983 75.019 410.037 75.0853 410.081 75.161C411.065 76.8559 412.112 78.5224 413.024 80.2646C413.874 81.8837 414.59 83.5976 415.368 85.264C415.708 85.9931 416.057 86.7222 416.423 87.4323C417.023 88.5875 417.533 89.7522 417.792 91.0683C418.087 92.5738 418.579 94.032 419.035 95.4996C419.796 97.952 420.61 100.385 421.37 102.838C421.594 103.567 421.764 104.324 421.889 105.091C422.122 106.521 422.291 107.951 422.524 109.381C422.614 109.911 422.81 110.422 422.971 110.943C423.034 111.161 423.159 111.36 423.195 111.577C423.499 113.717 423.785 115.857 423.991 117.353L424 117.401ZM351.875 191.407C352.349 191.265 352.796 191.218 353.172 191.019C355.345 189.854 357.752 189.22 359.764 187.696C360.426 187.194 361.169 186.815 361.884 186.408C363.7 185.376 365.534 184.391 367.332 183.331C370.025 181.74 372.628 179.96 375.392 178.53C378.013 177.166 380.043 174.989 382.423 173.322C382.566 173.228 382.673 173.076 382.78 172.934C383.666 171.732 384.847 170.917 386.019 170.056C386.698 169.554 387.289 168.862 387.79 168.152C388.47 167.205 389.069 166.164 390.151 165.719C391.091 165.331 391.547 164.602 391.967 163.73C392.227 163.181 392.558 162.566 393.014 162.225C394.633 161.032 395.787 159.403 396.968 157.784C397.88 156.525 399.007 155.398 399.741 154.035C400.671 152.311 401.53 150.55 402.496 148.836C403.48 147.094 404.258 145.21 405.054 143.354C406.092 140.949 406.619 138.383 407.174 135.817C407.326 135.116 407.505 134.416 407.684 133.724C407.943 132.721 408.283 131.736 408.48 130.713C408.704 129.558 408.847 128.384 408.981 127.219C409.24 124.975 409.679 122.722 409.679 120.478C409.688 115.952 409.938 111.407 409.053 106.909C408.677 105.016 408.704 103.037 408.4 101.124C408.077 99.1166 407.648 97.1093 407.129 95.1493C406.691 93.4923 405.966 91.9394 405.823 90.1877C405.788 89.6954 405.618 89.2124 405.439 88.7485C404.795 87.0631 404.177 85.3682 403.453 83.7301C402.531 81.6376 401.655 79.5071 400.501 77.5566C399.258 75.4545 397.799 73.4756 396.288 71.5724C394.624 69.4988 392.817 67.5482 391.028 65.5977C390.259 64.755 389.248 64.1301 388.55 63.2305C386.904 61.1285 384.641 59.8408 382.754 58.0702C382.118 57.4642 381.474 56.8582 380.777 56.3469C379.301 55.258 377.753 54.2732 376.295 53.1749C374.202 51.6031 372.225 49.8798 369.872 48.6867C368.379 47.9293 367.064 46.7836 365.659 45.8178C365.301 45.5716 364.944 45.3159 364.568 45.1171C363.423 44.5016 362.26 43.924 361.133 43.2896C359.585 42.4185 358.065 41.5001 356.517 40.61C355.65 40.1082 354.746 39.7389 353.708 39.7673C353.172 39.7768 352.608 39.559 352.089 39.3507C350.193 38.5743 348.458 37.3055 346.311 37.3339C346.069 37.3339 345.837 37.1256 345.595 37.0498C345.103 36.8889 344.602 36.7658 344.119 36.6143C343.591 36.4438 343.073 36.2544 342.545 36.0651C341.024 35.5159 339.664 34.3986 337.92 34.6259C337.768 34.6448 337.58 34.5596 337.428 34.4838C336.131 33.8115 334.682 33.537 333.492 32.5428C332.848 32.003 331.936 31.8137 331.14 31.4728C330.746 31.3024 330.335 31.1603 329.932 30.9994C327.884 30.1945 325.889 29.2193 323.787 28.6322C321.693 28.0452 319.77 27.1362 317.82 26.1988C316.147 25.3939 314.421 24.6932 312.507 24.8163C312.095 24.8447 311.63 24.7406 311.263 24.5418C310.557 24.1441 309.832 23.9831 309.045 23.9547C308.58 23.9358 308.106 23.8221 307.667 23.6422C305.574 22.7711 303.32 22.7048 301.146 22.2693C299.268 21.8905 297.327 21.9379 295.457 21.4077C294.437 21.1236 293.346 21.133 292.29 20.9721C290.734 20.7354 289.178 20.3377 287.612 20.2525C284.186 20.0821 280.76 20.0631 277.325 19.9779C273.55 19.8832 269.784 19.7317 266.009 19.7033C264.694 19.6938 263.397 19.476 262.065 19.495C260.437 19.5234 258.808 18.8227 257.127 18.8133C256.966 18.8133 256.796 18.7091 256.635 18.6617C255.561 18.3682 254.497 17.9327 253.415 17.838C252.439 17.7527 251.581 17.4687 250.704 17.09C250.311 16.9195 249.881 16.7586 249.47 16.7586C248.718 16.7586 248.065 16.4934 247.376 16.2378C244.764 15.272 242.215 14.7133 239.836 17.09C238.95 17.9705 237.617 18.3588 236.356 17.6392C234.871 16.787 233.234 16.7207 231.633 16.5597C227.5 16.1336 223.341 16.8343 219.19 16.1147C217.07 15.7454 214.861 16.0674 212.669 15.7549C210.701 15.4709 208.653 15.8117 206.631 15.8685C206.202 15.878 205.781 15.8306 205.352 15.8211C203.294 15.8211 201.237 15.7833 199.18 15.8401C198.527 15.859 197.891 16.0674 197.194 16.0863C196.093 16.1147 195.011 16.2756 193.929 15.9442C193.857 15.9253 193.759 15.9632 193.678 15.9822C192.676 16.1905 191.675 16.465 190.655 16.5881C189.295 16.7491 187.9 16.9858 186.567 16.8059C185.44 16.6544 184.474 16.8248 183.427 17.1278C182.533 17.3929 181.575 17.4687 180.645 17.6012C179.751 17.7243 178.856 17.8474 177.962 17.9043C177.335 17.9421 176.709 17.8853 176.074 17.8759C175.743 17.8759 175.314 17.7338 175.099 17.9043C174.267 18.5481 173.337 18.4913 172.389 18.5481C171.709 18.586 171.047 18.8417 170.376 18.9742C169.544 19.1352 168.703 19.334 167.862 19.4003C166.708 19.495 165.519 19.3246 164.401 19.5424C162.415 19.9306 160.411 20.0158 158.407 20.1767C156.529 20.3282 154.623 20.3188 152.772 20.6502C151.01 20.9626 149.283 21.5213 147.458 21.4266C147.145 21.4077 146.787 21.5876 146.492 21.758C145.884 22.1178 145.276 22.4208 144.542 22.2977C144.381 22.2693 144.157 22.2788 144.05 22.3735C143.308 22.9984 142.431 22.8279 141.59 22.9321C140.535 23.0552 139.479 23.3014 138.441 23.557C137.109 23.8885 135.812 24.5323 134.47 24.6081C132.815 24.7027 131.276 25.1951 129.702 25.5644C129.076 25.7159 128.414 25.6875 127.797 25.8484C125.48 26.4639 123.172 27.1551 120.855 27.7611C120.301 27.9031 119.683 27.8084 119.102 27.8558C118.52 27.9031 117.796 27.7706 117.375 28.0925C116.105 29.0678 114.594 29.2098 113.18 29.6643C112.5 29.8821 111.722 29.7685 111.024 29.9389C109.235 30.3744 107.563 31.3024 105.666 31.2456C105.299 31.2361 104.906 31.416 104.575 31.6149C103.716 32.1262 102.804 32.2303 101.838 32.2303C101.346 32.2303 100.782 32.3155 100.38 32.5806C99.7892 32.9688 99.2167 33.0257 98.5547 33.0067C97.6244 32.9783 96.5868 32.8458 95.8354 33.5086C94.923 34.3134 93.8137 34.5217 92.7672 34.7963C90.3877 35.4212 88.0709 36.1503 85.9241 37.4096C85.7362 37.5138 85.5215 37.5801 85.3158 37.6179C83.8398 37.8546 82.5785 38.6216 81.2725 39.3034C80.6016 39.6537 79.8324 39.843 79.0988 40.0229C78.1685 40.2597 77.274 40.4206 76.8178 41.5285C76.6568 41.9167 76.138 42.2007 75.7265 42.3901C73.034 43.6494 70.2789 44.7573 67.7116 46.3006C67.0049 46.7267 66.2177 46.9824 65.511 47.399C63.9814 48.2985 62.4697 49.2549 60.949 50.1733C60.287 50.5805 59.5893 50.9213 58.9274 51.3474C58.0865 51.8871 57.2814 52.4837 56.4674 53.0612C55.7607 53.5631 55.0809 54.1123 54.3563 54.5952C53.9001 54.8982 53.4171 55.2485 52.9072 55.3621C52.3526 55.4852 51.9948 55.6272 51.7533 56.2427C51.5923 56.6593 51.2076 57.0949 50.823 57.2843C49.8927 57.7577 48.9713 58.1743 48.533 59.2916C48.4525 59.5094 48.1394 59.6325 47.9247 59.7745C46.6545 60.6456 45.5274 61.6777 44.6687 63.0223C44.3377 63.5336 43.8546 63.9407 43.4163 64.3857C42.7097 65.1054 41.9851 65.7966 41.2874 66.5257C40.3392 67.5104 39.5162 68.675 38.4428 69.4704C37.3962 70.2468 36.5553 71.1463 35.7682 72.1689C35.1152 73.0022 34.3995 73.7881 33.675 74.555C33.0756 75.1989 32.3958 75.7576 31.8054 76.4109C30.7409 77.585 29.7033 78.797 28.6656 79.9995C28.3168 80.3972 28.0037 80.8327 27.6638 81.2399C26.9839 82.0542 26.3578 82.9253 25.5974 83.6449C23.6653 85.4818 22.1625 87.6975 20.6239 89.8753C19.8814 90.9263 19.1927 92.0247 18.5754 93.1609C17.5915 94.9599 16.7148 96.8252 15.7398 98.6242C15.0152 99.9688 14.4159 101.361 13.9597 102.838C13.1636 105.423 12.3496 108.008 11.455 110.564C10.3727 113.67 9.39763 116.785 8.7983 120.061C8.21686 123.205 8.35103 126.282 8.75357 129.388C8.8788 130.373 8.86986 131.395 9.12032 132.342C9.47813 133.649 10.0327 134.889 10.4889 136.158C10.811 137.057 11.3208 137.815 11.9112 138.553C12.5016 139.311 13.0204 140.191 13.3514 141.11C13.8702 142.53 14.6216 143.771 15.4535 144.983C15.6772 145.314 15.9187 145.636 16.0976 145.996C17.1621 148.164 18.1818 150.361 19.2821 152.501C20.3824 154.65 21.9299 156.525 22.8155 158.807C22.896 159.015 23.0212 159.205 23.1554 159.384C24.3093 160.956 25.4901 162.509 26.6172 164.109C27.6906 165.624 28.6746 167.224 30.2668 168.247C30.571 168.446 30.7499 168.863 30.9735 169.194C31.4387 169.895 31.8501 170.633 32.691 170.965C32.9951 171.088 33.2009 171.514 33.4424 171.817C33.6929 172.12 33.9076 172.451 34.1759 172.726C34.6053 173.161 35.1152 173.53 35.5087 174.004C36.2333 174.856 37.0026 175.614 38.085 175.964C38.4338 176.078 38.7559 176.381 39.0332 176.646C40.3392 177.896 41.6273 179.145 42.9065 180.424C43.47 180.982 44.0514 181.541 44.4808 182.204C45.1785 183.283 45.9299 184.221 47.1197 184.694C47.388 184.798 47.6385 185.025 47.8532 185.234C48.7745 186.114 49.6601 187.023 50.5904 187.894C50.9035 188.188 51.2881 188.406 51.6638 188.623C53.6586 189.769 55.8144 190.555 57.7287 191.89C58.9721 192.752 60.3228 193.5 61.7093 194.096C64.3034 195.204 66.8081 196.445 69.1518 198.073C70.1357 198.755 71.2002 199.418 72.4525 199.484C72.7388 199.503 73.034 199.645 73.3113 199.759C75.1182 200.459 76.9252 201.151 78.7231 201.87C79.564 202.211 80.378 202.628 81.2099 202.968C82.6769 203.565 84.1171 204.341 85.6378 204.654C86.9528 204.928 88.0709 205.43 89.1622 206.178C89.4753 206.396 89.8421 206.585 90.1999 206.652C92.3467 207.049 94.5025 207.39 96.6494 207.769C97.3203 207.883 98.0001 208.015 98.6621 208.167C99.6192 208.394 100.585 208.886 101.525 208.839C102.956 208.773 104.271 208.972 105.639 209.379C107.106 209.824 108.717 209.578 110.13 210.382C110.336 210.496 110.631 210.458 110.89 210.468C112.983 210.581 115.094 210.572 117.125 211.263C117.653 211.443 118.297 211.386 118.717 211.699C119.692 212.428 120.667 212.219 121.508 211.699C122.913 210.818 124.192 211.064 125.551 211.727C126.034 211.964 126.634 212.106 127.153 212.039C128.468 211.869 129.756 211.566 131.062 211.301C131.187 211.272 131.321 211.225 131.411 211.14C132.242 210.401 132.976 210.685 133.718 211.31C134.21 211.717 134.738 211.897 135.391 211.604C136.16 211.254 136.957 211.206 137.762 211.623C137.994 211.746 138.343 211.689 138.62 211.632C140.186 211.329 140.66 211.575 141.232 213.166C141.456 213.791 141.796 214.132 142.44 214.198C144.784 214.435 147.118 214.71 149.462 214.946C149.847 214.984 150.267 215.041 150.616 214.918C151.609 214.577 152.539 214.302 153.291 215.429C153.398 215.6 153.774 215.619 154.024 215.628C154.704 215.647 155.393 215.628 156.073 215.619C156.412 215.619 156.779 215.514 157.083 215.619C158.658 216.177 160.098 216.092 161.341 214.785C161.458 214.662 161.61 214.558 161.762 214.473C162.62 213.952 163.059 214.047 163.774 214.823C163.971 215.041 164.231 215.316 164.481 215.334C165.071 215.382 165.546 215.552 165.921 216.073C166.029 216.225 166.458 216.291 166.61 216.187C167.335 215.675 168.068 215.874 168.846 215.95C169.786 216.045 170.734 216.026 171.673 216.045C172.29 216.054 172.845 215.95 173.247 215.334C173.382 215.126 173.847 215.022 174.115 215.088C174.491 215.183 174.607 215.543 174.401 215.959C174.348 216.073 174.401 216.234 174.401 216.471C174.634 216.348 174.777 216.31 174.858 216.225C175.931 215.003 177.192 214.861 178.623 215.42C178.937 215.543 179.375 215.439 179.715 215.325C180.368 215.107 181.039 215.003 181.54 215.514C182.434 216.442 183.418 216.234 184.411 215.912C185.35 215.609 186.191 215.874 186.969 216.338C187.855 216.868 187.81 216.897 188.606 216.225C188.919 215.959 189.358 215.6 189.698 215.647C191.039 215.827 192.354 216.139 193.884 216.442C193.786 216.49 193.929 216.461 194.009 216.376C194.832 215.505 195.763 215.353 196.845 215.77C197.274 215.94 197.775 215.931 198.24 215.94C199.189 215.959 200.128 215.884 201.076 215.94C201.577 215.969 202.203 215.997 202.534 216.31C203.965 217.692 205.647 217.332 207.186 216.973C208.635 216.632 210.048 216.584 211.497 216.518C212.624 216.471 213.769 216.717 214.887 216.262C215.433 216.035 216.068 215.836 216.632 215.912C218.322 216.13 219.959 215.761 221.623 215.666C222.509 215.619 223.403 215.732 224.289 215.836C224.745 215.893 224.987 216.253 225.148 216.736C225.416 217.541 225.649 217.702 226.239 217.313C227.581 216.433 228.994 215.903 230.586 215.978C230.712 215.978 230.837 215.922 230.962 215.893C232.295 215.6 233.708 215.817 234.996 215.192C235.104 215.136 235.247 215.174 235.381 215.174C237.268 215.164 239.165 215.164 241.052 215.145C241.732 215.145 242.269 215.372 242.788 215.874C243.092 216.168 243.619 216.329 244.049 216.329C244.89 216.329 245.722 215.978 246.571 216.442C246.768 216.546 247.144 216.338 247.412 216.225C248.933 215.571 250.507 215.505 252.1 215.713C253.03 215.836 253.906 215.77 254.747 215.382C255.508 215.031 256.214 215.126 257.002 215.316C258.29 215.619 259.614 215.912 260.92 215.922C262.351 215.94 263.773 215.514 265.213 215.94C265.365 215.988 265.562 215.959 265.723 215.912C267.45 215.363 269.221 215.174 271.001 215.041C272.709 214.908 274.409 214.728 276.118 214.605C277.057 214.539 278.005 214.586 278.944 214.501C280.858 214.312 282.764 214.047 284.678 213.848C285.984 213.715 287.299 213.668 288.605 213.573C288.73 213.573 288.855 213.498 288.981 213.469C290.394 213.128 291.816 212.825 293.221 212.428C294.992 211.926 296.915 212.238 298.597 211.244C298.767 211.14 299.017 211.178 299.232 211.14C301.119 210.808 303.016 210.524 304.778 209.644C305.109 209.483 305.556 209.369 305.887 209.473C306.818 209.767 307.569 209.36 308.347 208.972C309.385 208.451 310.422 207.921 311.451 207.381C312.569 206.803 313.679 206.216 314.797 205.648C315.181 205.449 315.575 205.279 315.977 205.108C317.337 204.55 318.715 204.038 320.039 203.414C320.835 203.035 321.559 202.476 322.427 201.927C323.599 202.202 324.636 202.088 326.005 201.501C327.159 201.008 328.313 200.516 329.485 200.081C331.873 199.19 334.27 198.338 336.659 197.458C336.918 197.363 337.204 197.174 337.348 196.927C337.446 196.767 337.294 196.454 337.294 196.426C337.67 196 337.947 195.687 338.206 195.375C338.636 194.873 339.002 194.93 339.235 195.564C339.307 195.763 339.333 195.981 339.405 196.312C340.174 196.047 340.836 195.753 341.534 195.592C342.223 195.441 342.607 195.1 342.679 194.352C342.742 193.784 343.064 193.576 343.591 193.386C345.702 192.638 347.805 191.862 349.853 190.953C350.712 190.574 351.365 190.347 351.901 191.35L351.875 191.407ZM24.1751 174.26C24.0052 173.815 23.9247 173.351 23.6832 173.019C22.5739 171.476 21.4111 169.961 20.284 168.436C19.9172 167.935 19.5147 167.452 19.2195 166.912C18.2445 165.056 17.3142 163.181 16.357 161.316C16.035 160.691 15.704 160.066 15.3641 159.46C14.7916 158.447 14.1744 157.472 13.6377 156.44C13.0204 155.247 12.5016 154.006 11.9023 152.813C11.5624 152.131 11.0883 151.573 10.2206 151.222C10.2206 151.649 10.1311 151.989 10.2385 152.236C11.1509 154.423 11.5982 156.828 12.931 158.826C13.2262 159.271 13.414 159.782 13.6556 160.265C13.9865 160.947 14.2728 161.666 14.6574 162.31C15.4088 163.57 16.2049 164.81 17.01 166.031C17.5915 166.921 18.1818 167.811 18.8259 168.645C19.5594 169.582 20.4092 170.425 21.1427 171.362C21.7689 172.158 22.2966 173.038 22.8781 173.881C23.1286 174.25 23.3969 174.629 24.1662 174.269L24.1751 174.26ZM415.171 103.614C415.073 103.643 414.974 103.671 414.876 103.699C414.876 104.41 414.813 105.12 414.894 105.811C415.001 106.748 415.305 107.676 415.35 108.614C415.475 111.009 416.298 113.291 416.191 115.715C416.155 116.615 416.289 117.514 416.361 118.414C416.388 118.698 416.459 118.982 416.522 119.323C417.139 118.773 417.166 118.783 417.246 118.224C417.372 117.419 417.488 116.615 417.551 115.81C417.604 115.147 417.658 114.456 417.559 113.802C417.202 111.35 416.79 108.898 416.379 106.455C416.2 105.394 415.887 104.391 415.162 103.605L415.171 103.614ZM336.766 20.8396C336.283 19.7507 335.585 19.6465 334.932 19.4382C334.208 19.2014 333.501 18.9079 332.777 18.6617C332.455 18.5481 332.115 18.4913 331.784 18.4061C331.417 18.3114 331.041 18.2262 330.674 18.1031C329.449 17.696 328.241 17.2509 327.007 16.8722C326.792 16.8059 326.515 16.9669 326.202 17.0426C326.882 17.98 327.311 18.1978 328.429 18.4913C330.245 18.9647 332.141 19.1352 333.823 20.1388C334.378 20.4702 335.013 20.6502 335.63 20.8301C335.916 20.9153 336.238 20.849 336.766 20.849V20.8396ZM161.359 218.27C160.286 217.787 159.418 217.351 158.524 217.02C158.354 216.954 157.942 217.19 157.844 217.399C157.647 217.777 157.71 218.289 158.175 218.383C159.042 218.563 159.928 218.639 160.814 218.715C160.93 218.724 161.064 218.525 161.368 218.27H161.359ZM124.031 212.674C124.102 213.374 124.451 213.583 124.916 213.621C125.355 213.649 125.739 213.185 125.668 212.731C125.587 212.248 125.238 212.191 124.881 212.286C124.576 212.371 124.299 212.551 124.031 212.674ZM340.407 21.5591C340.353 21.6443 340.3 21.7296 340.246 21.8148C340.756 22.9226 341.006 23.0362 341.945 22.4018C341.382 22.0989 340.899 21.8337 340.416 21.5686L340.407 21.5591ZM164.427 217.56C164.195 217.91 164.043 218.118 163.9 218.336C164.159 218.506 164.409 218.772 164.687 218.809C164.848 218.828 165.054 218.478 165.232 218.298C165 218.09 164.767 217.882 164.418 217.56H164.427ZM337.365 20.7448C337.661 21.3603 337.875 21.7107 338.439 21.3698C338.212 21.0226 337.854 20.8143 337.365 20.7448ZM325.057 16.7964C324.932 16.6828 324.851 16.5408 324.771 16.5408C324.69 16.5408 324.556 16.6923 324.556 16.7775C324.556 16.8722 324.681 17.0142 324.771 17.0237C324.842 17.0331 324.941 16.8911 325.057 16.787V16.7964Z" fill="#FFFDF8"/>
<path d="M61.6227 90.296C61.0787 89.912 60.3267 89.368 59.3667 88.664C58.4067 87.928 57.7027 87.4 57.2547 87.08C57.5107 86.792 57.8627 86.312 58.3107 85.64C58.7907 84.936 59.2227 84.36 59.6067 83.912C60.0227 83.464 60.4547 83.16 60.9027 83C67.9107 80.728 74.8547 80.024 81.7347 80.888C82.0867 80.952 82.4547 81.144 82.8387 81.464C83.2227 81.784 83.6387 82.216 84.0867 82.76C84.5667 83.272 84.9187 83.64 85.1427 83.864C85.1107 84.024 85.0307 84.28 84.9027 84.632C84.7747 84.952 84.6787 85.192 84.6147 85.352C83.9427 85.416 82.9027 85.528 81.4947 85.688C80.0867 85.816 78.8227 85.944 77.7027 86.072C76.6147 86.2 75.5907 86.36 74.6307 86.552C73.6387 86.712 72.9187 86.84 72.4707 86.936C72.0227 87 71.4947 87.144 70.8867 87.368C70.2787 87.56 69.8627 87.704 69.6387 87.8C69.4467 87.864 69.1747 88.104 68.8227 88.52C68.5027 88.904 68.2947 89.208 68.1987 89.432C68.1347 89.624 67.9907 90.072 67.7667 90.776C67.5747 91.48 67.4307 92.072 67.3347 92.552C67.2707 93 67.1427 93.784 66.9507 94.904C67.2707 94.936 67.8147 94.968 68.5827 95C69.3507 95.032 70.0067 95.08 70.5507 95.144C71.1267 95.176 71.6707 95.24 72.1827 95.336C72.6307 95.464 73.1107 95.736 73.6227 96.152C74.1667 96.536 74.4227 96.872 74.3907 97.16C74.3587 98.152 73.8307 99.176 72.8067 100.232C72.6147 100.456 72.1827 100.632 71.5107 100.76C70.8707 100.856 70.4707 100.936 70.3107 101C69.1907 101.384 68.3107 101.72 67.6707 102.008C67.0627 102.264 66.5187 102.6 66.0387 103.016C65.5587 103.432 65.2387 103.832 65.0787 104.216C64.9507 104.568 64.9187 105.096 64.9827 105.8C65.0467 106.504 65.1907 107.24 65.4147 108.008C65.6707 108.744 66.0547 109.736 66.5667 110.984C71.6547 109.48 75.9267 109.976 79.3827 112.472C79.5427 112.568 79.6387 112.808 79.6707 113.192C79.7347 113.544 79.7507 113.912 79.7187 114.296C79.6867 114.648 79.6867 115.016 79.7187 115.4C78.6947 115.624 77.0307 115.992 74.7267 116.504C72.4547 117.016 70.4867 117.448 68.8227 117.8C67.1907 118.152 65.6067 118.472 64.0707 118.76C62.2467 119.112 60.9667 118.92 60.2307 118.184C59.4947 117.448 59.2067 116.088 59.3667 114.104C59.3987 113.464 59.3827 112.376 59.3187 110.84C59.2867 109.304 59.3187 108.216 59.4147 107.576C59.5747 106.008 60.3107 100.248 61.6227 90.296ZM121.74 88.712C121.548 89.896 121.292 91.384 120.972 93.176C120.684 94.968 120.428 96.472 120.204 97.688C120.012 98.872 119.804 100.296 119.58 101.96C119.356 103.592 119.196 105.064 119.1 106.376C119.004 107.688 118.956 109.144 118.956 110.744C118.956 112.344 119.02 113.88 119.148 115.352C118.892 115.672 118.364 116.312 117.564 117.272C116.764 118.2 116.14 118.92 115.692 119.432C114.444 119.176 113.5 118.712 112.86 118.04C112.252 117.368 111.932 116.616 111.9 115.784C111.868 114.952 111.884 114.04 111.948 113.048C112.14 111.288 112.348 109.416 112.572 107.432C112.828 105.448 113.1 103.288 113.388 100.952C113.676 98.584 113.9 96.712 114.06 95.336C114.092 95.048 114.268 93.32 114.588 90.152C109.532 91.144 106.348 91.752 105.036 91.976C104.78 92.04 104.332 92.168 103.692 92.36C103.052 92.52 102.492 92.632 102.012 92.696C101.564 92.728 101.132 92.712 100.716 92.648C100.204 92.584 99.6757 92.312 99.1317 91.832C98.5877 91.32 98.2517 90.824 98.1237 90.344C98.0277 89.896 98.1077 89.352 98.3637 88.712C98.6197 88.072 98.9557 87.544 99.3717 87.128C100.14 86.392 101.26 85.864 102.732 85.544C112.62 83.528 119.692 82.184 123.948 81.512C124.076 81.48 124.268 81.448 124.524 81.416C125.42 81.256 126.124 81.16 126.636 81.128C127.148 81.064 127.788 81.048 128.556 81.08C129.356 81.08 130.06 81.24 130.668 81.56C131.308 81.848 131.9 82.264 132.444 82.808C132.924 83.352 133.34 83.992 133.692 84.728C134.044 85.464 134.14 86.072 133.98 86.552C133.852 87 133.42 87.448 132.684 87.896C131.98 88.312 131.292 88.552 130.62 88.616C129.788 88.712 128.908 88.776 127.98 88.808C127.052 88.808 125.932 88.792 124.62 88.76C123.308 88.728 122.348 88.712 121.74 88.712ZM166.539 100.376C167.435 101.048 168.859 102.12 170.811 103.592C172.763 105.064 174.251 106.184 175.275 106.952C175.435 106.728 175.755 106.312 176.235 105.704C176.715 105.064 177.099 104.552 177.387 104.168C177.835 108.328 178.059 110.536 178.059 110.792C178.155 112.04 177.883 113.112 177.243 114.008C176.635 114.872 175.787 115.4 174.699 115.592C173.515 115.784 171.867 115.272 169.755 114.056C168.571 113.352 166.859 112.28 164.619 110.84C162.379 109.368 160.715 108.312 159.627 107.672C159.307 107.576 159.051 107.528 158.859 107.528C158.667 107.528 158.347 107.576 157.899 107.672C157.451 107.736 157.147 107.768 156.987 107.768C156.571 108.376 156.331 109.064 156.267 109.832C156.235 110.6 156.315 111.336 156.507 112.04C156.731 112.744 156.907 113.496 157.035 114.296C157.163 115.096 157.211 115.848 157.179 116.552C157.179 117.256 156.907 117.976 156.363 118.712C155.851 119.416 155.051 120.04 153.963 120.584C153.739 120.232 153.323 119.704 152.715 119C152.139 118.296 151.659 117.64 151.275 117.032C150.923 116.424 150.699 115.816 150.603 115.208C148.971 104.68 147.835 95.464 147.195 87.56C147.099 86.408 147.099 85.496 147.195 84.824C147.291 84.152 147.563 83.608 148.011 83.192C148.491 82.776 149.051 82.488 149.691 82.328C150.363 82.136 151.323 81.976 152.571 81.848C158.235 81.24 162.267 80.888 164.667 80.792C167.515 80.664 169.467 81.272 170.523 82.616C171.611 83.928 171.771 85.928 171.003 88.616C170.683 89.768 170.283 90.952 169.803 92.168C169.355 93.384 168.779 94.84 168.075 96.536C167.403 98.232 166.891 99.512 166.539 100.376ZM165.531 87.608C160.411 88.376 157.691 88.792 157.371 88.856C156.091 89.112 155.115 89.624 154.443 90.392C153.803 91.16 153.643 92.152 153.963 93.368C154.667 96.024 155.643 97.72 156.891 98.456C157.563 98.84 158.219 98.952 158.859 98.792C159.531 98.632 160.123 98.312 160.635 97.832C161.179 97.32 161.627 96.696 161.979 95.96C162.171 95.544 163.355 92.76 165.531 87.608ZM195.423 90.296C194.879 89.912 194.127 89.368 193.167 88.664C192.207 87.928 191.503 87.4 191.055 87.08C191.311 86.792 191.663 86.312 192.111 85.64C192.591 84.936 193.023 84.36 193.407 83.912C193.823 83.464 194.255 83.16 194.703 83C201.711 80.728 208.655 80.024 215.535 80.888C215.887 80.952 216.255 81.144 216.639 81.464C217.023 81.784 217.439 82.216 217.887 82.76C218.367 83.272 218.719 83.64 218.943 83.864C218.911 84.024 218.831 84.28 218.703 84.632C218.575 84.952 218.479 85.192 218.415 85.352C217.743 85.416 216.703 85.528 215.295 85.688C213.887 85.816 212.623 85.944 211.503 86.072C210.415 86.2 209.391 86.36 208.431 86.552C207.439 86.712 206.719 86.84 206.271 86.936C205.823 87 205.295 87.144 204.687 87.368C204.079 87.56 203.663 87.704 203.439 87.8C203.247 87.864 202.975 88.104 202.623 88.52C202.303 88.904 202.095 89.208 201.999 89.432C201.935 89.624 201.791 90.072 201.567 90.776C201.375 91.48 201.231 92.072 201.135 92.552C201.071 93 200.943 93.784 200.751 94.904C201.071 94.936 201.615 94.968 202.383 95C203.151 95.032 203.807 95.08 204.351 95.144C204.927 95.176 205.471 95.24 205.983 95.336C206.431 95.464 206.911 95.736 207.423 96.152C207.967 96.536 208.223 96.872 208.191 97.16C208.159 98.152 207.631 99.176 206.607 100.232C206.415 100.456 205.983 100.632 205.311 100.76C204.671 100.856 204.271 100.936 204.111 101C202.991 101.384 202.111 101.72 201.471 102.008C200.863 102.264 200.319 102.6 199.839 103.016C199.359 103.432 199.039 103.832 198.879 104.216C198.751 104.568 198.719 105.096 198.783 105.8C198.847 106.504 198.991 107.24 199.215 108.008C199.471 108.744 199.855 109.736 200.367 110.984C205.455 109.48 209.727 109.976 213.183 112.472C213.343 112.568 213.439 112.808 213.471 113.192C213.535 113.544 213.551 113.912 213.519 114.296C213.487 114.648 213.487 115.016 213.519 115.4C212.495 115.624 210.831 115.992 208.527 116.504C206.255 117.016 204.287 117.448 202.623 117.8C200.991 118.152 199.407 118.472 197.871 118.76C196.047 119.112 194.767 118.92 194.031 118.184C193.295 117.448 193.007 116.088 193.167 114.104C193.199 113.464 193.183 112.376 193.119 110.84C193.087 109.304 193.119 108.216 193.215 107.576C193.375 106.008 194.111 100.248 195.423 90.296ZM255.54 88.712C255.348 89.896 255.092 91.384 254.772 93.176C254.484 94.968 254.228 96.472 254.004 97.688C253.812 98.872 253.604 100.296 253.38 101.96C253.156 103.592 252.996 105.064 252.9 106.376C252.804 107.688 252.756 109.144 252.756 110.744C252.756 112.344 252.82 113.88 252.948 115.352C252.692 115.672 252.164 116.312 251.364 117.272C250.564 118.2 249.94 118.92 249.492 119.432C248.244 119.176 247.3 118.712 246.66 118.04C246.052 117.368 245.732 116.616 245.7 115.784C245.668 114.952 245.684 114.04 245.748 113.048C245.94 111.288 246.148 109.416 246.372 107.432C246.628 105.448 246.9 103.288 247.188 100.952C247.476 98.584 247.7 96.712 247.86 95.336C247.892 95.048 248.068 93.32 248.388 90.152C243.332 91.144 240.148 91.752 238.836 91.976C238.58 92.04 238.132 92.168 237.492 92.36C236.852 92.52 236.292 92.632 235.812 92.696C235.364 92.728 234.932 92.712 234.516 92.648C234.004 92.584 233.476 92.312 232.932 91.832C232.388 91.32 232.052 90.824 231.924 90.344C231.828 89.896 231.908 89.352 232.164 88.712C232.42 88.072 232.756 87.544 233.172 87.128C233.94 86.392 235.06 85.864 236.532 85.544C246.42 83.528 253.492 82.184 257.748 81.512C257.876 81.48 258.068 81.448 258.324 81.416C259.22 81.256 259.924 81.16 260.436 81.128C260.948 81.064 261.588 81.048 262.356 81.08C263.156 81.08 263.86 81.24 264.468 81.56C265.108 81.848 265.7 82.264 266.244 82.808C266.724 83.352 267.14 83.992 267.492 84.728C267.844 85.464 267.94 86.072 267.78 86.552C267.652 87 267.22 87.448 266.484 87.896C265.78 88.312 265.092 88.552 264.42 88.616C263.588 88.712 262.708 88.776 261.78 88.808C260.852 88.808 259.732 88.792 258.42 88.76C257.108 88.728 256.148 88.712 255.54 88.712ZM283.107 105.992C283.907 105 285.075 103.608 286.611 101.816C288.147 100.024 289.395 98.536 290.355 97.352C291.347 96.136 292.291 94.968 293.187 93.848C293.923 92.888 295.331 91 297.411 88.184C299.491 85.336 301.155 83.176 302.403 81.704C303.587 80.328 304.867 79.448 306.243 79.064C307.619 78.68 308.867 78.872 309.987 79.64C311.107 80.408 311.907 81.672 312.387 83.432C313.763 88.424 314.291 94.392 313.971 101.336C313.907 102.904 313.715 104.536 313.395 106.232C313.075 107.928 312.643 109.896 312.099 112.136C311.555 114.344 311.171 115.96 310.947 116.984C310.627 118.456 310.083 119.544 309.315 120.248C308.547 120.984 307.379 121.272 305.811 121.112C305.235 120.152 304.899 119.144 304.803 118.088C304.739 117.032 304.835 116.056 305.091 115.16C305.347 114.264 305.619 113.288 305.907 112.232C306.195 111.144 306.419 110.12 306.579 109.16C306.739 108.2 306.675 107.128 306.387 105.944C305.555 105.72 304.595 105.656 303.507 105.752C302.419 105.848 301.475 105.976 300.675 106.136C299.907 106.296 298.995 106.568 297.939 106.952C296.883 107.304 295.971 107.64 295.203 107.96C294.435 108.28 293.523 108.648 292.467 109.064C291.411 109.48 290.499 109.8 289.731 110.024C289.411 110.152 289.139 110.472 288.915 110.984C288.723 111.464 288.515 112.088 288.291 112.856C288.067 113.592 287.859 114.152 287.667 114.536C286.547 116.648 285.619 118.04 284.883 118.712C284.563 119 284.051 119.176 283.347 119.24C282.643 119.304 282.115 119.224 281.763 119C281.443 118.776 281.171 118.344 280.947 117.704C280.723 117.032 280.675 116.472 280.803 116.024C280.963 115.416 281.331 114.536 281.907 113.384C282.483 112.2 282.851 111.288 283.011 110.648C283.139 110.104 283.203 109.528 283.203 108.92C283.203 108.28 283.187 107.656 283.155 107.048C283.123 106.44 283.107 106.088 283.107 105.992ZM305.667 86.264C303.395 88.056 301.491 90.04 299.955 92.216C298.419 94.36 297.123 96.872 296.067 99.752C299.971 98.952 303.827 98.184 307.635 97.448C307.667 97.192 307.747 96.648 307.875 95.816C308.003 94.952 308.083 94.376 308.115 94.088C308.147 93.768 308.179 93.256 308.211 92.552C308.243 91.816 308.211 91.256 308.115 90.872C308.019 90.456 307.875 89.96 307.683 89.384C307.523 88.776 307.267 88.232 306.915 87.752C306.595 87.24 306.179 86.744 305.667 86.264ZM352.13 88.712C351.938 89.896 351.682 91.384 351.362 93.176C351.074 94.968 350.818 96.472 350.594 97.688C350.402 98.872 350.194 100.296 349.97 101.96C349.746 103.592 349.586 105.064 349.49 106.376C349.394 107.688 349.346 109.144 349.346 110.744C349.346 112.344 349.41 113.88 349.538 115.352C349.282 115.672 348.754 116.312 347.954 117.272C347.154 118.2 346.53 118.92 346.082 119.432C344.834 119.176 343.89 118.712 343.25 118.04C342.642 117.368 342.322 116.616 342.29 115.784C342.258 114.952 342.274 114.04 342.338 113.048C342.53 111.288 342.738 109.416 342.962 107.432C343.218 105.448 343.49 103.288 343.778 100.952C344.066 98.584 344.29 96.712 344.45 95.336C344.482 95.048 344.658 93.32 344.978 90.152C339.922 91.144 336.738 91.752 335.426 91.976C335.17 92.04 334.722 92.168 334.082 92.36C333.442 92.52 332.882 92.632 332.402 92.696C331.954 92.728 331.522 92.712 331.106 92.648C330.594 92.584 330.066 92.312 329.522 91.832C328.978 91.32 328.642 90.824 328.514 90.344C328.418 89.896 328.498 89.352 328.754 88.712C329.01 88.072 329.346 87.544 329.762 87.128C330.53 86.392 331.65 85.864 333.122 85.544C343.01 83.528 350.082 82.184 354.338 81.512C354.466 81.48 354.658 81.448 354.914 81.416C355.81 81.256 356.514 81.16 357.026 81.128C357.538 81.064 358.178 81.048 358.946 81.08C359.746 81.08 360.45 81.24 361.058 81.56C361.698 81.848 362.29 82.264 362.834 82.808C363.314 83.352 363.73 83.992 364.082 84.728C364.434 85.464 364.53 86.072 364.37 86.552C364.242 87 363.81 87.448 363.074 87.896C362.37 88.312 361.682 88.552 361.01 88.616C360.178 88.712 359.298 88.776 358.37 88.808C357.442 88.808 356.322 88.792 355.01 88.76C353.698 88.728 352.738 88.712 352.13 88.712Z" fill="#FFFDF8"/>
<path d="M298.013 153.256C295.613 150.433 295.558 146.961 294.293 144.114C293.087 141.38 292.446 138.343 291.243 135.491C289.241 141.234 290.329 147.373 288.659 153.349C288.262 153.445 287.61 153.612 286.911 153.787C286.771 153.3 286.591 152.976 286.606 152.672C286.854 150.025 287.103 147.378 287.425 144.745C287.909 140.847 288.435 136.973 288.948 133.08C288.966 132.964 288.983 132.848 289.001 132.732C289.264 131.298 290.041 130.507 291.352 130.43C292.71 130.345 293.02 131.427 293.379 132.586C294.839 137.277 296.349 141.944 297.841 146.624C298.006 147.15 298.22 147.651 298.982 148.272C299.228 147.057 299.518 145.85 299.701 144.64C300.363 140.57 300.895 136.459 301.676 132.412C301.911 131.16 302.141 129.243 304.407 129.824C304.317 130.42 304.268 130.94 304.116 131.44C303.051 134.734 302.631 138.116 302.435 141.626C302.263 144.475 301.586 147.331 300.763 150.04C300.404 151.2 299.121 151.998 297.981 153.266L298.013 153.256Z" fill="#FFFDF8"/>
<path d="M94.4473 131.738C95.0615 131.922 95.5491 132.133 96.0595 132.195C99.5127 132.71 101.436 134.846 102.551 138.586C104.38 144.779 102.525 149.954 98.6874 153.492C96.396 155.601 94.1581 155.741 91.5223 154.17C89.0004 152.654 87.6542 150.542 88.0575 147.174C88.7557 141.355 89.7584 135.747 94.4647 131.724L94.4473 131.738ZM90.4888 144.546C90.6349 144.591 90.781 144.635 90.9271 144.68C90.8876 145.849 90.6919 147.04 90.8433 148.159C91.3291 151.712 95.4042 153.47 97.7751 151.24C100.983 148.23 101.711 141.104 99.2187 137.173C97.0821 133.82 93.9546 133.981 92.4281 137.7C91.5515 139.853 91.1278 142.245 90.4913 144.529L90.4888 144.546Z" fill="#FFFDF8"/>
<path d="M260.471 145.081C260.994 141.326 261.299 137.496 263.11 134.121C265.247 130.108 269.622 129.381 272.596 132.653C274.379 134.609 276.05 136.595 276.465 139.606C277.051 143.809 274.609 150.646 271.312 152.632C269.193 153.904 266.758 154.74 264.487 153.084C261.968 151.245 260.015 148.899 260.484 145.1L260.471 145.081ZM274.512 140.994C274.811 139.022 273.269 136.992 271.598 135.006C269.173 132.144 267.089 132.177 265.478 135.642C264.162 138.479 263.125 141.591 262.591 144.713C262.149 147.324 263.949 149.266 265.882 150.534C267.399 151.52 269.158 151.408 270.551 150.085C272.733 147.99 274.228 145.391 274.527 140.997L274.512 140.994Z" fill="#FFFDF8"/>
<path d="M335.149 133.149C338.187 133.279 341.694 136.157 342.149 139.414C342.371 140.973 341.842 142.749 341.331 144.307C340.924 145.577 339.929 146.6 339.418 147.85C338.387 150.418 336.251 151.498 334.242 152.552C332.099 153.682 328.499 151.11 328.581 148.449C328.656 145.735 329.355 143.037 329.841 140.332C330.107 138.882 330.489 137.471 330.784 136.026C331.172 134.07 332.703 133.046 335.149 133.149ZM331.15 148.644C333.096 149.522 334.52 148.802 335.586 147.52C336.823 146.014 338.02 144.364 338.829 142.556C340.211 139.492 339.372 137.867 336.393 136.845C331.819 139.188 330.596 143.322 331.15 148.644Z" fill="#FFFDF8"/>
<path d="M345.371 152.142C345.949 149.437 347.539 148.424 348.897 147.231C351.382 145.057 353.54 142.617 354.61 139.187C355.446 136.497 355.063 135.897 352.526 135.895C351.059 135.892 349.948 136.364 349.043 137.694C348.511 138.48 347.764 139.072 347.036 139.839C345.993 138.653 346.414 137.795 346.859 136.873C348.176 134.137 351.713 132.076 354.413 132.517C356.608 132.863 357.365 133.722 357.176 136.176C356.896 139.84 355.797 143.162 353.353 145.77C352.332 146.856 351.327 147.945 350.306 149.032C350.402 149.306 350.498 149.579 350.597 149.837C353.375 149.662 356.168 149.489 358.978 149.303C358.679 152.486 358.547 152.752 356.503 152.826C353.611 152.946 350.732 152.982 347.835 152.93C347.072 152.923 346.334 152.443 345.374 152.125L345.371 152.142Z" fill="#FFFDF8"/>
<path d="M194.587 134.479C193.442 136.087 191.594 135.568 190.114 136.159C188.861 136.656 187.424 136.862 186.396 137.691C184.09 139.592 182.551 147.026 183.556 149.977C183.958 151.161 184.77 151.451 185.773 151.384C188.135 151.233 190.507 151.118 192.879 150.9C194.755 150.725 194.748 150.673 196.465 153.06C195.349 153.463 194.319 154.104 193.269 154.179C190.409 154.39 187.519 154.493 184.645 154.394C181.924 154.29 180.542 152.921 180.298 149.993C179.816 144.191 181.9 139.418 185.573 135.456C186.122 134.86 187.01 134.448 187.796 134.306C190.009 133.923 192.237 133.746 194.448 133.481C194.489 133.812 194.531 134.144 194.572 134.476L194.587 134.479Z" fill="#FFFDF8"/>
<path d="M70.7997 133.024C70.5806 134.773 69.5103 134.674 68.6429 134.749C66.6007 134.909 64.6223 135.457 63.4562 137.402C61.8997 140.007 60.6103 142.867 60.6112 146.089C60.6175 149.074 63.3057 151.713 66.0415 151.615C67.0699 151.587 68.0842 151.148 69.1052 151.068C70.156 150.993 71.2065 151.123 72.8765 151.199C70.7274 153.982 68.3382 154.214 66.1054 154.321C63.6544 154.456 61.397 153.212 59.6067 151.408C58.8648 150.654 58.2978 149.251 58.253 148.134C58.0708 142.678 59.3221 137.85 63.5267 134.414C65.7779 132.571 68.1717 132.512 70.7972 133.041L70.7997 133.024Z" fill="#FFFDF8"/>
<path d="M228.61 135.223C225.205 139.133 221.655 135.122 218.484 136.979C217.722 141.507 216.815 146.178 217.532 150.934C217.818 152.88 216.866 153.008 215.606 153.554C214.512 150.586 215.63 147.745 215.594 144.959C215.55 142.223 215.967 139.471 216.2 136.616C213.321 135.544 210.275 136.88 207.594 135.505C207.658 133.573 208.739 133.299 209.761 133.612C212.48 134.431 215.139 133.534 217.805 133.492C221.267 133.446 224.735 133.861 228.595 135.22L228.61 135.223Z" fill="#FFFDF8"/>
<path d="M154.284 153.8C154.072 153.078 153.635 152.331 153.709 151.646C154.262 146.379 154.934 141.135 155.544 135.999C161.026 134.424 163.909 134.166 166.905 135.175C165.635 135.992 164.791 136.72 163.828 137.118C162.98 137.469 161.991 137.436 161.079 137.605C156.813 138.421 156.393 139.074 156.98 144.283L161.219 144.452C160.539 147.631 158.038 146.784 156.308 147.805C155.791 149.805 155.791 152.226 154.192 153.902L154.301 153.786L154.284 153.8Z" fill="#FFFDF8"/>
<path d="M242.567 135.615C241.775 135.296 241.025 135 239.945 134.558C240.432 133.866 240.744 133.021 241.25 132.809C242.814 132.167 246.552 133.127 248.286 134.392C248.313 135.625 247.633 136.077 246.69 135.95C244.728 135.682 244.088 136.976 243.891 138.781C243.566 141.533 243.27 144.29 243.005 147.053C242.784 149.416 244.142 150.746 246.038 151.854C243.126 154.425 240.572 152.818 238.014 152.148C237.779 149.461 239.662 150.549 240.714 149.963C241.316 145.285 241.93 140.525 242.567 135.615Z" fill="#FFFDF8"/>
<path d="M116.894 151.777C118.479 151.411 119.642 151 120.799 150.928C121.954 150.873 123.115 151.177 124.644 151.38C124.139 152.291 123.984 152.91 123.714 152.978C120.731 153.695 117.747 154.325 114.618 154.997C114.494 154.104 114.321 153.628 114.399 153.216C115.634 146.68 116.869 140.144 118.19 133.642C118.3 133.117 119.104 132.757 119.595 132.338C119.735 132.927 120.081 133.572 119.968 134.114C119.134 138.509 118.184 142.865 117.335 147.257C117.074 148.572 117.052 149.932 116.88 151.775L116.894 151.777Z" fill="#FFFDF8"/>
<path d="M135.883 151.541C138.524 152.874 140.953 150.161 143.675 151.97C143.029 152.701 142.581 153.639 141.959 153.812C139.267 154.532 136.539 155.279 133.788 154.47C133.411 149.693 136.424 136.673 138.57 134.111C138.443 140.191 135.006 145.425 135.868 151.538L135.883 151.541Z" fill="#FFFDF8"/>
<path d="M154.175 153.914C158.861 152.752 163.522 151.346 168.69 153.054C166.887 154.965 165.13 155.366 163.096 155.272C160.833 155.17 158.563 155.526 156.286 155.625C155.193 155.674 154.115 155.523 154.27 153.796L154.16 153.911L154.175 153.914Z" fill="#FFFDF8"/>
</svg>
