<svg width="83" height="31" viewBox="0 0 83 31" fill="none" xmlns="http://www.w3.org/2000/svg">
<g clip-path="url(#clip0_3275_366)">
<path d="M78.3228 21.0038C76.3889 20.662 75.1211 19.0976 75.1624 17.102L75.2474 12.9319L73.7361 17.102C73.2653 18.4003 72.3121 19.5151 71.1361 20.2307C70.2909 20.7446 69.3469 20.9969 68.4351 21.0244L47.1758 21.7148L68.1709 22.4076C69.0713 22.4374 69.9188 22.6897 70.5665 23.2012C71.4692 23.9169 71.9951 25.0317 71.9699 26.33L71.8849 30.5001L73.3962 26.33C74.1197 24.3321 75.9847 22.7677 78.0495 22.4282L82.3606 21.7148L78.3205 21.0015L78.3228 21.0038Z" fill="#1C1C1C"/>
<path d="M24.5208 9.09431C23.8799 8.79841 23.0232 8.65161 21.9506 8.65161C21.1398 8.65161 20.3153 8.73648 19.4747 8.90622C18.6317 9.07138 17.8026 9.29617 16.9849 9.57372C16.4383 9.75952 15.933 9.96366 15.4185 10.1632C15.2072 9.70676 14.8856 9.33058 14.3688 9.09431C13.7303 8.79841 12.8667 8.65161 11.7803 8.65161C10.9971 8.65161 10.1909 8.73648 9.3595 8.90622C8.52806 9.07138 7.71269 9.30076 6.9111 9.58289C6.58955 9.69529 6.29326 9.82374 5.9809 9.94302L6.13938 8.90622H3.13515L0 18.1021H3.41765L5.40669 12.2666C6.18072 12.051 6.92488 11.8583 7.58407 11.723C8.34661 11.567 9.05632 11.4867 9.70632 11.4867C10.3127 11.4867 10.7858 11.5624 11.1326 11.7138C11.4772 11.8629 11.6977 12.0923 11.7941 12.3997C11.8883 12.707 11.8538 13.097 11.6931 13.5649L10.1473 18.1021H13.5673L15.3128 12.9892C15.407 12.7162 15.4323 12.4937 15.4897 12.2483C16.2706 12.0373 17.024 11.8446 17.69 11.7184C18.471 11.5693 19.1922 11.4913 19.8559 11.4913C20.4577 11.4913 20.9354 11.567 21.28 11.7184C21.6245 11.8698 21.8473 12.0969 21.9414 12.4043C22.0356 12.7116 22.0012 13.1016 21.8427 13.5695L20.2946 18.1066H23.7146L25.4579 12.9938C25.8116 11.9593 25.9034 11.1243 25.7335 10.4912C25.5635 9.85815 25.157 9.39251 24.5162 9.1012L24.5208 9.09431Z" fill="#1C1C1C"/>
<path d="M39.5884 8.89463C38.3091 8.76848 36.8736 8.70654 35.2819 8.70654C33.8947 8.70654 32.6268 8.85564 31.4761 9.15613C30.3231 9.45891 29.3332 9.96125 28.5086 10.6632C27.6841 11.3696 27.057 12.3422 26.6367 13.5832C26.2486 14.714 26.1659 15.6269 26.3841 16.3197C26.6 17.0101 27.0662 17.5124 27.7897 17.8175C28.5086 18.1249 29.4136 18.2786 30.5 18.2786C31.4164 18.2786 32.342 18.1845 33.2722 17.9987C34.2047 17.8106 35.1166 17.5698 36.0054 17.2762C36.4051 17.1431 36.7611 16.9894 37.14 16.8472L36.9655 18.0974H39.9697L42.9648 9.31669H42.9556L42.9716 9.29834C41.9955 9.15383 40.8678 9.0185 39.5907 8.89005L39.5884 8.89463ZM34.8111 15.2118C33.8303 15.3792 32.9369 15.4618 32.1284 15.4618C31.1385 15.4618 30.4908 15.3127 30.183 15.0122C29.8752 14.7094 29.8477 14.1933 30.098 13.457C30.2611 12.9753 30.516 12.5899 30.8537 12.3009C31.1936 12.0096 31.6254 11.7963 32.1468 11.6587C32.6728 11.521 33.2883 11.4499 34.0026 11.4499C34.7491 11.4499 35.53 11.4775 36.3476 11.5233C37.1653 11.5715 37.9462 11.6288 38.695 11.6931C38.7065 11.6931 38.718 11.6931 38.7294 11.6954L37.7579 14.5443C36.7243 14.8195 35.7344 15.0512 34.8111 15.2118Z" fill="#1C1C1C"/>
<path d="M51.9328 18.1364C52.9204 17.9942 53.8139 17.8291 54.6132 17.6479L54.8842 14.9389C54.1653 15.0696 53.428 15.1889 52.6815 15.299C51.9328 15.4068 51.1151 15.4596 50.2377 15.4596C49.5257 15.4596 48.9814 15.4022 48.6093 15.2807C48.2326 15.1591 48.0121 14.9458 47.9455 14.6476C47.8789 14.3494 47.9386 13.9319 48.1201 13.3997L48.7218 11.6312H55.92L56.8571 8.88555H49.6566L50.4697 6.5H47.7204L46.3125 8.88555H44.2476L43.3105 11.6312H45.2812L44.5554 13.7645C44.1741 14.8838 44.0961 15.7807 44.3165 16.4574C44.5416 17.1317 45.04 17.6157 45.821 17.9139C46.5996 18.2075 47.6423 18.3543 48.9446 18.3543C49.946 18.3543 50.9406 18.2832 51.9328 18.1364Z" fill="#1C1C1C"/>
<path d="M56.6869 16.2669C56.9671 16.9825 57.6034 17.5124 58.6002 17.8473C59.5947 18.1845 60.9659 18.3542 62.7161 18.3542C63.5016 18.3542 64.3192 18.3221 65.1782 18.2648C66.0395 18.2051 66.8664 18.1226 67.6726 18.0102C68.4742 17.9023 69.1816 17.7831 69.7948 17.65L69.9441 15.1934C69.5651 15.2415 69.0828 15.3058 68.4948 15.3838C67.9069 15.464 67.2293 15.5283 66.4622 15.5833C65.6973 15.6361 64.8567 15.6636 63.938 15.6636C63.0192 15.6636 62.2751 15.6315 61.7078 15.5741C61.1359 15.5145 60.7086 15.4021 60.4261 15.2392C60.1436 15.0787 59.9897 14.8424 59.9599 14.5351C59.953 14.4594 59.9691 14.3607 59.976 14.2736H71.0719C71.1109 14.191 71.166 14.0602 71.2372 13.8836C71.3084 13.7116 71.3865 13.5189 71.4692 13.317C71.5496 13.1106 71.6139 12.9363 71.6644 12.7918C71.9194 12.0463 71.9653 11.4063 71.8045 10.8742C71.6438 10.342 71.2946 9.91764 70.7687 9.58963C70.2404 9.26391 69.5537 9.02765 68.7107 8.87626C67.8678 8.72487 66.9031 8.64917 65.803 8.64917C64.2228 8.64917 62.8309 8.81432 61.6343 9.14692C60.4376 9.47952 59.4362 10.0002 58.6323 10.7113C57.8284 11.4224 57.2336 12.3491 56.8431 13.4937C56.4573 14.6268 56.4067 15.5489 56.6869 16.2669ZM62.4473 11.154C63.0698 11.0072 63.8897 10.9292 64.9026 10.9292C66.051 10.9292 66.8848 11.0049 67.413 11.154C67.939 11.3054 68.2514 11.5439 68.3478 11.8697C68.3984 12.0486 68.4007 12.2642 68.3708 12.5005H60.5548C60.688 12.2734 60.835 12.0715 60.998 11.9041C61.3403 11.5554 61.8203 11.3054 62.4473 11.154Z" fill="#1C1C1C"/>
</g>
<defs>
<clipPath id="clip0_3275_366">
<rect width="82.3636" height="24" fill="white" transform="translate(0 6.5)"/>
</clipPath>
</defs>
</svg>
