<svg width="122" height="25" viewBox="0 0 122 25" fill="none" xmlns="http://www.w3.org/2000/svg">
<path d="M4.58517 9.43248L9.0822 9.42233L8.90396 10.9308C11.6549 9.87946 14.6841 9.03984 17.5267 9.03065C20.3693 9.02146 22.3276 9.69488 23.0884 11.2243C26.1198 10.0325 29.5604 9.00524 32.7641 8.9981C37.5894 8.9904 39.6479 10.8689 38.1882 15.4449L35.7617 23.065L30.6344 23.0765L32.7827 16.314C33.4525 14.2126 32.416 13.2213 29.7309 13.222C27.8861 13.2253 25.8035 13.6359 23.278 14.3388C23.1971 14.6919 23.1032 15.0648 22.9704 15.4707L20.5439 23.0908L15.4166 23.1023L17.5649 16.3398C18.2347 14.2384 17.1983 13.2471 14.5131 13.2478C12.6683 13.2511 10.6057 13.6875 8.10653 14.3901L5.33269 23.1165L0.205421 23.128L4.58517 9.43248Z" fill="#1C1C1C"/>
<path d="M67.8237 13.3755L64.8694 13.3795L66.171 9.28798L69.2632 9.28222L71.287 5.72292L75.4099 5.71741L74.2788 9.27215L85.0717 9.2491L83.7701 13.3406L72.9772 13.3637L72.1367 16.0019C71.3786 18.3979 72.1354 19.0667 75.3917 19.0654C78.0242 19.0588 80.1729 18.68 82.3343 18.2685L82.0298 22.302C79.66 22.8466 76.5677 23.3674 73.5609 23.3722C67.6787 23.3864 65.2141 21.5847 66.8126 16.5505L67.8236 13.369L67.8237 13.3755Z" fill="#1C1C1C"/>
<path d="M104.905 18.6011L104.773 22.2608C101.991 22.9148 97.7415 23.3262 94.1898 23.3311C86.3249 23.3439 83.5872 21.2261 85.2175 16.1067C86.835 11.0136 91.3582 8.88391 98.4681 8.86742C105.053 8.85745 108.829 10.5451 107.407 15.0163C107.205 15.6644 106.741 16.8764 106.575 17.2241L89.9258 17.2546C89.8484 18.9509 91.4615 19.3222 95.9388 19.3123C100.062 19.3067 103.181 18.8638 104.918 18.5944L104.905 18.6011ZM90.7269 14.6169L102.472 14.595C102.694 12.9491 101.563 12.2524 97.1972 12.2609C93.4026 12.2688 91.7027 12.8377 90.7269 14.6169Z" fill="#1C1C1C"/>
<path d="M59.344 9.32569C57.411 9.15494 55.2429 9.08045 52.8397 9.09886C50.7452 9.1149 48.8326 9.34885 47.0986 9.8041C45.3612 10.2628 43.8722 11.013 42.6352 12.0549C41.3982 13.1035 40.4624 14.5412 39.8418 16.3712C39.2685 18.0389 39.1539 19.3825 39.4912 20.3988C39.8249 21.4118 40.5346 22.1452 41.6303 22.5856C42.7192 23.0293 44.0873 23.2449 45.7276 23.2323C47.1112 23.2217 48.5077 23.0727 49.9101 22.7887C51.3159 22.5013 52.6899 22.1365 54.0286 21.6944C54.6305 21.4941 55.1663 21.2639 55.7369 21.0504L55.4874 22.891L60.0233 22.8563L64.4464 9.9074L64.4325 9.9075L64.4566 9.88033C62.9812 9.67908 61.2769 9.49307 59.3474 9.31892L59.344 9.32569ZM52.2021 18.6719C50.7232 18.9295 49.3752 19.0613 48.1545 19.0707C46.6599 19.0821 45.6803 18.8703 45.2122 18.4319C44.7441 17.9902 44.6967 17.2314 45.0664 16.1456C45.3072 15.4352 45.6877 14.8655 46.1943 14.4365C46.7042 14.0042 47.3538 13.6854 48.1394 13.477C48.932 13.2685 49.8606 13.1568 50.939 13.1485C52.0661 13.1399 53.2454 13.1713 54.4805 13.2294C55.7156 13.2907 56.8953 13.3661 58.0265 13.4519C58.0439 13.4517 58.0612 13.4516 58.0786 13.4548L56.6438 17.6561C55.0864 18.0729 53.5943 18.4251 52.2021 18.6719Z" fill="#1C1C1C"/>
<path d="M121.591 7.38433L121.312 7.356L121.055 7.33475L120.564 7.29226C119.379 7.1931 118.179 7.09394 116.994 6.9877C116.79 6.96646 116.677 7.02312 116.564 7.17185C115.922 8.03594 115.265 8.88585 114.616 9.74285C114.541 9.84201 114.458 9.94117 114.375 10.0332C114.292 10.1891 114.186 10.3378 114.012 10.4936C113.824 9.75702 113.635 9.06292 113.454 8.36174C113.31 7.85179 113.152 7.34892 113.024 6.83897C112.971 6.61232 112.858 6.499 112.631 6.41401C110.314 5.60659 108.004 4.77792 105.686 3.95633C105.619 3.928 105.52 3.94217 105.49 3.81468C106.102 3.79343 106.713 3.77218 107.317 3.75802C109.378 3.70136 111.438 3.65178 113.499 3.6022C113.673 3.6022 113.703 3.49596 113.756 3.40388C114.382 2.49731 115.001 1.58364 115.628 0.677066C115.658 0.63457 115.696 0.592074 115.764 0.5C115.9 0.932041 116.028 1.32159 116.149 1.70405C116.428 2.59646 116.715 3.48179 116.987 4.37421C117.039 4.55127 117.13 4.67168 117.304 4.77083C118.028 5.19579 118.745 5.62783 119.47 6.05988L120.753 6.85313V6.86022L121.214 7.14352L121.342 7.22143L121.448 7.28517L121.591 7.37725V7.38433Z" fill="#1C1C1C"/>
</svg>
