<svg width="1920" height="620" viewBox="0 0 1920 620" fill="none" xmlns="http://www.w3.org/2000/svg">
<g clip-path="url(#clip0_4093_256)">
<path d="M172.087 75.4731L-29 142.743L-29 0L201.877 0L1963 0L1931.72 274L1810.57 128.796L1691.41 128.796L1523.09 83.2665L1462.02 59.8862L1358.25 114.44L1251.5 59.8862L1155.67 89.8293L1065.81 122.234L908.908 142.743L800.172 97.6228L668.597 97.6228L605.54 47.991L410.908 75.4731L262.948 128.796L172.087 75.4731Z" fill="#FFFDF8"/>
<path d="M330 176L400 64L535.5 46.5L426 176L509.5 306L379.5 403.5L458.5 521.5L400 620.5L439.5 530.5L339 403.5L439.5 306L330 176Z" fill="#FFFDF8"/>
<path d="M524.5 159.5L509.5 70L439.5 97.5L462.5 169L583.5 227L626 306L607 212.5L524.5 159.5Z" fill="#FFFDF8"/>
<path d="M321.5 349.5L430.5 316V325L400 376H343L286.5 428.5V523L266 428.5L321.5 349.5Z" fill="#FFFDF8"/>
<path d="M168 246L19.5 106.5L197 41.5L278.5 246L134.5 370L80 567.5L85.5 352L168 246Z" fill="#FFFDF8"/>
<path d="M199.5 351L259.5 256L199.5 273L167 351L199.5 419L189.5 497L218.5 419L199.5 351Z" fill="#FFFDF8"/>
<path d="M23 247L80 187L45.2597 125.031L96.5 111L122.5 199L54 247L43 405.5L23 247Z" fill="#FFFDF8"/>
<path d="M1736.5 170.5L1800 121L1877.5 150L1854.5 307.5L1653.5 349.5L1624.5 464L1618 318.5L1759.5 268L1736.5 170.5Z" fill="#FFFDF8"/>
<path d="M1679.5 221.5L1694.5 122L1655 93.5L1571.5 122L1504 310.5L1614.5 505L1544.5 310.5L1614.5 251V198.5L1679.5 221.5Z" fill="#FFFDF8"/>
<path d="M1636.5 221.5L1604 256L1548.5 304L1636.5 252L1660.5 259L1636.5 221.5Z" fill="#FFFDF8"/>
<path d="M1747.59 364.271L1839.19 298L1729.96 332.266L1704.58 373.535L1762.44 407.104L1729.05 463.397L1787.86 401.63L1747.59 364.271Z" fill="#FFFDF8"/>
<path d="M723 191L639.5 58.5H863.5L879.5 191L733 345.5L791 563L657 345.5L723 191Z" fill="#FFFDF8"/>
<path d="M684.5 419L668 352L718 395L708.5 445.5L668 510.5L609 478L545 531L600.5 455.5L658 478L684.5 419Z" fill="#FFFDF8"/>
<path d="M824 340V279.5L871 193.737L760.5 269L785.5 340L836 387L801.5 460L863 387L824 340Z" fill="#FFFDF8"/>
<path d="M936.5 321.5C957.5 254.167 1001 118.4 1007 114L1167 70L1018.5 310L1050.5 384L1149.5 447L1018.5 424L936.5 321.5Z" fill="#FFFDF8"/>
<path d="M1145.5 220.5V95.5L1097 143.5L1114.5 214.5L1097 256.5L1050.5 289L1107 271.5L1145.5 220.5Z" fill="#FFFDF8"/>
<path d="M954 390L942 323L982 333V400L942 441.5V496L920.5 441.5L954 390Z" fill="#FFFDF8"/>
<path d="M1239.5 234.5L1203 56.5L1198.5 49.5L1402.5 56.5L1356 208.5L1446.5 328L1268.5 511.5L1363.5 328L1239.5 234.5Z" fill="#FFFDF8"/>
<path d="M1295.5 293L1245.5 235L1345.5 293L1335.5 357L1263.5 382L1253.5 434L1239.5 375L1307 335L1295.5 293Z" fill="#FFFDF8"/>
<path d="M65.5 284L51.5 254L45 268L61 284L58 303.5L65.5 284Z" fill="#FFFDF8"/>
<path d="M136 420.5L129 380L121 395L129 420.5L121 447.5L136 420.5Z" fill="#FFFDF8"/>
<path d="M117 277.5L159.5 259L147 282.5H122.5L105 302.5L117 277.5Z" fill="#FFFDF8"/>
<path d="M272.5 179.5L237 146.5L241 173L266 182.5L274.5 209.5L272.5 179.5Z" fill="#FFFDF8"/>
<path d="M221 387.5L201.5 365.5L206 382.5L216 389.5L224.5 407L221 387.5Z" fill="#FFFDF8"/>
<path d="M347.5 213C344.333 205 338 187.6 338 182L367.5 197L361.5 222.5L334.5 239.5L323 262L326 236L347.5 213Z" fill="#FFFDF8"/>
<path d="M519 206L486 176.5L532 191L541.5 214V245L562.5 264L532 245L519 206Z" fill="#FFFDF8"/>
<path d="M454 364.5L493 314L438 341V364.5L435 387L454 408.5L447 385L454 364.5Z" fill="#FFFDF8"/>
<path d="M581.5 91.5L539 50.5L602 24.5L618.5 88.5L610.5 119L644.5 127.5L653.5 217.5L631 143.5L581.5 136.5V91.5Z" fill="#FFFDF8"/>
<path d="M638 502.5L663.5 506.5L654 489L630.5 492.5L615.5 506.5L593 502.5L615.5 514.5L638 502.5Z" fill="#FFFDF8"/>
<path d="M664 266L722 204.5V248.5L677.5 266L653 312.5L664 266Z" fill="#FFFDF8"/>
<path d="M912 226.5L996.5 157.5L979.5 239H950L935 294L895 317V365L880.5 317L912 285V226.5Z" fill="#FFFDF8"/>
<path d="M1074 443.5L1028.5 422.5L1095 432.5L1108.5 453.5L1142.5 464H1101L1074 443.5Z" fill="#FFFDF8"/>
<path d="M1130.5 265.5L1139.5 223.5L1092 271.5L1102.5 278L1121 327.5L1102.5 358.5L1064.5 346.5L1107.5 369.5L1139.5 333L1130.5 265.5Z" fill="#FFFDF8"/>
<path d="M1209 184.5L1217 87.5L1251.5 118.5L1227.5 189.5L1203.5 249.5L1235.5 321L1191.5 249.5L1209 184.5Z" fill="#FFFDF8"/>
<path d="M1465.5 136C1478.33 112.667 1504.9 65.7 1508.5 64.5L1396.5 42.5L1407.5 129.5L1457 206.5V277L1483.5 206.5L1465.5 136Z" fill="#FFFDF8"/>
<path d="M1491 120.5L1496.5 82L1460 131.5L1502 142.5L1491 167L1506 195.5V167L1528.5 142.5L1491 120.5Z" fill="#FFFDF8"/>
<path d="M1402.5 423.5L1436.5 335.5L1402.5 356.5L1387.5 414L1343.5 469.5L1402.5 423.5Z" fill="#FFFDF8"/>
<path d="M1521 381.5L1510 319L1545.5 362L1539 398.5L1515.5 425L1526.5 458.5L1501 425L1521 381.5Z" fill="#FFFDF8"/>
<path d="M1729.5 396L1708.5 373.5L1737.5 386V400L1718.5 410L1729.5 396Z" fill="#FFFDF8"/>
<path d="M1889 323.5L1866.5 207.5L1802.5 304L1825 323.5L1842.5 393.5L1875 424.5L1849 467.5L1902.5 427L1877.5 393.5L1889 323.5Z" fill="#FFFDF8"/>
</g>
<defs>
<clipPath id="clip0_4093_256">
<rect width="1920" height="620" fill="white"/>
</clipPath>
</defs>
</svg>
